%
M48
M72
T01C0.0200
T02C0.0236
T03C0.0394
T04C0.0400
%
T01
X30600Y25650
X28800Y27050
T02
X23950Y21900
X25750Y21800
X29200Y24450
X29900Y25550
X28600Y25950
X31450Y27500
X32000Y26350
X32700Y29150
X31800Y30550
X33000Y30650
X32600Y33150
X31900Y33150
X31100Y33150
X30400Y33150
X29700Y32950
X29700Y32450
X28800Y32650
X28400Y33050
X28400Y31550
X29550Y29250
X29675Y28600
X23800Y28325
X23800Y25225
X23800Y31825
X24200Y34950
X30400Y33950
X31100Y33950
X31900Y33950
X32600Y33950
X34600Y34950
T03
X27893Y33862
X27893Y32287
X27893Y30712
X27893Y29137
X27893Y27563
X27893Y25988
X27893Y24413
X27893Y22838
X24507Y22838
X24507Y24413
X24507Y25988
X24507Y27563
X24507Y29137
X24507Y30712
X24507Y32287
X24507Y33862
T04
X25700Y33850
X25700Y32850
X26700Y32850
X26700Y33850
X26700Y31850
X26700Y30850
X25700Y30850
X25700Y31850
X25700Y29850
X25700Y28850
X25700Y27850
X26700Y27850
X26700Y28850
X26700Y29850
X26700Y26850
X26700Y25850
X25700Y25850
X25700Y26850
X25700Y24850
X25700Y23850
X25700Y22850
X26700Y22850
X26700Y23850
X26700Y24850
X33700Y24850
X33700Y23850
X33700Y22850
X34700Y22850
X34700Y23850
X34700Y24850
X34700Y25850
X34700Y26850
X33700Y26850
X33700Y25850
X33700Y27850
X33700Y28850
X33700Y29850
X34700Y29850
X34700Y28850
X34700Y27850
X34700Y30850
X34700Y31850
X33700Y31850
X33700Y30850
X33700Y32850
X33700Y33850
X34700Y33850
X34700Y32850
M30
