G75*
%MOIN*%
%OFA0B0*%
%FSLAX25Y25*%
%IPPOS*%
%LPD*%
%AMOC8*
5,1,8,0,0,1.08239X$1,22.5*
%
%ADD10C,0.00000*%
D10*
X0243102Y0230626D02*
X0243102Y0236138D01*
X0243104Y0236225D01*
X0243110Y0236312D01*
X0243119Y0236399D01*
X0243133Y0236485D01*
X0243150Y0236570D01*
X0243171Y0236655D01*
X0243196Y0236738D01*
X0243224Y0236821D01*
X0243256Y0236902D01*
X0243292Y0236981D01*
X0243331Y0237059D01*
X0243373Y0237135D01*
X0243419Y0237209D01*
X0243468Y0237281D01*
X0243520Y0237351D01*
X0243575Y0237418D01*
X0243633Y0237483D01*
X0243694Y0237546D01*
X0243758Y0237605D01*
X0243824Y0237662D01*
X0243893Y0237715D01*
X0243964Y0237766D01*
X0244037Y0237813D01*
X0244112Y0237858D01*
X0244189Y0237898D01*
X0244267Y0237936D01*
X0244348Y0237969D01*
X0244429Y0238000D01*
X0244512Y0238026D01*
X0244597Y0238049D01*
X0244682Y0238068D01*
X0244767Y0238083D01*
X0244854Y0238095D01*
X0244940Y0238103D01*
X0245027Y0238107D01*
X0245115Y0238107D01*
X0245202Y0238103D01*
X0245288Y0238095D01*
X0245375Y0238083D01*
X0245460Y0238068D01*
X0245545Y0238049D01*
X0245630Y0238026D01*
X0245713Y0238000D01*
X0245794Y0237969D01*
X0245875Y0237936D01*
X0245953Y0237898D01*
X0246030Y0237858D01*
X0246105Y0237813D01*
X0246178Y0237766D01*
X0246249Y0237715D01*
X0246318Y0237662D01*
X0246384Y0237605D01*
X0246448Y0237546D01*
X0246509Y0237483D01*
X0246567Y0237418D01*
X0246622Y0237351D01*
X0246674Y0237281D01*
X0246723Y0237209D01*
X0246769Y0237135D01*
X0246811Y0237059D01*
X0246850Y0236981D01*
X0246886Y0236902D01*
X0246918Y0236821D01*
X0246946Y0236738D01*
X0246971Y0236655D01*
X0246992Y0236570D01*
X0247009Y0236485D01*
X0247023Y0236399D01*
X0247032Y0236312D01*
X0247038Y0236225D01*
X0247040Y0236138D01*
X0247039Y0236138D02*
X0247039Y0230626D01*
X0247040Y0230626D02*
X0247038Y0230539D01*
X0247032Y0230452D01*
X0247023Y0230365D01*
X0247009Y0230279D01*
X0246992Y0230194D01*
X0246971Y0230109D01*
X0246946Y0230026D01*
X0246918Y0229943D01*
X0246886Y0229862D01*
X0246850Y0229783D01*
X0246811Y0229705D01*
X0246769Y0229629D01*
X0246723Y0229555D01*
X0246674Y0229483D01*
X0246622Y0229413D01*
X0246567Y0229346D01*
X0246509Y0229281D01*
X0246448Y0229218D01*
X0246384Y0229159D01*
X0246318Y0229102D01*
X0246249Y0229049D01*
X0246178Y0228998D01*
X0246105Y0228951D01*
X0246030Y0228906D01*
X0245953Y0228866D01*
X0245875Y0228828D01*
X0245794Y0228795D01*
X0245713Y0228764D01*
X0245630Y0228738D01*
X0245545Y0228715D01*
X0245460Y0228696D01*
X0245375Y0228681D01*
X0245288Y0228669D01*
X0245202Y0228661D01*
X0245115Y0228657D01*
X0245027Y0228657D01*
X0244940Y0228661D01*
X0244854Y0228669D01*
X0244767Y0228681D01*
X0244682Y0228696D01*
X0244597Y0228715D01*
X0244512Y0228738D01*
X0244429Y0228764D01*
X0244348Y0228795D01*
X0244267Y0228828D01*
X0244189Y0228866D01*
X0244112Y0228906D01*
X0244037Y0228951D01*
X0243964Y0228998D01*
X0243893Y0229049D01*
X0243824Y0229102D01*
X0243758Y0229159D01*
X0243694Y0229218D01*
X0243633Y0229281D01*
X0243575Y0229346D01*
X0243520Y0229413D01*
X0243468Y0229483D01*
X0243419Y0229555D01*
X0243373Y0229629D01*
X0243331Y0229705D01*
X0243292Y0229783D01*
X0243256Y0229862D01*
X0243224Y0229943D01*
X0243196Y0230026D01*
X0243171Y0230109D01*
X0243150Y0230194D01*
X0243133Y0230279D01*
X0243119Y0230365D01*
X0243110Y0230452D01*
X0243104Y0230539D01*
X0243102Y0230626D01*
X0243102Y0246374D02*
X0243102Y0251886D01*
X0243104Y0251973D01*
X0243110Y0252060D01*
X0243119Y0252147D01*
X0243133Y0252233D01*
X0243150Y0252318D01*
X0243171Y0252403D01*
X0243196Y0252486D01*
X0243224Y0252569D01*
X0243256Y0252650D01*
X0243292Y0252729D01*
X0243331Y0252807D01*
X0243373Y0252883D01*
X0243419Y0252957D01*
X0243468Y0253029D01*
X0243520Y0253099D01*
X0243575Y0253166D01*
X0243633Y0253231D01*
X0243694Y0253294D01*
X0243758Y0253353D01*
X0243824Y0253410D01*
X0243893Y0253463D01*
X0243964Y0253514D01*
X0244037Y0253561D01*
X0244112Y0253606D01*
X0244189Y0253646D01*
X0244267Y0253684D01*
X0244348Y0253717D01*
X0244429Y0253748D01*
X0244512Y0253774D01*
X0244597Y0253797D01*
X0244682Y0253816D01*
X0244767Y0253831D01*
X0244854Y0253843D01*
X0244940Y0253851D01*
X0245027Y0253855D01*
X0245115Y0253855D01*
X0245202Y0253851D01*
X0245288Y0253843D01*
X0245375Y0253831D01*
X0245460Y0253816D01*
X0245545Y0253797D01*
X0245630Y0253774D01*
X0245713Y0253748D01*
X0245794Y0253717D01*
X0245875Y0253684D01*
X0245953Y0253646D01*
X0246030Y0253606D01*
X0246105Y0253561D01*
X0246178Y0253514D01*
X0246249Y0253463D01*
X0246318Y0253410D01*
X0246384Y0253353D01*
X0246448Y0253294D01*
X0246509Y0253231D01*
X0246567Y0253166D01*
X0246622Y0253099D01*
X0246674Y0253029D01*
X0246723Y0252957D01*
X0246769Y0252883D01*
X0246811Y0252807D01*
X0246850Y0252729D01*
X0246886Y0252650D01*
X0246918Y0252569D01*
X0246946Y0252486D01*
X0246971Y0252403D01*
X0246992Y0252318D01*
X0247009Y0252233D01*
X0247023Y0252147D01*
X0247032Y0252060D01*
X0247038Y0251973D01*
X0247040Y0251886D01*
X0247039Y0251886D02*
X0247039Y0246374D01*
X0247040Y0246374D02*
X0247038Y0246287D01*
X0247032Y0246200D01*
X0247023Y0246113D01*
X0247009Y0246027D01*
X0246992Y0245942D01*
X0246971Y0245857D01*
X0246946Y0245774D01*
X0246918Y0245691D01*
X0246886Y0245610D01*
X0246850Y0245531D01*
X0246811Y0245453D01*
X0246769Y0245377D01*
X0246723Y0245303D01*
X0246674Y0245231D01*
X0246622Y0245161D01*
X0246567Y0245094D01*
X0246509Y0245029D01*
X0246448Y0244966D01*
X0246384Y0244907D01*
X0246318Y0244850D01*
X0246249Y0244797D01*
X0246178Y0244746D01*
X0246105Y0244699D01*
X0246030Y0244654D01*
X0245953Y0244614D01*
X0245875Y0244576D01*
X0245794Y0244543D01*
X0245713Y0244512D01*
X0245630Y0244486D01*
X0245545Y0244463D01*
X0245460Y0244444D01*
X0245375Y0244429D01*
X0245288Y0244417D01*
X0245202Y0244409D01*
X0245115Y0244405D01*
X0245027Y0244405D01*
X0244940Y0244409D01*
X0244854Y0244417D01*
X0244767Y0244429D01*
X0244682Y0244444D01*
X0244597Y0244463D01*
X0244512Y0244486D01*
X0244429Y0244512D01*
X0244348Y0244543D01*
X0244267Y0244576D01*
X0244189Y0244614D01*
X0244112Y0244654D01*
X0244037Y0244699D01*
X0243964Y0244746D01*
X0243893Y0244797D01*
X0243824Y0244850D01*
X0243758Y0244907D01*
X0243694Y0244966D01*
X0243633Y0245029D01*
X0243575Y0245094D01*
X0243520Y0245161D01*
X0243468Y0245231D01*
X0243419Y0245303D01*
X0243373Y0245377D01*
X0243331Y0245453D01*
X0243292Y0245531D01*
X0243256Y0245610D01*
X0243224Y0245691D01*
X0243196Y0245774D01*
X0243171Y0245857D01*
X0243150Y0245942D01*
X0243133Y0246027D01*
X0243119Y0246113D01*
X0243110Y0246200D01*
X0243104Y0246287D01*
X0243102Y0246374D01*
X0243102Y0262122D02*
X0243102Y0267634D01*
X0243104Y0267721D01*
X0243110Y0267808D01*
X0243119Y0267895D01*
X0243133Y0267981D01*
X0243150Y0268066D01*
X0243171Y0268151D01*
X0243196Y0268234D01*
X0243224Y0268317D01*
X0243256Y0268398D01*
X0243292Y0268477D01*
X0243331Y0268555D01*
X0243373Y0268631D01*
X0243419Y0268705D01*
X0243468Y0268777D01*
X0243520Y0268847D01*
X0243575Y0268914D01*
X0243633Y0268979D01*
X0243694Y0269042D01*
X0243758Y0269101D01*
X0243824Y0269158D01*
X0243893Y0269211D01*
X0243964Y0269262D01*
X0244037Y0269309D01*
X0244112Y0269354D01*
X0244189Y0269394D01*
X0244267Y0269432D01*
X0244348Y0269465D01*
X0244429Y0269496D01*
X0244512Y0269522D01*
X0244597Y0269545D01*
X0244682Y0269564D01*
X0244767Y0269579D01*
X0244854Y0269591D01*
X0244940Y0269599D01*
X0245027Y0269603D01*
X0245115Y0269603D01*
X0245202Y0269599D01*
X0245288Y0269591D01*
X0245375Y0269579D01*
X0245460Y0269564D01*
X0245545Y0269545D01*
X0245630Y0269522D01*
X0245713Y0269496D01*
X0245794Y0269465D01*
X0245875Y0269432D01*
X0245953Y0269394D01*
X0246030Y0269354D01*
X0246105Y0269309D01*
X0246178Y0269262D01*
X0246249Y0269211D01*
X0246318Y0269158D01*
X0246384Y0269101D01*
X0246448Y0269042D01*
X0246509Y0268979D01*
X0246567Y0268914D01*
X0246622Y0268847D01*
X0246674Y0268777D01*
X0246723Y0268705D01*
X0246769Y0268631D01*
X0246811Y0268555D01*
X0246850Y0268477D01*
X0246886Y0268398D01*
X0246918Y0268317D01*
X0246946Y0268234D01*
X0246971Y0268151D01*
X0246992Y0268066D01*
X0247009Y0267981D01*
X0247023Y0267895D01*
X0247032Y0267808D01*
X0247038Y0267721D01*
X0247040Y0267634D01*
X0247039Y0267634D02*
X0247039Y0262122D01*
X0247040Y0262122D02*
X0247038Y0262035D01*
X0247032Y0261948D01*
X0247023Y0261861D01*
X0247009Y0261775D01*
X0246992Y0261690D01*
X0246971Y0261605D01*
X0246946Y0261522D01*
X0246918Y0261439D01*
X0246886Y0261358D01*
X0246850Y0261279D01*
X0246811Y0261201D01*
X0246769Y0261125D01*
X0246723Y0261051D01*
X0246674Y0260979D01*
X0246622Y0260909D01*
X0246567Y0260842D01*
X0246509Y0260777D01*
X0246448Y0260714D01*
X0246384Y0260655D01*
X0246318Y0260598D01*
X0246249Y0260545D01*
X0246178Y0260494D01*
X0246105Y0260447D01*
X0246030Y0260402D01*
X0245953Y0260362D01*
X0245875Y0260324D01*
X0245794Y0260291D01*
X0245713Y0260260D01*
X0245630Y0260234D01*
X0245545Y0260211D01*
X0245460Y0260192D01*
X0245375Y0260177D01*
X0245288Y0260165D01*
X0245202Y0260157D01*
X0245115Y0260153D01*
X0245027Y0260153D01*
X0244940Y0260157D01*
X0244854Y0260165D01*
X0244767Y0260177D01*
X0244682Y0260192D01*
X0244597Y0260211D01*
X0244512Y0260234D01*
X0244429Y0260260D01*
X0244348Y0260291D01*
X0244267Y0260324D01*
X0244189Y0260362D01*
X0244112Y0260402D01*
X0244037Y0260447D01*
X0243964Y0260494D01*
X0243893Y0260545D01*
X0243824Y0260598D01*
X0243758Y0260655D01*
X0243694Y0260714D01*
X0243633Y0260777D01*
X0243575Y0260842D01*
X0243520Y0260909D01*
X0243468Y0260979D01*
X0243419Y0261051D01*
X0243373Y0261125D01*
X0243331Y0261201D01*
X0243292Y0261279D01*
X0243256Y0261358D01*
X0243224Y0261439D01*
X0243196Y0261522D01*
X0243171Y0261605D01*
X0243150Y0261690D01*
X0243133Y0261775D01*
X0243119Y0261861D01*
X0243110Y0261948D01*
X0243104Y0262035D01*
X0243102Y0262122D01*
X0243102Y0277870D02*
X0243102Y0283382D01*
X0243104Y0283469D01*
X0243110Y0283556D01*
X0243119Y0283643D01*
X0243133Y0283729D01*
X0243150Y0283814D01*
X0243171Y0283899D01*
X0243196Y0283982D01*
X0243224Y0284065D01*
X0243256Y0284146D01*
X0243292Y0284225D01*
X0243331Y0284303D01*
X0243373Y0284379D01*
X0243419Y0284453D01*
X0243468Y0284525D01*
X0243520Y0284595D01*
X0243575Y0284662D01*
X0243633Y0284727D01*
X0243694Y0284790D01*
X0243758Y0284849D01*
X0243824Y0284906D01*
X0243893Y0284959D01*
X0243964Y0285010D01*
X0244037Y0285057D01*
X0244112Y0285102D01*
X0244189Y0285142D01*
X0244267Y0285180D01*
X0244348Y0285213D01*
X0244429Y0285244D01*
X0244512Y0285270D01*
X0244597Y0285293D01*
X0244682Y0285312D01*
X0244767Y0285327D01*
X0244854Y0285339D01*
X0244940Y0285347D01*
X0245027Y0285351D01*
X0245115Y0285351D01*
X0245202Y0285347D01*
X0245288Y0285339D01*
X0245375Y0285327D01*
X0245460Y0285312D01*
X0245545Y0285293D01*
X0245630Y0285270D01*
X0245713Y0285244D01*
X0245794Y0285213D01*
X0245875Y0285180D01*
X0245953Y0285142D01*
X0246030Y0285102D01*
X0246105Y0285057D01*
X0246178Y0285010D01*
X0246249Y0284959D01*
X0246318Y0284906D01*
X0246384Y0284849D01*
X0246448Y0284790D01*
X0246509Y0284727D01*
X0246567Y0284662D01*
X0246622Y0284595D01*
X0246674Y0284525D01*
X0246723Y0284453D01*
X0246769Y0284379D01*
X0246811Y0284303D01*
X0246850Y0284225D01*
X0246886Y0284146D01*
X0246918Y0284065D01*
X0246946Y0283982D01*
X0246971Y0283899D01*
X0246992Y0283814D01*
X0247009Y0283729D01*
X0247023Y0283643D01*
X0247032Y0283556D01*
X0247038Y0283469D01*
X0247040Y0283382D01*
X0247039Y0283382D02*
X0247039Y0277870D01*
X0247040Y0277870D02*
X0247038Y0277783D01*
X0247032Y0277696D01*
X0247023Y0277609D01*
X0247009Y0277523D01*
X0246992Y0277438D01*
X0246971Y0277353D01*
X0246946Y0277270D01*
X0246918Y0277187D01*
X0246886Y0277106D01*
X0246850Y0277027D01*
X0246811Y0276949D01*
X0246769Y0276873D01*
X0246723Y0276799D01*
X0246674Y0276727D01*
X0246622Y0276657D01*
X0246567Y0276590D01*
X0246509Y0276525D01*
X0246448Y0276462D01*
X0246384Y0276403D01*
X0246318Y0276346D01*
X0246249Y0276293D01*
X0246178Y0276242D01*
X0246105Y0276195D01*
X0246030Y0276150D01*
X0245953Y0276110D01*
X0245875Y0276072D01*
X0245794Y0276039D01*
X0245713Y0276008D01*
X0245630Y0275982D01*
X0245545Y0275959D01*
X0245460Y0275940D01*
X0245375Y0275925D01*
X0245288Y0275913D01*
X0245202Y0275905D01*
X0245115Y0275901D01*
X0245027Y0275901D01*
X0244940Y0275905D01*
X0244854Y0275913D01*
X0244767Y0275925D01*
X0244682Y0275940D01*
X0244597Y0275959D01*
X0244512Y0275982D01*
X0244429Y0276008D01*
X0244348Y0276039D01*
X0244267Y0276072D01*
X0244189Y0276110D01*
X0244112Y0276150D01*
X0244037Y0276195D01*
X0243964Y0276242D01*
X0243893Y0276293D01*
X0243824Y0276346D01*
X0243758Y0276403D01*
X0243694Y0276462D01*
X0243633Y0276525D01*
X0243575Y0276590D01*
X0243520Y0276657D01*
X0243468Y0276727D01*
X0243419Y0276799D01*
X0243373Y0276873D01*
X0243331Y0276949D01*
X0243292Y0277027D01*
X0243256Y0277106D01*
X0243224Y0277187D01*
X0243196Y0277270D01*
X0243171Y0277353D01*
X0243150Y0277438D01*
X0243133Y0277523D01*
X0243119Y0277609D01*
X0243110Y0277696D01*
X0243104Y0277783D01*
X0243102Y0277870D01*
X0243102Y0293618D02*
X0243102Y0299130D01*
X0243104Y0299217D01*
X0243110Y0299304D01*
X0243119Y0299391D01*
X0243133Y0299477D01*
X0243150Y0299562D01*
X0243171Y0299647D01*
X0243196Y0299730D01*
X0243224Y0299813D01*
X0243256Y0299894D01*
X0243292Y0299973D01*
X0243331Y0300051D01*
X0243373Y0300127D01*
X0243419Y0300201D01*
X0243468Y0300273D01*
X0243520Y0300343D01*
X0243575Y0300410D01*
X0243633Y0300475D01*
X0243694Y0300538D01*
X0243758Y0300597D01*
X0243824Y0300654D01*
X0243893Y0300707D01*
X0243964Y0300758D01*
X0244037Y0300805D01*
X0244112Y0300850D01*
X0244189Y0300890D01*
X0244267Y0300928D01*
X0244348Y0300961D01*
X0244429Y0300992D01*
X0244512Y0301018D01*
X0244597Y0301041D01*
X0244682Y0301060D01*
X0244767Y0301075D01*
X0244854Y0301087D01*
X0244940Y0301095D01*
X0245027Y0301099D01*
X0245115Y0301099D01*
X0245202Y0301095D01*
X0245288Y0301087D01*
X0245375Y0301075D01*
X0245460Y0301060D01*
X0245545Y0301041D01*
X0245630Y0301018D01*
X0245713Y0300992D01*
X0245794Y0300961D01*
X0245875Y0300928D01*
X0245953Y0300890D01*
X0246030Y0300850D01*
X0246105Y0300805D01*
X0246178Y0300758D01*
X0246249Y0300707D01*
X0246318Y0300654D01*
X0246384Y0300597D01*
X0246448Y0300538D01*
X0246509Y0300475D01*
X0246567Y0300410D01*
X0246622Y0300343D01*
X0246674Y0300273D01*
X0246723Y0300201D01*
X0246769Y0300127D01*
X0246811Y0300051D01*
X0246850Y0299973D01*
X0246886Y0299894D01*
X0246918Y0299813D01*
X0246946Y0299730D01*
X0246971Y0299647D01*
X0246992Y0299562D01*
X0247009Y0299477D01*
X0247023Y0299391D01*
X0247032Y0299304D01*
X0247038Y0299217D01*
X0247040Y0299130D01*
X0247039Y0299130D02*
X0247039Y0293618D01*
X0247040Y0293618D02*
X0247038Y0293531D01*
X0247032Y0293444D01*
X0247023Y0293357D01*
X0247009Y0293271D01*
X0246992Y0293186D01*
X0246971Y0293101D01*
X0246946Y0293018D01*
X0246918Y0292935D01*
X0246886Y0292854D01*
X0246850Y0292775D01*
X0246811Y0292697D01*
X0246769Y0292621D01*
X0246723Y0292547D01*
X0246674Y0292475D01*
X0246622Y0292405D01*
X0246567Y0292338D01*
X0246509Y0292273D01*
X0246448Y0292210D01*
X0246384Y0292151D01*
X0246318Y0292094D01*
X0246249Y0292041D01*
X0246178Y0291990D01*
X0246105Y0291943D01*
X0246030Y0291898D01*
X0245953Y0291858D01*
X0245875Y0291820D01*
X0245794Y0291787D01*
X0245713Y0291756D01*
X0245630Y0291730D01*
X0245545Y0291707D01*
X0245460Y0291688D01*
X0245375Y0291673D01*
X0245288Y0291661D01*
X0245202Y0291653D01*
X0245115Y0291649D01*
X0245027Y0291649D01*
X0244940Y0291653D01*
X0244854Y0291661D01*
X0244767Y0291673D01*
X0244682Y0291688D01*
X0244597Y0291707D01*
X0244512Y0291730D01*
X0244429Y0291756D01*
X0244348Y0291787D01*
X0244267Y0291820D01*
X0244189Y0291858D01*
X0244112Y0291898D01*
X0244037Y0291943D01*
X0243964Y0291990D01*
X0243893Y0292041D01*
X0243824Y0292094D01*
X0243758Y0292151D01*
X0243694Y0292210D01*
X0243633Y0292273D01*
X0243575Y0292338D01*
X0243520Y0292405D01*
X0243468Y0292475D01*
X0243419Y0292547D01*
X0243373Y0292621D01*
X0243331Y0292697D01*
X0243292Y0292775D01*
X0243256Y0292854D01*
X0243224Y0292935D01*
X0243196Y0293018D01*
X0243171Y0293101D01*
X0243150Y0293186D01*
X0243133Y0293271D01*
X0243119Y0293357D01*
X0243110Y0293444D01*
X0243104Y0293531D01*
X0243102Y0293618D01*
X0243102Y0309366D02*
X0243102Y0314878D01*
X0243104Y0314965D01*
X0243110Y0315052D01*
X0243119Y0315139D01*
X0243133Y0315225D01*
X0243150Y0315310D01*
X0243171Y0315395D01*
X0243196Y0315478D01*
X0243224Y0315561D01*
X0243256Y0315642D01*
X0243292Y0315721D01*
X0243331Y0315799D01*
X0243373Y0315875D01*
X0243419Y0315949D01*
X0243468Y0316021D01*
X0243520Y0316091D01*
X0243575Y0316158D01*
X0243633Y0316223D01*
X0243694Y0316286D01*
X0243758Y0316345D01*
X0243824Y0316402D01*
X0243893Y0316455D01*
X0243964Y0316506D01*
X0244037Y0316553D01*
X0244112Y0316598D01*
X0244189Y0316638D01*
X0244267Y0316676D01*
X0244348Y0316709D01*
X0244429Y0316740D01*
X0244512Y0316766D01*
X0244597Y0316789D01*
X0244682Y0316808D01*
X0244767Y0316823D01*
X0244854Y0316835D01*
X0244940Y0316843D01*
X0245027Y0316847D01*
X0245115Y0316847D01*
X0245202Y0316843D01*
X0245288Y0316835D01*
X0245375Y0316823D01*
X0245460Y0316808D01*
X0245545Y0316789D01*
X0245630Y0316766D01*
X0245713Y0316740D01*
X0245794Y0316709D01*
X0245875Y0316676D01*
X0245953Y0316638D01*
X0246030Y0316598D01*
X0246105Y0316553D01*
X0246178Y0316506D01*
X0246249Y0316455D01*
X0246318Y0316402D01*
X0246384Y0316345D01*
X0246448Y0316286D01*
X0246509Y0316223D01*
X0246567Y0316158D01*
X0246622Y0316091D01*
X0246674Y0316021D01*
X0246723Y0315949D01*
X0246769Y0315875D01*
X0246811Y0315799D01*
X0246850Y0315721D01*
X0246886Y0315642D01*
X0246918Y0315561D01*
X0246946Y0315478D01*
X0246971Y0315395D01*
X0246992Y0315310D01*
X0247009Y0315225D01*
X0247023Y0315139D01*
X0247032Y0315052D01*
X0247038Y0314965D01*
X0247040Y0314878D01*
X0247039Y0314878D02*
X0247039Y0309366D01*
X0247040Y0309366D02*
X0247038Y0309279D01*
X0247032Y0309192D01*
X0247023Y0309105D01*
X0247009Y0309019D01*
X0246992Y0308934D01*
X0246971Y0308849D01*
X0246946Y0308766D01*
X0246918Y0308683D01*
X0246886Y0308602D01*
X0246850Y0308523D01*
X0246811Y0308445D01*
X0246769Y0308369D01*
X0246723Y0308295D01*
X0246674Y0308223D01*
X0246622Y0308153D01*
X0246567Y0308086D01*
X0246509Y0308021D01*
X0246448Y0307958D01*
X0246384Y0307899D01*
X0246318Y0307842D01*
X0246249Y0307789D01*
X0246178Y0307738D01*
X0246105Y0307691D01*
X0246030Y0307646D01*
X0245953Y0307606D01*
X0245875Y0307568D01*
X0245794Y0307535D01*
X0245713Y0307504D01*
X0245630Y0307478D01*
X0245545Y0307455D01*
X0245460Y0307436D01*
X0245375Y0307421D01*
X0245288Y0307409D01*
X0245202Y0307401D01*
X0245115Y0307397D01*
X0245027Y0307397D01*
X0244940Y0307401D01*
X0244854Y0307409D01*
X0244767Y0307421D01*
X0244682Y0307436D01*
X0244597Y0307455D01*
X0244512Y0307478D01*
X0244429Y0307504D01*
X0244348Y0307535D01*
X0244267Y0307568D01*
X0244189Y0307606D01*
X0244112Y0307646D01*
X0244037Y0307691D01*
X0243964Y0307738D01*
X0243893Y0307789D01*
X0243824Y0307842D01*
X0243758Y0307899D01*
X0243694Y0307958D01*
X0243633Y0308021D01*
X0243575Y0308086D01*
X0243520Y0308153D01*
X0243468Y0308223D01*
X0243419Y0308295D01*
X0243373Y0308369D01*
X0243331Y0308445D01*
X0243292Y0308523D01*
X0243256Y0308602D01*
X0243224Y0308683D01*
X0243196Y0308766D01*
X0243171Y0308849D01*
X0243150Y0308934D01*
X0243133Y0309019D01*
X0243119Y0309105D01*
X0243110Y0309192D01*
X0243104Y0309279D01*
X0243102Y0309366D01*
X0243102Y0325114D02*
X0243102Y0330232D01*
X0243104Y0330319D01*
X0243110Y0330406D01*
X0243119Y0330493D01*
X0243133Y0330579D01*
X0243150Y0330664D01*
X0243171Y0330749D01*
X0243196Y0330832D01*
X0243224Y0330915D01*
X0243256Y0330996D01*
X0243292Y0331075D01*
X0243331Y0331153D01*
X0243373Y0331229D01*
X0243419Y0331303D01*
X0243468Y0331375D01*
X0243520Y0331445D01*
X0243575Y0331512D01*
X0243633Y0331577D01*
X0243694Y0331640D01*
X0243758Y0331699D01*
X0243824Y0331756D01*
X0243893Y0331809D01*
X0243964Y0331860D01*
X0244037Y0331907D01*
X0244112Y0331952D01*
X0244189Y0331992D01*
X0244267Y0332030D01*
X0244348Y0332063D01*
X0244429Y0332094D01*
X0244512Y0332120D01*
X0244597Y0332143D01*
X0244682Y0332162D01*
X0244767Y0332177D01*
X0244854Y0332189D01*
X0244940Y0332197D01*
X0245027Y0332201D01*
X0245115Y0332201D01*
X0245202Y0332197D01*
X0245288Y0332189D01*
X0245375Y0332177D01*
X0245460Y0332162D01*
X0245545Y0332143D01*
X0245630Y0332120D01*
X0245713Y0332094D01*
X0245794Y0332063D01*
X0245875Y0332030D01*
X0245953Y0331992D01*
X0246030Y0331952D01*
X0246105Y0331907D01*
X0246178Y0331860D01*
X0246249Y0331809D01*
X0246318Y0331756D01*
X0246384Y0331699D01*
X0246448Y0331640D01*
X0246509Y0331577D01*
X0246567Y0331512D01*
X0246622Y0331445D01*
X0246674Y0331375D01*
X0246723Y0331303D01*
X0246769Y0331229D01*
X0246811Y0331153D01*
X0246850Y0331075D01*
X0246886Y0330996D01*
X0246918Y0330915D01*
X0246946Y0330832D01*
X0246971Y0330749D01*
X0246992Y0330664D01*
X0247009Y0330579D01*
X0247023Y0330493D01*
X0247032Y0330406D01*
X0247038Y0330319D01*
X0247040Y0330232D01*
X0247039Y0330232D02*
X0247039Y0325114D01*
X0247040Y0325114D02*
X0247038Y0325027D01*
X0247032Y0324940D01*
X0247023Y0324853D01*
X0247009Y0324767D01*
X0246992Y0324682D01*
X0246971Y0324597D01*
X0246946Y0324514D01*
X0246918Y0324431D01*
X0246886Y0324350D01*
X0246850Y0324271D01*
X0246811Y0324193D01*
X0246769Y0324117D01*
X0246723Y0324043D01*
X0246674Y0323971D01*
X0246622Y0323901D01*
X0246567Y0323834D01*
X0246509Y0323769D01*
X0246448Y0323706D01*
X0246384Y0323647D01*
X0246318Y0323590D01*
X0246249Y0323537D01*
X0246178Y0323486D01*
X0246105Y0323439D01*
X0246030Y0323394D01*
X0245953Y0323354D01*
X0245875Y0323316D01*
X0245794Y0323283D01*
X0245713Y0323252D01*
X0245630Y0323226D01*
X0245545Y0323203D01*
X0245460Y0323184D01*
X0245375Y0323169D01*
X0245288Y0323157D01*
X0245202Y0323149D01*
X0245115Y0323145D01*
X0245027Y0323145D01*
X0244940Y0323149D01*
X0244854Y0323157D01*
X0244767Y0323169D01*
X0244682Y0323184D01*
X0244597Y0323203D01*
X0244512Y0323226D01*
X0244429Y0323252D01*
X0244348Y0323283D01*
X0244267Y0323316D01*
X0244189Y0323354D01*
X0244112Y0323394D01*
X0244037Y0323439D01*
X0243964Y0323486D01*
X0243893Y0323537D01*
X0243824Y0323590D01*
X0243758Y0323647D01*
X0243694Y0323706D01*
X0243633Y0323769D01*
X0243575Y0323834D01*
X0243520Y0323901D01*
X0243468Y0323971D01*
X0243419Y0324043D01*
X0243373Y0324117D01*
X0243331Y0324193D01*
X0243292Y0324271D01*
X0243256Y0324350D01*
X0243224Y0324431D01*
X0243196Y0324514D01*
X0243171Y0324597D01*
X0243150Y0324682D01*
X0243133Y0324767D01*
X0243119Y0324853D01*
X0243110Y0324940D01*
X0243104Y0325027D01*
X0243102Y0325114D01*
X0243102Y0340862D02*
X0243102Y0346374D01*
X0243104Y0346461D01*
X0243110Y0346548D01*
X0243119Y0346635D01*
X0243133Y0346721D01*
X0243150Y0346806D01*
X0243171Y0346891D01*
X0243196Y0346974D01*
X0243224Y0347057D01*
X0243256Y0347138D01*
X0243292Y0347217D01*
X0243331Y0347295D01*
X0243373Y0347371D01*
X0243419Y0347445D01*
X0243468Y0347517D01*
X0243520Y0347587D01*
X0243575Y0347654D01*
X0243633Y0347719D01*
X0243694Y0347782D01*
X0243758Y0347841D01*
X0243824Y0347898D01*
X0243893Y0347951D01*
X0243964Y0348002D01*
X0244037Y0348049D01*
X0244112Y0348094D01*
X0244189Y0348134D01*
X0244267Y0348172D01*
X0244348Y0348205D01*
X0244429Y0348236D01*
X0244512Y0348262D01*
X0244597Y0348285D01*
X0244682Y0348304D01*
X0244767Y0348319D01*
X0244854Y0348331D01*
X0244940Y0348339D01*
X0245027Y0348343D01*
X0245115Y0348343D01*
X0245202Y0348339D01*
X0245288Y0348331D01*
X0245375Y0348319D01*
X0245460Y0348304D01*
X0245545Y0348285D01*
X0245630Y0348262D01*
X0245713Y0348236D01*
X0245794Y0348205D01*
X0245875Y0348172D01*
X0245953Y0348134D01*
X0246030Y0348094D01*
X0246105Y0348049D01*
X0246178Y0348002D01*
X0246249Y0347951D01*
X0246318Y0347898D01*
X0246384Y0347841D01*
X0246448Y0347782D01*
X0246509Y0347719D01*
X0246567Y0347654D01*
X0246622Y0347587D01*
X0246674Y0347517D01*
X0246723Y0347445D01*
X0246769Y0347371D01*
X0246811Y0347295D01*
X0246850Y0347217D01*
X0246886Y0347138D01*
X0246918Y0347057D01*
X0246946Y0346974D01*
X0246971Y0346891D01*
X0246992Y0346806D01*
X0247009Y0346721D01*
X0247023Y0346635D01*
X0247032Y0346548D01*
X0247038Y0346461D01*
X0247040Y0346374D01*
X0247039Y0346374D02*
X0247039Y0340862D01*
X0247040Y0340862D02*
X0247038Y0340775D01*
X0247032Y0340688D01*
X0247023Y0340601D01*
X0247009Y0340515D01*
X0246992Y0340430D01*
X0246971Y0340345D01*
X0246946Y0340262D01*
X0246918Y0340179D01*
X0246886Y0340098D01*
X0246850Y0340019D01*
X0246811Y0339941D01*
X0246769Y0339865D01*
X0246723Y0339791D01*
X0246674Y0339719D01*
X0246622Y0339649D01*
X0246567Y0339582D01*
X0246509Y0339517D01*
X0246448Y0339454D01*
X0246384Y0339395D01*
X0246318Y0339338D01*
X0246249Y0339285D01*
X0246178Y0339234D01*
X0246105Y0339187D01*
X0246030Y0339142D01*
X0245953Y0339102D01*
X0245875Y0339064D01*
X0245794Y0339031D01*
X0245713Y0339000D01*
X0245630Y0338974D01*
X0245545Y0338951D01*
X0245460Y0338932D01*
X0245375Y0338917D01*
X0245288Y0338905D01*
X0245202Y0338897D01*
X0245115Y0338893D01*
X0245027Y0338893D01*
X0244940Y0338897D01*
X0244854Y0338905D01*
X0244767Y0338917D01*
X0244682Y0338932D01*
X0244597Y0338951D01*
X0244512Y0338974D01*
X0244429Y0339000D01*
X0244348Y0339031D01*
X0244267Y0339064D01*
X0244189Y0339102D01*
X0244112Y0339142D01*
X0244037Y0339187D01*
X0243964Y0339234D01*
X0243893Y0339285D01*
X0243824Y0339338D01*
X0243758Y0339395D01*
X0243694Y0339454D01*
X0243633Y0339517D01*
X0243575Y0339582D01*
X0243520Y0339649D01*
X0243468Y0339719D01*
X0243419Y0339791D01*
X0243373Y0339865D01*
X0243331Y0339941D01*
X0243292Y0340019D01*
X0243256Y0340098D01*
X0243224Y0340179D01*
X0243196Y0340262D01*
X0243171Y0340345D01*
X0243150Y0340430D01*
X0243133Y0340515D01*
X0243119Y0340601D01*
X0243110Y0340688D01*
X0243104Y0340775D01*
X0243102Y0340862D01*
X0276961Y0340862D02*
X0276961Y0346374D01*
X0276960Y0346374D02*
X0276962Y0346461D01*
X0276968Y0346548D01*
X0276977Y0346635D01*
X0276991Y0346721D01*
X0277008Y0346806D01*
X0277029Y0346891D01*
X0277054Y0346974D01*
X0277082Y0347057D01*
X0277114Y0347138D01*
X0277150Y0347217D01*
X0277189Y0347295D01*
X0277231Y0347371D01*
X0277277Y0347445D01*
X0277326Y0347517D01*
X0277378Y0347587D01*
X0277433Y0347654D01*
X0277491Y0347719D01*
X0277552Y0347782D01*
X0277616Y0347841D01*
X0277682Y0347898D01*
X0277751Y0347951D01*
X0277822Y0348002D01*
X0277895Y0348049D01*
X0277970Y0348094D01*
X0278047Y0348134D01*
X0278125Y0348172D01*
X0278206Y0348205D01*
X0278287Y0348236D01*
X0278370Y0348262D01*
X0278455Y0348285D01*
X0278540Y0348304D01*
X0278625Y0348319D01*
X0278712Y0348331D01*
X0278798Y0348339D01*
X0278885Y0348343D01*
X0278973Y0348343D01*
X0279060Y0348339D01*
X0279146Y0348331D01*
X0279233Y0348319D01*
X0279318Y0348304D01*
X0279403Y0348285D01*
X0279488Y0348262D01*
X0279571Y0348236D01*
X0279652Y0348205D01*
X0279733Y0348172D01*
X0279811Y0348134D01*
X0279888Y0348094D01*
X0279963Y0348049D01*
X0280036Y0348002D01*
X0280107Y0347951D01*
X0280176Y0347898D01*
X0280242Y0347841D01*
X0280306Y0347782D01*
X0280367Y0347719D01*
X0280425Y0347654D01*
X0280480Y0347587D01*
X0280532Y0347517D01*
X0280581Y0347445D01*
X0280627Y0347371D01*
X0280669Y0347295D01*
X0280708Y0347217D01*
X0280744Y0347138D01*
X0280776Y0347057D01*
X0280804Y0346974D01*
X0280829Y0346891D01*
X0280850Y0346806D01*
X0280867Y0346721D01*
X0280881Y0346635D01*
X0280890Y0346548D01*
X0280896Y0346461D01*
X0280898Y0346374D01*
X0280898Y0340862D01*
X0280896Y0340775D01*
X0280890Y0340688D01*
X0280881Y0340601D01*
X0280867Y0340515D01*
X0280850Y0340430D01*
X0280829Y0340345D01*
X0280804Y0340262D01*
X0280776Y0340179D01*
X0280744Y0340098D01*
X0280708Y0340019D01*
X0280669Y0339941D01*
X0280627Y0339865D01*
X0280581Y0339791D01*
X0280532Y0339719D01*
X0280480Y0339649D01*
X0280425Y0339582D01*
X0280367Y0339517D01*
X0280306Y0339454D01*
X0280242Y0339395D01*
X0280176Y0339338D01*
X0280107Y0339285D01*
X0280036Y0339234D01*
X0279963Y0339187D01*
X0279888Y0339142D01*
X0279811Y0339102D01*
X0279733Y0339064D01*
X0279652Y0339031D01*
X0279571Y0339000D01*
X0279488Y0338974D01*
X0279403Y0338951D01*
X0279318Y0338932D01*
X0279233Y0338917D01*
X0279146Y0338905D01*
X0279060Y0338897D01*
X0278973Y0338893D01*
X0278885Y0338893D01*
X0278798Y0338897D01*
X0278712Y0338905D01*
X0278625Y0338917D01*
X0278540Y0338932D01*
X0278455Y0338951D01*
X0278370Y0338974D01*
X0278287Y0339000D01*
X0278206Y0339031D01*
X0278125Y0339064D01*
X0278047Y0339102D01*
X0277970Y0339142D01*
X0277895Y0339187D01*
X0277822Y0339234D01*
X0277751Y0339285D01*
X0277682Y0339338D01*
X0277616Y0339395D01*
X0277552Y0339454D01*
X0277491Y0339517D01*
X0277433Y0339582D01*
X0277378Y0339649D01*
X0277326Y0339719D01*
X0277277Y0339791D01*
X0277231Y0339865D01*
X0277189Y0339941D01*
X0277150Y0340019D01*
X0277114Y0340098D01*
X0277082Y0340179D01*
X0277054Y0340262D01*
X0277029Y0340345D01*
X0277008Y0340430D01*
X0276991Y0340515D01*
X0276977Y0340601D01*
X0276968Y0340688D01*
X0276962Y0340775D01*
X0276960Y0340862D01*
X0276961Y0330626D02*
X0276961Y0325114D01*
X0276960Y0325114D02*
X0276962Y0325027D01*
X0276968Y0324940D01*
X0276977Y0324853D01*
X0276991Y0324767D01*
X0277008Y0324682D01*
X0277029Y0324597D01*
X0277054Y0324514D01*
X0277082Y0324431D01*
X0277114Y0324350D01*
X0277150Y0324271D01*
X0277189Y0324193D01*
X0277231Y0324117D01*
X0277277Y0324043D01*
X0277326Y0323971D01*
X0277378Y0323901D01*
X0277433Y0323834D01*
X0277491Y0323769D01*
X0277552Y0323706D01*
X0277616Y0323647D01*
X0277682Y0323590D01*
X0277751Y0323537D01*
X0277822Y0323486D01*
X0277895Y0323439D01*
X0277970Y0323394D01*
X0278047Y0323354D01*
X0278125Y0323316D01*
X0278206Y0323283D01*
X0278287Y0323252D01*
X0278370Y0323226D01*
X0278455Y0323203D01*
X0278540Y0323184D01*
X0278625Y0323169D01*
X0278712Y0323157D01*
X0278798Y0323149D01*
X0278885Y0323145D01*
X0278973Y0323145D01*
X0279060Y0323149D01*
X0279146Y0323157D01*
X0279233Y0323169D01*
X0279318Y0323184D01*
X0279403Y0323203D01*
X0279488Y0323226D01*
X0279571Y0323252D01*
X0279652Y0323283D01*
X0279733Y0323316D01*
X0279811Y0323354D01*
X0279888Y0323394D01*
X0279963Y0323439D01*
X0280036Y0323486D01*
X0280107Y0323537D01*
X0280176Y0323590D01*
X0280242Y0323647D01*
X0280306Y0323706D01*
X0280367Y0323769D01*
X0280425Y0323834D01*
X0280480Y0323901D01*
X0280532Y0323971D01*
X0280581Y0324043D01*
X0280627Y0324117D01*
X0280669Y0324193D01*
X0280708Y0324271D01*
X0280744Y0324350D01*
X0280776Y0324431D01*
X0280804Y0324514D01*
X0280829Y0324597D01*
X0280850Y0324682D01*
X0280867Y0324767D01*
X0280881Y0324853D01*
X0280890Y0324940D01*
X0280896Y0325027D01*
X0280898Y0325114D01*
X0280898Y0330626D01*
X0280896Y0330713D01*
X0280890Y0330800D01*
X0280881Y0330887D01*
X0280867Y0330973D01*
X0280850Y0331058D01*
X0280829Y0331143D01*
X0280804Y0331226D01*
X0280776Y0331309D01*
X0280744Y0331390D01*
X0280708Y0331469D01*
X0280669Y0331547D01*
X0280627Y0331623D01*
X0280581Y0331697D01*
X0280532Y0331769D01*
X0280480Y0331839D01*
X0280425Y0331906D01*
X0280367Y0331971D01*
X0280306Y0332034D01*
X0280242Y0332093D01*
X0280176Y0332150D01*
X0280107Y0332203D01*
X0280036Y0332254D01*
X0279963Y0332301D01*
X0279888Y0332346D01*
X0279811Y0332386D01*
X0279733Y0332424D01*
X0279652Y0332457D01*
X0279571Y0332488D01*
X0279488Y0332514D01*
X0279403Y0332537D01*
X0279318Y0332556D01*
X0279233Y0332571D01*
X0279146Y0332583D01*
X0279060Y0332591D01*
X0278973Y0332595D01*
X0278885Y0332595D01*
X0278798Y0332591D01*
X0278712Y0332583D01*
X0278625Y0332571D01*
X0278540Y0332556D01*
X0278455Y0332537D01*
X0278370Y0332514D01*
X0278287Y0332488D01*
X0278206Y0332457D01*
X0278125Y0332424D01*
X0278047Y0332386D01*
X0277970Y0332346D01*
X0277895Y0332301D01*
X0277822Y0332254D01*
X0277751Y0332203D01*
X0277682Y0332150D01*
X0277616Y0332093D01*
X0277552Y0332034D01*
X0277491Y0331971D01*
X0277433Y0331906D01*
X0277378Y0331839D01*
X0277326Y0331769D01*
X0277277Y0331697D01*
X0277231Y0331623D01*
X0277189Y0331547D01*
X0277150Y0331469D01*
X0277114Y0331390D01*
X0277082Y0331309D01*
X0277054Y0331226D01*
X0277029Y0331143D01*
X0277008Y0331058D01*
X0276991Y0330973D01*
X0276977Y0330887D01*
X0276968Y0330800D01*
X0276962Y0330713D01*
X0276960Y0330626D01*
X0276961Y0314878D02*
X0276961Y0309366D01*
X0276960Y0309366D02*
X0276962Y0309279D01*
X0276968Y0309192D01*
X0276977Y0309105D01*
X0276991Y0309019D01*
X0277008Y0308934D01*
X0277029Y0308849D01*
X0277054Y0308766D01*
X0277082Y0308683D01*
X0277114Y0308602D01*
X0277150Y0308523D01*
X0277189Y0308445D01*
X0277231Y0308369D01*
X0277277Y0308295D01*
X0277326Y0308223D01*
X0277378Y0308153D01*
X0277433Y0308086D01*
X0277491Y0308021D01*
X0277552Y0307958D01*
X0277616Y0307899D01*
X0277682Y0307842D01*
X0277751Y0307789D01*
X0277822Y0307738D01*
X0277895Y0307691D01*
X0277970Y0307646D01*
X0278047Y0307606D01*
X0278125Y0307568D01*
X0278206Y0307535D01*
X0278287Y0307504D01*
X0278370Y0307478D01*
X0278455Y0307455D01*
X0278540Y0307436D01*
X0278625Y0307421D01*
X0278712Y0307409D01*
X0278798Y0307401D01*
X0278885Y0307397D01*
X0278973Y0307397D01*
X0279060Y0307401D01*
X0279146Y0307409D01*
X0279233Y0307421D01*
X0279318Y0307436D01*
X0279403Y0307455D01*
X0279488Y0307478D01*
X0279571Y0307504D01*
X0279652Y0307535D01*
X0279733Y0307568D01*
X0279811Y0307606D01*
X0279888Y0307646D01*
X0279963Y0307691D01*
X0280036Y0307738D01*
X0280107Y0307789D01*
X0280176Y0307842D01*
X0280242Y0307899D01*
X0280306Y0307958D01*
X0280367Y0308021D01*
X0280425Y0308086D01*
X0280480Y0308153D01*
X0280532Y0308223D01*
X0280581Y0308295D01*
X0280627Y0308369D01*
X0280669Y0308445D01*
X0280708Y0308523D01*
X0280744Y0308602D01*
X0280776Y0308683D01*
X0280804Y0308766D01*
X0280829Y0308849D01*
X0280850Y0308934D01*
X0280867Y0309019D01*
X0280881Y0309105D01*
X0280890Y0309192D01*
X0280896Y0309279D01*
X0280898Y0309366D01*
X0280898Y0314878D01*
X0280896Y0314965D01*
X0280890Y0315052D01*
X0280881Y0315139D01*
X0280867Y0315225D01*
X0280850Y0315310D01*
X0280829Y0315395D01*
X0280804Y0315478D01*
X0280776Y0315561D01*
X0280744Y0315642D01*
X0280708Y0315721D01*
X0280669Y0315799D01*
X0280627Y0315875D01*
X0280581Y0315949D01*
X0280532Y0316021D01*
X0280480Y0316091D01*
X0280425Y0316158D01*
X0280367Y0316223D01*
X0280306Y0316286D01*
X0280242Y0316345D01*
X0280176Y0316402D01*
X0280107Y0316455D01*
X0280036Y0316506D01*
X0279963Y0316553D01*
X0279888Y0316598D01*
X0279811Y0316638D01*
X0279733Y0316676D01*
X0279652Y0316709D01*
X0279571Y0316740D01*
X0279488Y0316766D01*
X0279403Y0316789D01*
X0279318Y0316808D01*
X0279233Y0316823D01*
X0279146Y0316835D01*
X0279060Y0316843D01*
X0278973Y0316847D01*
X0278885Y0316847D01*
X0278798Y0316843D01*
X0278712Y0316835D01*
X0278625Y0316823D01*
X0278540Y0316808D01*
X0278455Y0316789D01*
X0278370Y0316766D01*
X0278287Y0316740D01*
X0278206Y0316709D01*
X0278125Y0316676D01*
X0278047Y0316638D01*
X0277970Y0316598D01*
X0277895Y0316553D01*
X0277822Y0316506D01*
X0277751Y0316455D01*
X0277682Y0316402D01*
X0277616Y0316345D01*
X0277552Y0316286D01*
X0277491Y0316223D01*
X0277433Y0316158D01*
X0277378Y0316091D01*
X0277326Y0316021D01*
X0277277Y0315949D01*
X0277231Y0315875D01*
X0277189Y0315799D01*
X0277150Y0315721D01*
X0277114Y0315642D01*
X0277082Y0315561D01*
X0277054Y0315478D01*
X0277029Y0315395D01*
X0277008Y0315310D01*
X0276991Y0315225D01*
X0276977Y0315139D01*
X0276968Y0315052D01*
X0276962Y0314965D01*
X0276960Y0314878D01*
X0276961Y0299130D02*
X0276961Y0293618D01*
X0276960Y0293618D02*
X0276962Y0293531D01*
X0276968Y0293444D01*
X0276977Y0293357D01*
X0276991Y0293271D01*
X0277008Y0293186D01*
X0277029Y0293101D01*
X0277054Y0293018D01*
X0277082Y0292935D01*
X0277114Y0292854D01*
X0277150Y0292775D01*
X0277189Y0292697D01*
X0277231Y0292621D01*
X0277277Y0292547D01*
X0277326Y0292475D01*
X0277378Y0292405D01*
X0277433Y0292338D01*
X0277491Y0292273D01*
X0277552Y0292210D01*
X0277616Y0292151D01*
X0277682Y0292094D01*
X0277751Y0292041D01*
X0277822Y0291990D01*
X0277895Y0291943D01*
X0277970Y0291898D01*
X0278047Y0291858D01*
X0278125Y0291820D01*
X0278206Y0291787D01*
X0278287Y0291756D01*
X0278370Y0291730D01*
X0278455Y0291707D01*
X0278540Y0291688D01*
X0278625Y0291673D01*
X0278712Y0291661D01*
X0278798Y0291653D01*
X0278885Y0291649D01*
X0278973Y0291649D01*
X0279060Y0291653D01*
X0279146Y0291661D01*
X0279233Y0291673D01*
X0279318Y0291688D01*
X0279403Y0291707D01*
X0279488Y0291730D01*
X0279571Y0291756D01*
X0279652Y0291787D01*
X0279733Y0291820D01*
X0279811Y0291858D01*
X0279888Y0291898D01*
X0279963Y0291943D01*
X0280036Y0291990D01*
X0280107Y0292041D01*
X0280176Y0292094D01*
X0280242Y0292151D01*
X0280306Y0292210D01*
X0280367Y0292273D01*
X0280425Y0292338D01*
X0280480Y0292405D01*
X0280532Y0292475D01*
X0280581Y0292547D01*
X0280627Y0292621D01*
X0280669Y0292697D01*
X0280708Y0292775D01*
X0280744Y0292854D01*
X0280776Y0292935D01*
X0280804Y0293018D01*
X0280829Y0293101D01*
X0280850Y0293186D01*
X0280867Y0293271D01*
X0280881Y0293357D01*
X0280890Y0293444D01*
X0280896Y0293531D01*
X0280898Y0293618D01*
X0280898Y0299130D01*
X0280896Y0299217D01*
X0280890Y0299304D01*
X0280881Y0299391D01*
X0280867Y0299477D01*
X0280850Y0299562D01*
X0280829Y0299647D01*
X0280804Y0299730D01*
X0280776Y0299813D01*
X0280744Y0299894D01*
X0280708Y0299973D01*
X0280669Y0300051D01*
X0280627Y0300127D01*
X0280581Y0300201D01*
X0280532Y0300273D01*
X0280480Y0300343D01*
X0280425Y0300410D01*
X0280367Y0300475D01*
X0280306Y0300538D01*
X0280242Y0300597D01*
X0280176Y0300654D01*
X0280107Y0300707D01*
X0280036Y0300758D01*
X0279963Y0300805D01*
X0279888Y0300850D01*
X0279811Y0300890D01*
X0279733Y0300928D01*
X0279652Y0300961D01*
X0279571Y0300992D01*
X0279488Y0301018D01*
X0279403Y0301041D01*
X0279318Y0301060D01*
X0279233Y0301075D01*
X0279146Y0301087D01*
X0279060Y0301095D01*
X0278973Y0301099D01*
X0278885Y0301099D01*
X0278798Y0301095D01*
X0278712Y0301087D01*
X0278625Y0301075D01*
X0278540Y0301060D01*
X0278455Y0301041D01*
X0278370Y0301018D01*
X0278287Y0300992D01*
X0278206Y0300961D01*
X0278125Y0300928D01*
X0278047Y0300890D01*
X0277970Y0300850D01*
X0277895Y0300805D01*
X0277822Y0300758D01*
X0277751Y0300707D01*
X0277682Y0300654D01*
X0277616Y0300597D01*
X0277552Y0300538D01*
X0277491Y0300475D01*
X0277433Y0300410D01*
X0277378Y0300343D01*
X0277326Y0300273D01*
X0277277Y0300201D01*
X0277231Y0300127D01*
X0277189Y0300051D01*
X0277150Y0299973D01*
X0277114Y0299894D01*
X0277082Y0299813D01*
X0277054Y0299730D01*
X0277029Y0299647D01*
X0277008Y0299562D01*
X0276991Y0299477D01*
X0276977Y0299391D01*
X0276968Y0299304D01*
X0276962Y0299217D01*
X0276960Y0299130D01*
X0276961Y0283382D02*
X0276961Y0277870D01*
X0276960Y0277870D02*
X0276962Y0277783D01*
X0276968Y0277696D01*
X0276977Y0277609D01*
X0276991Y0277523D01*
X0277008Y0277438D01*
X0277029Y0277353D01*
X0277054Y0277270D01*
X0277082Y0277187D01*
X0277114Y0277106D01*
X0277150Y0277027D01*
X0277189Y0276949D01*
X0277231Y0276873D01*
X0277277Y0276799D01*
X0277326Y0276727D01*
X0277378Y0276657D01*
X0277433Y0276590D01*
X0277491Y0276525D01*
X0277552Y0276462D01*
X0277616Y0276403D01*
X0277682Y0276346D01*
X0277751Y0276293D01*
X0277822Y0276242D01*
X0277895Y0276195D01*
X0277970Y0276150D01*
X0278047Y0276110D01*
X0278125Y0276072D01*
X0278206Y0276039D01*
X0278287Y0276008D01*
X0278370Y0275982D01*
X0278455Y0275959D01*
X0278540Y0275940D01*
X0278625Y0275925D01*
X0278712Y0275913D01*
X0278798Y0275905D01*
X0278885Y0275901D01*
X0278973Y0275901D01*
X0279060Y0275905D01*
X0279146Y0275913D01*
X0279233Y0275925D01*
X0279318Y0275940D01*
X0279403Y0275959D01*
X0279488Y0275982D01*
X0279571Y0276008D01*
X0279652Y0276039D01*
X0279733Y0276072D01*
X0279811Y0276110D01*
X0279888Y0276150D01*
X0279963Y0276195D01*
X0280036Y0276242D01*
X0280107Y0276293D01*
X0280176Y0276346D01*
X0280242Y0276403D01*
X0280306Y0276462D01*
X0280367Y0276525D01*
X0280425Y0276590D01*
X0280480Y0276657D01*
X0280532Y0276727D01*
X0280581Y0276799D01*
X0280627Y0276873D01*
X0280669Y0276949D01*
X0280708Y0277027D01*
X0280744Y0277106D01*
X0280776Y0277187D01*
X0280804Y0277270D01*
X0280829Y0277353D01*
X0280850Y0277438D01*
X0280867Y0277523D01*
X0280881Y0277609D01*
X0280890Y0277696D01*
X0280896Y0277783D01*
X0280898Y0277870D01*
X0280898Y0283382D01*
X0280896Y0283469D01*
X0280890Y0283556D01*
X0280881Y0283643D01*
X0280867Y0283729D01*
X0280850Y0283814D01*
X0280829Y0283899D01*
X0280804Y0283982D01*
X0280776Y0284065D01*
X0280744Y0284146D01*
X0280708Y0284225D01*
X0280669Y0284303D01*
X0280627Y0284379D01*
X0280581Y0284453D01*
X0280532Y0284525D01*
X0280480Y0284595D01*
X0280425Y0284662D01*
X0280367Y0284727D01*
X0280306Y0284790D01*
X0280242Y0284849D01*
X0280176Y0284906D01*
X0280107Y0284959D01*
X0280036Y0285010D01*
X0279963Y0285057D01*
X0279888Y0285102D01*
X0279811Y0285142D01*
X0279733Y0285180D01*
X0279652Y0285213D01*
X0279571Y0285244D01*
X0279488Y0285270D01*
X0279403Y0285293D01*
X0279318Y0285312D01*
X0279233Y0285327D01*
X0279146Y0285339D01*
X0279060Y0285347D01*
X0278973Y0285351D01*
X0278885Y0285351D01*
X0278798Y0285347D01*
X0278712Y0285339D01*
X0278625Y0285327D01*
X0278540Y0285312D01*
X0278455Y0285293D01*
X0278370Y0285270D01*
X0278287Y0285244D01*
X0278206Y0285213D01*
X0278125Y0285180D01*
X0278047Y0285142D01*
X0277970Y0285102D01*
X0277895Y0285057D01*
X0277822Y0285010D01*
X0277751Y0284959D01*
X0277682Y0284906D01*
X0277616Y0284849D01*
X0277552Y0284790D01*
X0277491Y0284727D01*
X0277433Y0284662D01*
X0277378Y0284595D01*
X0277326Y0284525D01*
X0277277Y0284453D01*
X0277231Y0284379D01*
X0277189Y0284303D01*
X0277150Y0284225D01*
X0277114Y0284146D01*
X0277082Y0284065D01*
X0277054Y0283982D01*
X0277029Y0283899D01*
X0277008Y0283814D01*
X0276991Y0283729D01*
X0276977Y0283643D01*
X0276968Y0283556D01*
X0276962Y0283469D01*
X0276960Y0283382D01*
X0276961Y0267634D02*
X0276961Y0262122D01*
X0276960Y0262122D02*
X0276962Y0262035D01*
X0276968Y0261948D01*
X0276977Y0261861D01*
X0276991Y0261775D01*
X0277008Y0261690D01*
X0277029Y0261605D01*
X0277054Y0261522D01*
X0277082Y0261439D01*
X0277114Y0261358D01*
X0277150Y0261279D01*
X0277189Y0261201D01*
X0277231Y0261125D01*
X0277277Y0261051D01*
X0277326Y0260979D01*
X0277378Y0260909D01*
X0277433Y0260842D01*
X0277491Y0260777D01*
X0277552Y0260714D01*
X0277616Y0260655D01*
X0277682Y0260598D01*
X0277751Y0260545D01*
X0277822Y0260494D01*
X0277895Y0260447D01*
X0277970Y0260402D01*
X0278047Y0260362D01*
X0278125Y0260324D01*
X0278206Y0260291D01*
X0278287Y0260260D01*
X0278370Y0260234D01*
X0278455Y0260211D01*
X0278540Y0260192D01*
X0278625Y0260177D01*
X0278712Y0260165D01*
X0278798Y0260157D01*
X0278885Y0260153D01*
X0278973Y0260153D01*
X0279060Y0260157D01*
X0279146Y0260165D01*
X0279233Y0260177D01*
X0279318Y0260192D01*
X0279403Y0260211D01*
X0279488Y0260234D01*
X0279571Y0260260D01*
X0279652Y0260291D01*
X0279733Y0260324D01*
X0279811Y0260362D01*
X0279888Y0260402D01*
X0279963Y0260447D01*
X0280036Y0260494D01*
X0280107Y0260545D01*
X0280176Y0260598D01*
X0280242Y0260655D01*
X0280306Y0260714D01*
X0280367Y0260777D01*
X0280425Y0260842D01*
X0280480Y0260909D01*
X0280532Y0260979D01*
X0280581Y0261051D01*
X0280627Y0261125D01*
X0280669Y0261201D01*
X0280708Y0261279D01*
X0280744Y0261358D01*
X0280776Y0261439D01*
X0280804Y0261522D01*
X0280829Y0261605D01*
X0280850Y0261690D01*
X0280867Y0261775D01*
X0280881Y0261861D01*
X0280890Y0261948D01*
X0280896Y0262035D01*
X0280898Y0262122D01*
X0280898Y0267634D01*
X0280896Y0267721D01*
X0280890Y0267808D01*
X0280881Y0267895D01*
X0280867Y0267981D01*
X0280850Y0268066D01*
X0280829Y0268151D01*
X0280804Y0268234D01*
X0280776Y0268317D01*
X0280744Y0268398D01*
X0280708Y0268477D01*
X0280669Y0268555D01*
X0280627Y0268631D01*
X0280581Y0268705D01*
X0280532Y0268777D01*
X0280480Y0268847D01*
X0280425Y0268914D01*
X0280367Y0268979D01*
X0280306Y0269042D01*
X0280242Y0269101D01*
X0280176Y0269158D01*
X0280107Y0269211D01*
X0280036Y0269262D01*
X0279963Y0269309D01*
X0279888Y0269354D01*
X0279811Y0269394D01*
X0279733Y0269432D01*
X0279652Y0269465D01*
X0279571Y0269496D01*
X0279488Y0269522D01*
X0279403Y0269545D01*
X0279318Y0269564D01*
X0279233Y0269579D01*
X0279146Y0269591D01*
X0279060Y0269599D01*
X0278973Y0269603D01*
X0278885Y0269603D01*
X0278798Y0269599D01*
X0278712Y0269591D01*
X0278625Y0269579D01*
X0278540Y0269564D01*
X0278455Y0269545D01*
X0278370Y0269522D01*
X0278287Y0269496D01*
X0278206Y0269465D01*
X0278125Y0269432D01*
X0278047Y0269394D01*
X0277970Y0269354D01*
X0277895Y0269309D01*
X0277822Y0269262D01*
X0277751Y0269211D01*
X0277682Y0269158D01*
X0277616Y0269101D01*
X0277552Y0269042D01*
X0277491Y0268979D01*
X0277433Y0268914D01*
X0277378Y0268847D01*
X0277326Y0268777D01*
X0277277Y0268705D01*
X0277231Y0268631D01*
X0277189Y0268555D01*
X0277150Y0268477D01*
X0277114Y0268398D01*
X0277082Y0268317D01*
X0277054Y0268234D01*
X0277029Y0268151D01*
X0277008Y0268066D01*
X0276991Y0267981D01*
X0276977Y0267895D01*
X0276968Y0267808D01*
X0276962Y0267721D01*
X0276960Y0267634D01*
X0276961Y0251886D02*
X0276961Y0246374D01*
X0276960Y0246374D02*
X0276962Y0246287D01*
X0276968Y0246200D01*
X0276977Y0246113D01*
X0276991Y0246027D01*
X0277008Y0245942D01*
X0277029Y0245857D01*
X0277054Y0245774D01*
X0277082Y0245691D01*
X0277114Y0245610D01*
X0277150Y0245531D01*
X0277189Y0245453D01*
X0277231Y0245377D01*
X0277277Y0245303D01*
X0277326Y0245231D01*
X0277378Y0245161D01*
X0277433Y0245094D01*
X0277491Y0245029D01*
X0277552Y0244966D01*
X0277616Y0244907D01*
X0277682Y0244850D01*
X0277751Y0244797D01*
X0277822Y0244746D01*
X0277895Y0244699D01*
X0277970Y0244654D01*
X0278047Y0244614D01*
X0278125Y0244576D01*
X0278206Y0244543D01*
X0278287Y0244512D01*
X0278370Y0244486D01*
X0278455Y0244463D01*
X0278540Y0244444D01*
X0278625Y0244429D01*
X0278712Y0244417D01*
X0278798Y0244409D01*
X0278885Y0244405D01*
X0278973Y0244405D01*
X0279060Y0244409D01*
X0279146Y0244417D01*
X0279233Y0244429D01*
X0279318Y0244444D01*
X0279403Y0244463D01*
X0279488Y0244486D01*
X0279571Y0244512D01*
X0279652Y0244543D01*
X0279733Y0244576D01*
X0279811Y0244614D01*
X0279888Y0244654D01*
X0279963Y0244699D01*
X0280036Y0244746D01*
X0280107Y0244797D01*
X0280176Y0244850D01*
X0280242Y0244907D01*
X0280306Y0244966D01*
X0280367Y0245029D01*
X0280425Y0245094D01*
X0280480Y0245161D01*
X0280532Y0245231D01*
X0280581Y0245303D01*
X0280627Y0245377D01*
X0280669Y0245453D01*
X0280708Y0245531D01*
X0280744Y0245610D01*
X0280776Y0245691D01*
X0280804Y0245774D01*
X0280829Y0245857D01*
X0280850Y0245942D01*
X0280867Y0246027D01*
X0280881Y0246113D01*
X0280890Y0246200D01*
X0280896Y0246287D01*
X0280898Y0246374D01*
X0280898Y0251886D01*
X0280896Y0251973D01*
X0280890Y0252060D01*
X0280881Y0252147D01*
X0280867Y0252233D01*
X0280850Y0252318D01*
X0280829Y0252403D01*
X0280804Y0252486D01*
X0280776Y0252569D01*
X0280744Y0252650D01*
X0280708Y0252729D01*
X0280669Y0252807D01*
X0280627Y0252883D01*
X0280581Y0252957D01*
X0280532Y0253029D01*
X0280480Y0253099D01*
X0280425Y0253166D01*
X0280367Y0253231D01*
X0280306Y0253294D01*
X0280242Y0253353D01*
X0280176Y0253410D01*
X0280107Y0253463D01*
X0280036Y0253514D01*
X0279963Y0253561D01*
X0279888Y0253606D01*
X0279811Y0253646D01*
X0279733Y0253684D01*
X0279652Y0253717D01*
X0279571Y0253748D01*
X0279488Y0253774D01*
X0279403Y0253797D01*
X0279318Y0253816D01*
X0279233Y0253831D01*
X0279146Y0253843D01*
X0279060Y0253851D01*
X0278973Y0253855D01*
X0278885Y0253855D01*
X0278798Y0253851D01*
X0278712Y0253843D01*
X0278625Y0253831D01*
X0278540Y0253816D01*
X0278455Y0253797D01*
X0278370Y0253774D01*
X0278287Y0253748D01*
X0278206Y0253717D01*
X0278125Y0253684D01*
X0278047Y0253646D01*
X0277970Y0253606D01*
X0277895Y0253561D01*
X0277822Y0253514D01*
X0277751Y0253463D01*
X0277682Y0253410D01*
X0277616Y0253353D01*
X0277552Y0253294D01*
X0277491Y0253231D01*
X0277433Y0253166D01*
X0277378Y0253099D01*
X0277326Y0253029D01*
X0277277Y0252957D01*
X0277231Y0252883D01*
X0277189Y0252807D01*
X0277150Y0252729D01*
X0277114Y0252650D01*
X0277082Y0252569D01*
X0277054Y0252486D01*
X0277029Y0252403D01*
X0277008Y0252318D01*
X0276991Y0252233D01*
X0276977Y0252147D01*
X0276968Y0252060D01*
X0276962Y0251973D01*
X0276960Y0251886D01*
X0276961Y0236138D02*
X0276961Y0230626D01*
X0276960Y0230626D02*
X0276962Y0230539D01*
X0276968Y0230452D01*
X0276977Y0230365D01*
X0276991Y0230279D01*
X0277008Y0230194D01*
X0277029Y0230109D01*
X0277054Y0230026D01*
X0277082Y0229943D01*
X0277114Y0229862D01*
X0277150Y0229783D01*
X0277189Y0229705D01*
X0277231Y0229629D01*
X0277277Y0229555D01*
X0277326Y0229483D01*
X0277378Y0229413D01*
X0277433Y0229346D01*
X0277491Y0229281D01*
X0277552Y0229218D01*
X0277616Y0229159D01*
X0277682Y0229102D01*
X0277751Y0229049D01*
X0277822Y0228998D01*
X0277895Y0228951D01*
X0277970Y0228906D01*
X0278047Y0228866D01*
X0278125Y0228828D01*
X0278206Y0228795D01*
X0278287Y0228764D01*
X0278370Y0228738D01*
X0278455Y0228715D01*
X0278540Y0228696D01*
X0278625Y0228681D01*
X0278712Y0228669D01*
X0278798Y0228661D01*
X0278885Y0228657D01*
X0278973Y0228657D01*
X0279060Y0228661D01*
X0279146Y0228669D01*
X0279233Y0228681D01*
X0279318Y0228696D01*
X0279403Y0228715D01*
X0279488Y0228738D01*
X0279571Y0228764D01*
X0279652Y0228795D01*
X0279733Y0228828D01*
X0279811Y0228866D01*
X0279888Y0228906D01*
X0279963Y0228951D01*
X0280036Y0228998D01*
X0280107Y0229049D01*
X0280176Y0229102D01*
X0280242Y0229159D01*
X0280306Y0229218D01*
X0280367Y0229281D01*
X0280425Y0229346D01*
X0280480Y0229413D01*
X0280532Y0229483D01*
X0280581Y0229555D01*
X0280627Y0229629D01*
X0280669Y0229705D01*
X0280708Y0229783D01*
X0280744Y0229862D01*
X0280776Y0229943D01*
X0280804Y0230026D01*
X0280829Y0230109D01*
X0280850Y0230194D01*
X0280867Y0230279D01*
X0280881Y0230365D01*
X0280890Y0230452D01*
X0280896Y0230539D01*
X0280898Y0230626D01*
X0280898Y0236138D01*
X0280896Y0236225D01*
X0280890Y0236312D01*
X0280881Y0236399D01*
X0280867Y0236485D01*
X0280850Y0236570D01*
X0280829Y0236655D01*
X0280804Y0236738D01*
X0280776Y0236821D01*
X0280744Y0236902D01*
X0280708Y0236981D01*
X0280669Y0237059D01*
X0280627Y0237135D01*
X0280581Y0237209D01*
X0280532Y0237281D01*
X0280480Y0237351D01*
X0280425Y0237418D01*
X0280367Y0237483D01*
X0280306Y0237546D01*
X0280242Y0237605D01*
X0280176Y0237662D01*
X0280107Y0237715D01*
X0280036Y0237766D01*
X0279963Y0237813D01*
X0279888Y0237858D01*
X0279811Y0237898D01*
X0279733Y0237936D01*
X0279652Y0237969D01*
X0279571Y0238000D01*
X0279488Y0238026D01*
X0279403Y0238049D01*
X0279318Y0238068D01*
X0279233Y0238083D01*
X0279146Y0238095D01*
X0279060Y0238103D01*
X0278973Y0238107D01*
X0278885Y0238107D01*
X0278798Y0238103D01*
X0278712Y0238095D01*
X0278625Y0238083D01*
X0278540Y0238068D01*
X0278455Y0238049D01*
X0278370Y0238026D01*
X0278287Y0238000D01*
X0278206Y0237969D01*
X0278125Y0237936D01*
X0278047Y0237898D01*
X0277970Y0237858D01*
X0277895Y0237813D01*
X0277822Y0237766D01*
X0277751Y0237715D01*
X0277682Y0237662D01*
X0277616Y0237605D01*
X0277552Y0237546D01*
X0277491Y0237483D01*
X0277433Y0237418D01*
X0277378Y0237351D01*
X0277326Y0237281D01*
X0277277Y0237209D01*
X0277231Y0237135D01*
X0277189Y0237059D01*
X0277150Y0236981D01*
X0277114Y0236902D01*
X0277082Y0236821D01*
X0277054Y0236738D01*
X0277029Y0236655D01*
X0277008Y0236570D01*
X0276991Y0236485D01*
X0276977Y0236399D01*
X0276968Y0236312D01*
X0276962Y0236225D01*
X0276960Y0236138D01*
M02*
