G75*
%MOIN*%
%OFA0B0*%
%FSLAX25Y25*%
%IPPOS*%
%LPD*%
%AMOC8*
5,1,8,0,0,1.08239X$1,22.5*
%
%ADD10R,0.02756X0.03543*%
%ADD11R,0.05512X0.03937*%
%ADD12C,0.06337*%
%ADD13C,0.07400*%
%ADD14R,0.08661X0.02362*%
%ADD15R,0.09449X0.09449*%
%ADD16R,0.03543X0.02756*%
%ADD17C,0.01000*%
%ADD18C,0.01600*%
%ADD19C,0.04362*%
%ADD20C,0.03000*%
D10*
X0319441Y0277500D03*
X0324559Y0277500D03*
D11*
X0312331Y0290500D03*
X0303669Y0294240D03*
X0303669Y0286760D03*
D12*
X0278929Y0283794D02*
X0278929Y0277457D01*
X0278929Y0268046D02*
X0278929Y0261709D01*
X0278929Y0252298D02*
X0278929Y0245961D01*
X0278929Y0236550D02*
X0278929Y0230213D01*
X0245071Y0230213D02*
X0245071Y0236550D01*
X0245071Y0245961D02*
X0245071Y0252298D01*
X0245071Y0261709D02*
X0245071Y0268046D01*
X0245071Y0277457D02*
X0245071Y0283794D01*
X0245071Y0293206D02*
X0245071Y0299543D01*
X0245071Y0308954D02*
X0245071Y0315291D01*
X0245071Y0324702D02*
X0245071Y0331039D01*
X0245071Y0340450D02*
X0245071Y0346787D01*
X0278929Y0346787D02*
X0278929Y0340450D01*
X0278929Y0331039D02*
X0278929Y0324702D01*
X0278929Y0315291D02*
X0278929Y0308954D01*
X0278929Y0299543D02*
X0278929Y0293206D01*
D13*
X0267000Y0293500D03*
X0267000Y0303500D03*
X0257000Y0303500D03*
X0257000Y0293500D03*
X0257000Y0283500D03*
X0257000Y0273500D03*
X0267000Y0273500D03*
X0267000Y0283500D03*
X0267000Y0263500D03*
X0267000Y0253500D03*
X0267000Y0243500D03*
X0257000Y0243500D03*
X0257000Y0253500D03*
X0257000Y0263500D03*
X0257000Y0233500D03*
X0267000Y0233500D03*
X0337000Y0233500D03*
X0347000Y0233500D03*
X0347000Y0243500D03*
X0347000Y0253500D03*
X0347000Y0263500D03*
X0337000Y0263500D03*
X0337000Y0253500D03*
X0337000Y0243500D03*
X0337000Y0273500D03*
X0337000Y0283500D03*
X0347000Y0283500D03*
X0347000Y0273500D03*
X0347000Y0293500D03*
X0347000Y0303500D03*
X0337000Y0303500D03*
X0337000Y0293500D03*
X0337000Y0313500D03*
X0337000Y0323500D03*
X0337000Y0333500D03*
X0347000Y0333500D03*
X0347000Y0323500D03*
X0347000Y0313500D03*
X0347000Y0343500D03*
X0337000Y0343500D03*
X0267000Y0343500D03*
X0257000Y0343500D03*
X0257000Y0333500D03*
X0257000Y0323500D03*
X0257000Y0313500D03*
X0267000Y0313500D03*
X0267000Y0323500D03*
X0267000Y0333500D03*
D14*
X0303764Y0269000D03*
X0303764Y0264000D03*
X0303764Y0259000D03*
X0303764Y0254000D03*
X0324236Y0254000D03*
X0324236Y0259000D03*
X0324236Y0264000D03*
X0324236Y0269000D03*
D15*
X0325661Y0343500D03*
X0308339Y0343500D03*
D16*
X0308000Y0326059D03*
X0308000Y0320941D03*
X0301000Y0320941D03*
X0301000Y0326059D03*
D17*
X0229248Y0220550D02*
X0230848Y0218348D01*
X0233050Y0216748D01*
X0235639Y0215907D01*
X0237000Y0215800D01*
X0266700Y0215800D01*
X0266700Y0226038D01*
X0267462Y0226800D01*
X0276023Y0226800D01*
X0275141Y0227682D01*
X0274461Y0229325D01*
X0274461Y0237439D01*
X0275141Y0239082D01*
X0276398Y0240339D01*
X0278040Y0241019D01*
X0279818Y0241019D01*
X0281460Y0240339D01*
X0282717Y0239082D01*
X0282725Y0239063D01*
X0283462Y0239800D01*
X0322538Y0239800D01*
X0323300Y0239038D01*
X0323300Y0229800D01*
X0333629Y0229800D01*
X0332761Y0230668D01*
X0332000Y0232505D01*
X0332000Y0234495D01*
X0332761Y0236332D01*
X0334168Y0237739D01*
X0336005Y0238500D01*
X0337995Y0238500D01*
X0339832Y0237739D01*
X0341239Y0236332D01*
X0341459Y0235800D01*
X0342541Y0235800D01*
X0342761Y0236332D01*
X0344168Y0237739D01*
X0346005Y0238500D01*
X0347995Y0238500D01*
X0349832Y0237739D01*
X0350700Y0236871D01*
X0350700Y0240129D01*
X0349832Y0239261D01*
X0347995Y0238500D01*
X0346005Y0238500D01*
X0344168Y0239261D01*
X0342761Y0240668D01*
X0342541Y0241200D01*
X0341459Y0241200D01*
X0341239Y0240668D01*
X0339832Y0239261D01*
X0337995Y0238500D01*
X0336005Y0238500D01*
X0334168Y0239261D01*
X0332761Y0240668D01*
X0332000Y0242505D01*
X0332000Y0244495D01*
X0332761Y0246332D01*
X0334168Y0247739D01*
X0336005Y0248500D01*
X0337995Y0248500D01*
X0339832Y0247739D01*
X0340000Y0247571D01*
X0340000Y0249429D01*
X0339832Y0249261D01*
X0337995Y0248500D01*
X0336005Y0248500D01*
X0334168Y0249261D01*
X0332761Y0250668D01*
X0332209Y0252000D01*
X0329586Y0252000D01*
X0329105Y0251519D01*
X0319367Y0251519D01*
X0318606Y0252280D01*
X0318606Y0255720D01*
X0319367Y0256481D01*
X0329105Y0256481D01*
X0329586Y0256000D01*
X0332624Y0256000D01*
X0332761Y0256332D01*
X0334168Y0257739D01*
X0336005Y0258500D01*
X0337995Y0258500D01*
X0339832Y0257739D01*
X0340000Y0257571D01*
X0340000Y0259429D01*
X0339832Y0259261D01*
X0337995Y0258500D01*
X0336005Y0258500D01*
X0334168Y0259261D01*
X0332761Y0260668D01*
X0332000Y0262505D01*
X0332000Y0264495D01*
X0332761Y0266332D01*
X0332929Y0266500D01*
X0330172Y0266500D01*
X0329672Y0267000D01*
X0329586Y0267000D01*
X0329158Y0266572D01*
X0329488Y0266381D01*
X0329767Y0266102D01*
X0329965Y0265760D01*
X0330067Y0265379D01*
X0330067Y0264091D01*
X0324327Y0264091D01*
X0324327Y0263909D01*
X0330067Y0263909D01*
X0330067Y0262621D01*
X0329965Y0262240D01*
X0329767Y0261898D01*
X0329488Y0261619D01*
X0329158Y0261428D01*
X0329867Y0260720D01*
X0329867Y0257280D01*
X0329105Y0256519D01*
X0319367Y0256519D01*
X0318606Y0257280D01*
X0318606Y0257500D01*
X0316172Y0257500D01*
X0314172Y0259500D01*
X0313000Y0260672D01*
X0313000Y0276328D01*
X0314172Y0277500D01*
X0314172Y0277500D01*
X0315000Y0278328D01*
X0316172Y0279500D01*
X0316763Y0279500D01*
X0316763Y0279810D01*
X0317525Y0280572D01*
X0318000Y0280572D01*
X0318000Y0297672D01*
X0313172Y0302500D01*
X0291380Y0302500D01*
X0297639Y0296240D01*
X0299613Y0296240D01*
X0299613Y0296747D01*
X0300375Y0297509D01*
X0306964Y0297509D01*
X0307725Y0296747D01*
X0307725Y0293603D01*
X0308215Y0293113D01*
X0308375Y0293390D01*
X0308654Y0293669D01*
X0308996Y0293866D01*
X0309377Y0293968D01*
X0311846Y0293968D01*
X0311846Y0290984D01*
X0312815Y0290984D01*
X0316587Y0290984D01*
X0316587Y0292666D01*
X0316484Y0293047D01*
X0316287Y0293390D01*
X0316008Y0293669D01*
X0315666Y0293866D01*
X0315284Y0293968D01*
X0312815Y0293968D01*
X0312815Y0290984D01*
X0312815Y0290016D01*
X0316587Y0290016D01*
X0316587Y0288334D01*
X0316484Y0287953D01*
X0316287Y0287610D01*
X0316008Y0287331D01*
X0315666Y0287134D01*
X0315284Y0287031D01*
X0312815Y0287031D01*
X0312815Y0290016D01*
X0311846Y0290016D01*
X0311846Y0287031D01*
X0310000Y0287031D01*
X0310000Y0281328D01*
X0310828Y0280500D01*
X0312000Y0279328D01*
X0312000Y0259672D01*
X0311000Y0258672D01*
X0309828Y0257500D01*
X0309394Y0257500D01*
X0309394Y0257280D01*
X0308633Y0256519D01*
X0298895Y0256519D01*
X0298133Y0257280D01*
X0298133Y0260720D01*
X0298895Y0261481D01*
X0303416Y0261481D01*
X0303435Y0261500D01*
X0308000Y0261500D01*
X0308000Y0261519D01*
X0298895Y0261519D01*
X0298133Y0262280D01*
X0298133Y0262500D01*
X0296172Y0262500D01*
X0295000Y0263672D01*
X0293000Y0265672D01*
X0293000Y0276328D01*
X0294172Y0277500D01*
X0300269Y0283597D01*
X0299613Y0284253D01*
X0299613Y0284760D01*
X0298912Y0284760D01*
X0297740Y0285931D01*
X0283398Y0300274D01*
X0283398Y0292317D01*
X0282717Y0290674D01*
X0281460Y0289417D01*
X0279818Y0288737D01*
X0278040Y0288737D01*
X0276398Y0289417D01*
X0275141Y0290674D01*
X0274461Y0292317D01*
X0274461Y0300431D01*
X0275141Y0302074D01*
X0275167Y0302100D01*
X0273572Y0302100D01*
X0272000Y0303672D01*
X0272000Y0302505D01*
X0271239Y0300668D01*
X0269832Y0299261D01*
X0267995Y0298500D01*
X0266005Y0298500D01*
X0264168Y0297739D01*
X0262761Y0296332D01*
X0262541Y0295800D01*
X0261459Y0295800D01*
X0261239Y0296332D01*
X0259832Y0297739D01*
X0257995Y0298500D01*
X0256005Y0298500D01*
X0254168Y0297739D01*
X0252761Y0296332D01*
X0252000Y0294495D01*
X0252000Y0292505D01*
X0252761Y0290668D01*
X0254168Y0289261D01*
X0256005Y0288500D01*
X0257995Y0288500D01*
X0259832Y0289261D01*
X0261239Y0290668D01*
X0261459Y0291200D01*
X0262541Y0291200D01*
X0262761Y0290668D01*
X0264168Y0289261D01*
X0266005Y0288500D01*
X0267995Y0288500D01*
X0269832Y0289261D01*
X0271239Y0290668D01*
X0272000Y0292505D01*
X0272000Y0294495D01*
X0271239Y0296332D01*
X0269832Y0297739D01*
X0267995Y0298500D01*
X0266005Y0298500D01*
X0264168Y0299261D01*
X0262761Y0300668D01*
X0262541Y0301200D01*
X0261459Y0301200D01*
X0261239Y0300668D01*
X0259832Y0299261D01*
X0257995Y0298500D01*
X0256005Y0298500D01*
X0254168Y0299261D01*
X0252761Y0300668D01*
X0252000Y0302505D01*
X0252000Y0304495D01*
X0252761Y0306332D01*
X0252929Y0306500D01*
X0248891Y0306500D01*
X0248859Y0306422D01*
X0247602Y0305165D01*
X0245960Y0304485D01*
X0244182Y0304485D01*
X0242540Y0305165D01*
X0241283Y0306422D01*
X0240602Y0308065D01*
X0240602Y0316179D01*
X0241283Y0317822D01*
X0242540Y0319079D01*
X0244182Y0319759D01*
X0245960Y0319759D01*
X0247602Y0319079D01*
X0248859Y0317822D01*
X0249539Y0316179D01*
X0249539Y0310500D01*
X0252929Y0310500D01*
X0252761Y0310668D01*
X0252000Y0312505D01*
X0252000Y0314495D01*
X0252761Y0316332D01*
X0254168Y0317739D01*
X0256005Y0318500D01*
X0257995Y0318500D01*
X0259832Y0319261D01*
X0261239Y0320668D01*
X0261459Y0321200D01*
X0262541Y0321200D01*
X0262761Y0320668D01*
X0264168Y0319261D01*
X0266005Y0318500D01*
X0267995Y0318500D01*
X0269832Y0319261D01*
X0271239Y0320668D01*
X0272000Y0322505D01*
X0272000Y0324495D01*
X0271239Y0326332D01*
X0269832Y0327739D01*
X0268182Y0328422D01*
X0268218Y0328428D01*
X0268996Y0328681D01*
X0269725Y0329053D01*
X0270388Y0329534D01*
X0270966Y0330112D01*
X0271447Y0330775D01*
X0271819Y0331504D01*
X0272072Y0332282D01*
X0272186Y0333000D01*
X0267500Y0333000D01*
X0267500Y0334000D01*
X0272186Y0334000D01*
X0272072Y0334718D01*
X0271819Y0335496D01*
X0271447Y0336225D01*
X0270966Y0336888D01*
X0270388Y0337466D01*
X0269725Y0337947D01*
X0268996Y0338319D01*
X0268218Y0338572D01*
X0268182Y0338578D01*
X0269832Y0339261D01*
X0271239Y0340668D01*
X0272000Y0342505D01*
X0272000Y0344495D01*
X0271239Y0346332D01*
X0269832Y0347739D01*
X0267995Y0348500D01*
X0266005Y0348500D01*
X0264168Y0347739D01*
X0262761Y0346332D01*
X0262541Y0345800D01*
X0261459Y0345800D01*
X0261239Y0346332D01*
X0259832Y0347739D01*
X0257995Y0348500D01*
X0256005Y0348500D01*
X0254168Y0347739D01*
X0252761Y0346332D01*
X0252000Y0344495D01*
X0252000Y0342505D01*
X0252761Y0340668D01*
X0254168Y0339261D01*
X0255818Y0338578D01*
X0255782Y0338572D01*
X0255004Y0338319D01*
X0254275Y0337947D01*
X0253612Y0337466D01*
X0253034Y0336888D01*
X0252553Y0336225D01*
X0252181Y0335496D01*
X0251928Y0334718D01*
X0251814Y0334000D01*
X0256500Y0334000D01*
X0256500Y0333000D01*
X0251814Y0333000D01*
X0251928Y0332282D01*
X0252181Y0331504D01*
X0252553Y0330775D01*
X0253034Y0330112D01*
X0253612Y0329534D01*
X0254275Y0329053D01*
X0255004Y0328681D01*
X0255782Y0328428D01*
X0255818Y0328422D01*
X0254168Y0327739D01*
X0252761Y0326332D01*
X0252000Y0324495D01*
X0252000Y0322505D01*
X0252761Y0320668D01*
X0254168Y0319261D01*
X0256005Y0318500D01*
X0257995Y0318500D01*
X0259832Y0317739D01*
X0261239Y0316332D01*
X0261459Y0315800D01*
X0262541Y0315800D01*
X0262761Y0316332D01*
X0264168Y0317739D01*
X0266005Y0318500D01*
X0267995Y0318500D01*
X0269832Y0317739D01*
X0271239Y0316332D01*
X0272000Y0314495D01*
X0272000Y0312505D01*
X0271239Y0310668D01*
X0270950Y0310379D01*
X0272000Y0309328D01*
X0275228Y0306100D01*
X0275463Y0306100D01*
X0275141Y0306422D01*
X0274461Y0308065D01*
X0274461Y0316179D01*
X0275141Y0317822D01*
X0276398Y0319079D01*
X0278040Y0319759D01*
X0279818Y0319759D01*
X0281460Y0319079D01*
X0282717Y0317822D01*
X0283398Y0316179D01*
X0283398Y0310482D01*
X0284000Y0309880D01*
X0284000Y0316328D01*
X0285172Y0317500D01*
X0295731Y0328059D01*
X0298012Y0328059D01*
X0298690Y0328737D01*
X0298700Y0328737D01*
X0298700Y0331848D01*
X0298319Y0332768D01*
X0298319Y0334232D01*
X0298879Y0335585D01*
X0299915Y0336621D01*
X0301268Y0337181D01*
X0302732Y0337181D01*
X0304085Y0336621D01*
X0305121Y0335585D01*
X0305681Y0334232D01*
X0305681Y0332768D01*
X0305121Y0331415D01*
X0304085Y0330379D01*
X0303300Y0330054D01*
X0303300Y0328737D01*
X0303310Y0328737D01*
X0304072Y0327975D01*
X0304072Y0324143D01*
X0303429Y0323500D01*
X0303688Y0323241D01*
X0305312Y0323241D01*
X0305462Y0323391D01*
X0305307Y0323481D01*
X0305028Y0323760D01*
X0304831Y0324102D01*
X0304728Y0324484D01*
X0304728Y0325870D01*
X0307811Y0325870D01*
X0307811Y0326248D01*
X0304728Y0326248D01*
X0304728Y0327634D01*
X0304831Y0328016D01*
X0305028Y0328358D01*
X0305307Y0328637D01*
X0305649Y0328835D01*
X0306031Y0328937D01*
X0307811Y0328937D01*
X0307811Y0326248D01*
X0308189Y0326248D01*
X0308189Y0328937D01*
X0309969Y0328937D01*
X0310351Y0328835D01*
X0310693Y0328637D01*
X0310972Y0328358D01*
X0311000Y0328309D01*
X0311000Y0337476D01*
X0303076Y0337476D01*
X0302314Y0338237D01*
X0302314Y0340618D01*
X0283398Y0340618D01*
X0283398Y0339561D01*
X0282717Y0337918D01*
X0281460Y0336661D01*
X0279818Y0335981D01*
X0278040Y0335981D01*
X0276398Y0336661D01*
X0275141Y0337918D01*
X0274461Y0339561D01*
X0274461Y0347675D01*
X0275141Y0349318D01*
X0276247Y0350424D01*
X0273172Y0353500D01*
X0266156Y0353500D01*
X0266121Y0353415D01*
X0265085Y0352379D01*
X0263732Y0351819D01*
X0262268Y0351819D01*
X0260915Y0352379D01*
X0259879Y0353415D01*
X0259319Y0354768D01*
X0259319Y0356232D01*
X0259879Y0357585D01*
X0260915Y0358621D01*
X0262268Y0359181D01*
X0263732Y0359181D01*
X0265085Y0358621D01*
X0266121Y0357585D01*
X0266156Y0357500D01*
X0274828Y0357500D01*
X0279828Y0352500D01*
X0281000Y0351328D01*
X0281000Y0350765D01*
X0281460Y0350575D01*
X0282717Y0349318D01*
X0283398Y0347675D01*
X0283398Y0346618D01*
X0302314Y0346618D01*
X0302314Y0348763D01*
X0303076Y0349524D01*
X0313601Y0349524D01*
X0314363Y0348763D01*
X0314363Y0343380D01*
X0315699Y0342043D01*
X0316543Y0341199D01*
X0317000Y0340097D01*
X0317000Y0313202D01*
X0317079Y0313102D01*
X0317000Y0312389D01*
X0317000Y0311672D01*
X0316910Y0311582D01*
X0316896Y0311456D01*
X0316336Y0311007D01*
X0315828Y0310500D01*
X0315702Y0310500D01*
X0311336Y0307007D01*
X0310828Y0306500D01*
X0310702Y0306500D01*
X0310702Y0306500D01*
X0314828Y0306500D01*
X0316000Y0305328D01*
X0322000Y0299328D01*
X0322000Y0280212D01*
X0322260Y0280472D01*
X0322602Y0280669D01*
X0322984Y0280772D01*
X0324370Y0280772D01*
X0324370Y0277689D01*
X0324748Y0277689D01*
X0324748Y0280772D01*
X0326134Y0280772D01*
X0326516Y0280669D01*
X0326858Y0280472D01*
X0327137Y0280193D01*
X0327335Y0279851D01*
X0327437Y0279469D01*
X0327437Y0277689D01*
X0324748Y0277689D01*
X0324748Y0277311D01*
X0324748Y0274228D01*
X0326134Y0274228D01*
X0326516Y0274331D01*
X0326858Y0274528D01*
X0327137Y0274807D01*
X0327335Y0275149D01*
X0327437Y0275531D01*
X0327437Y0277311D01*
X0324748Y0277311D01*
X0324370Y0277311D01*
X0324370Y0274228D01*
X0322984Y0274228D01*
X0322602Y0274331D01*
X0322260Y0274528D01*
X0321981Y0274807D01*
X0321891Y0274962D01*
X0321357Y0274428D01*
X0317525Y0274428D01*
X0317141Y0274812D01*
X0317000Y0274672D01*
X0317000Y0262328D01*
X0317828Y0261500D01*
X0319190Y0261500D01*
X0318984Y0261619D01*
X0318705Y0261898D01*
X0318508Y0262240D01*
X0318406Y0262621D01*
X0318406Y0263909D01*
X0324146Y0263909D01*
X0324146Y0264091D01*
X0318406Y0264091D01*
X0318406Y0265379D01*
X0318508Y0265760D01*
X0318705Y0266102D01*
X0318984Y0266381D01*
X0319314Y0266572D01*
X0318606Y0267280D01*
X0318606Y0270720D01*
X0319367Y0271481D01*
X0329105Y0271481D01*
X0329586Y0271000D01*
X0331328Y0271000D01*
X0331828Y0270500D01*
X0332929Y0270500D01*
X0332761Y0270668D01*
X0332000Y0272505D01*
X0332000Y0274495D01*
X0332761Y0276332D01*
X0334168Y0277739D01*
X0336005Y0278500D01*
X0337995Y0278500D01*
X0339832Y0277739D01*
X0341239Y0276332D01*
X0341459Y0275800D01*
X0342541Y0275800D01*
X0342761Y0276332D01*
X0344168Y0277739D01*
X0346005Y0278500D01*
X0347995Y0278500D01*
X0349832Y0277739D01*
X0350700Y0276871D01*
X0350700Y0280129D01*
X0349832Y0279261D01*
X0347995Y0278500D01*
X0346005Y0278500D01*
X0344168Y0279261D01*
X0342761Y0280668D01*
X0342541Y0281200D01*
X0341459Y0281200D01*
X0341239Y0280668D01*
X0339832Y0279261D01*
X0337995Y0278500D01*
X0336005Y0278500D01*
X0334168Y0279261D01*
X0332761Y0280668D01*
X0332000Y0282505D01*
X0332000Y0284495D01*
X0332761Y0286332D01*
X0334168Y0287739D01*
X0336005Y0288500D01*
X0337995Y0288500D01*
X0339832Y0289261D01*
X0341239Y0290668D01*
X0341459Y0291200D01*
X0342541Y0291200D01*
X0342761Y0290668D01*
X0344168Y0289261D01*
X0346005Y0288500D01*
X0344168Y0287739D01*
X0342761Y0286332D01*
X0342541Y0285800D01*
X0341459Y0285800D01*
X0341239Y0286332D01*
X0339832Y0287739D01*
X0337995Y0288500D01*
X0336005Y0288500D01*
X0334168Y0289261D01*
X0332761Y0290668D01*
X0332000Y0292505D01*
X0332000Y0294495D01*
X0332761Y0296332D01*
X0334168Y0297739D01*
X0336005Y0298500D01*
X0337995Y0298500D01*
X0339832Y0297739D01*
X0341239Y0296332D01*
X0341459Y0295800D01*
X0342541Y0295800D01*
X0342761Y0296332D01*
X0344168Y0297739D01*
X0346005Y0298500D01*
X0347995Y0298500D01*
X0349832Y0297739D01*
X0350700Y0296871D01*
X0350700Y0300129D01*
X0349832Y0299261D01*
X0347995Y0298500D01*
X0346005Y0298500D01*
X0344168Y0299261D01*
X0342761Y0300668D01*
X0342541Y0301200D01*
X0341459Y0301200D01*
X0341239Y0300668D01*
X0339832Y0299261D01*
X0337995Y0298500D01*
X0336005Y0298500D01*
X0334168Y0299261D01*
X0332761Y0300668D01*
X0332000Y0302505D01*
X0332000Y0304495D01*
X0332761Y0306332D01*
X0334168Y0307739D01*
X0335818Y0308422D01*
X0335782Y0308428D01*
X0335004Y0308681D01*
X0334275Y0309053D01*
X0333612Y0309534D01*
X0333034Y0310112D01*
X0332553Y0310775D01*
X0332181Y0311504D01*
X0331928Y0312282D01*
X0331814Y0313000D01*
X0336500Y0313000D01*
X0336500Y0314000D01*
X0331814Y0314000D01*
X0331928Y0314718D01*
X0332181Y0315496D01*
X0332553Y0316225D01*
X0333034Y0316888D01*
X0333612Y0317466D01*
X0334275Y0317947D01*
X0335004Y0318319D01*
X0335782Y0318572D01*
X0335818Y0318578D01*
X0334168Y0319261D01*
X0332761Y0320668D01*
X0332000Y0322505D01*
X0332000Y0324495D01*
X0332761Y0326332D01*
X0334168Y0327739D01*
X0336005Y0328500D01*
X0337995Y0328500D01*
X0339832Y0327739D01*
X0341239Y0326332D01*
X0341459Y0325800D01*
X0342541Y0325800D01*
X0342761Y0326332D01*
X0344168Y0327739D01*
X0346005Y0328500D01*
X0347995Y0328500D01*
X0349832Y0327739D01*
X0350700Y0326871D01*
X0350700Y0330129D01*
X0349832Y0329261D01*
X0347995Y0328500D01*
X0346005Y0328500D01*
X0344168Y0329261D01*
X0342761Y0330668D01*
X0342541Y0331200D01*
X0341459Y0331200D01*
X0341239Y0330668D01*
X0339832Y0329261D01*
X0337995Y0328500D01*
X0336005Y0328500D01*
X0334168Y0329261D01*
X0332761Y0330668D01*
X0332000Y0332505D01*
X0332000Y0334495D01*
X0332761Y0336332D01*
X0334168Y0337739D01*
X0336005Y0338500D01*
X0337995Y0338500D01*
X0339832Y0337739D01*
X0341239Y0336332D01*
X0341459Y0335800D01*
X0342541Y0335800D01*
X0342761Y0336332D01*
X0344168Y0337739D01*
X0346005Y0338500D01*
X0347995Y0338500D01*
X0349832Y0337739D01*
X0350700Y0336871D01*
X0350700Y0340129D01*
X0349832Y0339261D01*
X0347995Y0338500D01*
X0346005Y0338500D01*
X0344168Y0339261D01*
X0342761Y0340668D01*
X0342541Y0341200D01*
X0341459Y0341200D01*
X0341239Y0340668D01*
X0339832Y0339261D01*
X0337995Y0338500D01*
X0336005Y0338500D01*
X0334168Y0339261D01*
X0332761Y0340668D01*
X0332000Y0342505D01*
X0332000Y0344495D01*
X0332761Y0346332D01*
X0334168Y0347739D01*
X0336005Y0348500D01*
X0337995Y0348500D01*
X0339832Y0347739D01*
X0341239Y0346332D01*
X0341459Y0345800D01*
X0342541Y0345800D01*
X0342761Y0346332D01*
X0344168Y0347739D01*
X0346005Y0348500D01*
X0347995Y0348500D01*
X0349832Y0347739D01*
X0350700Y0346871D01*
X0350700Y0353500D01*
X0350593Y0354861D01*
X0349752Y0357450D01*
X0348152Y0359652D01*
X0345950Y0361252D01*
X0343361Y0362093D01*
X0342000Y0362200D01*
X0237000Y0362200D01*
X0235639Y0362093D01*
X0233050Y0361252D01*
X0230848Y0359652D01*
X0229248Y0357450D01*
X0228407Y0354861D01*
X0228300Y0353500D01*
X0228300Y0224500D01*
X0228407Y0223139D01*
X0229248Y0220550D01*
X0229290Y0220493D02*
X0266700Y0220493D01*
X0266700Y0221491D02*
X0228943Y0221491D01*
X0228618Y0222490D02*
X0266700Y0222490D01*
X0266700Y0223488D02*
X0228380Y0223488D01*
X0228301Y0224487D02*
X0266700Y0224487D01*
X0266700Y0225485D02*
X0228300Y0225485D01*
X0228300Y0226484D02*
X0242481Y0226484D01*
X0242540Y0226425D02*
X0244182Y0225745D01*
X0245960Y0225745D01*
X0247602Y0226425D01*
X0248859Y0227682D01*
X0249539Y0229325D01*
X0249539Y0237439D01*
X0248859Y0239082D01*
X0247602Y0240339D01*
X0245960Y0241019D01*
X0244182Y0241019D01*
X0242540Y0240339D01*
X0241283Y0239082D01*
X0240602Y0237439D01*
X0240602Y0229325D01*
X0241283Y0227682D01*
X0242540Y0226425D01*
X0241483Y0227482D02*
X0228300Y0227482D01*
X0228300Y0228481D02*
X0240952Y0228481D01*
X0240602Y0229479D02*
X0228300Y0229479D01*
X0228300Y0230478D02*
X0240602Y0230478D01*
X0240602Y0231476D02*
X0228300Y0231476D01*
X0228300Y0232475D02*
X0240602Y0232475D01*
X0240602Y0233473D02*
X0228300Y0233473D01*
X0228300Y0234472D02*
X0240602Y0234472D01*
X0240602Y0235470D02*
X0228300Y0235470D01*
X0228300Y0236469D02*
X0240602Y0236469D01*
X0240614Y0237467D02*
X0228300Y0237467D01*
X0228300Y0238466D02*
X0241028Y0238466D01*
X0241665Y0239464D02*
X0228300Y0239464D01*
X0228300Y0240463D02*
X0242839Y0240463D01*
X0244182Y0241493D02*
X0245960Y0241493D01*
X0247602Y0242173D01*
X0248859Y0243430D01*
X0249539Y0245073D01*
X0249539Y0253187D01*
X0248859Y0254830D01*
X0247602Y0256087D01*
X0245960Y0256767D01*
X0244182Y0256767D01*
X0242540Y0256087D01*
X0241283Y0254830D01*
X0240602Y0253187D01*
X0240602Y0245073D01*
X0241283Y0243430D01*
X0242540Y0242173D01*
X0244182Y0241493D01*
X0242253Y0242460D02*
X0228300Y0242460D01*
X0228300Y0243458D02*
X0241271Y0243458D01*
X0240857Y0244457D02*
X0228300Y0244457D01*
X0228300Y0245455D02*
X0240602Y0245455D01*
X0240602Y0246454D02*
X0228300Y0246454D01*
X0228300Y0247452D02*
X0240602Y0247452D01*
X0240602Y0248451D02*
X0228300Y0248451D01*
X0228300Y0249449D02*
X0240602Y0249449D01*
X0240602Y0250448D02*
X0228300Y0250448D01*
X0228300Y0251446D02*
X0240602Y0251446D01*
X0240602Y0252445D02*
X0228300Y0252445D01*
X0228300Y0253443D02*
X0240708Y0253443D01*
X0241122Y0254442D02*
X0228300Y0254442D01*
X0228300Y0255440D02*
X0241893Y0255440D01*
X0243390Y0256439D02*
X0228300Y0256439D01*
X0228300Y0257437D02*
X0243708Y0257437D01*
X0244182Y0257241D02*
X0245960Y0257241D01*
X0247602Y0257921D01*
X0248859Y0259178D01*
X0249539Y0260821D01*
X0249539Y0268935D01*
X0248859Y0270578D01*
X0247602Y0271835D01*
X0245960Y0272515D01*
X0244182Y0272515D01*
X0242540Y0271835D01*
X0241283Y0270578D01*
X0240602Y0268935D01*
X0240602Y0260821D01*
X0241283Y0259178D01*
X0242540Y0257921D01*
X0244182Y0257241D01*
X0246434Y0257437D02*
X0253866Y0257437D01*
X0254168Y0257739D02*
X0252761Y0256332D01*
X0252000Y0254495D01*
X0252000Y0252505D01*
X0252761Y0250668D01*
X0254168Y0249261D01*
X0256005Y0248500D01*
X0257995Y0248500D01*
X0259832Y0249261D01*
X0261239Y0250668D01*
X0261459Y0251200D01*
X0262541Y0251200D01*
X0262761Y0250668D01*
X0264168Y0249261D01*
X0266005Y0248500D01*
X0267995Y0248500D01*
X0269832Y0249261D01*
X0271239Y0250668D01*
X0272000Y0252505D01*
X0272000Y0254495D01*
X0271239Y0256332D01*
X0269832Y0257739D01*
X0267995Y0258500D01*
X0266005Y0258500D01*
X0264168Y0257739D01*
X0262761Y0256332D01*
X0262541Y0255800D01*
X0261459Y0255800D01*
X0261239Y0256332D01*
X0259832Y0257739D01*
X0257995Y0258500D01*
X0256005Y0258500D01*
X0254168Y0257739D01*
X0254168Y0259261D02*
X0256005Y0258500D01*
X0257995Y0258500D01*
X0259832Y0259261D01*
X0261239Y0260668D01*
X0261459Y0261200D01*
X0262541Y0261200D01*
X0262761Y0260668D01*
X0264168Y0259261D01*
X0266005Y0258500D01*
X0267995Y0258500D01*
X0269832Y0259261D01*
X0271239Y0260668D01*
X0272000Y0262505D01*
X0272000Y0264495D01*
X0271239Y0266332D01*
X0269832Y0267739D01*
X0267995Y0268500D01*
X0269832Y0269261D01*
X0271239Y0270668D01*
X0272000Y0272505D01*
X0272000Y0274495D01*
X0271239Y0276332D01*
X0269832Y0277739D01*
X0267995Y0278500D01*
X0266005Y0278500D01*
X0264168Y0277739D01*
X0262761Y0276332D01*
X0262541Y0275800D01*
X0261459Y0275800D01*
X0261239Y0276332D01*
X0259832Y0277739D01*
X0257995Y0278500D01*
X0256005Y0278500D01*
X0254168Y0277739D01*
X0252761Y0276332D01*
X0252000Y0274495D01*
X0252000Y0272505D01*
X0252761Y0270668D01*
X0254168Y0269261D01*
X0256005Y0268500D01*
X0257995Y0268500D01*
X0259832Y0269261D01*
X0261239Y0270668D01*
X0261459Y0271200D01*
X0262541Y0271200D01*
X0262761Y0270668D01*
X0264168Y0269261D01*
X0266005Y0268500D01*
X0267995Y0268500D01*
X0266005Y0268500D01*
X0264168Y0267739D01*
X0262761Y0266332D01*
X0262541Y0265800D01*
X0261459Y0265800D01*
X0261239Y0266332D01*
X0259832Y0267739D01*
X0257995Y0268500D01*
X0256005Y0268500D01*
X0254168Y0267739D01*
X0252761Y0266332D01*
X0252000Y0264495D01*
X0252000Y0262505D01*
X0252761Y0260668D01*
X0254168Y0259261D01*
X0253994Y0259434D02*
X0248965Y0259434D01*
X0249379Y0260433D02*
X0252996Y0260433D01*
X0252445Y0261432D02*
X0249539Y0261432D01*
X0249539Y0262430D02*
X0252031Y0262430D01*
X0252000Y0263429D02*
X0249539Y0263429D01*
X0249539Y0264427D02*
X0252000Y0264427D01*
X0252386Y0265426D02*
X0249539Y0265426D01*
X0249539Y0266424D02*
X0252853Y0266424D01*
X0253852Y0267423D02*
X0249539Y0267423D01*
X0249539Y0268421D02*
X0255815Y0268421D01*
X0254009Y0269420D02*
X0249339Y0269420D01*
X0248925Y0270418D02*
X0253011Y0270418D01*
X0252451Y0271417D02*
X0248020Y0271417D01*
X0246863Y0273131D02*
X0247518Y0273465D01*
X0248112Y0273897D01*
X0248632Y0274416D01*
X0249064Y0275011D01*
X0249397Y0275665D01*
X0249624Y0276364D01*
X0249739Y0277090D01*
X0249739Y0280142D01*
X0245555Y0280142D01*
X0245555Y0281110D01*
X0249739Y0281110D01*
X0249739Y0284162D01*
X0249624Y0284888D01*
X0249397Y0285587D01*
X0249064Y0286241D01*
X0248632Y0286836D01*
X0248112Y0287355D01*
X0247518Y0287787D01*
X0246863Y0288121D01*
X0246164Y0288348D01*
X0245555Y0288444D01*
X0245555Y0281110D01*
X0244587Y0281110D01*
X0244587Y0288444D01*
X0243978Y0288348D01*
X0243279Y0288121D01*
X0242624Y0287787D01*
X0242030Y0287355D01*
X0241510Y0286836D01*
X0241078Y0286241D01*
X0240744Y0285587D01*
X0240517Y0284888D01*
X0240402Y0284162D01*
X0240402Y0281110D01*
X0244587Y0281110D01*
X0244587Y0280142D01*
X0245555Y0280142D01*
X0245555Y0272807D01*
X0246164Y0272904D01*
X0246863Y0273131D01*
X0247418Y0273414D02*
X0252000Y0273414D01*
X0252000Y0274412D02*
X0248628Y0274412D01*
X0249268Y0275411D02*
X0252379Y0275411D01*
X0252838Y0276409D02*
X0249632Y0276409D01*
X0249739Y0277408D02*
X0253837Y0277408D01*
X0254168Y0279261D02*
X0256005Y0278500D01*
X0257995Y0278500D01*
X0259832Y0279261D01*
X0261239Y0280668D01*
X0261459Y0281200D01*
X0262541Y0281200D01*
X0262761Y0280668D01*
X0264168Y0279261D01*
X0266005Y0278500D01*
X0267995Y0278500D01*
X0269832Y0279261D01*
X0271239Y0280668D01*
X0272000Y0282505D01*
X0272000Y0284495D01*
X0271239Y0286332D01*
X0269832Y0287739D01*
X0267995Y0288500D01*
X0266005Y0288500D01*
X0264168Y0287739D01*
X0262761Y0286332D01*
X0262541Y0285800D01*
X0261459Y0285800D01*
X0261239Y0286332D01*
X0259832Y0287739D01*
X0257995Y0288500D01*
X0256005Y0288500D01*
X0254168Y0287739D01*
X0252761Y0286332D01*
X0252000Y0284495D01*
X0252000Y0282505D01*
X0252761Y0280668D01*
X0254168Y0279261D01*
X0254024Y0279405D02*
X0249739Y0279405D01*
X0249739Y0278406D02*
X0255779Y0278406D01*
X0258221Y0278406D02*
X0265779Y0278406D01*
X0264024Y0279405D02*
X0259976Y0279405D01*
X0260974Y0280403D02*
X0263026Y0280403D01*
X0263837Y0277408D02*
X0260163Y0277408D01*
X0261162Y0276409D02*
X0262838Y0276409D01*
X0268221Y0278406D02*
X0274461Y0278406D01*
X0274461Y0277408D02*
X0270163Y0277408D01*
X0271162Y0276409D02*
X0274527Y0276409D01*
X0274461Y0276569D02*
X0275141Y0274926D01*
X0276398Y0273669D01*
X0278040Y0272989D01*
X0279818Y0272989D01*
X0281460Y0273669D01*
X0282717Y0274926D01*
X0283398Y0276569D01*
X0283398Y0284683D01*
X0282717Y0286326D01*
X0281460Y0287583D01*
X0279818Y0288263D01*
X0278040Y0288263D01*
X0276398Y0287583D01*
X0275141Y0286326D01*
X0274461Y0284683D01*
X0274461Y0276569D01*
X0274940Y0275411D02*
X0271621Y0275411D01*
X0272000Y0274412D02*
X0275655Y0274412D01*
X0277015Y0273414D02*
X0272000Y0273414D01*
X0271963Y0272415D02*
X0277799Y0272415D01*
X0278040Y0272515D02*
X0276398Y0271835D01*
X0275141Y0270578D01*
X0274461Y0268935D01*
X0274461Y0260821D01*
X0275141Y0259178D01*
X0276398Y0257921D01*
X0278040Y0257241D01*
X0279818Y0257241D01*
X0281460Y0257921D01*
X0282717Y0259178D01*
X0283398Y0260821D01*
X0283398Y0268935D01*
X0282717Y0270578D01*
X0281460Y0271835D01*
X0279818Y0272515D01*
X0278040Y0272515D01*
X0280059Y0272415D02*
X0293000Y0272415D01*
X0293000Y0271417D02*
X0281878Y0271417D01*
X0282783Y0270418D02*
X0293000Y0270418D01*
X0293000Y0269420D02*
X0283197Y0269420D01*
X0283398Y0268421D02*
X0293000Y0268421D01*
X0293000Y0267423D02*
X0283398Y0267423D01*
X0283398Y0266424D02*
X0293000Y0266424D01*
X0293246Y0265426D02*
X0283398Y0265426D01*
X0283398Y0264427D02*
X0294245Y0264427D01*
X0295243Y0263429D02*
X0283398Y0263429D01*
X0283398Y0262430D02*
X0298133Y0262430D01*
X0298845Y0261432D02*
X0283398Y0261432D01*
X0283237Y0260433D02*
X0298133Y0260433D01*
X0298133Y0259434D02*
X0282823Y0259434D01*
X0281975Y0258436D02*
X0298133Y0258436D01*
X0298133Y0257437D02*
X0295268Y0257437D01*
X0295085Y0257621D02*
X0293732Y0258181D01*
X0292268Y0258181D01*
X0290915Y0257621D01*
X0289879Y0256585D01*
X0289319Y0255232D01*
X0289319Y0253768D01*
X0289879Y0252415D01*
X0290915Y0251379D01*
X0292268Y0250819D01*
X0293732Y0250819D01*
X0295085Y0251379D01*
X0296121Y0252415D01*
X0296156Y0252500D01*
X0298133Y0252500D01*
X0298133Y0252280D01*
X0298895Y0251519D01*
X0308633Y0251519D01*
X0309394Y0252280D01*
X0309394Y0255720D01*
X0308633Y0256481D01*
X0304111Y0256481D01*
X0304092Y0256500D01*
X0296156Y0256500D01*
X0296121Y0256585D01*
X0295085Y0257621D01*
X0293000Y0254500D02*
X0303264Y0254500D01*
X0303764Y0254000D01*
X0302000Y0254000D01*
X0298133Y0252445D02*
X0296133Y0252445D01*
X0295152Y0251446D02*
X0332439Y0251446D01*
X0332981Y0250448D02*
X0283398Y0250448D01*
X0283398Y0251446D02*
X0290848Y0251446D01*
X0289867Y0252445D02*
X0283398Y0252445D01*
X0283398Y0253187D02*
X0282717Y0254830D01*
X0281460Y0256087D01*
X0279818Y0256767D01*
X0278040Y0256767D01*
X0276398Y0256087D01*
X0275141Y0254830D01*
X0274461Y0253187D01*
X0274461Y0245073D01*
X0275141Y0243430D01*
X0276398Y0242173D01*
X0278040Y0241493D01*
X0279818Y0241493D01*
X0281460Y0242173D01*
X0282717Y0243430D01*
X0283398Y0245073D01*
X0283398Y0253187D01*
X0283292Y0253443D02*
X0289453Y0253443D01*
X0289319Y0254442D02*
X0282878Y0254442D01*
X0282107Y0255440D02*
X0289405Y0255440D01*
X0289819Y0256439D02*
X0280610Y0256439D01*
X0280292Y0257437D02*
X0290732Y0257437D01*
X0297000Y0264500D02*
X0303264Y0264500D01*
X0303764Y0264000D01*
X0304264Y0259500D02*
X0303764Y0259000D01*
X0304264Y0259500D02*
X0309000Y0259500D01*
X0310000Y0260500D01*
X0310000Y0278500D01*
X0308000Y0280500D01*
X0308000Y0290500D01*
X0304260Y0294240D01*
X0303669Y0294240D01*
X0296811Y0294240D01*
X0278929Y0312122D01*
X0274461Y0312356D02*
X0271938Y0312356D01*
X0272000Y0313354D02*
X0274461Y0313354D01*
X0274461Y0314353D02*
X0272000Y0314353D01*
X0271645Y0315351D02*
X0274461Y0315351D01*
X0274531Y0316350D02*
X0271221Y0316350D01*
X0270223Y0317348D02*
X0274945Y0317348D01*
X0275666Y0318347D02*
X0268365Y0318347D01*
X0269916Y0319345D02*
X0277041Y0319345D01*
X0277773Y0320344D02*
X0270915Y0320344D01*
X0271518Y0321342D02*
X0275969Y0321342D01*
X0276398Y0320913D02*
X0278040Y0320233D01*
X0279818Y0320233D01*
X0281460Y0320913D01*
X0282717Y0322170D01*
X0283398Y0323813D01*
X0283398Y0331927D01*
X0282717Y0333570D01*
X0281460Y0334827D01*
X0279818Y0335507D01*
X0278040Y0335507D01*
X0276398Y0334827D01*
X0275141Y0333570D01*
X0274461Y0331927D01*
X0274461Y0323813D01*
X0275141Y0322170D01*
X0276398Y0320913D01*
X0275070Y0322341D02*
X0271932Y0322341D01*
X0272000Y0323339D02*
X0274657Y0323339D01*
X0274461Y0324338D02*
X0272000Y0324338D01*
X0271651Y0325336D02*
X0274461Y0325336D01*
X0274461Y0326335D02*
X0271236Y0326335D01*
X0270238Y0327333D02*
X0274461Y0327333D01*
X0274461Y0328332D02*
X0268401Y0328332D01*
X0270108Y0329330D02*
X0274461Y0329330D01*
X0274461Y0330329D02*
X0271124Y0330329D01*
X0271729Y0331327D02*
X0274461Y0331327D01*
X0274626Y0332326D02*
X0272079Y0332326D01*
X0272134Y0334323D02*
X0275894Y0334323D01*
X0275039Y0333324D02*
X0267500Y0333324D01*
X0266500Y0333324D02*
X0257500Y0333324D01*
X0257500Y0333000D02*
X0257500Y0334000D01*
X0261814Y0334000D01*
X0266500Y0334000D01*
X0266500Y0333000D01*
X0257500Y0333000D01*
X0256500Y0333324D02*
X0248961Y0333324D01*
X0248859Y0333570D02*
X0247602Y0334827D01*
X0245960Y0335507D01*
X0244182Y0335507D01*
X0242540Y0334827D01*
X0241283Y0333570D01*
X0240602Y0331927D01*
X0240602Y0323813D01*
X0241283Y0322170D01*
X0242540Y0320913D01*
X0244182Y0320233D01*
X0245960Y0320233D01*
X0247602Y0320913D01*
X0248859Y0322170D01*
X0249539Y0323813D01*
X0249539Y0331927D01*
X0248859Y0333570D01*
X0248106Y0334323D02*
X0251866Y0334323D01*
X0252124Y0335321D02*
X0246408Y0335321D01*
X0245960Y0335981D02*
X0247602Y0336661D01*
X0248859Y0337918D01*
X0249539Y0339561D01*
X0249539Y0347675D01*
X0248859Y0349318D01*
X0247602Y0350575D01*
X0245960Y0351255D01*
X0244182Y0351255D01*
X0242540Y0350575D01*
X0241283Y0349318D01*
X0240602Y0347675D01*
X0240602Y0339561D01*
X0241283Y0337918D01*
X0242540Y0336661D01*
X0244182Y0335981D01*
X0245960Y0335981D01*
X0246778Y0336320D02*
X0252621Y0336320D01*
X0253464Y0337318D02*
X0248259Y0337318D01*
X0249024Y0338317D02*
X0255000Y0338317D01*
X0254114Y0339315D02*
X0249438Y0339315D01*
X0249539Y0340314D02*
X0253115Y0340314D01*
X0252494Y0341312D02*
X0249539Y0341312D01*
X0249539Y0342311D02*
X0252081Y0342311D01*
X0252000Y0343309D02*
X0249539Y0343309D01*
X0249539Y0344308D02*
X0252000Y0344308D01*
X0252336Y0345306D02*
X0249539Y0345306D01*
X0249539Y0346305D02*
X0252750Y0346305D01*
X0253732Y0347303D02*
X0249539Y0347303D01*
X0249280Y0348302D02*
X0255527Y0348302D01*
X0258473Y0348302D02*
X0265527Y0348302D01*
X0263732Y0347303D02*
X0260268Y0347303D01*
X0261250Y0346305D02*
X0262750Y0346305D01*
X0268473Y0348302D02*
X0274720Y0348302D01*
X0274461Y0347303D02*
X0270268Y0347303D01*
X0271250Y0346305D02*
X0274461Y0346305D01*
X0274461Y0345306D02*
X0271664Y0345306D01*
X0272000Y0344308D02*
X0274461Y0344308D01*
X0274461Y0343309D02*
X0272000Y0343309D01*
X0271919Y0342311D02*
X0274461Y0342311D01*
X0274461Y0341312D02*
X0271506Y0341312D01*
X0270885Y0340314D02*
X0274461Y0340314D01*
X0274562Y0339315D02*
X0269886Y0339315D01*
X0269000Y0338317D02*
X0274976Y0338317D01*
X0275741Y0337318D02*
X0270536Y0337318D01*
X0271379Y0336320D02*
X0277222Y0336320D01*
X0277592Y0335321D02*
X0271876Y0335321D01*
X0280266Y0335321D02*
X0298770Y0335321D01*
X0298356Y0334323D02*
X0281964Y0334323D01*
X0282819Y0333324D02*
X0298319Y0333324D01*
X0298502Y0332326D02*
X0283233Y0332326D01*
X0283398Y0331327D02*
X0298700Y0331327D01*
X0298700Y0330329D02*
X0283398Y0330329D01*
X0283398Y0329330D02*
X0298700Y0329330D01*
X0298285Y0328332D02*
X0283398Y0328332D01*
X0283398Y0327333D02*
X0295005Y0327333D01*
X0294006Y0326335D02*
X0283398Y0326335D01*
X0283398Y0325336D02*
X0293008Y0325336D01*
X0292009Y0324338D02*
X0283398Y0324338D01*
X0283201Y0323339D02*
X0291011Y0323339D01*
X0290012Y0322341D02*
X0282788Y0322341D01*
X0281889Y0321342D02*
X0289014Y0321342D01*
X0288015Y0320344D02*
X0280085Y0320344D01*
X0280817Y0319345D02*
X0287017Y0319345D01*
X0286018Y0318347D02*
X0282192Y0318347D01*
X0282914Y0317348D02*
X0285020Y0317348D01*
X0284021Y0316350D02*
X0283327Y0316350D01*
X0283398Y0315351D02*
X0284000Y0315351D01*
X0284000Y0314353D02*
X0283398Y0314353D01*
X0283398Y0313354D02*
X0284000Y0313354D01*
X0284000Y0312356D02*
X0283398Y0312356D01*
X0283398Y0311357D02*
X0284000Y0311357D01*
X0284000Y0310359D02*
X0283521Y0310359D01*
X0286000Y0309500D02*
X0291000Y0304500D01*
X0314000Y0304500D01*
X0320000Y0298500D01*
X0320000Y0277500D01*
X0319441Y0277500D01*
X0317000Y0277500D01*
X0315000Y0275500D01*
X0315000Y0261500D01*
X0317000Y0259500D01*
X0321000Y0259500D01*
X0323736Y0259500D02*
X0324236Y0259000D01*
X0324236Y0254000D02*
X0336500Y0254000D01*
X0337000Y0253500D01*
X0333866Y0257437D02*
X0329867Y0257437D01*
X0329867Y0258436D02*
X0335851Y0258436D01*
X0333994Y0259434D02*
X0329867Y0259434D01*
X0329867Y0260433D02*
X0332996Y0260433D01*
X0332445Y0261432D02*
X0329164Y0261432D01*
X0330016Y0262430D02*
X0332031Y0262430D01*
X0332000Y0263429D02*
X0330067Y0263429D01*
X0330067Y0264427D02*
X0332000Y0264427D01*
X0332386Y0265426D02*
X0330054Y0265426D01*
X0329414Y0266424D02*
X0332853Y0266424D01*
X0331000Y0268500D02*
X0340000Y0268500D01*
X0342000Y0266500D01*
X0342000Y0243500D01*
X0341034Y0240463D02*
X0342966Y0240463D01*
X0343965Y0239464D02*
X0340035Y0239464D01*
X0340104Y0237467D02*
X0343896Y0237467D01*
X0342898Y0236469D02*
X0341102Y0236469D01*
X0338077Y0238466D02*
X0345923Y0238466D01*
X0348077Y0238466D02*
X0350700Y0238466D01*
X0350700Y0239464D02*
X0350035Y0239464D01*
X0350104Y0237467D02*
X0350700Y0237467D01*
X0335923Y0238466D02*
X0323300Y0238466D01*
X0323300Y0237467D02*
X0333896Y0237467D01*
X0332898Y0236469D02*
X0323300Y0236469D01*
X0323300Y0235470D02*
X0332404Y0235470D01*
X0332000Y0234472D02*
X0323300Y0234472D01*
X0323300Y0233473D02*
X0332000Y0233473D01*
X0332013Y0232475D02*
X0323300Y0232475D01*
X0323300Y0231476D02*
X0332426Y0231476D01*
X0332951Y0230478D02*
X0323300Y0230478D01*
X0322874Y0239464D02*
X0333965Y0239464D01*
X0332966Y0240463D02*
X0281161Y0240463D01*
X0282335Y0239464D02*
X0283126Y0239464D01*
X0281747Y0242460D02*
X0332019Y0242460D01*
X0332000Y0243458D02*
X0282729Y0243458D01*
X0283143Y0244457D02*
X0332000Y0244457D01*
X0332398Y0245455D02*
X0283398Y0245455D01*
X0283398Y0246454D02*
X0332883Y0246454D01*
X0333881Y0247452D02*
X0283398Y0247452D01*
X0283398Y0248451D02*
X0335887Y0248451D01*
X0333980Y0249449D02*
X0283398Y0249449D01*
X0274461Y0249449D02*
X0270020Y0249449D01*
X0271019Y0250448D02*
X0274461Y0250448D01*
X0274461Y0251446D02*
X0271561Y0251446D01*
X0271975Y0252445D02*
X0274461Y0252445D01*
X0274567Y0253443D02*
X0272000Y0253443D01*
X0272000Y0254442D02*
X0274980Y0254442D01*
X0275752Y0255440D02*
X0271608Y0255440D01*
X0271132Y0256439D02*
X0277249Y0256439D01*
X0277566Y0257437D02*
X0270134Y0257437D01*
X0270006Y0259434D02*
X0275035Y0259434D01*
X0274621Y0260433D02*
X0271004Y0260433D01*
X0271555Y0261432D02*
X0274461Y0261432D01*
X0274461Y0262430D02*
X0271969Y0262430D01*
X0272000Y0263429D02*
X0274461Y0263429D01*
X0274461Y0264427D02*
X0272000Y0264427D01*
X0271614Y0265426D02*
X0274461Y0265426D01*
X0274461Y0266424D02*
X0271147Y0266424D01*
X0270148Y0267423D02*
X0274461Y0267423D01*
X0274461Y0268421D02*
X0268185Y0268421D01*
X0269991Y0269420D02*
X0274661Y0269420D01*
X0275075Y0270418D02*
X0270989Y0270418D01*
X0271549Y0271417D02*
X0275980Y0271417D01*
X0280843Y0273414D02*
X0293000Y0273414D01*
X0293000Y0274412D02*
X0282203Y0274412D01*
X0282918Y0275411D02*
X0293000Y0275411D01*
X0293081Y0276409D02*
X0283332Y0276409D01*
X0283398Y0277408D02*
X0294079Y0277408D01*
X0295078Y0278406D02*
X0283398Y0278406D01*
X0283398Y0279405D02*
X0296076Y0279405D01*
X0297075Y0280403D02*
X0283398Y0280403D01*
X0283398Y0281402D02*
X0298073Y0281402D01*
X0299072Y0282400D02*
X0283398Y0282400D01*
X0283398Y0283399D02*
X0300070Y0283399D01*
X0299613Y0284397D02*
X0283398Y0284397D01*
X0283103Y0285396D02*
X0298276Y0285396D01*
X0297277Y0286394D02*
X0282649Y0286394D01*
X0281650Y0287393D02*
X0296279Y0287393D01*
X0295280Y0288391D02*
X0268257Y0288391D01*
X0269961Y0289390D02*
X0276464Y0289390D01*
X0275427Y0290388D02*
X0270959Y0290388D01*
X0271537Y0291387D02*
X0274846Y0291387D01*
X0274461Y0292385D02*
X0271950Y0292385D01*
X0272000Y0293384D02*
X0274461Y0293384D01*
X0274461Y0294382D02*
X0272000Y0294382D01*
X0271633Y0295381D02*
X0274461Y0295381D01*
X0274461Y0296379D02*
X0271192Y0296379D01*
X0270193Y0297378D02*
X0274461Y0297378D01*
X0274461Y0298376D02*
X0268293Y0298376D01*
X0269946Y0299375D02*
X0274461Y0299375D01*
X0274461Y0300373D02*
X0270945Y0300373D01*
X0271530Y0301372D02*
X0274850Y0301372D01*
X0273301Y0302370D02*
X0271944Y0302370D01*
X0272000Y0303369D02*
X0272303Y0303369D01*
X0274400Y0304100D02*
X0270000Y0308500D01*
X0248693Y0308500D01*
X0245071Y0312122D01*
X0249539Y0312356D02*
X0252062Y0312356D01*
X0252000Y0313354D02*
X0249539Y0313354D01*
X0249539Y0314353D02*
X0252000Y0314353D01*
X0252355Y0315351D02*
X0249539Y0315351D01*
X0249469Y0316350D02*
X0252779Y0316350D01*
X0253777Y0317348D02*
X0249055Y0317348D01*
X0248334Y0318347D02*
X0255635Y0318347D01*
X0254084Y0319345D02*
X0246959Y0319345D01*
X0246227Y0320344D02*
X0253085Y0320344D01*
X0252482Y0321342D02*
X0248031Y0321342D01*
X0248930Y0322341D02*
X0252068Y0322341D01*
X0252000Y0323339D02*
X0249343Y0323339D01*
X0249539Y0324338D02*
X0252000Y0324338D01*
X0252349Y0325336D02*
X0249539Y0325336D01*
X0249539Y0326335D02*
X0252764Y0326335D01*
X0253762Y0327333D02*
X0249539Y0327333D01*
X0249539Y0328332D02*
X0255599Y0328332D01*
X0253892Y0329330D02*
X0249539Y0329330D01*
X0249539Y0330329D02*
X0252876Y0330329D01*
X0252271Y0331327D02*
X0249539Y0331327D01*
X0249374Y0332326D02*
X0251921Y0332326D01*
X0243734Y0335321D02*
X0228300Y0335321D01*
X0228300Y0334323D02*
X0242036Y0334323D01*
X0241181Y0333324D02*
X0228300Y0333324D01*
X0228300Y0332326D02*
X0240767Y0332326D01*
X0240602Y0331327D02*
X0228300Y0331327D01*
X0228300Y0330329D02*
X0240602Y0330329D01*
X0240602Y0329330D02*
X0228300Y0329330D01*
X0228300Y0328332D02*
X0240602Y0328332D01*
X0240602Y0327333D02*
X0228300Y0327333D01*
X0228300Y0326335D02*
X0240602Y0326335D01*
X0240602Y0325336D02*
X0228300Y0325336D01*
X0228300Y0324338D02*
X0240602Y0324338D01*
X0240798Y0323339D02*
X0228300Y0323339D01*
X0228300Y0322341D02*
X0241212Y0322341D01*
X0242111Y0321342D02*
X0228300Y0321342D01*
X0228300Y0320344D02*
X0243915Y0320344D01*
X0243183Y0319345D02*
X0228300Y0319345D01*
X0228300Y0318347D02*
X0241808Y0318347D01*
X0241086Y0317348D02*
X0228300Y0317348D01*
X0228300Y0316350D02*
X0240673Y0316350D01*
X0240602Y0315351D02*
X0228300Y0315351D01*
X0228300Y0314353D02*
X0240602Y0314353D01*
X0240602Y0313354D02*
X0228300Y0313354D01*
X0228300Y0312356D02*
X0240602Y0312356D01*
X0240602Y0311357D02*
X0228300Y0311357D01*
X0228300Y0310359D02*
X0240602Y0310359D01*
X0240602Y0309360D02*
X0228300Y0309360D01*
X0228300Y0308362D02*
X0240602Y0308362D01*
X0240893Y0307363D02*
X0228300Y0307363D01*
X0228300Y0306365D02*
X0241340Y0306365D01*
X0242339Y0305366D02*
X0228300Y0305366D01*
X0228300Y0304368D02*
X0252000Y0304368D01*
X0252000Y0303369D02*
X0247747Y0303369D01*
X0247518Y0303535D02*
X0248112Y0303103D01*
X0248632Y0302584D01*
X0249064Y0301989D01*
X0249397Y0301335D01*
X0249624Y0300636D01*
X0249739Y0299910D01*
X0249739Y0296858D01*
X0245555Y0296858D01*
X0245555Y0295890D01*
X0249739Y0295890D01*
X0249739Y0292838D01*
X0249624Y0292112D01*
X0249397Y0291413D01*
X0249064Y0290759D01*
X0248632Y0290164D01*
X0248112Y0289645D01*
X0247518Y0289213D01*
X0246863Y0288879D01*
X0246164Y0288652D01*
X0245555Y0288556D01*
X0245555Y0295890D01*
X0244587Y0295890D01*
X0244587Y0288556D01*
X0243978Y0288652D01*
X0243279Y0288879D01*
X0242624Y0289213D01*
X0242030Y0289645D01*
X0241510Y0290164D01*
X0241078Y0290759D01*
X0240744Y0291413D01*
X0240517Y0292112D01*
X0240402Y0292838D01*
X0240402Y0295890D01*
X0244587Y0295890D01*
X0244587Y0296858D01*
X0240402Y0296858D01*
X0240402Y0299910D01*
X0240517Y0300636D01*
X0240744Y0301335D01*
X0241078Y0301989D01*
X0241510Y0302584D01*
X0242030Y0303103D01*
X0242624Y0303535D01*
X0243279Y0303869D01*
X0243978Y0304096D01*
X0244587Y0304192D01*
X0244587Y0296858D01*
X0245555Y0296858D01*
X0245555Y0304192D01*
X0246164Y0304096D01*
X0246863Y0303869D01*
X0247518Y0303535D01*
X0248787Y0302370D02*
X0252056Y0302370D01*
X0252469Y0301372D02*
X0249378Y0301372D01*
X0249666Y0300373D02*
X0253055Y0300373D01*
X0254054Y0299375D02*
X0249739Y0299375D01*
X0249739Y0298376D02*
X0255707Y0298376D01*
X0253807Y0297378D02*
X0249739Y0297378D01*
X0249739Y0295381D02*
X0252367Y0295381D01*
X0252000Y0294382D02*
X0249739Y0294382D01*
X0249739Y0293384D02*
X0252000Y0293384D01*
X0252050Y0292385D02*
X0249668Y0292385D01*
X0249384Y0291387D02*
X0252463Y0291387D01*
X0253041Y0290388D02*
X0248795Y0290388D01*
X0247762Y0289390D02*
X0254039Y0289390D01*
X0255743Y0288391D02*
X0245891Y0288391D01*
X0245555Y0288391D02*
X0244587Y0288391D01*
X0244251Y0288391D02*
X0228300Y0288391D01*
X0228300Y0287393D02*
X0242081Y0287393D01*
X0241189Y0286394D02*
X0228300Y0286394D01*
X0228300Y0285396D02*
X0240682Y0285396D01*
X0240440Y0284397D02*
X0228300Y0284397D01*
X0228300Y0283399D02*
X0240402Y0283399D01*
X0240402Y0282400D02*
X0228300Y0282400D01*
X0228300Y0281402D02*
X0240402Y0281402D01*
X0240402Y0280142D02*
X0240402Y0277090D01*
X0240517Y0276364D01*
X0240744Y0275665D01*
X0241078Y0275011D01*
X0241510Y0274416D01*
X0242030Y0273897D01*
X0242624Y0273465D01*
X0243279Y0273131D01*
X0243978Y0272904D01*
X0244587Y0272807D01*
X0244587Y0280142D01*
X0240402Y0280142D01*
X0240402Y0279405D02*
X0228300Y0279405D01*
X0228300Y0280403D02*
X0244587Y0280403D01*
X0245555Y0280403D02*
X0253026Y0280403D01*
X0252457Y0281402D02*
X0249739Y0281402D01*
X0249739Y0282400D02*
X0252044Y0282400D01*
X0252000Y0283399D02*
X0249739Y0283399D01*
X0249702Y0284397D02*
X0252000Y0284397D01*
X0252373Y0285396D02*
X0249459Y0285396D01*
X0248953Y0286394D02*
X0252823Y0286394D01*
X0253822Y0287393D02*
X0248061Y0287393D01*
X0245555Y0287393D02*
X0244587Y0287393D01*
X0244587Y0286394D02*
X0245555Y0286394D01*
X0245555Y0285396D02*
X0244587Y0285396D01*
X0244587Y0284397D02*
X0245555Y0284397D01*
X0245555Y0283399D02*
X0244587Y0283399D01*
X0244587Y0282400D02*
X0245555Y0282400D01*
X0245555Y0281402D02*
X0244587Y0281402D01*
X0244587Y0279405D02*
X0245555Y0279405D01*
X0245555Y0278406D02*
X0244587Y0278406D01*
X0244587Y0277408D02*
X0245555Y0277408D01*
X0245555Y0276409D02*
X0244587Y0276409D01*
X0244587Y0275411D02*
X0245555Y0275411D01*
X0245555Y0274412D02*
X0244587Y0274412D01*
X0244587Y0273414D02*
X0245555Y0273414D01*
X0246201Y0272415D02*
X0252037Y0272415D01*
X0258185Y0268421D02*
X0265815Y0268421D01*
X0264009Y0269420D02*
X0259991Y0269420D01*
X0260989Y0270418D02*
X0263011Y0270418D01*
X0263852Y0267423D02*
X0260148Y0267423D01*
X0261147Y0266424D02*
X0262853Y0266424D01*
X0262996Y0260433D02*
X0261004Y0260433D01*
X0260006Y0259434D02*
X0263994Y0259434D01*
X0263866Y0257437D02*
X0260134Y0257437D01*
X0261132Y0256439D02*
X0262868Y0256439D01*
X0265851Y0258436D02*
X0258149Y0258436D01*
X0255851Y0258436D02*
X0248117Y0258436D01*
X0246751Y0256439D02*
X0252868Y0256439D01*
X0252392Y0255440D02*
X0248248Y0255440D01*
X0249020Y0254442D02*
X0252000Y0254442D01*
X0252000Y0253443D02*
X0249433Y0253443D01*
X0249539Y0252445D02*
X0252025Y0252445D01*
X0252439Y0251446D02*
X0249539Y0251446D01*
X0249539Y0250448D02*
X0252981Y0250448D01*
X0253980Y0249449D02*
X0249539Y0249449D01*
X0249539Y0248451D02*
X0255887Y0248451D01*
X0256005Y0248500D02*
X0254168Y0247739D01*
X0252761Y0246332D01*
X0252000Y0244495D01*
X0252000Y0242505D01*
X0252761Y0240668D01*
X0254168Y0239261D01*
X0256005Y0238500D01*
X0254168Y0237739D01*
X0252761Y0236332D01*
X0252000Y0234495D01*
X0252000Y0232505D01*
X0252761Y0230668D01*
X0254168Y0229261D01*
X0256005Y0228500D01*
X0257995Y0228500D01*
X0259832Y0229261D01*
X0261239Y0230668D01*
X0261459Y0231200D01*
X0262541Y0231200D01*
X0262761Y0230668D01*
X0264168Y0229261D01*
X0266005Y0228500D01*
X0267995Y0228500D01*
X0269832Y0229261D01*
X0271239Y0230668D01*
X0272000Y0232505D01*
X0272000Y0234495D01*
X0271239Y0236332D01*
X0269832Y0237739D01*
X0267995Y0238500D01*
X0266005Y0238500D01*
X0264168Y0237739D01*
X0262761Y0236332D01*
X0262541Y0235800D01*
X0261459Y0235800D01*
X0261239Y0236332D01*
X0259832Y0237739D01*
X0257995Y0238500D01*
X0256005Y0238500D01*
X0257995Y0238500D01*
X0259832Y0239261D01*
X0261239Y0240668D01*
X0261459Y0241200D01*
X0262541Y0241200D01*
X0262761Y0240668D01*
X0264168Y0239261D01*
X0266005Y0238500D01*
X0267995Y0238500D01*
X0269832Y0239261D01*
X0271239Y0240668D01*
X0272000Y0242505D01*
X0272000Y0244495D01*
X0271239Y0246332D01*
X0269832Y0247739D01*
X0267995Y0248500D01*
X0266005Y0248500D01*
X0264168Y0247739D01*
X0262761Y0246332D01*
X0262541Y0245800D01*
X0261459Y0245800D01*
X0261239Y0246332D01*
X0259832Y0247739D01*
X0257995Y0248500D01*
X0256005Y0248500D01*
X0258113Y0248451D02*
X0265887Y0248451D01*
X0263980Y0249449D02*
X0260020Y0249449D01*
X0261019Y0250448D02*
X0262981Y0250448D01*
X0263881Y0247452D02*
X0260119Y0247452D01*
X0261117Y0246454D02*
X0262883Y0246454D01*
X0268113Y0248451D02*
X0274461Y0248451D01*
X0274461Y0247452D02*
X0270119Y0247452D01*
X0271117Y0246454D02*
X0274461Y0246454D01*
X0274461Y0245455D02*
X0271602Y0245455D01*
X0272000Y0244457D02*
X0274716Y0244457D01*
X0275129Y0243458D02*
X0272000Y0243458D01*
X0271981Y0242460D02*
X0276111Y0242460D01*
X0276698Y0240463D02*
X0271034Y0240463D01*
X0271567Y0241461D02*
X0332432Y0241461D01*
X0338113Y0248451D02*
X0340000Y0248451D01*
X0340000Y0258436D02*
X0338149Y0258436D01*
X0332868Y0256439D02*
X0329148Y0256439D01*
X0319325Y0256439D02*
X0308675Y0256439D01*
X0309394Y0257437D02*
X0318606Y0257437D01*
X0318606Y0255440D02*
X0309394Y0255440D01*
X0309394Y0254442D02*
X0318606Y0254442D01*
X0318606Y0253443D02*
X0309394Y0253443D01*
X0309394Y0252445D02*
X0318606Y0252445D01*
X0315236Y0258436D02*
X0310764Y0258436D01*
X0311763Y0259434D02*
X0314237Y0259434D01*
X0313239Y0260433D02*
X0312000Y0260433D01*
X0312000Y0261432D02*
X0313000Y0261432D01*
X0313000Y0262430D02*
X0312000Y0262430D01*
X0312000Y0263429D02*
X0313000Y0263429D01*
X0313000Y0264427D02*
X0312000Y0264427D01*
X0312000Y0265426D02*
X0313000Y0265426D01*
X0313000Y0266424D02*
X0312000Y0266424D01*
X0312000Y0267423D02*
X0313000Y0267423D01*
X0313000Y0268421D02*
X0312000Y0268421D01*
X0312000Y0269420D02*
X0313000Y0269420D01*
X0313000Y0270418D02*
X0312000Y0270418D01*
X0312000Y0271417D02*
X0313000Y0271417D01*
X0313000Y0272415D02*
X0312000Y0272415D01*
X0312000Y0273414D02*
X0313000Y0273414D01*
X0313000Y0274412D02*
X0312000Y0274412D01*
X0312000Y0275411D02*
X0313000Y0275411D01*
X0313081Y0276409D02*
X0312000Y0276409D01*
X0312000Y0277408D02*
X0314079Y0277408D01*
X0315078Y0278406D02*
X0312000Y0278406D01*
X0311924Y0279405D02*
X0316076Y0279405D01*
X0317356Y0280403D02*
X0310925Y0280403D01*
X0310000Y0281402D02*
X0318000Y0281402D01*
X0318000Y0282400D02*
X0310000Y0282400D01*
X0310000Y0283399D02*
X0318000Y0283399D01*
X0318000Y0284397D02*
X0310000Y0284397D01*
X0310000Y0285396D02*
X0318000Y0285396D01*
X0318000Y0286394D02*
X0310000Y0286394D01*
X0311846Y0287393D02*
X0312815Y0287393D01*
X0312815Y0288391D02*
X0311846Y0288391D01*
X0311846Y0289390D02*
X0312815Y0289390D01*
X0312815Y0290388D02*
X0318000Y0290388D01*
X0318000Y0289390D02*
X0316587Y0289390D01*
X0316587Y0288391D02*
X0318000Y0288391D01*
X0318000Y0287393D02*
X0316069Y0287393D01*
X0316587Y0291387D02*
X0318000Y0291387D01*
X0318000Y0292385D02*
X0316587Y0292385D01*
X0316290Y0293384D02*
X0318000Y0293384D01*
X0318000Y0294382D02*
X0307725Y0294382D01*
X0307725Y0295381D02*
X0318000Y0295381D01*
X0318000Y0296379D02*
X0307725Y0296379D01*
X0307094Y0297378D02*
X0318000Y0297378D01*
X0317295Y0298376D02*
X0295503Y0298376D01*
X0296502Y0297378D02*
X0300244Y0297378D01*
X0299613Y0296379D02*
X0297500Y0296379D01*
X0294505Y0299375D02*
X0316297Y0299375D01*
X0315298Y0300373D02*
X0293506Y0300373D01*
X0292508Y0301372D02*
X0314300Y0301372D01*
X0313301Y0302370D02*
X0291509Y0302370D01*
X0286294Y0297378D02*
X0283398Y0297378D01*
X0283398Y0298376D02*
X0285295Y0298376D01*
X0284297Y0299375D02*
X0283398Y0299375D01*
X0283398Y0296379D02*
X0287292Y0296379D01*
X0288291Y0295381D02*
X0283398Y0295381D01*
X0283398Y0294382D02*
X0289289Y0294382D01*
X0290288Y0293384D02*
X0283398Y0293384D01*
X0283398Y0292385D02*
X0291286Y0292385D01*
X0292285Y0291387D02*
X0283012Y0291387D01*
X0282431Y0290388D02*
X0293283Y0290388D01*
X0294282Y0289390D02*
X0281394Y0289390D01*
X0276208Y0287393D02*
X0270178Y0287393D01*
X0271177Y0286394D02*
X0275210Y0286394D01*
X0274756Y0285396D02*
X0271627Y0285396D01*
X0272000Y0284397D02*
X0274461Y0284397D01*
X0274461Y0283399D02*
X0272000Y0283399D01*
X0271956Y0282400D02*
X0274461Y0282400D01*
X0274461Y0281402D02*
X0271543Y0281402D01*
X0270974Y0280403D02*
X0274461Y0280403D01*
X0274461Y0279405D02*
X0269976Y0279405D01*
X0265743Y0288391D02*
X0258257Y0288391D01*
X0259961Y0289390D02*
X0264039Y0289390D01*
X0263041Y0290388D02*
X0260959Y0290388D01*
X0260178Y0287393D02*
X0263822Y0287393D01*
X0262823Y0286394D02*
X0261177Y0286394D01*
X0261192Y0296379D02*
X0262808Y0296379D01*
X0263807Y0297378D02*
X0260193Y0297378D01*
X0259946Y0299375D02*
X0264054Y0299375D01*
X0263055Y0300373D02*
X0260945Y0300373D01*
X0258293Y0298376D02*
X0265707Y0298376D01*
X0274400Y0304100D02*
X0282400Y0304100D01*
X0299740Y0286760D01*
X0303669Y0286760D01*
X0303669Y0284169D01*
X0295000Y0275500D01*
X0295000Y0266500D01*
X0297000Y0264500D01*
X0303764Y0269000D02*
X0306000Y0269000D01*
X0306000Y0274500D01*
X0317000Y0274412D02*
X0322461Y0274412D01*
X0324370Y0274412D02*
X0324748Y0274412D01*
X0324748Y0275411D02*
X0324370Y0275411D01*
X0324370Y0276409D02*
X0324748Y0276409D01*
X0324748Y0277408D02*
X0333837Y0277408D01*
X0332838Y0276409D02*
X0327437Y0276409D01*
X0327405Y0275411D02*
X0332379Y0275411D01*
X0332000Y0274412D02*
X0326657Y0274412D01*
X0329170Y0271417D02*
X0332451Y0271417D01*
X0332037Y0272415D02*
X0317000Y0272415D01*
X0317000Y0271417D02*
X0319303Y0271417D01*
X0318606Y0270418D02*
X0317000Y0270418D01*
X0317000Y0269420D02*
X0318606Y0269420D01*
X0318606Y0268421D02*
X0317000Y0268421D01*
X0317000Y0267423D02*
X0318606Y0267423D01*
X0319058Y0266424D02*
X0317000Y0266424D01*
X0317000Y0265426D02*
X0318418Y0265426D01*
X0318406Y0264427D02*
X0317000Y0264427D01*
X0317000Y0263429D02*
X0318406Y0263429D01*
X0318457Y0262430D02*
X0317000Y0262430D01*
X0324236Y0269000D02*
X0330500Y0269000D01*
X0331000Y0268500D01*
X0332000Y0273414D02*
X0317000Y0273414D01*
X0322000Y0280403D02*
X0322191Y0280403D01*
X0322000Y0281402D02*
X0332457Y0281402D01*
X0332044Y0282400D02*
X0322000Y0282400D01*
X0322000Y0283399D02*
X0332000Y0283399D01*
X0332000Y0284397D02*
X0322000Y0284397D01*
X0322000Y0285396D02*
X0332373Y0285396D01*
X0332823Y0286394D02*
X0322000Y0286394D01*
X0322000Y0287393D02*
X0333822Y0287393D01*
X0334039Y0289390D02*
X0322000Y0289390D01*
X0322000Y0290388D02*
X0333041Y0290388D01*
X0332463Y0291387D02*
X0322000Y0291387D01*
X0322000Y0292385D02*
X0332050Y0292385D01*
X0332000Y0293384D02*
X0322000Y0293384D01*
X0322000Y0294382D02*
X0332000Y0294382D01*
X0332367Y0295381D02*
X0322000Y0295381D01*
X0322000Y0296379D02*
X0332808Y0296379D01*
X0333807Y0297378D02*
X0322000Y0297378D01*
X0322000Y0298376D02*
X0335707Y0298376D01*
X0334054Y0299375D02*
X0321953Y0299375D01*
X0320955Y0300373D02*
X0333055Y0300373D01*
X0332469Y0301372D02*
X0319956Y0301372D01*
X0318958Y0302370D02*
X0332056Y0302370D01*
X0332000Y0303369D02*
X0317959Y0303369D01*
X0316961Y0304368D02*
X0332000Y0304368D01*
X0332361Y0305366D02*
X0315962Y0305366D01*
X0314964Y0306365D02*
X0332793Y0306365D01*
X0333792Y0307363D02*
X0311780Y0307363D01*
X0313028Y0308362D02*
X0335671Y0308362D01*
X0333851Y0309360D02*
X0314277Y0309360D01*
X0315525Y0310359D02*
X0332855Y0310359D01*
X0332256Y0311357D02*
X0316773Y0311357D01*
X0317000Y0312356D02*
X0331916Y0312356D01*
X0331870Y0314353D02*
X0317000Y0314353D01*
X0317000Y0315351D02*
X0332134Y0315351D01*
X0332643Y0316350D02*
X0317000Y0316350D01*
X0317000Y0317348D02*
X0333494Y0317348D01*
X0335089Y0318347D02*
X0317000Y0318347D01*
X0317000Y0319345D02*
X0334084Y0319345D01*
X0333085Y0320344D02*
X0317000Y0320344D01*
X0317000Y0321342D02*
X0332482Y0321342D01*
X0332068Y0322341D02*
X0317000Y0322341D01*
X0317000Y0323339D02*
X0332000Y0323339D01*
X0332000Y0324338D02*
X0317000Y0324338D01*
X0317000Y0325336D02*
X0332349Y0325336D01*
X0332764Y0326335D02*
X0317000Y0326335D01*
X0317000Y0327333D02*
X0333762Y0327333D01*
X0334099Y0329330D02*
X0317000Y0329330D01*
X0317000Y0328332D02*
X0335599Y0328332D01*
X0338401Y0328332D02*
X0345599Y0328332D01*
X0344099Y0329330D02*
X0339901Y0329330D01*
X0340900Y0330329D02*
X0343100Y0330329D01*
X0343762Y0327333D02*
X0340238Y0327333D01*
X0341236Y0326335D02*
X0342764Y0326335D01*
X0348401Y0328332D02*
X0350700Y0328332D01*
X0350700Y0329330D02*
X0349901Y0329330D01*
X0350238Y0327333D02*
X0350700Y0327333D01*
X0346500Y0314000D02*
X0337500Y0314000D01*
X0337500Y0313000D01*
X0342186Y0313000D01*
X0346500Y0313000D01*
X0346500Y0314000D01*
X0346500Y0313354D02*
X0337500Y0313354D01*
X0336500Y0313354D02*
X0317000Y0313354D01*
X0315000Y0313354D02*
X0304000Y0313354D01*
X0304000Y0312356D02*
X0314820Y0312356D01*
X0315000Y0312500D02*
X0310000Y0308500D01*
X0304000Y0308500D01*
X0304000Y0314500D01*
X0306000Y0316500D01*
X0315000Y0316500D01*
X0315000Y0312500D01*
X0313571Y0311357D02*
X0304000Y0311357D01*
X0304000Y0310359D02*
X0312323Y0310359D01*
X0311075Y0309360D02*
X0304000Y0309360D01*
X0304000Y0314353D02*
X0315000Y0314353D01*
X0315000Y0315351D02*
X0304851Y0315351D01*
X0305850Y0316350D02*
X0315000Y0316350D01*
X0305410Y0323339D02*
X0303590Y0323339D01*
X0304072Y0324338D02*
X0304767Y0324338D01*
X0304728Y0325336D02*
X0304072Y0325336D01*
X0304072Y0326335D02*
X0304728Y0326335D01*
X0304728Y0327333D02*
X0304072Y0327333D01*
X0303715Y0328332D02*
X0305013Y0328332D01*
X0303300Y0329330D02*
X0311000Y0329330D01*
X0310987Y0328332D02*
X0311000Y0328332D01*
X0311000Y0330329D02*
X0303963Y0330329D01*
X0305033Y0331327D02*
X0311000Y0331327D01*
X0311000Y0332326D02*
X0305498Y0332326D01*
X0305681Y0333324D02*
X0311000Y0333324D01*
X0311000Y0334323D02*
X0305644Y0334323D01*
X0305230Y0335321D02*
X0311000Y0335321D01*
X0311000Y0336320D02*
X0304386Y0336320D01*
X0302314Y0338317D02*
X0282882Y0338317D01*
X0283296Y0339315D02*
X0302314Y0339315D01*
X0302314Y0340314D02*
X0283398Y0340314D01*
X0282117Y0337318D02*
X0311000Y0337318D01*
X0317000Y0337318D02*
X0320580Y0337318D01*
X0320740Y0337276D02*
X0325161Y0337276D01*
X0325161Y0343000D01*
X0319437Y0343000D01*
X0319437Y0338578D01*
X0319539Y0338197D01*
X0319737Y0337855D01*
X0320016Y0337575D01*
X0320358Y0337378D01*
X0320740Y0337276D01*
X0319507Y0338317D02*
X0317000Y0338317D01*
X0317000Y0339315D02*
X0319437Y0339315D01*
X0319437Y0340314D02*
X0316910Y0340314D01*
X0316430Y0341312D02*
X0319437Y0341312D01*
X0319437Y0342311D02*
X0315432Y0342311D01*
X0314433Y0343309D02*
X0325161Y0343309D01*
X0325161Y0343000D02*
X0325161Y0344000D01*
X0319437Y0344000D01*
X0319437Y0348422D01*
X0319539Y0348803D01*
X0319737Y0349145D01*
X0320016Y0349425D01*
X0320358Y0349622D01*
X0320740Y0349724D01*
X0325161Y0349724D01*
X0325161Y0344000D01*
X0326161Y0344000D01*
X0326161Y0349724D01*
X0330583Y0349724D01*
X0330965Y0349622D01*
X0331307Y0349425D01*
X0331586Y0349145D01*
X0331784Y0348803D01*
X0331886Y0348422D01*
X0331886Y0344000D01*
X0326161Y0344000D01*
X0326161Y0343000D01*
X0326161Y0337276D01*
X0330583Y0337276D01*
X0330965Y0337378D01*
X0331307Y0337575D01*
X0331586Y0337855D01*
X0331784Y0338197D01*
X0331886Y0338578D01*
X0331886Y0343000D01*
X0326161Y0343000D01*
X0325161Y0343000D01*
X0325161Y0342311D02*
X0326161Y0342311D01*
X0326161Y0343309D02*
X0332000Y0343309D01*
X0332000Y0344308D02*
X0331886Y0344308D01*
X0331886Y0345306D02*
X0332336Y0345306D01*
X0332750Y0346305D02*
X0331886Y0346305D01*
X0331886Y0347303D02*
X0333732Y0347303D01*
X0335527Y0348302D02*
X0331886Y0348302D01*
X0331431Y0349301D02*
X0350700Y0349301D01*
X0350700Y0350299D02*
X0281736Y0350299D01*
X0281000Y0351298D02*
X0350700Y0351298D01*
X0350700Y0352296D02*
X0280032Y0352296D01*
X0279034Y0353295D02*
X0350700Y0353295D01*
X0350638Y0354293D02*
X0278035Y0354293D01*
X0277037Y0355292D02*
X0350453Y0355292D01*
X0350129Y0356290D02*
X0276038Y0356290D01*
X0275040Y0357289D02*
X0349804Y0357289D01*
X0349143Y0358287D02*
X0265419Y0358287D01*
X0263000Y0355500D02*
X0274000Y0355500D01*
X0279000Y0350500D01*
X0279000Y0343689D01*
X0278929Y0343618D01*
X0283398Y0347303D02*
X0302314Y0347303D01*
X0302314Y0348302D02*
X0283138Y0348302D01*
X0282725Y0349301D02*
X0302852Y0349301D01*
X0313825Y0349301D02*
X0319892Y0349301D01*
X0319437Y0348302D02*
X0314363Y0348302D01*
X0314363Y0347303D02*
X0319437Y0347303D01*
X0319437Y0346305D02*
X0314363Y0346305D01*
X0314363Y0345306D02*
X0319437Y0345306D01*
X0319437Y0344308D02*
X0314363Y0344308D01*
X0317000Y0336320D02*
X0332756Y0336320D01*
X0332342Y0335321D02*
X0317000Y0335321D01*
X0317000Y0334323D02*
X0332000Y0334323D01*
X0332000Y0333324D02*
X0317000Y0333324D01*
X0317000Y0332326D02*
X0332074Y0332326D01*
X0332488Y0331327D02*
X0317000Y0331327D01*
X0317000Y0330329D02*
X0333100Y0330329D01*
X0333747Y0337318D02*
X0330743Y0337318D01*
X0331816Y0338317D02*
X0335563Y0338317D01*
X0334114Y0339315D02*
X0331886Y0339315D01*
X0331886Y0340314D02*
X0333115Y0340314D01*
X0332494Y0341312D02*
X0331886Y0341312D01*
X0331886Y0342311D02*
X0332081Y0342311D01*
X0326161Y0341312D02*
X0325161Y0341312D01*
X0325161Y0340314D02*
X0326161Y0340314D01*
X0326161Y0339315D02*
X0325161Y0339315D01*
X0325161Y0338317D02*
X0326161Y0338317D01*
X0326161Y0337318D02*
X0325161Y0337318D01*
X0325161Y0344308D02*
X0326161Y0344308D01*
X0326161Y0345306D02*
X0325161Y0345306D01*
X0325161Y0346305D02*
X0326161Y0346305D01*
X0326161Y0347303D02*
X0325161Y0347303D01*
X0325161Y0348302D02*
X0326161Y0348302D01*
X0326161Y0349301D02*
X0325161Y0349301D01*
X0338473Y0348302D02*
X0345527Y0348302D01*
X0343732Y0347303D02*
X0340268Y0347303D01*
X0341250Y0346305D02*
X0342750Y0346305D01*
X0343115Y0340314D02*
X0340885Y0340314D01*
X0339886Y0339315D02*
X0344114Y0339315D01*
X0345563Y0338317D02*
X0338437Y0338317D01*
X0340253Y0337318D02*
X0343747Y0337318D01*
X0342756Y0336320D02*
X0341244Y0336320D01*
X0348437Y0338317D02*
X0350700Y0338317D01*
X0350700Y0339315D02*
X0349886Y0339315D01*
X0350253Y0337318D02*
X0350700Y0337318D01*
X0350700Y0347303D02*
X0350268Y0347303D01*
X0350700Y0348302D02*
X0348473Y0348302D01*
X0348418Y0359286D02*
X0230582Y0359286D01*
X0229857Y0358287D02*
X0260581Y0358287D01*
X0259756Y0357289D02*
X0229196Y0357289D01*
X0228871Y0356290D02*
X0259343Y0356290D01*
X0259319Y0355292D02*
X0228547Y0355292D01*
X0228362Y0354293D02*
X0259516Y0354293D01*
X0260000Y0353295D02*
X0228300Y0353295D01*
X0228300Y0352296D02*
X0261116Y0352296D01*
X0264884Y0352296D02*
X0274376Y0352296D01*
X0275374Y0351298D02*
X0228300Y0351298D01*
X0228300Y0350299D02*
X0242264Y0350299D01*
X0241275Y0349301D02*
X0228300Y0349301D01*
X0228300Y0348302D02*
X0240862Y0348302D01*
X0240602Y0347303D02*
X0228300Y0347303D01*
X0228300Y0346305D02*
X0240602Y0346305D01*
X0240602Y0345306D02*
X0228300Y0345306D01*
X0228300Y0344308D02*
X0240602Y0344308D01*
X0240602Y0343309D02*
X0228300Y0343309D01*
X0228300Y0342311D02*
X0240602Y0342311D01*
X0240602Y0341312D02*
X0228300Y0341312D01*
X0228300Y0340314D02*
X0240602Y0340314D01*
X0240704Y0339315D02*
X0228300Y0339315D01*
X0228300Y0338317D02*
X0241118Y0338317D01*
X0241883Y0337318D02*
X0228300Y0337318D01*
X0228300Y0336320D02*
X0243364Y0336320D01*
X0248866Y0349301D02*
X0275134Y0349301D01*
X0276122Y0350299D02*
X0247878Y0350299D01*
X0266000Y0353295D02*
X0273377Y0353295D01*
X0280636Y0336320D02*
X0299614Y0336320D01*
X0307811Y0328332D02*
X0308189Y0328332D01*
X0308189Y0327333D02*
X0307811Y0327333D01*
X0307811Y0326335D02*
X0308189Y0326335D01*
X0301000Y0326059D02*
X0296559Y0326059D01*
X0286000Y0315500D01*
X0286000Y0309500D01*
X0275199Y0306365D02*
X0274964Y0306365D01*
X0274751Y0307363D02*
X0273965Y0307363D01*
X0274461Y0308362D02*
X0272967Y0308362D01*
X0271968Y0309360D02*
X0274461Y0309360D01*
X0274461Y0310359D02*
X0270970Y0310359D01*
X0271524Y0311357D02*
X0274461Y0311357D01*
X0265635Y0318347D02*
X0258365Y0318347D01*
X0259916Y0319345D02*
X0264084Y0319345D01*
X0263085Y0320344D02*
X0260915Y0320344D01*
X0260223Y0317348D02*
X0263777Y0317348D01*
X0262779Y0316350D02*
X0261221Y0316350D01*
X0252476Y0311357D02*
X0249539Y0311357D01*
X0248801Y0306365D02*
X0252793Y0306365D01*
X0252361Y0305366D02*
X0247803Y0305366D01*
X0245555Y0303369D02*
X0244587Y0303369D01*
X0244587Y0302370D02*
X0245555Y0302370D01*
X0245555Y0301372D02*
X0244587Y0301372D01*
X0244587Y0300373D02*
X0245555Y0300373D01*
X0245555Y0299375D02*
X0244587Y0299375D01*
X0244587Y0298376D02*
X0245555Y0298376D01*
X0245555Y0297378D02*
X0244587Y0297378D01*
X0244587Y0296379D02*
X0228300Y0296379D01*
X0228300Y0295381D02*
X0240402Y0295381D01*
X0240402Y0294382D02*
X0228300Y0294382D01*
X0228300Y0293384D02*
X0240402Y0293384D01*
X0240474Y0292385D02*
X0228300Y0292385D01*
X0228300Y0291387D02*
X0240758Y0291387D01*
X0241347Y0290388D02*
X0228300Y0290388D01*
X0228300Y0289390D02*
X0242380Y0289390D01*
X0244587Y0289390D02*
X0245555Y0289390D01*
X0245555Y0290388D02*
X0244587Y0290388D01*
X0244587Y0291387D02*
X0245555Y0291387D01*
X0245555Y0292385D02*
X0244587Y0292385D01*
X0244587Y0293384D02*
X0245555Y0293384D01*
X0245555Y0294382D02*
X0244587Y0294382D01*
X0244587Y0295381D02*
X0245555Y0295381D01*
X0245555Y0296379D02*
X0252808Y0296379D01*
X0240402Y0297378D02*
X0228300Y0297378D01*
X0228300Y0298376D02*
X0240402Y0298376D01*
X0240402Y0299375D02*
X0228300Y0299375D01*
X0228300Y0300373D02*
X0240476Y0300373D01*
X0240763Y0301372D02*
X0228300Y0301372D01*
X0228300Y0302370D02*
X0241355Y0302370D01*
X0242395Y0303369D02*
X0228300Y0303369D01*
X0228300Y0278406D02*
X0240402Y0278406D01*
X0240402Y0277408D02*
X0228300Y0277408D01*
X0228300Y0276409D02*
X0240510Y0276409D01*
X0240874Y0275411D02*
X0228300Y0275411D01*
X0228300Y0274412D02*
X0241514Y0274412D01*
X0242724Y0273414D02*
X0228300Y0273414D01*
X0228300Y0272415D02*
X0243941Y0272415D01*
X0242122Y0271417D02*
X0228300Y0271417D01*
X0228300Y0270418D02*
X0241217Y0270418D01*
X0240803Y0269420D02*
X0228300Y0269420D01*
X0228300Y0268421D02*
X0240602Y0268421D01*
X0240602Y0267423D02*
X0228300Y0267423D01*
X0228300Y0266424D02*
X0240602Y0266424D01*
X0240602Y0265426D02*
X0228300Y0265426D01*
X0228300Y0264427D02*
X0240602Y0264427D01*
X0240602Y0263429D02*
X0228300Y0263429D01*
X0228300Y0262430D02*
X0240602Y0262430D01*
X0240602Y0261432D02*
X0228300Y0261432D01*
X0228300Y0260433D02*
X0240763Y0260433D01*
X0241177Y0259434D02*
X0228300Y0259434D01*
X0228300Y0258436D02*
X0242025Y0258436D01*
X0249539Y0247452D02*
X0253881Y0247452D01*
X0252883Y0246454D02*
X0249539Y0246454D01*
X0249539Y0245455D02*
X0252398Y0245455D01*
X0252000Y0244457D02*
X0249284Y0244457D01*
X0248871Y0243458D02*
X0252000Y0243458D01*
X0252019Y0242460D02*
X0247889Y0242460D01*
X0247302Y0240463D02*
X0252966Y0240463D01*
X0252432Y0241461D02*
X0228300Y0241461D01*
X0248476Y0239464D02*
X0253965Y0239464D01*
X0253896Y0237467D02*
X0249528Y0237467D01*
X0249539Y0236469D02*
X0252898Y0236469D01*
X0252404Y0235470D02*
X0249539Y0235470D01*
X0249539Y0234472D02*
X0252000Y0234472D01*
X0252000Y0233473D02*
X0249539Y0233473D01*
X0249539Y0232475D02*
X0252013Y0232475D01*
X0252426Y0231476D02*
X0249539Y0231476D01*
X0249539Y0230478D02*
X0252951Y0230478D01*
X0253950Y0229479D02*
X0249539Y0229479D01*
X0249190Y0228481D02*
X0274810Y0228481D01*
X0274461Y0229479D02*
X0270050Y0229479D01*
X0271049Y0230478D02*
X0274461Y0230478D01*
X0274461Y0231476D02*
X0271574Y0231476D01*
X0271987Y0232475D02*
X0274461Y0232475D01*
X0274461Y0233473D02*
X0272000Y0233473D01*
X0272000Y0234472D02*
X0274461Y0234472D01*
X0274461Y0235470D02*
X0271596Y0235470D01*
X0271102Y0236469D02*
X0274461Y0236469D01*
X0274472Y0237467D02*
X0270104Y0237467D01*
X0270035Y0239464D02*
X0275524Y0239464D01*
X0274886Y0238466D02*
X0268077Y0238466D01*
X0265923Y0238466D02*
X0258077Y0238466D01*
X0255923Y0238466D02*
X0249114Y0238466D01*
X0260035Y0239464D02*
X0263965Y0239464D01*
X0262966Y0240463D02*
X0261034Y0240463D01*
X0260104Y0237467D02*
X0263896Y0237467D01*
X0262898Y0236469D02*
X0261102Y0236469D01*
X0261049Y0230478D02*
X0262951Y0230478D01*
X0263950Y0229479D02*
X0260050Y0229479D01*
X0267145Y0226484D02*
X0247661Y0226484D01*
X0248659Y0227482D02*
X0275341Y0227482D01*
X0266700Y0219494D02*
X0230016Y0219494D01*
X0230741Y0218496D02*
X0266700Y0218496D01*
X0266700Y0217497D02*
X0232020Y0217497D01*
X0233819Y0216499D02*
X0266700Y0216499D01*
X0268149Y0258436D02*
X0275883Y0258436D01*
X0301740Y0286760D02*
X0303669Y0286760D01*
X0307945Y0293384D02*
X0308371Y0293384D01*
X0311846Y0293384D02*
X0312815Y0293384D01*
X0312815Y0292385D02*
X0311846Y0292385D01*
X0311846Y0291387D02*
X0312815Y0291387D01*
X0322000Y0288391D02*
X0335743Y0288391D01*
X0338257Y0288391D02*
X0345743Y0288391D01*
X0346005Y0288500D02*
X0347995Y0288500D01*
X0349832Y0287739D01*
X0350700Y0286871D01*
X0350700Y0290129D01*
X0349832Y0289261D01*
X0347995Y0288500D01*
X0346005Y0288500D01*
X0344039Y0289390D02*
X0339961Y0289390D01*
X0340959Y0290388D02*
X0343041Y0290388D01*
X0343822Y0287393D02*
X0340178Y0287393D01*
X0341177Y0286394D02*
X0342823Y0286394D01*
X0348257Y0288391D02*
X0350700Y0288391D01*
X0350700Y0287393D02*
X0350178Y0287393D01*
X0349961Y0289390D02*
X0350700Y0289390D01*
X0350700Y0297378D02*
X0350193Y0297378D01*
X0350700Y0298376D02*
X0348293Y0298376D01*
X0349946Y0299375D02*
X0350700Y0299375D01*
X0345707Y0298376D02*
X0338293Y0298376D01*
X0339946Y0299375D02*
X0344054Y0299375D01*
X0343055Y0300373D02*
X0340945Y0300373D01*
X0340193Y0297378D02*
X0343807Y0297378D01*
X0342808Y0296379D02*
X0341192Y0296379D01*
X0340974Y0280403D02*
X0343026Y0280403D01*
X0344024Y0279405D02*
X0339976Y0279405D01*
X0340163Y0277408D02*
X0343837Y0277408D01*
X0342838Y0276409D02*
X0341162Y0276409D01*
X0338221Y0278406D02*
X0345779Y0278406D01*
X0348221Y0278406D02*
X0350700Y0278406D01*
X0350700Y0277408D02*
X0350163Y0277408D01*
X0349976Y0279405D02*
X0350700Y0279405D01*
X0335779Y0278406D02*
X0327437Y0278406D01*
X0327437Y0279405D02*
X0334024Y0279405D01*
X0333026Y0280403D02*
X0326927Y0280403D01*
X0324748Y0280403D02*
X0324370Y0280403D01*
X0324370Y0279405D02*
X0324748Y0279405D01*
X0324748Y0278406D02*
X0324370Y0278406D01*
X0347282Y0360284D02*
X0231718Y0360284D01*
X0233145Y0361283D02*
X0345855Y0361283D01*
D18*
X0347000Y0343500D02*
X0337000Y0343500D01*
X0337000Y0333500D02*
X0347000Y0333500D01*
X0347000Y0323500D02*
X0337000Y0323500D01*
X0337000Y0313500D02*
X0347000Y0313500D01*
X0347000Y0303500D02*
X0337000Y0303500D01*
X0337000Y0293500D02*
X0347000Y0293500D01*
X0347000Y0283500D02*
X0337000Y0283500D01*
X0337000Y0273500D02*
X0347000Y0273500D01*
X0347000Y0243500D02*
X0342000Y0243500D01*
X0337000Y0243500D01*
X0337000Y0233500D02*
X0347000Y0233500D01*
X0267000Y0233500D02*
X0257000Y0233500D01*
X0257000Y0243500D02*
X0267000Y0243500D01*
X0267000Y0253500D02*
X0257000Y0253500D01*
X0257000Y0263500D02*
X0267000Y0263500D01*
X0267000Y0273500D02*
X0257000Y0273500D01*
X0257000Y0283500D02*
X0267000Y0283500D01*
X0267000Y0293500D02*
X0257000Y0293500D01*
X0257000Y0303500D02*
X0267000Y0303500D01*
X0267000Y0313500D02*
X0257000Y0313500D01*
X0257000Y0323500D02*
X0267000Y0323500D01*
X0267000Y0333500D02*
X0257000Y0333500D01*
X0257000Y0343500D02*
X0267000Y0343500D01*
X0301000Y0333500D02*
X0301000Y0326059D01*
X0301000Y0320941D02*
X0301000Y0316500D01*
X0293000Y0308500D01*
X0301000Y0320941D02*
X0308000Y0320941D01*
X0302000Y0333500D02*
X0301000Y0333500D01*
X0307000Y0343618D02*
X0308000Y0343618D01*
X0308000Y0343839D01*
X0308339Y0343500D01*
X0308457Y0343618D01*
X0309882Y0343618D01*
X0308000Y0343839D02*
X0308000Y0346161D01*
D19*
X0316000Y0351000D03*
X0332000Y0352000D03*
X0331000Y0328500D03*
X0311000Y0313000D03*
X0307000Y0315000D03*
X0306500Y0310500D03*
X0293000Y0308500D03*
X0314000Y0296500D03*
X0327500Y0286000D03*
X0329500Y0274000D03*
X0306000Y0274500D03*
X0287500Y0261000D03*
X0293000Y0254500D03*
X0287500Y0248250D03*
X0262000Y0226750D03*
X0239500Y0224000D03*
X0238000Y0257250D03*
X0238000Y0288250D03*
X0238000Y0323250D03*
X0242000Y0354500D03*
X0263000Y0355500D03*
X0284000Y0336000D03*
X0295000Y0332500D03*
X0302000Y0333500D03*
X0320000Y0246500D03*
D20*
X0311000Y0313000D02*
X0314000Y0316000D01*
X0314000Y0339500D01*
X0309882Y0343618D01*
X0307000Y0343618D02*
X0278929Y0343618D01*
M02*
