G75*
%MOIN*%
%OFA0B0*%
%FSLAX25Y25*%
%IPPOS*%
%LPD*%
%AMOC8*
5,1,8,0,0,1.08239X$1,22.5*
%
%ADD10R,0.07099X0.07887*%
%ADD11R,0.07887X0.07099*%
%ADD12C,0.07137*%
%ADD13C,0.08200*%
%ADD14R,0.03162X0.06902*%
%ADD15R,0.05524X0.08674*%
%ADD16R,0.03556X0.04343*%
%ADD17R,0.05131X0.03162*%
%ADD18R,0.07887X0.30328*%
%ADD19R,0.11599X0.09300*%
D10*
X0295488Y0301500D03*
X0306512Y0301500D03*
D11*
X0291000Y0339988D03*
X0291000Y0351012D03*
D12*
X0278929Y0346787D02*
X0278929Y0340450D01*
X0278929Y0331039D02*
X0278929Y0324702D01*
X0278929Y0315291D02*
X0278929Y0308954D01*
X0278929Y0299543D02*
X0278929Y0293206D01*
X0278929Y0283794D02*
X0278929Y0277457D01*
X0278929Y0268046D02*
X0278929Y0261709D01*
X0278929Y0252298D02*
X0278929Y0245961D01*
X0278929Y0236550D02*
X0278929Y0230213D01*
X0245071Y0230213D02*
X0245071Y0236550D01*
X0245071Y0245961D02*
X0245071Y0252298D01*
X0245071Y0261709D02*
X0245071Y0268046D01*
X0245071Y0277457D02*
X0245071Y0283794D01*
X0245071Y0293206D02*
X0245071Y0299543D01*
X0245071Y0308954D02*
X0245071Y0315291D01*
X0245071Y0324702D02*
X0245071Y0331039D01*
X0245071Y0340450D02*
X0245071Y0346787D01*
D13*
X0257000Y0343500D03*
X0267000Y0343500D03*
X0267000Y0333500D03*
X0267000Y0323500D03*
X0267000Y0313500D03*
X0257000Y0313500D03*
X0257000Y0323500D03*
X0257000Y0333500D03*
X0257000Y0303500D03*
X0257000Y0293500D03*
X0267000Y0293500D03*
X0267000Y0303500D03*
X0267000Y0283500D03*
X0267000Y0273500D03*
X0257000Y0273500D03*
X0257000Y0283500D03*
X0257000Y0263500D03*
X0257000Y0253500D03*
X0257000Y0243500D03*
X0267000Y0243500D03*
X0267000Y0253500D03*
X0267000Y0263500D03*
X0267000Y0233500D03*
X0257000Y0233500D03*
X0337000Y0233500D03*
X0347000Y0233500D03*
X0347000Y0243500D03*
X0347000Y0253500D03*
X0347000Y0263500D03*
X0337000Y0263500D03*
X0337000Y0253500D03*
X0337000Y0243500D03*
X0337000Y0273500D03*
X0337000Y0283500D03*
X0347000Y0283500D03*
X0347000Y0273500D03*
X0347000Y0293500D03*
X0347000Y0303500D03*
X0337000Y0303500D03*
X0337000Y0293500D03*
X0337000Y0313500D03*
X0337000Y0323500D03*
X0337000Y0333500D03*
X0347000Y0333500D03*
X0347000Y0323500D03*
X0347000Y0313500D03*
X0347000Y0343500D03*
X0337000Y0343500D03*
D14*
X0315685Y0284500D03*
X0311748Y0284500D03*
X0307811Y0284500D03*
X0303874Y0284500D03*
X0299937Y0284500D03*
X0296000Y0284500D03*
D15*
X0290882Y0269441D03*
X0320803Y0269441D03*
D16*
X0251691Y0222000D03*
X0256809Y0222000D03*
X0288441Y0327000D03*
X0293559Y0327000D03*
X0256559Y0355000D03*
X0251441Y0355000D03*
D17*
X0288488Y0319740D03*
X0288488Y0316000D03*
X0288488Y0312260D03*
X0299512Y0312260D03*
X0299512Y0316000D03*
X0299512Y0319740D03*
D18*
X0301976Y0345500D03*
X0324024Y0345500D03*
D19*
X0321000Y0322201D03*
X0321000Y0304799D03*
M02*
