G75*
%MOIN*%
%OFA0B0*%
%FSLAX25Y25*%
%IPPOS*%
%LPD*%
%AMOC8*
5,1,8,0,0,1.08239X$1,22.5*
%
%ADD10R,0.03556X0.04343*%
%ADD11R,0.06312X0.04737*%
%ADD12C,0.07137*%
%ADD13C,0.08200*%
%ADD14R,0.09461X0.03162*%
%ADD15R,0.10249X0.10249*%
%ADD16R,0.04343X0.03556*%
D10*
X0319441Y0277500D03*
X0324559Y0277500D03*
D11*
X0312331Y0290500D03*
X0303669Y0294240D03*
X0303669Y0286760D03*
D12*
X0245071Y0236550D02*
X0245071Y0230213D01*
X0245071Y0245961D02*
X0245071Y0252298D01*
X0245071Y0261709D02*
X0245071Y0268046D01*
X0245071Y0277457D02*
X0245071Y0283794D01*
X0245071Y0293206D02*
X0245071Y0299543D01*
X0245071Y0308954D02*
X0245071Y0315291D01*
X0245071Y0324702D02*
X0245071Y0331039D01*
X0245071Y0340450D02*
X0245071Y0346787D01*
X0278929Y0346787D02*
X0278929Y0340450D01*
X0278929Y0331039D02*
X0278929Y0324702D01*
X0278929Y0315291D02*
X0278929Y0308954D01*
X0278929Y0299543D02*
X0278929Y0293206D01*
X0278929Y0283794D02*
X0278929Y0277457D01*
X0278929Y0268046D02*
X0278929Y0261709D01*
X0278929Y0252298D02*
X0278929Y0245961D01*
X0278929Y0236550D02*
X0278929Y0230213D01*
D13*
X0267000Y0233500D03*
X0257000Y0233500D03*
X0257000Y0243500D03*
X0257000Y0253500D03*
X0257000Y0263500D03*
X0267000Y0263500D03*
X0267000Y0253500D03*
X0267000Y0243500D03*
X0267000Y0273500D03*
X0267000Y0283500D03*
X0257000Y0283500D03*
X0257000Y0273500D03*
X0257000Y0293500D03*
X0257000Y0303500D03*
X0267000Y0303500D03*
X0267000Y0293500D03*
X0267000Y0313500D03*
X0267000Y0323500D03*
X0267000Y0333500D03*
X0257000Y0333500D03*
X0257000Y0323500D03*
X0257000Y0313500D03*
X0257000Y0343500D03*
X0267000Y0343500D03*
X0337000Y0343500D03*
X0347000Y0343500D03*
X0347000Y0333500D03*
X0347000Y0323500D03*
X0347000Y0313500D03*
X0337000Y0313500D03*
X0337000Y0323500D03*
X0337000Y0333500D03*
X0337000Y0303500D03*
X0337000Y0293500D03*
X0347000Y0293500D03*
X0347000Y0303500D03*
X0347000Y0283500D03*
X0347000Y0273500D03*
X0337000Y0273500D03*
X0337000Y0283500D03*
X0337000Y0263500D03*
X0337000Y0253500D03*
X0337000Y0243500D03*
X0347000Y0243500D03*
X0347000Y0253500D03*
X0347000Y0263500D03*
X0347000Y0233500D03*
X0337000Y0233500D03*
D14*
X0324236Y0254000D03*
X0324236Y0259000D03*
X0324236Y0264000D03*
X0324236Y0269000D03*
X0303764Y0269000D03*
X0303764Y0264000D03*
X0303764Y0259000D03*
X0303764Y0254000D03*
D15*
X0308339Y0343500D03*
X0325661Y0343500D03*
D16*
X0308000Y0326059D03*
X0308000Y0320941D03*
X0301000Y0320941D03*
X0301000Y0326059D03*
M02*
