%
M48
M72
T01C0.0236
T02C0.0394
T03C0.0400
%
T01
X23950Y22400
X26200Y22675
X28750Y24825
X29300Y25450
X28750Y26100
X30600Y27450
X32950Y27400
X32750Y28600
X31400Y29650
X30650Y31050
X30700Y31500
X31100Y31300
X29300Y30850
X29500Y33250
X30200Y33350
X28400Y33600
X26300Y35550
X24200Y35450
X23800Y32325
X23800Y28825
X23800Y25725
X32000Y24650
X33100Y32850
X33200Y35200
X31600Y35100
T02
X27893Y34362
X27893Y32787
X27893Y31212
X27893Y29637
X27893Y28063
X27893Y26488
X27893Y24913
X27893Y23338
X24507Y23338
X24507Y24913
X24507Y26488
X24507Y28063
X24507Y29637
X24507Y31212
X24507Y32787
X24507Y34362
T03
X25700Y34350
X26700Y34350
X26700Y33350
X26700Y32350
X26700Y31350
X25700Y31350
X25700Y32350
X25700Y33350
X25700Y30350
X25700Y29350
X26700Y29350
X26700Y30350
X26700Y28350
X26700Y27350
X25700Y27350
X25700Y28350
X25700Y26350
X25700Y25350
X25700Y24350
X26700Y24350
X26700Y25350
X26700Y26350
X26700Y23350
X25700Y23350
X33700Y23350
X34700Y23350
X34700Y24350
X34700Y25350
X34700Y26350
X33700Y26350
X33700Y25350
X33700Y24350
X33700Y27350
X33700Y28350
X34700Y28350
X34700Y27350
X34700Y29350
X34700Y30350
X33700Y30350
X33700Y29350
X33700Y31350
X33700Y32350
X33700Y33350
X34700Y33350
X34700Y32350
X34700Y31350
X34700Y34350
X33700Y34350
M30
