G75*
%MOIN*%
%OFA0B0*%
%FSLAX25Y25*%
%IPPOS*%
%LPD*%
%AMOC8*
5,1,8,0,0,1.08239X$1,22.5*
%
%ADD10R,0.05118X0.05906*%
%ADD11R,0.05512X0.03937*%
%ADD12C,0.06337*%
%ADD13C,0.07400*%
%ADD14R,0.08661X0.02362*%
%ADD15R,0.04799X0.08799*%
%ADD16R,0.14173X0.08661*%
%ADD17C,0.01000*%
%ADD18C,0.01600*%
%ADD19C,0.04362*%
%ADD20C,0.04000*%
D10*
X0319260Y0298500D03*
X0326740Y0298500D03*
D11*
X0310331Y0301500D03*
X0301669Y0297760D03*
X0301669Y0305240D03*
D12*
X0278929Y0303954D02*
X0278929Y0310291D01*
X0278929Y0319702D02*
X0278929Y0326039D01*
X0278929Y0335450D02*
X0278929Y0341787D01*
X0245071Y0341787D02*
X0245071Y0335450D01*
X0245071Y0326039D02*
X0245071Y0319702D01*
X0245071Y0310291D02*
X0245071Y0303954D01*
X0245071Y0294543D02*
X0245071Y0288206D01*
X0245071Y0278794D02*
X0245071Y0272457D01*
X0245071Y0263046D02*
X0245071Y0256709D01*
X0245071Y0247298D02*
X0245071Y0240961D01*
X0245071Y0231550D02*
X0245071Y0225213D01*
X0278929Y0225213D02*
X0278929Y0231550D01*
X0278929Y0240961D02*
X0278929Y0247298D01*
X0278929Y0256709D02*
X0278929Y0263046D01*
X0278929Y0272457D02*
X0278929Y0278794D01*
X0278929Y0288206D02*
X0278929Y0294543D01*
D13*
X0267000Y0298500D03*
X0267000Y0288500D03*
X0267000Y0278500D03*
X0257000Y0278500D03*
X0257000Y0288500D03*
X0257000Y0298500D03*
X0257000Y0308500D03*
X0257000Y0318500D03*
X0267000Y0318500D03*
X0267000Y0308500D03*
X0267000Y0328500D03*
X0267000Y0338500D03*
X0257000Y0338500D03*
X0257000Y0328500D03*
X0337000Y0328500D03*
X0337000Y0338500D03*
X0347000Y0338500D03*
X0347000Y0328500D03*
X0347000Y0318500D03*
X0347000Y0308500D03*
X0337000Y0308500D03*
X0337000Y0318500D03*
X0337000Y0298500D03*
X0337000Y0288500D03*
X0337000Y0278500D03*
X0347000Y0278500D03*
X0347000Y0288500D03*
X0347000Y0298500D03*
X0347000Y0268500D03*
X0347000Y0258500D03*
X0337000Y0258500D03*
X0337000Y0268500D03*
X0337000Y0248500D03*
X0337000Y0238500D03*
X0337000Y0228500D03*
X0347000Y0228500D03*
X0347000Y0238500D03*
X0347000Y0248500D03*
X0267000Y0248500D03*
X0267000Y0238500D03*
X0267000Y0228500D03*
X0257000Y0228500D03*
X0257000Y0238500D03*
X0257000Y0248500D03*
X0257000Y0258500D03*
X0257000Y0268500D03*
X0267000Y0268500D03*
X0267000Y0258500D03*
D14*
X0305764Y0271000D03*
X0305764Y0276000D03*
X0305764Y0281000D03*
X0305764Y0286000D03*
X0326236Y0286000D03*
X0326236Y0281000D03*
X0326236Y0276000D03*
X0326236Y0271000D03*
D15*
X0324098Y0315299D03*
X0315000Y0315299D03*
X0305902Y0315299D03*
D16*
X0315000Y0339701D03*
D17*
X0229248Y0215550D02*
X0230848Y0213348D01*
X0233050Y0211748D01*
X0235639Y0210907D01*
X0237000Y0210800D01*
X0266700Y0210800D01*
X0266700Y0221038D01*
X0267462Y0221800D01*
X0276023Y0221800D01*
X0275141Y0222682D01*
X0274461Y0224325D01*
X0274461Y0232439D01*
X0275141Y0234082D01*
X0276398Y0235339D01*
X0278040Y0236019D01*
X0279818Y0236019D01*
X0281460Y0235339D01*
X0282717Y0234082D01*
X0282725Y0234063D01*
X0283462Y0234800D01*
X0322538Y0234800D01*
X0323300Y0234038D01*
X0323300Y0224800D01*
X0333629Y0224800D01*
X0332761Y0225668D01*
X0332000Y0227505D01*
X0332000Y0229495D01*
X0332761Y0231332D01*
X0334168Y0232739D01*
X0336005Y0233500D01*
X0337995Y0233500D01*
X0339832Y0232739D01*
X0341239Y0231332D01*
X0341459Y0230800D01*
X0342541Y0230800D01*
X0342761Y0231332D01*
X0344168Y0232739D01*
X0346005Y0233500D01*
X0347995Y0233500D01*
X0349832Y0232739D01*
X0350700Y0231871D01*
X0350700Y0235129D01*
X0349832Y0234261D01*
X0347995Y0233500D01*
X0346005Y0233500D01*
X0344168Y0234261D01*
X0342761Y0235668D01*
X0342541Y0236200D01*
X0341459Y0236200D01*
X0341239Y0235668D01*
X0339832Y0234261D01*
X0337995Y0233500D01*
X0336005Y0233500D01*
X0334168Y0234261D01*
X0332761Y0235668D01*
X0332000Y0237505D01*
X0332000Y0239495D01*
X0332761Y0241332D01*
X0334168Y0242739D01*
X0336005Y0243500D01*
X0337995Y0243500D01*
X0339832Y0242739D01*
X0341239Y0241332D01*
X0341459Y0240800D01*
X0342541Y0240800D01*
X0342761Y0241332D01*
X0344168Y0242739D01*
X0346005Y0243500D01*
X0347995Y0243500D01*
X0349832Y0242739D01*
X0350700Y0241871D01*
X0350700Y0245129D01*
X0349832Y0244261D01*
X0347995Y0243500D01*
X0346005Y0243500D01*
X0344168Y0244261D01*
X0342761Y0245668D01*
X0342541Y0246200D01*
X0341459Y0246200D01*
X0341239Y0245668D01*
X0339832Y0244261D01*
X0337995Y0243500D01*
X0336005Y0243500D01*
X0334168Y0244261D01*
X0332761Y0245668D01*
X0332000Y0247505D01*
X0332000Y0249495D01*
X0332761Y0251332D01*
X0334168Y0252739D01*
X0336005Y0253500D01*
X0337995Y0253500D01*
X0339832Y0252739D01*
X0341239Y0251332D01*
X0341459Y0250800D01*
X0342541Y0250800D01*
X0342761Y0251332D01*
X0343050Y0251621D01*
X0341172Y0253500D01*
X0340121Y0254550D01*
X0339832Y0254261D01*
X0337995Y0253500D01*
X0336005Y0253500D01*
X0334168Y0254261D01*
X0332761Y0255668D01*
X0332000Y0257505D01*
X0332000Y0259495D01*
X0332761Y0261332D01*
X0332929Y0261500D01*
X0331172Y0261500D01*
X0330000Y0262672D01*
X0325672Y0267000D01*
X0324500Y0268172D01*
X0324500Y0268519D01*
X0321367Y0268519D01*
X0320606Y0269280D01*
X0320606Y0272720D01*
X0321367Y0273481D01*
X0331105Y0273481D01*
X0331867Y0272720D01*
X0331867Y0269280D01*
X0331105Y0268519D01*
X0329809Y0268519D01*
X0332828Y0265500D01*
X0332929Y0265500D01*
X0332761Y0265668D01*
X0332000Y0267505D01*
X0332000Y0269495D01*
X0332761Y0271332D01*
X0334168Y0272739D01*
X0336005Y0273500D01*
X0337995Y0273500D01*
X0339832Y0272739D01*
X0341239Y0271332D01*
X0341459Y0270800D01*
X0342541Y0270800D01*
X0342761Y0271332D01*
X0344168Y0272739D01*
X0346005Y0273500D01*
X0347995Y0273500D01*
X0349832Y0272739D01*
X0350700Y0271871D01*
X0350700Y0275129D01*
X0349832Y0274261D01*
X0347995Y0273500D01*
X0346005Y0273500D01*
X0344168Y0274261D01*
X0342761Y0275668D01*
X0342541Y0276200D01*
X0341459Y0276200D01*
X0341239Y0275668D01*
X0339832Y0274261D01*
X0337995Y0273500D01*
X0336005Y0273500D01*
X0334168Y0274261D01*
X0332761Y0275668D01*
X0332000Y0277505D01*
X0332000Y0279372D01*
X0331965Y0279240D01*
X0331767Y0278898D01*
X0331488Y0278619D01*
X0331158Y0278428D01*
X0331867Y0277720D01*
X0331867Y0274280D01*
X0331105Y0273519D01*
X0321367Y0273519D01*
X0320886Y0274000D01*
X0319672Y0274000D01*
X0318181Y0275490D01*
X0318181Y0274268D01*
X0317621Y0272915D01*
X0316585Y0271879D01*
X0315232Y0271319D01*
X0313768Y0271319D01*
X0313152Y0271574D01*
X0311394Y0269816D01*
X0311394Y0269280D01*
X0310633Y0268519D01*
X0307764Y0268519D01*
X0307764Y0261435D01*
X0306328Y0260000D01*
X0306696Y0260000D01*
X0307983Y0259467D01*
X0308967Y0258483D01*
X0309500Y0257196D01*
X0309500Y0255804D01*
X0308967Y0254517D01*
X0307983Y0253533D01*
X0307775Y0253447D01*
X0306828Y0252500D01*
X0305000Y0250672D01*
X0305000Y0250672D01*
X0303828Y0249500D01*
X0296172Y0249500D01*
X0289172Y0256500D01*
X0288000Y0257672D01*
X0288000Y0267000D01*
X0287304Y0267000D01*
X0286017Y0267533D01*
X0285033Y0268517D01*
X0284500Y0269804D01*
X0284500Y0271196D01*
X0285033Y0272483D01*
X0286017Y0273467D01*
X0287304Y0274000D01*
X0288696Y0274000D01*
X0289983Y0273467D01*
X0290967Y0272483D01*
X0291500Y0271196D01*
X0291500Y0269828D01*
X0292000Y0269328D01*
X0292000Y0259328D01*
X0295319Y0256009D01*
X0295319Y0256232D01*
X0295879Y0257585D01*
X0296915Y0258621D01*
X0298268Y0259181D01*
X0299732Y0259181D01*
X0299817Y0259146D01*
X0303764Y0263092D01*
X0303764Y0268519D01*
X0300895Y0268519D01*
X0300133Y0269280D01*
X0300133Y0272720D01*
X0300895Y0273481D01*
X0305153Y0273481D01*
X0305172Y0273500D01*
X0306828Y0273500D01*
X0306847Y0273481D01*
X0309403Y0273481D01*
X0309422Y0273500D01*
X0305435Y0273500D01*
X0305416Y0273519D01*
X0300895Y0273519D01*
X0300133Y0274280D01*
X0300133Y0277720D01*
X0300895Y0278481D01*
X0309153Y0278481D01*
X0309190Y0278519D01*
X0300895Y0278519D01*
X0300133Y0279280D01*
X0300133Y0282720D01*
X0300895Y0283481D01*
X0309153Y0283481D01*
X0309190Y0283519D01*
X0300895Y0283519D01*
X0300413Y0284000D01*
X0299906Y0284000D01*
X0299871Y0283915D01*
X0298835Y0282879D01*
X0297482Y0282319D01*
X0296018Y0282319D01*
X0294665Y0282879D01*
X0293629Y0283915D01*
X0293069Y0285268D01*
X0293069Y0286732D01*
X0293629Y0288085D01*
X0294665Y0289121D01*
X0296018Y0289681D01*
X0297482Y0289681D01*
X0298835Y0289121D01*
X0299871Y0288085D01*
X0299906Y0288000D01*
X0300413Y0288000D01*
X0300895Y0288481D01*
X0308120Y0288481D01*
X0302109Y0294491D01*
X0298375Y0294491D01*
X0297613Y0295253D01*
X0297613Y0296487D01*
X0296851Y0297250D01*
X0282541Y0297250D01*
X0282717Y0297074D01*
X0283398Y0295431D01*
X0283398Y0287317D01*
X0282717Y0285674D01*
X0281460Y0284417D01*
X0279818Y0283737D01*
X0278040Y0283737D01*
X0276398Y0284417D01*
X0275141Y0285674D01*
X0274461Y0287317D01*
X0274461Y0295431D01*
X0275141Y0297074D01*
X0275317Y0297250D01*
X0273422Y0297250D01*
X0272250Y0298422D01*
X0272250Y0298422D01*
X0272000Y0298672D01*
X0272000Y0297505D01*
X0271239Y0295668D01*
X0269832Y0294261D01*
X0267995Y0293500D01*
X0266005Y0293500D01*
X0264168Y0292739D01*
X0262761Y0291332D01*
X0262541Y0290800D01*
X0261459Y0290800D01*
X0261239Y0291332D01*
X0259832Y0292739D01*
X0257995Y0293500D01*
X0256005Y0293500D01*
X0254168Y0292739D01*
X0252761Y0291332D01*
X0252000Y0289495D01*
X0252000Y0287505D01*
X0252761Y0285668D01*
X0254168Y0284261D01*
X0256005Y0283500D01*
X0257995Y0283500D01*
X0259832Y0284261D01*
X0261239Y0285668D01*
X0261459Y0286200D01*
X0262541Y0286200D01*
X0262761Y0285668D01*
X0264168Y0284261D01*
X0266005Y0283500D01*
X0267995Y0283500D01*
X0269832Y0284261D01*
X0271239Y0285668D01*
X0272000Y0287505D01*
X0272000Y0289495D01*
X0271239Y0291332D01*
X0269832Y0292739D01*
X0267995Y0293500D01*
X0266005Y0293500D01*
X0264168Y0294261D01*
X0262761Y0295668D01*
X0262541Y0296200D01*
X0261459Y0296200D01*
X0261239Y0295668D01*
X0259832Y0294261D01*
X0257995Y0293500D01*
X0256005Y0293500D01*
X0254168Y0294261D01*
X0252761Y0295668D01*
X0252000Y0297505D01*
X0252000Y0299495D01*
X0252761Y0301332D01*
X0252929Y0301500D01*
X0251172Y0301500D01*
X0250000Y0302672D01*
X0249539Y0303132D01*
X0249539Y0303065D01*
X0248859Y0301422D01*
X0247602Y0300165D01*
X0245960Y0299485D01*
X0244182Y0299485D01*
X0242540Y0300165D01*
X0241283Y0301422D01*
X0240602Y0303065D01*
X0240602Y0311179D01*
X0241283Y0312822D01*
X0242540Y0314079D01*
X0244182Y0314759D01*
X0245960Y0314759D01*
X0247602Y0314079D01*
X0248859Y0312822D01*
X0249539Y0311179D01*
X0249539Y0308789D01*
X0252828Y0305500D01*
X0252929Y0305500D01*
X0252761Y0305668D01*
X0252000Y0307505D01*
X0252000Y0309495D01*
X0252761Y0311332D01*
X0254168Y0312739D01*
X0256005Y0313500D01*
X0257995Y0313500D01*
X0259832Y0314261D01*
X0261239Y0315668D01*
X0261459Y0316200D01*
X0262541Y0316200D01*
X0262761Y0315668D01*
X0264168Y0314261D01*
X0266005Y0313500D01*
X0267995Y0313500D01*
X0269832Y0314261D01*
X0271239Y0315668D01*
X0272000Y0317505D01*
X0272000Y0319495D01*
X0271239Y0321332D01*
X0269832Y0322739D01*
X0268182Y0323422D01*
X0268218Y0323428D01*
X0268996Y0323681D01*
X0269725Y0324053D01*
X0270388Y0324534D01*
X0270966Y0325112D01*
X0271447Y0325775D01*
X0271819Y0326504D01*
X0272072Y0327282D01*
X0272186Y0328000D01*
X0267500Y0328000D01*
X0267500Y0329000D01*
X0272186Y0329000D01*
X0272072Y0329718D01*
X0271819Y0330496D01*
X0271447Y0331225D01*
X0270966Y0331888D01*
X0270388Y0332466D01*
X0269725Y0332947D01*
X0268996Y0333319D01*
X0268218Y0333572D01*
X0268182Y0333578D01*
X0269832Y0334261D01*
X0271239Y0335668D01*
X0272000Y0337505D01*
X0272000Y0339495D01*
X0271239Y0341332D01*
X0269832Y0342739D01*
X0267995Y0343500D01*
X0266005Y0343500D01*
X0264168Y0342739D01*
X0262761Y0341332D01*
X0262541Y0340800D01*
X0261459Y0340800D01*
X0261239Y0341332D01*
X0259832Y0342739D01*
X0257995Y0343500D01*
X0256005Y0343500D01*
X0254168Y0342739D01*
X0252761Y0341332D01*
X0252000Y0339495D01*
X0252000Y0337505D01*
X0252761Y0335668D01*
X0254168Y0334261D01*
X0255818Y0333578D01*
X0255782Y0333572D01*
X0255004Y0333319D01*
X0254275Y0332947D01*
X0253612Y0332466D01*
X0253034Y0331888D01*
X0252553Y0331225D01*
X0252181Y0330496D01*
X0251928Y0329718D01*
X0251814Y0329000D01*
X0256500Y0329000D01*
X0256500Y0328000D01*
X0251814Y0328000D01*
X0251928Y0327282D01*
X0252181Y0326504D01*
X0252553Y0325775D01*
X0253034Y0325112D01*
X0253612Y0324534D01*
X0254275Y0324053D01*
X0255004Y0323681D01*
X0255782Y0323428D01*
X0255818Y0323422D01*
X0254168Y0322739D01*
X0252761Y0321332D01*
X0252000Y0319495D01*
X0252000Y0317505D01*
X0252761Y0315668D01*
X0254168Y0314261D01*
X0256005Y0313500D01*
X0257995Y0313500D01*
X0259832Y0312739D01*
X0261239Y0311332D01*
X0261459Y0310800D01*
X0262541Y0310800D01*
X0262761Y0311332D01*
X0264168Y0312739D01*
X0266005Y0313500D01*
X0267995Y0313500D01*
X0269832Y0312739D01*
X0271239Y0311332D01*
X0272000Y0309495D01*
X0272000Y0307505D01*
X0271239Y0305668D01*
X0270950Y0305379D01*
X0272000Y0304328D01*
X0272000Y0304328D01*
X0275078Y0301250D01*
X0275313Y0301250D01*
X0275141Y0301422D01*
X0274461Y0303065D01*
X0274461Y0311179D01*
X0275141Y0312822D01*
X0276398Y0314079D01*
X0278040Y0314759D01*
X0279818Y0314759D01*
X0281460Y0314079D01*
X0282717Y0312822D01*
X0283398Y0311179D01*
X0283398Y0307240D01*
X0297613Y0307240D01*
X0297613Y0307747D01*
X0298375Y0308509D01*
X0304964Y0308509D01*
X0305725Y0307747D01*
X0305725Y0303603D01*
X0306075Y0303254D01*
X0306075Y0303666D01*
X0306177Y0304047D01*
X0306375Y0304390D01*
X0306654Y0304669D01*
X0306996Y0304866D01*
X0307377Y0304968D01*
X0309846Y0304968D01*
X0309846Y0301984D01*
X0310815Y0301984D01*
X0314587Y0301984D01*
X0314587Y0303666D01*
X0314484Y0304047D01*
X0314287Y0304390D01*
X0314008Y0304669D01*
X0313666Y0304866D01*
X0313284Y0304968D01*
X0310815Y0304968D01*
X0310815Y0301984D01*
X0310815Y0301016D01*
X0314587Y0301016D01*
X0314587Y0299334D01*
X0314484Y0298953D01*
X0314287Y0298610D01*
X0314008Y0298331D01*
X0313666Y0298134D01*
X0313284Y0298031D01*
X0310815Y0298031D01*
X0310815Y0301016D01*
X0309846Y0301016D01*
X0309846Y0298031D01*
X0308000Y0298031D01*
X0308000Y0297328D01*
X0314828Y0290500D01*
X0316000Y0289328D01*
X0316000Y0279672D01*
X0315009Y0278681D01*
X0315232Y0278681D01*
X0316000Y0278363D01*
X0316000Y0294410D01*
X0315401Y0295009D01*
X0315401Y0301991D01*
X0315700Y0302290D01*
X0315700Y0302594D01*
X0314879Y0303415D01*
X0314319Y0304768D01*
X0314319Y0306232D01*
X0314879Y0307585D01*
X0315915Y0308621D01*
X0317268Y0309181D01*
X0318732Y0309181D01*
X0320085Y0308621D01*
X0321121Y0307585D01*
X0321681Y0306232D01*
X0321681Y0304768D01*
X0321121Y0303415D01*
X0320459Y0302753D01*
X0322357Y0302753D01*
X0322891Y0302219D01*
X0322981Y0302374D01*
X0323260Y0302653D01*
X0323602Y0302851D01*
X0323984Y0302953D01*
X0326240Y0302953D01*
X0326240Y0299000D01*
X0327240Y0299000D01*
X0327240Y0302953D01*
X0329497Y0302953D01*
X0329878Y0302851D01*
X0330220Y0302653D01*
X0330499Y0302374D01*
X0330697Y0302032D01*
X0330799Y0301650D01*
X0330799Y0299000D01*
X0327240Y0299000D01*
X0327240Y0298000D01*
X0330799Y0298000D01*
X0330799Y0295350D01*
X0330697Y0294968D01*
X0330499Y0294626D01*
X0330220Y0294347D01*
X0329878Y0294149D01*
X0329624Y0294081D01*
X0330121Y0293585D01*
X0330681Y0292232D01*
X0330681Y0290768D01*
X0330646Y0290683D01*
X0331000Y0290328D01*
X0331000Y0288481D01*
X0331105Y0288481D01*
X0331867Y0287720D01*
X0331867Y0284280D01*
X0331158Y0283572D01*
X0331488Y0283381D01*
X0331767Y0283102D01*
X0331965Y0282760D01*
X0332067Y0282379D01*
X0332067Y0281091D01*
X0326327Y0281091D01*
X0326327Y0280909D01*
X0332067Y0280909D01*
X0332067Y0279656D01*
X0332761Y0281332D01*
X0334168Y0282739D01*
X0336005Y0283500D01*
X0337995Y0283500D01*
X0339832Y0282739D01*
X0341239Y0281332D01*
X0341459Y0280800D01*
X0342541Y0280800D01*
X0342761Y0281332D01*
X0344168Y0282739D01*
X0346005Y0283500D01*
X0347995Y0283500D01*
X0349832Y0282739D01*
X0350700Y0281871D01*
X0350700Y0285129D01*
X0349832Y0284261D01*
X0347995Y0283500D01*
X0346005Y0283500D01*
X0344168Y0284261D01*
X0342761Y0285668D01*
X0342541Y0286200D01*
X0341459Y0286200D01*
X0341239Y0285668D01*
X0339832Y0284261D01*
X0337995Y0283500D01*
X0336005Y0283500D01*
X0334168Y0284261D01*
X0332761Y0285668D01*
X0332000Y0287505D01*
X0332000Y0289495D01*
X0332761Y0291332D01*
X0334168Y0292739D01*
X0336005Y0293500D01*
X0337995Y0293500D01*
X0339832Y0292739D01*
X0341239Y0291332D01*
X0341459Y0290800D01*
X0342541Y0290800D01*
X0342761Y0291332D01*
X0344168Y0292739D01*
X0346005Y0293500D01*
X0347995Y0293500D01*
X0349832Y0292739D01*
X0350700Y0291871D01*
X0350700Y0295129D01*
X0349832Y0294261D01*
X0347995Y0293500D01*
X0346005Y0293500D01*
X0344168Y0294261D01*
X0342761Y0295668D01*
X0342541Y0296200D01*
X0341459Y0296200D01*
X0341239Y0295668D01*
X0339832Y0294261D01*
X0337995Y0293500D01*
X0336005Y0293500D01*
X0334168Y0294261D01*
X0332761Y0295668D01*
X0332000Y0297505D01*
X0332000Y0299495D01*
X0332761Y0301332D01*
X0334168Y0302739D01*
X0335818Y0303422D01*
X0335782Y0303428D01*
X0335004Y0303681D01*
X0334275Y0304053D01*
X0333612Y0304534D01*
X0333034Y0305112D01*
X0332553Y0305775D01*
X0332181Y0306504D01*
X0331928Y0307282D01*
X0331814Y0308000D01*
X0336500Y0308000D01*
X0336500Y0309000D01*
X0331814Y0309000D01*
X0331928Y0309718D01*
X0332181Y0310496D01*
X0332553Y0311225D01*
X0333034Y0311888D01*
X0333612Y0312466D01*
X0334275Y0312947D01*
X0335004Y0313319D01*
X0335782Y0313572D01*
X0335818Y0313578D01*
X0334168Y0314261D01*
X0332761Y0315668D01*
X0332000Y0317505D01*
X0332000Y0319495D01*
X0332761Y0321332D01*
X0334168Y0322739D01*
X0336005Y0323500D01*
X0337995Y0323500D01*
X0339832Y0322739D01*
X0341239Y0321332D01*
X0341459Y0320800D01*
X0342541Y0320800D01*
X0342761Y0321332D01*
X0344168Y0322739D01*
X0346005Y0323500D01*
X0347995Y0323500D01*
X0349832Y0322739D01*
X0350700Y0321871D01*
X0350700Y0325129D01*
X0349832Y0324261D01*
X0347995Y0323500D01*
X0346005Y0323500D01*
X0344168Y0324261D01*
X0342761Y0325668D01*
X0342541Y0326200D01*
X0341459Y0326200D01*
X0341239Y0325668D01*
X0339832Y0324261D01*
X0337995Y0323500D01*
X0336005Y0323500D01*
X0334168Y0324261D01*
X0332761Y0325668D01*
X0332000Y0327505D01*
X0332000Y0329495D01*
X0332761Y0331332D01*
X0334168Y0332739D01*
X0336005Y0333500D01*
X0337995Y0333500D01*
X0339832Y0332739D01*
X0341239Y0331332D01*
X0341459Y0330800D01*
X0342541Y0330800D01*
X0342761Y0331332D01*
X0344168Y0332739D01*
X0346005Y0333500D01*
X0347995Y0333500D01*
X0349832Y0332739D01*
X0350700Y0331871D01*
X0350700Y0335129D01*
X0349832Y0334261D01*
X0347995Y0333500D01*
X0346005Y0333500D01*
X0344168Y0334261D01*
X0342761Y0335668D01*
X0342541Y0336200D01*
X0341459Y0336200D01*
X0341239Y0335668D01*
X0339832Y0334261D01*
X0337995Y0333500D01*
X0336005Y0333500D01*
X0334168Y0334261D01*
X0332761Y0335668D01*
X0332000Y0337505D01*
X0332000Y0339495D01*
X0332761Y0341332D01*
X0334168Y0342739D01*
X0336005Y0343500D01*
X0337995Y0343500D01*
X0339832Y0342739D01*
X0341239Y0341332D01*
X0341459Y0340800D01*
X0342541Y0340800D01*
X0342761Y0341332D01*
X0344168Y0342739D01*
X0346005Y0343500D01*
X0347995Y0343500D01*
X0349832Y0342739D01*
X0350700Y0341871D01*
X0350700Y0348500D01*
X0350593Y0349861D01*
X0349752Y0352450D01*
X0348152Y0354652D01*
X0345950Y0356252D01*
X0343361Y0357093D01*
X0342000Y0357200D01*
X0237000Y0357200D01*
X0235639Y0357093D01*
X0233050Y0356252D01*
X0230848Y0354652D01*
X0229248Y0352450D01*
X0228407Y0349861D01*
X0228300Y0348500D01*
X0228300Y0219500D01*
X0228407Y0218139D01*
X0229248Y0215550D01*
X0229290Y0215493D02*
X0266700Y0215493D01*
X0266700Y0216491D02*
X0228943Y0216491D01*
X0228618Y0217490D02*
X0266700Y0217490D01*
X0266700Y0218488D02*
X0228380Y0218488D01*
X0228301Y0219487D02*
X0266700Y0219487D01*
X0266700Y0220485D02*
X0228300Y0220485D01*
X0228300Y0221484D02*
X0242481Y0221484D01*
X0242540Y0221425D02*
X0244182Y0220745D01*
X0245960Y0220745D01*
X0247602Y0221425D01*
X0248859Y0222682D01*
X0249539Y0224325D01*
X0249539Y0232439D01*
X0248859Y0234082D01*
X0247602Y0235339D01*
X0245960Y0236019D01*
X0244182Y0236019D01*
X0242540Y0235339D01*
X0241283Y0234082D01*
X0240602Y0232439D01*
X0240602Y0224325D01*
X0241283Y0222682D01*
X0242540Y0221425D01*
X0241483Y0222482D02*
X0228300Y0222482D01*
X0228300Y0223481D02*
X0240952Y0223481D01*
X0240602Y0224479D02*
X0228300Y0224479D01*
X0228300Y0225478D02*
X0240602Y0225478D01*
X0240602Y0226476D02*
X0228300Y0226476D01*
X0228300Y0227475D02*
X0240602Y0227475D01*
X0240602Y0228473D02*
X0228300Y0228473D01*
X0228300Y0229472D02*
X0240602Y0229472D01*
X0240602Y0230470D02*
X0228300Y0230470D01*
X0228300Y0231469D02*
X0240602Y0231469D01*
X0240614Y0232467D02*
X0228300Y0232467D01*
X0228300Y0233466D02*
X0241028Y0233466D01*
X0241665Y0234464D02*
X0228300Y0234464D01*
X0228300Y0235463D02*
X0242839Y0235463D01*
X0244182Y0236493D02*
X0245960Y0236493D01*
X0247602Y0237173D01*
X0248859Y0238430D01*
X0249539Y0240073D01*
X0249539Y0248187D01*
X0248859Y0249830D01*
X0247602Y0251087D01*
X0245960Y0251767D01*
X0244182Y0251767D01*
X0242540Y0251087D01*
X0241283Y0249830D01*
X0240602Y0248187D01*
X0240602Y0240073D01*
X0241283Y0238430D01*
X0242540Y0237173D01*
X0244182Y0236493D01*
X0242253Y0237460D02*
X0228300Y0237460D01*
X0228300Y0238458D02*
X0241271Y0238458D01*
X0240857Y0239457D02*
X0228300Y0239457D01*
X0228300Y0240455D02*
X0240602Y0240455D01*
X0240602Y0241454D02*
X0228300Y0241454D01*
X0228300Y0242452D02*
X0240602Y0242452D01*
X0240602Y0243451D02*
X0228300Y0243451D01*
X0228300Y0244449D02*
X0240602Y0244449D01*
X0240602Y0245448D02*
X0228300Y0245448D01*
X0228300Y0246446D02*
X0240602Y0246446D01*
X0240602Y0247445D02*
X0228300Y0247445D01*
X0228300Y0248443D02*
X0240708Y0248443D01*
X0241122Y0249442D02*
X0228300Y0249442D01*
X0228300Y0250440D02*
X0241893Y0250440D01*
X0243390Y0251439D02*
X0228300Y0251439D01*
X0228300Y0252437D02*
X0243708Y0252437D01*
X0244182Y0252241D02*
X0245960Y0252241D01*
X0247602Y0252921D01*
X0248859Y0254178D01*
X0249539Y0255821D01*
X0249539Y0263935D01*
X0248859Y0265578D01*
X0247602Y0266835D01*
X0245960Y0267515D01*
X0244182Y0267515D01*
X0242540Y0266835D01*
X0241283Y0265578D01*
X0240602Y0263935D01*
X0240602Y0255821D01*
X0241283Y0254178D01*
X0242540Y0252921D01*
X0244182Y0252241D01*
X0246434Y0252437D02*
X0253866Y0252437D01*
X0254168Y0252739D02*
X0252761Y0251332D01*
X0252000Y0249495D01*
X0252000Y0247505D01*
X0252761Y0245668D01*
X0254168Y0244261D01*
X0256005Y0243500D01*
X0257995Y0243500D01*
X0259832Y0244261D01*
X0261239Y0245668D01*
X0261459Y0246200D01*
X0262541Y0246200D01*
X0262761Y0245668D01*
X0264168Y0244261D01*
X0266005Y0243500D01*
X0267995Y0243500D01*
X0269832Y0244261D01*
X0271239Y0245668D01*
X0272000Y0247505D01*
X0272000Y0249495D01*
X0271239Y0251332D01*
X0269832Y0252739D01*
X0267995Y0253500D01*
X0266005Y0253500D01*
X0264168Y0252739D01*
X0262761Y0251332D01*
X0262541Y0250800D01*
X0261459Y0250800D01*
X0261239Y0251332D01*
X0259832Y0252739D01*
X0257995Y0253500D01*
X0256005Y0253500D01*
X0254168Y0252739D01*
X0254168Y0254261D02*
X0256005Y0253500D01*
X0257995Y0253500D01*
X0259832Y0254261D01*
X0261239Y0255668D01*
X0261459Y0256200D01*
X0262541Y0256200D01*
X0262761Y0255668D01*
X0264168Y0254261D01*
X0266005Y0253500D01*
X0267995Y0253500D01*
X0269832Y0254261D01*
X0271239Y0255668D01*
X0272000Y0257505D01*
X0272000Y0259495D01*
X0271239Y0261332D01*
X0269832Y0262739D01*
X0267995Y0263500D01*
X0269832Y0264261D01*
X0271239Y0265668D01*
X0272000Y0267505D01*
X0272000Y0269495D01*
X0271239Y0271332D01*
X0269832Y0272739D01*
X0267995Y0273500D01*
X0266005Y0273500D01*
X0264168Y0272739D01*
X0262761Y0271332D01*
X0262541Y0270800D01*
X0261459Y0270800D01*
X0261239Y0271332D01*
X0259832Y0272739D01*
X0257995Y0273500D01*
X0256005Y0273500D01*
X0254168Y0272739D01*
X0252761Y0271332D01*
X0252000Y0269495D01*
X0252000Y0267505D01*
X0252761Y0265668D01*
X0254168Y0264261D01*
X0256005Y0263500D01*
X0257995Y0263500D01*
X0259832Y0264261D01*
X0261239Y0265668D01*
X0261459Y0266200D01*
X0262541Y0266200D01*
X0262761Y0265668D01*
X0264168Y0264261D01*
X0266005Y0263500D01*
X0267995Y0263500D01*
X0266005Y0263500D01*
X0264168Y0262739D01*
X0262761Y0261332D01*
X0262541Y0260800D01*
X0261459Y0260800D01*
X0261239Y0261332D01*
X0259832Y0262739D01*
X0257995Y0263500D01*
X0256005Y0263500D01*
X0254168Y0262739D01*
X0252761Y0261332D01*
X0252000Y0259495D01*
X0252000Y0257505D01*
X0252761Y0255668D01*
X0254168Y0254261D01*
X0253994Y0254434D02*
X0248965Y0254434D01*
X0249379Y0255433D02*
X0252996Y0255433D01*
X0252445Y0256432D02*
X0249539Y0256432D01*
X0249539Y0257430D02*
X0252031Y0257430D01*
X0252000Y0258429D02*
X0249539Y0258429D01*
X0249539Y0259427D02*
X0252000Y0259427D01*
X0252386Y0260426D02*
X0249539Y0260426D01*
X0249539Y0261424D02*
X0252853Y0261424D01*
X0253852Y0262423D02*
X0249539Y0262423D01*
X0249539Y0263421D02*
X0255815Y0263421D01*
X0254009Y0264420D02*
X0249339Y0264420D01*
X0248925Y0265418D02*
X0253011Y0265418D01*
X0252451Y0266417D02*
X0248020Y0266417D01*
X0246863Y0268131D02*
X0247518Y0268465D01*
X0248112Y0268897D01*
X0248632Y0269416D01*
X0249064Y0270011D01*
X0249397Y0270665D01*
X0249624Y0271364D01*
X0249739Y0272090D01*
X0249739Y0275142D01*
X0245555Y0275142D01*
X0245555Y0276110D01*
X0249739Y0276110D01*
X0249739Y0279162D01*
X0249624Y0279888D01*
X0249397Y0280587D01*
X0249064Y0281241D01*
X0248632Y0281836D01*
X0248112Y0282355D01*
X0247518Y0282787D01*
X0246863Y0283121D01*
X0246164Y0283348D01*
X0245555Y0283444D01*
X0245555Y0276110D01*
X0244587Y0276110D01*
X0244587Y0283444D01*
X0243978Y0283348D01*
X0243279Y0283121D01*
X0242624Y0282787D01*
X0242030Y0282355D01*
X0241510Y0281836D01*
X0241078Y0281241D01*
X0240744Y0280587D01*
X0240517Y0279888D01*
X0240402Y0279162D01*
X0240402Y0276110D01*
X0244587Y0276110D01*
X0244587Y0275142D01*
X0245555Y0275142D01*
X0245555Y0267807D01*
X0246164Y0267904D01*
X0246863Y0268131D01*
X0247418Y0268414D02*
X0252000Y0268414D01*
X0252000Y0269412D02*
X0248628Y0269412D01*
X0249268Y0270411D02*
X0252379Y0270411D01*
X0252838Y0271409D02*
X0249632Y0271409D01*
X0249739Y0272408D02*
X0253837Y0272408D01*
X0254168Y0274261D02*
X0256005Y0273500D01*
X0257995Y0273500D01*
X0259832Y0274261D01*
X0261239Y0275668D01*
X0261459Y0276200D01*
X0262541Y0276200D01*
X0262761Y0275668D01*
X0264168Y0274261D01*
X0266005Y0273500D01*
X0267995Y0273500D01*
X0269832Y0274261D01*
X0271239Y0275668D01*
X0272000Y0277505D01*
X0272000Y0279495D01*
X0271239Y0281332D01*
X0269832Y0282739D01*
X0267995Y0283500D01*
X0266005Y0283500D01*
X0264168Y0282739D01*
X0262761Y0281332D01*
X0262541Y0280800D01*
X0261459Y0280800D01*
X0261239Y0281332D01*
X0259832Y0282739D01*
X0257995Y0283500D01*
X0256005Y0283500D01*
X0254168Y0282739D01*
X0252761Y0281332D01*
X0252000Y0279495D01*
X0252000Y0277505D01*
X0252761Y0275668D01*
X0254168Y0274261D01*
X0254024Y0274405D02*
X0249739Y0274405D01*
X0249739Y0273406D02*
X0255779Y0273406D01*
X0258221Y0273406D02*
X0265779Y0273406D01*
X0264024Y0274405D02*
X0259976Y0274405D01*
X0260974Y0275403D02*
X0263026Y0275403D01*
X0263837Y0272408D02*
X0260163Y0272408D01*
X0261162Y0271409D02*
X0262838Y0271409D01*
X0268221Y0273406D02*
X0274461Y0273406D01*
X0274461Y0272408D02*
X0270163Y0272408D01*
X0271162Y0271409D02*
X0274527Y0271409D01*
X0274461Y0271569D02*
X0275141Y0269926D01*
X0276398Y0268669D01*
X0278040Y0267989D01*
X0279818Y0267989D01*
X0281460Y0268669D01*
X0282717Y0269926D01*
X0283398Y0271569D01*
X0283398Y0279683D01*
X0282717Y0281326D01*
X0281460Y0282583D01*
X0279818Y0283263D01*
X0278040Y0283263D01*
X0276398Y0282583D01*
X0275141Y0281326D01*
X0274461Y0279683D01*
X0274461Y0271569D01*
X0274940Y0270411D02*
X0271621Y0270411D01*
X0272000Y0269412D02*
X0275655Y0269412D01*
X0277015Y0268414D02*
X0272000Y0268414D01*
X0271963Y0267415D02*
X0277799Y0267415D01*
X0278040Y0267515D02*
X0276398Y0266835D01*
X0275141Y0265578D01*
X0274461Y0263935D01*
X0274461Y0255821D01*
X0275141Y0254178D01*
X0276398Y0252921D01*
X0278040Y0252241D01*
X0279818Y0252241D01*
X0281460Y0252921D01*
X0282717Y0254178D01*
X0283398Y0255821D01*
X0283398Y0263935D01*
X0282717Y0265578D01*
X0281460Y0266835D01*
X0279818Y0267515D01*
X0278040Y0267515D01*
X0280059Y0267415D02*
X0286302Y0267415D01*
X0285137Y0268414D02*
X0280843Y0268414D01*
X0282203Y0269412D02*
X0284662Y0269412D01*
X0284500Y0270411D02*
X0282918Y0270411D01*
X0283332Y0271409D02*
X0284588Y0271409D01*
X0285002Y0272408D02*
X0283398Y0272408D01*
X0283398Y0273406D02*
X0285956Y0273406D01*
X0283398Y0274405D02*
X0300133Y0274405D01*
X0300133Y0275403D02*
X0283398Y0275403D01*
X0283398Y0276402D02*
X0300133Y0276402D01*
X0300133Y0277400D02*
X0283398Y0277400D01*
X0283398Y0278399D02*
X0300812Y0278399D01*
X0300133Y0279397D02*
X0283398Y0279397D01*
X0283103Y0280396D02*
X0300133Y0280396D01*
X0300133Y0281394D02*
X0282649Y0281394D01*
X0281650Y0282393D02*
X0295839Y0282393D01*
X0297661Y0282393D02*
X0300133Y0282393D01*
X0300805Y0283391D02*
X0299347Y0283391D01*
X0296750Y0286000D02*
X0305764Y0286000D01*
X0307218Y0289382D02*
X0298203Y0289382D01*
X0299572Y0288384D02*
X0300797Y0288384D01*
X0304223Y0292378D02*
X0283398Y0292378D01*
X0283398Y0293376D02*
X0303224Y0293376D01*
X0302226Y0294375D02*
X0283398Y0294375D01*
X0283398Y0295373D02*
X0297613Y0295373D01*
X0297613Y0296372D02*
X0283008Y0296372D01*
X0283398Y0291379D02*
X0305221Y0291379D01*
X0306220Y0290381D02*
X0283398Y0290381D01*
X0283398Y0289382D02*
X0295297Y0289382D01*
X0293928Y0288384D02*
X0283398Y0288384D01*
X0283398Y0287385D02*
X0293339Y0287385D01*
X0293069Y0286387D02*
X0283012Y0286387D01*
X0282431Y0285388D02*
X0293069Y0285388D01*
X0293433Y0284390D02*
X0281394Y0284390D01*
X0276464Y0284390D02*
X0269961Y0284390D01*
X0270959Y0285388D02*
X0275427Y0285388D01*
X0274846Y0286387D02*
X0271537Y0286387D01*
X0271950Y0287385D02*
X0274461Y0287385D01*
X0274461Y0288384D02*
X0272000Y0288384D01*
X0272000Y0289382D02*
X0274461Y0289382D01*
X0274461Y0290381D02*
X0271633Y0290381D01*
X0271192Y0291379D02*
X0274461Y0291379D01*
X0274461Y0292378D02*
X0270193Y0292378D01*
X0269946Y0294375D02*
X0274461Y0294375D01*
X0274461Y0295373D02*
X0270945Y0295373D01*
X0271530Y0296372D02*
X0274850Y0296372D01*
X0273301Y0297370D02*
X0271944Y0297370D01*
X0272000Y0298369D02*
X0272303Y0298369D01*
X0274250Y0299250D02*
X0297679Y0299250D01*
X0299169Y0297760D01*
X0301669Y0297760D01*
X0311929Y0287500D01*
X0312000Y0287500D01*
X0312000Y0283500D01*
X0309500Y0281000D01*
X0305764Y0281000D01*
X0305764Y0276000D02*
X0306264Y0275500D01*
X0309000Y0275500D01*
X0314000Y0280500D01*
X0314000Y0288500D01*
X0306000Y0296500D01*
X0306000Y0300500D01*
X0301669Y0304831D01*
X0301669Y0305240D01*
X0280811Y0305240D01*
X0278929Y0307122D01*
X0274461Y0307356D02*
X0271938Y0307356D01*
X0272000Y0308354D02*
X0274461Y0308354D01*
X0274461Y0309353D02*
X0272000Y0309353D01*
X0271645Y0310351D02*
X0274461Y0310351D01*
X0274531Y0311350D02*
X0271221Y0311350D01*
X0270223Y0312348D02*
X0274945Y0312348D01*
X0275666Y0313347D02*
X0268365Y0313347D01*
X0269916Y0314345D02*
X0277041Y0314345D01*
X0277773Y0315344D02*
X0270915Y0315344D01*
X0271518Y0316342D02*
X0275969Y0316342D01*
X0276398Y0315913D02*
X0278040Y0315233D01*
X0279818Y0315233D01*
X0281460Y0315913D01*
X0282717Y0317170D01*
X0283398Y0318813D01*
X0283398Y0326819D01*
X0284319Y0326819D01*
X0284319Y0325768D01*
X0284879Y0324415D01*
X0285915Y0323379D01*
X0287268Y0322819D01*
X0288428Y0322819D01*
X0298248Y0312999D01*
X0302202Y0312999D01*
X0302202Y0310361D01*
X0302963Y0309600D01*
X0308840Y0309600D01*
X0309601Y0310361D01*
X0309601Y0320237D01*
X0308840Y0320999D01*
X0302963Y0320999D01*
X0302202Y0320237D01*
X0302202Y0317599D01*
X0300153Y0317599D01*
X0296934Y0320819D01*
X0297732Y0320819D01*
X0299085Y0321379D01*
X0299906Y0322200D01*
X0317047Y0322200D01*
X0320399Y0318848D01*
X0320399Y0310361D01*
X0321160Y0309600D01*
X0327037Y0309600D01*
X0327798Y0310361D01*
X0327798Y0320237D01*
X0327037Y0320999D01*
X0324754Y0320999D01*
X0323953Y0321800D01*
X0318953Y0326800D01*
X0299906Y0326800D01*
X0299706Y0327000D01*
X0300121Y0327415D01*
X0300681Y0328768D01*
X0300681Y0330232D01*
X0300121Y0331585D01*
X0299085Y0332621D01*
X0297732Y0333181D01*
X0296268Y0333181D01*
X0294915Y0332621D01*
X0293879Y0331585D01*
X0293319Y0330232D01*
X0293319Y0328768D01*
X0293879Y0327415D01*
X0294294Y0327000D01*
X0293879Y0326585D01*
X0293319Y0325232D01*
X0293319Y0324434D01*
X0291681Y0326072D01*
X0291681Y0327232D01*
X0291121Y0328585D01*
X0290085Y0329621D01*
X0288732Y0330181D01*
X0287681Y0330181D01*
X0287681Y0331232D01*
X0287121Y0332585D01*
X0286085Y0333621D01*
X0284732Y0334181D01*
X0283268Y0334181D01*
X0283235Y0334167D01*
X0283398Y0334561D01*
X0283398Y0342675D01*
X0282717Y0344318D01*
X0281460Y0345575D01*
X0279818Y0346255D01*
X0278040Y0346255D01*
X0276398Y0345575D01*
X0275141Y0344318D01*
X0274461Y0342675D01*
X0274461Y0334561D01*
X0275141Y0332918D01*
X0276398Y0331661D01*
X0278040Y0330981D01*
X0279818Y0330981D01*
X0280319Y0331189D01*
X0280319Y0330300D01*
X0279818Y0330507D01*
X0278040Y0330507D01*
X0276398Y0329827D01*
X0275141Y0328570D01*
X0274461Y0326927D01*
X0274461Y0318813D01*
X0275141Y0317170D01*
X0276398Y0315913D01*
X0275070Y0317341D02*
X0271932Y0317341D01*
X0272000Y0318339D02*
X0274657Y0318339D01*
X0274461Y0319338D02*
X0272000Y0319338D01*
X0271651Y0320336D02*
X0274461Y0320336D01*
X0274461Y0321335D02*
X0271236Y0321335D01*
X0270238Y0322333D02*
X0274461Y0322333D01*
X0274461Y0323332D02*
X0268401Y0323332D01*
X0270108Y0324330D02*
X0274461Y0324330D01*
X0274461Y0325329D02*
X0271124Y0325329D01*
X0271729Y0326327D02*
X0274461Y0326327D01*
X0274626Y0327326D02*
X0272079Y0327326D01*
X0272134Y0329323D02*
X0275894Y0329323D01*
X0275039Y0328324D02*
X0267500Y0328324D01*
X0266500Y0328324D02*
X0257500Y0328324D01*
X0257500Y0328000D02*
X0257500Y0329000D01*
X0261814Y0329000D01*
X0266500Y0329000D01*
X0266500Y0328000D01*
X0257500Y0328000D01*
X0256500Y0328324D02*
X0248961Y0328324D01*
X0248859Y0328570D02*
X0247602Y0329827D01*
X0245960Y0330507D01*
X0244182Y0330507D01*
X0242540Y0329827D01*
X0241283Y0328570D01*
X0240602Y0326927D01*
X0240602Y0318813D01*
X0241283Y0317170D01*
X0242540Y0315913D01*
X0244182Y0315233D01*
X0245960Y0315233D01*
X0247602Y0315913D01*
X0248859Y0317170D01*
X0249539Y0318813D01*
X0249539Y0326927D01*
X0248859Y0328570D01*
X0248106Y0329323D02*
X0251866Y0329323D01*
X0252124Y0330321D02*
X0246408Y0330321D01*
X0245960Y0330981D02*
X0247602Y0331661D01*
X0248859Y0332918D01*
X0249539Y0334561D01*
X0249539Y0342675D01*
X0248859Y0344318D01*
X0247602Y0345575D01*
X0245960Y0346255D01*
X0244182Y0346255D01*
X0242540Y0345575D01*
X0241283Y0344318D01*
X0240602Y0342675D01*
X0240602Y0334561D01*
X0241283Y0332918D01*
X0242540Y0331661D01*
X0244182Y0330981D01*
X0245960Y0330981D01*
X0246778Y0331320D02*
X0252621Y0331320D01*
X0253464Y0332318D02*
X0248259Y0332318D01*
X0249024Y0333317D02*
X0255000Y0333317D01*
X0254114Y0334315D02*
X0249438Y0334315D01*
X0249539Y0335314D02*
X0253115Y0335314D01*
X0252494Y0336312D02*
X0249539Y0336312D01*
X0249539Y0337311D02*
X0252081Y0337311D01*
X0252000Y0338309D02*
X0249539Y0338309D01*
X0249539Y0339308D02*
X0252000Y0339308D01*
X0252336Y0340306D02*
X0249539Y0340306D01*
X0249539Y0341305D02*
X0252750Y0341305D01*
X0253732Y0342303D02*
X0249539Y0342303D01*
X0249280Y0343302D02*
X0255527Y0343302D01*
X0258473Y0343302D02*
X0265527Y0343302D01*
X0263732Y0342303D02*
X0260268Y0342303D01*
X0261250Y0341305D02*
X0262750Y0341305D01*
X0268473Y0343302D02*
X0274720Y0343302D01*
X0274461Y0342303D02*
X0270268Y0342303D01*
X0271250Y0341305D02*
X0274461Y0341305D01*
X0274461Y0340306D02*
X0271664Y0340306D01*
X0272000Y0339308D02*
X0274461Y0339308D01*
X0274461Y0338309D02*
X0272000Y0338309D01*
X0271919Y0337311D02*
X0274461Y0337311D01*
X0274461Y0336312D02*
X0271506Y0336312D01*
X0270885Y0335314D02*
X0274461Y0335314D01*
X0274562Y0334315D02*
X0269886Y0334315D01*
X0269000Y0333317D02*
X0274976Y0333317D01*
X0275741Y0332318D02*
X0270536Y0332318D01*
X0271379Y0331320D02*
X0277222Y0331320D01*
X0277592Y0330321D02*
X0271876Y0330321D01*
X0280266Y0330321D02*
X0280319Y0330321D01*
X0283296Y0334315D02*
X0306847Y0334315D01*
X0306713Y0334449D02*
X0306992Y0334170D01*
X0307334Y0333972D01*
X0307716Y0333870D01*
X0314500Y0333870D01*
X0314500Y0339201D01*
X0306413Y0339201D01*
X0306413Y0335173D01*
X0306516Y0334791D01*
X0306713Y0334449D01*
X0306413Y0335314D02*
X0283398Y0335314D01*
X0283398Y0336312D02*
X0306413Y0336312D01*
X0306413Y0337311D02*
X0283398Y0337311D01*
X0283398Y0338309D02*
X0306413Y0338309D01*
X0306413Y0340201D02*
X0314500Y0340201D01*
X0314500Y0345531D01*
X0307716Y0345531D01*
X0307334Y0345429D01*
X0306992Y0345232D01*
X0306713Y0344953D01*
X0306516Y0344610D01*
X0306413Y0344229D01*
X0306413Y0340201D01*
X0306413Y0340306D02*
X0283398Y0340306D01*
X0283398Y0339308D02*
X0314500Y0339308D01*
X0314500Y0339201D02*
X0314500Y0340201D01*
X0315500Y0340201D01*
X0315500Y0345531D01*
X0322284Y0345531D01*
X0322666Y0345429D01*
X0323008Y0345232D01*
X0323287Y0344953D01*
X0323484Y0344610D01*
X0323587Y0344229D01*
X0323587Y0340201D01*
X0315500Y0340201D01*
X0315500Y0339201D01*
X0323587Y0339201D01*
X0323587Y0335173D01*
X0323484Y0334791D01*
X0323287Y0334449D01*
X0323008Y0334170D01*
X0322666Y0333972D01*
X0322284Y0333870D01*
X0315500Y0333870D01*
X0315500Y0339201D01*
X0314500Y0339201D01*
X0314500Y0338309D02*
X0315500Y0338309D01*
X0315500Y0337311D02*
X0314500Y0337311D01*
X0314500Y0336312D02*
X0315500Y0336312D01*
X0315500Y0335314D02*
X0314500Y0335314D01*
X0314500Y0334315D02*
X0315500Y0334315D01*
X0315500Y0339308D02*
X0332000Y0339308D01*
X0332000Y0338309D02*
X0323587Y0338309D01*
X0323587Y0337311D02*
X0332081Y0337311D01*
X0332494Y0336312D02*
X0323587Y0336312D01*
X0323587Y0335314D02*
X0333115Y0335314D01*
X0334114Y0334315D02*
X0323153Y0334315D01*
X0323587Y0340306D02*
X0332336Y0340306D01*
X0332750Y0341305D02*
X0323587Y0341305D01*
X0323587Y0342303D02*
X0333732Y0342303D01*
X0335527Y0343302D02*
X0323587Y0343302D01*
X0323567Y0344301D02*
X0350700Y0344301D01*
X0350700Y0345299D02*
X0322891Y0345299D01*
X0315500Y0345299D02*
X0314500Y0345299D01*
X0314500Y0344301D02*
X0315500Y0344301D01*
X0315500Y0343302D02*
X0314500Y0343302D01*
X0314500Y0342303D02*
X0315500Y0342303D01*
X0315500Y0341305D02*
X0314500Y0341305D01*
X0314500Y0340306D02*
X0315500Y0340306D01*
X0306413Y0341305D02*
X0283398Y0341305D01*
X0283398Y0342303D02*
X0306413Y0342303D01*
X0306413Y0343302D02*
X0283138Y0343302D01*
X0282725Y0344301D02*
X0306433Y0344301D01*
X0307109Y0345299D02*
X0281736Y0345299D01*
X0276122Y0345299D02*
X0247878Y0345299D01*
X0248866Y0344301D02*
X0275134Y0344301D01*
X0286389Y0333317D02*
X0335563Y0333317D01*
X0333747Y0332318D02*
X0299387Y0332318D01*
X0300231Y0331320D02*
X0332756Y0331320D01*
X0332342Y0330321D02*
X0300644Y0330321D01*
X0300681Y0329323D02*
X0332000Y0329323D01*
X0332000Y0328324D02*
X0300497Y0328324D01*
X0300032Y0327326D02*
X0332074Y0327326D01*
X0332488Y0326327D02*
X0319425Y0326327D01*
X0320424Y0325329D02*
X0333100Y0325329D01*
X0334099Y0324330D02*
X0321422Y0324330D01*
X0322421Y0323332D02*
X0335599Y0323332D01*
X0333762Y0322333D02*
X0323419Y0322333D01*
X0324418Y0321335D02*
X0332764Y0321335D01*
X0332349Y0320336D02*
X0327699Y0320336D01*
X0327798Y0319338D02*
X0332000Y0319338D01*
X0332000Y0318339D02*
X0327798Y0318339D01*
X0327798Y0317341D02*
X0332068Y0317341D01*
X0332482Y0316342D02*
X0327798Y0316342D01*
X0327798Y0315344D02*
X0333085Y0315344D01*
X0334084Y0314345D02*
X0327798Y0314345D01*
X0327798Y0313347D02*
X0335089Y0313347D01*
X0333494Y0312348D02*
X0327798Y0312348D01*
X0327798Y0311350D02*
X0332643Y0311350D01*
X0332134Y0310351D02*
X0327788Y0310351D01*
X0331870Y0309353D02*
X0283398Y0309353D01*
X0283398Y0310351D02*
X0302212Y0310351D01*
X0302202Y0311350D02*
X0283327Y0311350D01*
X0282914Y0312348D02*
X0302202Y0312348D01*
X0297901Y0313347D02*
X0282192Y0313347D01*
X0280817Y0314345D02*
X0296902Y0314345D01*
X0295904Y0315344D02*
X0280085Y0315344D01*
X0281889Y0316342D02*
X0294905Y0316342D01*
X0293907Y0317341D02*
X0282788Y0317341D01*
X0283201Y0318339D02*
X0292908Y0318339D01*
X0291910Y0319338D02*
X0283398Y0319338D01*
X0283398Y0320336D02*
X0290911Y0320336D01*
X0289913Y0321335D02*
X0283398Y0321335D01*
X0283398Y0322333D02*
X0288914Y0322333D01*
X0286030Y0323332D02*
X0283398Y0323332D01*
X0283398Y0324330D02*
X0284964Y0324330D01*
X0284501Y0325329D02*
X0283398Y0325329D01*
X0283398Y0326327D02*
X0284319Y0326327D01*
X0287681Y0330321D02*
X0293356Y0330321D01*
X0293319Y0329323D02*
X0290383Y0329323D01*
X0291229Y0328324D02*
X0293503Y0328324D01*
X0293968Y0327326D02*
X0291642Y0327326D01*
X0291681Y0326327D02*
X0293773Y0326327D01*
X0293359Y0325329D02*
X0292424Y0325329D01*
X0293769Y0331320D02*
X0287645Y0331320D01*
X0287231Y0332318D02*
X0294613Y0332318D01*
X0298978Y0321335D02*
X0317913Y0321335D01*
X0317979Y0321097D02*
X0317597Y0321199D01*
X0315500Y0321199D01*
X0315500Y0315799D01*
X0318900Y0315799D01*
X0318900Y0319896D01*
X0318797Y0320278D01*
X0318600Y0320620D01*
X0318321Y0320899D01*
X0317979Y0321097D01*
X0318764Y0320336D02*
X0318911Y0320336D01*
X0318900Y0319338D02*
X0319910Y0319338D01*
X0320399Y0318339D02*
X0318900Y0318339D01*
X0318900Y0317341D02*
X0320399Y0317341D01*
X0320399Y0316342D02*
X0318900Y0316342D01*
X0318900Y0314799D02*
X0315500Y0314799D01*
X0315500Y0309400D01*
X0317597Y0309400D01*
X0317979Y0309502D01*
X0318321Y0309699D01*
X0318600Y0309979D01*
X0318797Y0310321D01*
X0318900Y0310702D01*
X0318900Y0314799D01*
X0318900Y0314345D02*
X0320399Y0314345D01*
X0320399Y0313347D02*
X0318900Y0313347D01*
X0318900Y0312348D02*
X0320399Y0312348D01*
X0320399Y0311350D02*
X0318900Y0311350D01*
X0318806Y0310351D02*
X0320409Y0310351D01*
X0320352Y0308354D02*
X0336500Y0308354D01*
X0337500Y0308354D02*
X0346500Y0308354D01*
X0346500Y0308000D02*
X0342186Y0308000D01*
X0337500Y0308000D01*
X0337500Y0309000D01*
X0346500Y0309000D01*
X0346500Y0308000D01*
X0335671Y0303362D02*
X0321067Y0303362D01*
X0321512Y0304360D02*
X0333851Y0304360D01*
X0332855Y0305359D02*
X0321681Y0305359D01*
X0321629Y0306357D02*
X0332256Y0306357D01*
X0331916Y0307356D02*
X0321216Y0307356D01*
X0322747Y0302363D02*
X0322975Y0302363D01*
X0326240Y0302363D02*
X0327240Y0302363D01*
X0327240Y0301365D02*
X0326240Y0301365D01*
X0326240Y0300366D02*
X0327240Y0300366D01*
X0327240Y0299368D02*
X0326240Y0299368D01*
X0327240Y0298369D02*
X0332000Y0298369D01*
X0332000Y0299368D02*
X0330799Y0299368D01*
X0330799Y0300366D02*
X0332361Y0300366D01*
X0332793Y0301365D02*
X0330799Y0301365D01*
X0330506Y0302363D02*
X0333792Y0302363D01*
X0332056Y0297370D02*
X0330799Y0297370D01*
X0330799Y0296372D02*
X0332469Y0296372D01*
X0333055Y0295373D02*
X0330799Y0295373D01*
X0330248Y0294375D02*
X0334054Y0294375D01*
X0335707Y0293376D02*
X0330207Y0293376D01*
X0330621Y0292378D02*
X0333807Y0292378D01*
X0332808Y0291379D02*
X0330681Y0291379D01*
X0330948Y0290381D02*
X0332367Y0290381D01*
X0332000Y0289382D02*
X0331000Y0289382D01*
X0331203Y0288384D02*
X0332000Y0288384D01*
X0332050Y0287385D02*
X0331867Y0287385D01*
X0331867Y0286387D02*
X0332463Y0286387D01*
X0333041Y0285388D02*
X0331867Y0285388D01*
X0331867Y0284390D02*
X0334039Y0284390D01*
X0335743Y0283391D02*
X0331471Y0283391D01*
X0332063Y0282393D02*
X0333822Y0282393D01*
X0332823Y0281394D02*
X0332067Y0281394D01*
X0332067Y0280396D02*
X0332373Y0280396D01*
X0332000Y0278399D02*
X0331188Y0278399D01*
X0331867Y0277400D02*
X0332044Y0277400D01*
X0331867Y0276402D02*
X0332457Y0276402D01*
X0333026Y0275403D02*
X0331867Y0275403D01*
X0331867Y0274405D02*
X0334024Y0274405D01*
X0333837Y0272408D02*
X0331867Y0272408D01*
X0331867Y0271409D02*
X0332838Y0271409D01*
X0332379Y0270411D02*
X0331867Y0270411D01*
X0331867Y0269412D02*
X0332000Y0269412D01*
X0332000Y0268414D02*
X0329915Y0268414D01*
X0330913Y0267415D02*
X0332037Y0267415D01*
X0331912Y0266417D02*
X0332451Y0266417D01*
X0332000Y0263500D02*
X0340000Y0263500D01*
X0342000Y0261500D01*
X0342000Y0255500D01*
X0347000Y0250500D01*
X0347000Y0248500D01*
X0342981Y0245448D02*
X0341019Y0245448D01*
X0340020Y0244449D02*
X0343980Y0244449D01*
X0343881Y0242452D02*
X0340119Y0242452D01*
X0341117Y0241454D02*
X0342883Y0241454D01*
X0345887Y0243451D02*
X0338113Y0243451D01*
X0335887Y0243451D02*
X0283398Y0243451D01*
X0283398Y0244449D02*
X0333980Y0244449D01*
X0332981Y0245448D02*
X0283398Y0245448D01*
X0283398Y0246446D02*
X0332439Y0246446D01*
X0332025Y0247445D02*
X0283398Y0247445D01*
X0283398Y0248187D02*
X0282717Y0249830D01*
X0281460Y0251087D01*
X0279818Y0251767D01*
X0278040Y0251767D01*
X0276398Y0251087D01*
X0275141Y0249830D01*
X0274461Y0248187D01*
X0274461Y0240073D01*
X0275141Y0238430D01*
X0276398Y0237173D01*
X0278040Y0236493D01*
X0279818Y0236493D01*
X0281460Y0237173D01*
X0282717Y0238430D01*
X0283398Y0240073D01*
X0283398Y0248187D01*
X0283292Y0248443D02*
X0332000Y0248443D01*
X0332000Y0249442D02*
X0282878Y0249442D01*
X0282107Y0250440D02*
X0295231Y0250440D01*
X0294233Y0251439D02*
X0280610Y0251439D01*
X0280292Y0252437D02*
X0293234Y0252437D01*
X0292236Y0253436D02*
X0281975Y0253436D01*
X0282823Y0254434D02*
X0291237Y0254434D01*
X0290239Y0255433D02*
X0283237Y0255433D01*
X0283398Y0256432D02*
X0289240Y0256432D01*
X0288242Y0257430D02*
X0283398Y0257430D01*
X0283398Y0258429D02*
X0288000Y0258429D01*
X0288000Y0259427D02*
X0283398Y0259427D01*
X0283398Y0260426D02*
X0288000Y0260426D01*
X0288000Y0261424D02*
X0283398Y0261424D01*
X0283398Y0262423D02*
X0288000Y0262423D01*
X0288000Y0263421D02*
X0283398Y0263421D01*
X0283197Y0264420D02*
X0288000Y0264420D01*
X0288000Y0265418D02*
X0282783Y0265418D01*
X0281878Y0266417D02*
X0288000Y0266417D01*
X0290000Y0268500D02*
X0288000Y0270500D01*
X0290000Y0268500D02*
X0290000Y0258500D01*
X0297000Y0251500D01*
X0303000Y0251500D01*
X0306000Y0254500D01*
X0306000Y0256500D01*
X0309500Y0256432D02*
X0332445Y0256432D01*
X0332031Y0257430D02*
X0309403Y0257430D01*
X0308990Y0258429D02*
X0332000Y0258429D01*
X0332000Y0259427D02*
X0308023Y0259427D01*
X0306754Y0260426D02*
X0332386Y0260426D01*
X0332853Y0261424D02*
X0307752Y0261424D01*
X0307764Y0262423D02*
X0330249Y0262423D01*
X0329250Y0263421D02*
X0307764Y0263421D01*
X0307764Y0264420D02*
X0328252Y0264420D01*
X0327253Y0265418D02*
X0307764Y0265418D01*
X0307764Y0266417D02*
X0326255Y0266417D01*
X0325256Y0267415D02*
X0307764Y0267415D01*
X0307764Y0268414D02*
X0324500Y0268414D01*
X0326500Y0269000D02*
X0326500Y0270736D01*
X0326236Y0271000D01*
X0326500Y0269000D02*
X0332000Y0263500D01*
X0332996Y0255433D02*
X0309346Y0255433D01*
X0308884Y0254434D02*
X0333994Y0254434D01*
X0333866Y0252437D02*
X0306766Y0252437D01*
X0305767Y0251439D02*
X0332868Y0251439D01*
X0332392Y0250440D02*
X0304769Y0250440D01*
X0307764Y0253436D02*
X0335851Y0253436D01*
X0338149Y0253436D02*
X0341236Y0253436D01*
X0342234Y0252437D02*
X0340134Y0252437D01*
X0341132Y0251439D02*
X0342868Y0251439D01*
X0340237Y0254434D02*
X0340006Y0254434D01*
X0333881Y0242452D02*
X0283398Y0242452D01*
X0283398Y0241454D02*
X0332883Y0241454D01*
X0332398Y0240455D02*
X0283398Y0240455D01*
X0283143Y0239457D02*
X0332000Y0239457D01*
X0332000Y0238458D02*
X0282729Y0238458D01*
X0281747Y0237460D02*
X0332019Y0237460D01*
X0332432Y0236461D02*
X0271567Y0236461D01*
X0271239Y0235668D02*
X0272000Y0237505D01*
X0272000Y0239495D01*
X0271239Y0241332D01*
X0269832Y0242739D01*
X0267995Y0243500D01*
X0266005Y0243500D01*
X0264168Y0242739D01*
X0262761Y0241332D01*
X0262541Y0240800D01*
X0261459Y0240800D01*
X0261239Y0241332D01*
X0259832Y0242739D01*
X0257995Y0243500D01*
X0256005Y0243500D01*
X0254168Y0242739D01*
X0252761Y0241332D01*
X0252000Y0239495D01*
X0252000Y0237505D01*
X0252761Y0235668D01*
X0254168Y0234261D01*
X0256005Y0233500D01*
X0254168Y0232739D01*
X0252761Y0231332D01*
X0252000Y0229495D01*
X0252000Y0227505D01*
X0252761Y0225668D01*
X0254168Y0224261D01*
X0256005Y0223500D01*
X0257995Y0223500D01*
X0259832Y0224261D01*
X0261239Y0225668D01*
X0261459Y0226200D01*
X0262541Y0226200D01*
X0262761Y0225668D01*
X0264168Y0224261D01*
X0266005Y0223500D01*
X0267995Y0223500D01*
X0269832Y0224261D01*
X0271239Y0225668D01*
X0272000Y0227505D01*
X0272000Y0229495D01*
X0271239Y0231332D01*
X0269832Y0232739D01*
X0267995Y0233500D01*
X0266005Y0233500D01*
X0264168Y0232739D01*
X0262761Y0231332D01*
X0262541Y0230800D01*
X0261459Y0230800D01*
X0261239Y0231332D01*
X0259832Y0232739D01*
X0257995Y0233500D01*
X0256005Y0233500D01*
X0257995Y0233500D01*
X0259832Y0234261D01*
X0261239Y0235668D01*
X0261459Y0236200D01*
X0262541Y0236200D01*
X0262761Y0235668D01*
X0264168Y0234261D01*
X0266005Y0233500D01*
X0267995Y0233500D01*
X0269832Y0234261D01*
X0271239Y0235668D01*
X0271034Y0235463D02*
X0276698Y0235463D01*
X0275524Y0234464D02*
X0270035Y0234464D01*
X0270104Y0232467D02*
X0274472Y0232467D01*
X0274461Y0231469D02*
X0271102Y0231469D01*
X0271596Y0230470D02*
X0274461Y0230470D01*
X0274461Y0229472D02*
X0272000Y0229472D01*
X0272000Y0228473D02*
X0274461Y0228473D01*
X0274461Y0227475D02*
X0271987Y0227475D01*
X0271574Y0226476D02*
X0274461Y0226476D01*
X0274461Y0225478D02*
X0271049Y0225478D01*
X0270050Y0224479D02*
X0274461Y0224479D01*
X0274810Y0223481D02*
X0249190Y0223481D01*
X0249539Y0224479D02*
X0253950Y0224479D01*
X0252951Y0225478D02*
X0249539Y0225478D01*
X0249539Y0226476D02*
X0252426Y0226476D01*
X0252013Y0227475D02*
X0249539Y0227475D01*
X0249539Y0228473D02*
X0252000Y0228473D01*
X0252000Y0229472D02*
X0249539Y0229472D01*
X0249539Y0230470D02*
X0252404Y0230470D01*
X0252898Y0231469D02*
X0249539Y0231469D01*
X0249528Y0232467D02*
X0253896Y0232467D01*
X0253965Y0234464D02*
X0248476Y0234464D01*
X0249114Y0233466D02*
X0255923Y0233466D01*
X0258077Y0233466D02*
X0265923Y0233466D01*
X0268077Y0233466D02*
X0274886Y0233466D01*
X0276111Y0237460D02*
X0271981Y0237460D01*
X0272000Y0238458D02*
X0275129Y0238458D01*
X0274716Y0239457D02*
X0272000Y0239457D01*
X0271602Y0240455D02*
X0274461Y0240455D01*
X0274461Y0241454D02*
X0271117Y0241454D01*
X0270119Y0242452D02*
X0274461Y0242452D01*
X0274461Y0243451D02*
X0268113Y0243451D01*
X0270020Y0244449D02*
X0274461Y0244449D01*
X0274461Y0245448D02*
X0271019Y0245448D01*
X0271561Y0246446D02*
X0274461Y0246446D01*
X0274461Y0247445D02*
X0271975Y0247445D01*
X0272000Y0248443D02*
X0274567Y0248443D01*
X0274980Y0249442D02*
X0272000Y0249442D01*
X0271608Y0250440D02*
X0275752Y0250440D01*
X0277249Y0251439D02*
X0271132Y0251439D01*
X0270134Y0252437D02*
X0277566Y0252437D01*
X0275883Y0253436D02*
X0268149Y0253436D01*
X0270006Y0254434D02*
X0275035Y0254434D01*
X0274621Y0255433D02*
X0271004Y0255433D01*
X0271555Y0256432D02*
X0274461Y0256432D01*
X0274461Y0257430D02*
X0271969Y0257430D01*
X0272000Y0258429D02*
X0274461Y0258429D01*
X0274461Y0259427D02*
X0272000Y0259427D01*
X0271614Y0260426D02*
X0274461Y0260426D01*
X0274461Y0261424D02*
X0271147Y0261424D01*
X0270148Y0262423D02*
X0274461Y0262423D01*
X0274461Y0263421D02*
X0268185Y0263421D01*
X0269991Y0264420D02*
X0274661Y0264420D01*
X0275075Y0265418D02*
X0270989Y0265418D01*
X0271549Y0266417D02*
X0275980Y0266417D01*
X0274461Y0274405D02*
X0269976Y0274405D01*
X0270974Y0275403D02*
X0274461Y0275403D01*
X0274461Y0276402D02*
X0271543Y0276402D01*
X0271956Y0277400D02*
X0274461Y0277400D01*
X0274461Y0278399D02*
X0272000Y0278399D01*
X0272000Y0279397D02*
X0274461Y0279397D01*
X0274756Y0280396D02*
X0271627Y0280396D01*
X0271177Y0281394D02*
X0275210Y0281394D01*
X0276208Y0282393D02*
X0270178Y0282393D01*
X0268257Y0283391D02*
X0294153Y0283391D01*
X0290044Y0273406D02*
X0300820Y0273406D01*
X0300133Y0272408D02*
X0290998Y0272408D01*
X0291412Y0271409D02*
X0300133Y0271409D01*
X0300133Y0270411D02*
X0291500Y0270411D01*
X0291916Y0269412D02*
X0300133Y0269412D01*
X0303764Y0268414D02*
X0292000Y0268414D01*
X0292000Y0267415D02*
X0303764Y0267415D01*
X0303764Y0266417D02*
X0292000Y0266417D01*
X0292000Y0265418D02*
X0303764Y0265418D01*
X0303764Y0264420D02*
X0292000Y0264420D01*
X0292000Y0263421D02*
X0303764Y0263421D01*
X0303094Y0262423D02*
X0292000Y0262423D01*
X0292000Y0261424D02*
X0302096Y0261424D01*
X0301097Y0260426D02*
X0292000Y0260426D01*
X0292000Y0259427D02*
X0300099Y0259427D01*
X0296723Y0258429D02*
X0292900Y0258429D01*
X0293898Y0257430D02*
X0295815Y0257430D01*
X0295401Y0256432D02*
X0294897Y0256432D01*
X0299000Y0255500D02*
X0305764Y0262264D01*
X0305764Y0271000D01*
X0306000Y0271236D01*
X0306000Y0271500D01*
X0305764Y0271000D02*
X0309750Y0271000D01*
X0313750Y0275000D01*
X0314500Y0275000D01*
X0315914Y0278399D02*
X0316000Y0278399D01*
X0316000Y0279397D02*
X0315726Y0279397D01*
X0316000Y0280396D02*
X0316000Y0280396D01*
X0316000Y0281394D02*
X0316000Y0281394D01*
X0316000Y0282393D02*
X0316000Y0282393D01*
X0316000Y0283391D02*
X0316000Y0283391D01*
X0316000Y0284390D02*
X0316000Y0284390D01*
X0316000Y0285388D02*
X0316000Y0285388D01*
X0316000Y0286387D02*
X0316000Y0286387D01*
X0316000Y0287385D02*
X0316000Y0287385D01*
X0316000Y0288384D02*
X0316000Y0288384D01*
X0316000Y0289382D02*
X0315946Y0289382D01*
X0316000Y0290381D02*
X0314948Y0290381D01*
X0313949Y0291379D02*
X0316000Y0291379D01*
X0316000Y0292378D02*
X0312950Y0292378D01*
X0311952Y0293376D02*
X0316000Y0293376D01*
X0316000Y0294375D02*
X0310953Y0294375D01*
X0309955Y0295373D02*
X0315401Y0295373D01*
X0315401Y0296372D02*
X0308956Y0296372D01*
X0308000Y0297370D02*
X0315401Y0297370D01*
X0315401Y0298369D02*
X0314045Y0298369D01*
X0314587Y0299368D02*
X0315401Y0299368D01*
X0315401Y0300366D02*
X0314587Y0300366D01*
X0315401Y0301365D02*
X0310815Y0301365D01*
X0310815Y0302363D02*
X0309846Y0302363D01*
X0309846Y0303362D02*
X0310815Y0303362D01*
X0310815Y0304360D02*
X0309846Y0304360D01*
X0306358Y0304360D02*
X0305725Y0304360D01*
X0305725Y0305359D02*
X0314319Y0305359D01*
X0314304Y0304360D02*
X0314488Y0304360D01*
X0314587Y0303362D02*
X0314933Y0303362D01*
X0314587Y0302363D02*
X0315700Y0302363D01*
X0318000Y0299760D02*
X0319260Y0298500D01*
X0318000Y0299760D02*
X0318000Y0278500D01*
X0320500Y0276000D01*
X0326236Y0276000D01*
X0326146Y0280909D02*
X0320406Y0280909D01*
X0320406Y0279621D01*
X0320508Y0279240D01*
X0320705Y0278898D01*
X0320984Y0278619D01*
X0321314Y0278428D01*
X0321107Y0278221D01*
X0320000Y0279328D01*
X0320000Y0294247D01*
X0322357Y0294247D01*
X0322891Y0294781D01*
X0322981Y0294626D01*
X0323260Y0294347D01*
X0323602Y0294149D01*
X0323984Y0294047D01*
X0324341Y0294047D01*
X0323879Y0293585D01*
X0323319Y0292232D01*
X0323319Y0290768D01*
X0323879Y0289415D01*
X0324813Y0288481D01*
X0321367Y0288481D01*
X0320606Y0287720D01*
X0320606Y0284280D01*
X0321314Y0283572D01*
X0320984Y0283381D01*
X0320705Y0283102D01*
X0320508Y0282760D01*
X0320406Y0282379D01*
X0320406Y0281091D01*
X0326146Y0281091D01*
X0326146Y0280909D01*
X0326236Y0286000D02*
X0326736Y0286500D01*
X0329000Y0286500D01*
X0329000Y0289500D01*
X0327000Y0291500D01*
X0323319Y0291379D02*
X0320000Y0291379D01*
X0320000Y0290381D02*
X0323479Y0290381D01*
X0323912Y0289382D02*
X0320000Y0289382D01*
X0320000Y0288384D02*
X0321270Y0288384D01*
X0320606Y0287385D02*
X0320000Y0287385D01*
X0320000Y0286387D02*
X0320606Y0286387D01*
X0320606Y0285388D02*
X0320000Y0285388D01*
X0320000Y0284390D02*
X0320606Y0284390D01*
X0321002Y0283391D02*
X0320000Y0283391D01*
X0320000Y0282393D02*
X0320409Y0282393D01*
X0320406Y0281394D02*
X0320000Y0281394D01*
X0320000Y0280396D02*
X0320406Y0280396D01*
X0320466Y0279397D02*
X0320000Y0279397D01*
X0320930Y0278399D02*
X0321285Y0278399D01*
X0318268Y0275403D02*
X0318181Y0275403D01*
X0318181Y0274405D02*
X0319267Y0274405D01*
X0317824Y0273406D02*
X0321292Y0273406D01*
X0320606Y0272408D02*
X0317114Y0272408D01*
X0315450Y0271409D02*
X0320606Y0271409D01*
X0320606Y0270411D02*
X0311989Y0270411D01*
X0311394Y0269412D02*
X0320606Y0269412D01*
X0313550Y0271409D02*
X0312988Y0271409D01*
X0331180Y0273406D02*
X0335779Y0273406D01*
X0338221Y0273406D02*
X0345779Y0273406D01*
X0344024Y0274405D02*
X0339976Y0274405D01*
X0340974Y0275403D02*
X0343026Y0275403D01*
X0343837Y0272408D02*
X0340163Y0272408D01*
X0341162Y0271409D02*
X0342838Y0271409D01*
X0348221Y0273406D02*
X0350700Y0273406D01*
X0350700Y0272408D02*
X0350163Y0272408D01*
X0349976Y0274405D02*
X0350700Y0274405D01*
X0350700Y0282393D02*
X0350178Y0282393D01*
X0350700Y0283391D02*
X0348257Y0283391D01*
X0349961Y0284390D02*
X0350700Y0284390D01*
X0345743Y0283391D02*
X0338257Y0283391D01*
X0339961Y0284390D02*
X0344039Y0284390D01*
X0343041Y0285388D02*
X0340959Y0285388D01*
X0340178Y0282393D02*
X0343822Y0282393D01*
X0342823Y0281394D02*
X0341177Y0281394D01*
X0341192Y0291379D02*
X0342808Y0291379D01*
X0343807Y0292378D02*
X0340193Y0292378D01*
X0339946Y0294375D02*
X0344054Y0294375D01*
X0343055Y0295373D02*
X0340945Y0295373D01*
X0338293Y0293376D02*
X0345707Y0293376D01*
X0348293Y0293376D02*
X0350700Y0293376D01*
X0350700Y0292378D02*
X0350193Y0292378D01*
X0349946Y0294375D02*
X0350700Y0294375D01*
X0323793Y0293376D02*
X0320000Y0293376D01*
X0320000Y0292378D02*
X0323379Y0292378D01*
X0323232Y0294375D02*
X0322485Y0294375D01*
X0310815Y0298369D02*
X0309846Y0298369D01*
X0309846Y0299368D02*
X0310815Y0299368D01*
X0310815Y0300366D02*
X0309846Y0300366D01*
X0306075Y0303362D02*
X0305967Y0303362D01*
X0305725Y0306357D02*
X0314371Y0306357D01*
X0314784Y0307356D02*
X0305725Y0307356D01*
X0305118Y0308354D02*
X0315648Y0308354D01*
X0314500Y0309400D02*
X0312403Y0309400D01*
X0312021Y0309502D01*
X0311679Y0309699D01*
X0311400Y0309979D01*
X0311203Y0310321D01*
X0311100Y0310702D01*
X0311100Y0314799D01*
X0314500Y0314799D01*
X0315500Y0314799D01*
X0315500Y0315799D01*
X0314500Y0315799D01*
X0314500Y0314799D01*
X0314500Y0309400D01*
X0314500Y0310351D02*
X0315500Y0310351D01*
X0315500Y0311350D02*
X0314500Y0311350D01*
X0314500Y0312348D02*
X0315500Y0312348D01*
X0315500Y0313347D02*
X0314500Y0313347D01*
X0314500Y0314345D02*
X0315500Y0314345D01*
X0315500Y0315344D02*
X0320399Y0315344D01*
X0323000Y0316201D02*
X0323197Y0316201D01*
X0315500Y0316342D02*
X0314500Y0316342D01*
X0314500Y0315799D02*
X0314500Y0321199D01*
X0312403Y0321199D01*
X0312021Y0321097D01*
X0311679Y0320899D01*
X0311400Y0320620D01*
X0311203Y0320278D01*
X0311100Y0319896D01*
X0311100Y0315799D01*
X0314500Y0315799D01*
X0314500Y0315344D02*
X0309601Y0315344D01*
X0309601Y0316342D02*
X0311100Y0316342D01*
X0311100Y0317341D02*
X0309601Y0317341D01*
X0309601Y0318339D02*
X0311100Y0318339D01*
X0311100Y0319338D02*
X0309601Y0319338D01*
X0309502Y0320336D02*
X0311236Y0320336D01*
X0314500Y0320336D02*
X0315500Y0320336D01*
X0315500Y0319338D02*
X0314500Y0319338D01*
X0314500Y0318339D02*
X0315500Y0318339D01*
X0315500Y0317341D02*
X0314500Y0317341D01*
X0311100Y0314345D02*
X0309601Y0314345D01*
X0309601Y0313347D02*
X0311100Y0313347D01*
X0311100Y0312348D02*
X0309601Y0312348D01*
X0309601Y0311350D02*
X0311100Y0311350D01*
X0311194Y0310351D02*
X0309591Y0310351D01*
X0301669Y0305240D02*
X0300260Y0305240D01*
X0297613Y0307356D02*
X0283398Y0307356D01*
X0283398Y0308354D02*
X0298220Y0308354D01*
X0299413Y0318339D02*
X0302202Y0318339D01*
X0302202Y0319338D02*
X0298415Y0319338D01*
X0297416Y0320336D02*
X0302301Y0320336D01*
X0301669Y0297760D02*
X0301669Y0296857D01*
X0302013Y0296514D01*
X0275199Y0301365D02*
X0274964Y0301365D01*
X0274751Y0302363D02*
X0273965Y0302363D01*
X0274461Y0303362D02*
X0272967Y0303362D01*
X0271968Y0304360D02*
X0274461Y0304360D01*
X0274461Y0305359D02*
X0270970Y0305359D01*
X0271524Y0306357D02*
X0274461Y0306357D01*
X0270000Y0303500D02*
X0274250Y0299250D01*
X0274461Y0293376D02*
X0268293Y0293376D01*
X0265707Y0293376D02*
X0258293Y0293376D01*
X0259946Y0294375D02*
X0264054Y0294375D01*
X0263055Y0295373D02*
X0260945Y0295373D01*
X0260193Y0292378D02*
X0263807Y0292378D01*
X0262808Y0291379D02*
X0261192Y0291379D01*
X0255707Y0293376D02*
X0249739Y0293376D01*
X0249739Y0292378D02*
X0253807Y0292378D01*
X0252808Y0291379D02*
X0245555Y0291379D01*
X0245555Y0291858D02*
X0249739Y0291858D01*
X0249739Y0294910D01*
X0249624Y0295636D01*
X0249397Y0296335D01*
X0249064Y0296989D01*
X0248632Y0297584D01*
X0248112Y0298103D01*
X0247518Y0298535D01*
X0246863Y0298869D01*
X0246164Y0299096D01*
X0245555Y0299192D01*
X0245555Y0291858D01*
X0245555Y0290890D01*
X0249739Y0290890D01*
X0249739Y0287838D01*
X0249624Y0287112D01*
X0249397Y0286413D01*
X0249064Y0285759D01*
X0248632Y0285164D01*
X0248112Y0284645D01*
X0247518Y0284213D01*
X0246863Y0283879D01*
X0246164Y0283652D01*
X0245555Y0283556D01*
X0245555Y0290890D01*
X0244587Y0290890D01*
X0244587Y0283556D01*
X0243978Y0283652D01*
X0243279Y0283879D01*
X0242624Y0284213D01*
X0242030Y0284645D01*
X0241510Y0285164D01*
X0241078Y0285759D01*
X0240744Y0286413D01*
X0240517Y0287112D01*
X0240402Y0287838D01*
X0240402Y0290890D01*
X0244587Y0290890D01*
X0244587Y0291858D01*
X0240402Y0291858D01*
X0240402Y0294910D01*
X0240517Y0295636D01*
X0240744Y0296335D01*
X0241078Y0296989D01*
X0241510Y0297584D01*
X0242030Y0298103D01*
X0242624Y0298535D01*
X0243279Y0298869D01*
X0243978Y0299096D01*
X0244587Y0299192D01*
X0244587Y0291858D01*
X0245555Y0291858D01*
X0245555Y0292378D02*
X0244587Y0292378D01*
X0244587Y0293376D02*
X0245555Y0293376D01*
X0245555Y0294375D02*
X0244587Y0294375D01*
X0244587Y0295373D02*
X0245555Y0295373D01*
X0245555Y0296372D02*
X0244587Y0296372D01*
X0244587Y0297370D02*
X0245555Y0297370D01*
X0245555Y0298369D02*
X0244587Y0298369D01*
X0242395Y0298369D02*
X0228300Y0298369D01*
X0228300Y0297370D02*
X0241355Y0297370D01*
X0240763Y0296372D02*
X0228300Y0296372D01*
X0228300Y0295373D02*
X0240476Y0295373D01*
X0240402Y0294375D02*
X0228300Y0294375D01*
X0228300Y0293376D02*
X0240402Y0293376D01*
X0240402Y0292378D02*
X0228300Y0292378D01*
X0228300Y0291379D02*
X0244587Y0291379D01*
X0244587Y0290381D02*
X0245555Y0290381D01*
X0245555Y0289382D02*
X0244587Y0289382D01*
X0244587Y0288384D02*
X0245555Y0288384D01*
X0245555Y0287385D02*
X0244587Y0287385D01*
X0244587Y0286387D02*
X0245555Y0286387D01*
X0245555Y0285388D02*
X0244587Y0285388D01*
X0244587Y0284390D02*
X0245555Y0284390D01*
X0245555Y0283391D02*
X0244587Y0283391D01*
X0244251Y0283391D02*
X0228300Y0283391D01*
X0228300Y0282393D02*
X0242081Y0282393D01*
X0241189Y0281394D02*
X0228300Y0281394D01*
X0228300Y0280396D02*
X0240682Y0280396D01*
X0240440Y0279397D02*
X0228300Y0279397D01*
X0228300Y0278399D02*
X0240402Y0278399D01*
X0240402Y0277400D02*
X0228300Y0277400D01*
X0228300Y0276402D02*
X0240402Y0276402D01*
X0240402Y0275142D02*
X0240402Y0272090D01*
X0240517Y0271364D01*
X0240744Y0270665D01*
X0241078Y0270011D01*
X0241510Y0269416D01*
X0242030Y0268897D01*
X0242624Y0268465D01*
X0243279Y0268131D01*
X0243978Y0267904D01*
X0244587Y0267807D01*
X0244587Y0275142D01*
X0240402Y0275142D01*
X0240402Y0274405D02*
X0228300Y0274405D01*
X0228300Y0275403D02*
X0244587Y0275403D01*
X0245555Y0275403D02*
X0253026Y0275403D01*
X0252457Y0276402D02*
X0249739Y0276402D01*
X0249739Y0277400D02*
X0252044Y0277400D01*
X0252000Y0278399D02*
X0249739Y0278399D01*
X0249702Y0279397D02*
X0252000Y0279397D01*
X0252373Y0280396D02*
X0249459Y0280396D01*
X0248953Y0281394D02*
X0252823Y0281394D01*
X0253822Y0282393D02*
X0248061Y0282393D01*
X0247762Y0284390D02*
X0254039Y0284390D01*
X0253041Y0285388D02*
X0248795Y0285388D01*
X0249384Y0286387D02*
X0252463Y0286387D01*
X0252050Y0287385D02*
X0249668Y0287385D01*
X0249739Y0288384D02*
X0252000Y0288384D01*
X0252000Y0289382D02*
X0249739Y0289382D01*
X0249739Y0290381D02*
X0252367Y0290381D01*
X0254054Y0294375D02*
X0249739Y0294375D01*
X0249666Y0295373D02*
X0253055Y0295373D01*
X0252469Y0296372D02*
X0249378Y0296372D01*
X0248787Y0297370D02*
X0252056Y0297370D01*
X0252000Y0298369D02*
X0247747Y0298369D01*
X0247803Y0300366D02*
X0252361Y0300366D01*
X0252000Y0299368D02*
X0228300Y0299368D01*
X0228300Y0300366D02*
X0242339Y0300366D01*
X0241340Y0301365D02*
X0228300Y0301365D01*
X0228300Y0302363D02*
X0240893Y0302363D01*
X0240602Y0303362D02*
X0228300Y0303362D01*
X0228300Y0304360D02*
X0240602Y0304360D01*
X0240602Y0305359D02*
X0228300Y0305359D01*
X0228300Y0306357D02*
X0240602Y0306357D01*
X0240602Y0307356D02*
X0228300Y0307356D01*
X0228300Y0308354D02*
X0240602Y0308354D01*
X0240602Y0309353D02*
X0228300Y0309353D01*
X0228300Y0310351D02*
X0240602Y0310351D01*
X0240673Y0311350D02*
X0228300Y0311350D01*
X0228300Y0312348D02*
X0241086Y0312348D01*
X0241808Y0313347D02*
X0228300Y0313347D01*
X0228300Y0314345D02*
X0243183Y0314345D01*
X0243915Y0315344D02*
X0228300Y0315344D01*
X0228300Y0316342D02*
X0242111Y0316342D01*
X0241212Y0317341D02*
X0228300Y0317341D01*
X0228300Y0318339D02*
X0240798Y0318339D01*
X0240602Y0319338D02*
X0228300Y0319338D01*
X0228300Y0320336D02*
X0240602Y0320336D01*
X0240602Y0321335D02*
X0228300Y0321335D01*
X0228300Y0322333D02*
X0240602Y0322333D01*
X0240602Y0323332D02*
X0228300Y0323332D01*
X0228300Y0324330D02*
X0240602Y0324330D01*
X0240602Y0325329D02*
X0228300Y0325329D01*
X0228300Y0326327D02*
X0240602Y0326327D01*
X0240767Y0327326D02*
X0228300Y0327326D01*
X0228300Y0328324D02*
X0241181Y0328324D01*
X0242036Y0329323D02*
X0228300Y0329323D01*
X0228300Y0330321D02*
X0243734Y0330321D01*
X0243364Y0331320D02*
X0228300Y0331320D01*
X0228300Y0332318D02*
X0241883Y0332318D01*
X0241118Y0333317D02*
X0228300Y0333317D01*
X0228300Y0334315D02*
X0240704Y0334315D01*
X0240602Y0335314D02*
X0228300Y0335314D01*
X0228300Y0336312D02*
X0240602Y0336312D01*
X0240602Y0337311D02*
X0228300Y0337311D01*
X0228300Y0338309D02*
X0240602Y0338309D01*
X0240602Y0339308D02*
X0228300Y0339308D01*
X0228300Y0340306D02*
X0240602Y0340306D01*
X0240602Y0341305D02*
X0228300Y0341305D01*
X0228300Y0342303D02*
X0240602Y0342303D01*
X0240862Y0343302D02*
X0228300Y0343302D01*
X0228300Y0344301D02*
X0241275Y0344301D01*
X0242264Y0345299D02*
X0228300Y0345299D01*
X0228300Y0346298D02*
X0350700Y0346298D01*
X0350700Y0347296D02*
X0228300Y0347296D01*
X0228300Y0348295D02*
X0350700Y0348295D01*
X0350638Y0349293D02*
X0228362Y0349293D01*
X0228547Y0350292D02*
X0350453Y0350292D01*
X0350129Y0351290D02*
X0228871Y0351290D01*
X0229196Y0352289D02*
X0349804Y0352289D01*
X0349143Y0353287D02*
X0229857Y0353287D01*
X0230582Y0354286D02*
X0348418Y0354286D01*
X0347282Y0355284D02*
X0231718Y0355284D01*
X0233145Y0356283D02*
X0345855Y0356283D01*
X0345527Y0343302D02*
X0338473Y0343302D01*
X0340268Y0342303D02*
X0343732Y0342303D01*
X0342750Y0341305D02*
X0341250Y0341305D01*
X0340885Y0335314D02*
X0343115Y0335314D01*
X0344114Y0334315D02*
X0339886Y0334315D01*
X0338437Y0333317D02*
X0345563Y0333317D01*
X0343747Y0332318D02*
X0340253Y0332318D01*
X0341244Y0331320D02*
X0342756Y0331320D01*
X0343100Y0325329D02*
X0340900Y0325329D01*
X0339901Y0324330D02*
X0344099Y0324330D01*
X0345599Y0323332D02*
X0338401Y0323332D01*
X0340238Y0322333D02*
X0343762Y0322333D01*
X0342764Y0321335D02*
X0341236Y0321335D01*
X0348401Y0323332D02*
X0350700Y0323332D01*
X0350700Y0324330D02*
X0349901Y0324330D01*
X0350238Y0322333D02*
X0350700Y0322333D01*
X0350700Y0332318D02*
X0350253Y0332318D01*
X0350700Y0333317D02*
X0348437Y0333317D01*
X0349886Y0334315D02*
X0350700Y0334315D01*
X0350700Y0342303D02*
X0350268Y0342303D01*
X0350700Y0343302D02*
X0348473Y0343302D01*
X0270000Y0303500D02*
X0252000Y0303500D01*
X0248378Y0307122D01*
X0245071Y0307122D01*
X0249539Y0309353D02*
X0252000Y0309353D01*
X0252000Y0308354D02*
X0249974Y0308354D01*
X0250973Y0307356D02*
X0252062Y0307356D01*
X0251971Y0306357D02*
X0252476Y0306357D01*
X0252355Y0310351D02*
X0249539Y0310351D01*
X0249469Y0311350D02*
X0252779Y0311350D01*
X0253777Y0312348D02*
X0249055Y0312348D01*
X0248334Y0313347D02*
X0255635Y0313347D01*
X0254084Y0314345D02*
X0246959Y0314345D01*
X0246227Y0315344D02*
X0253085Y0315344D01*
X0252482Y0316342D02*
X0248031Y0316342D01*
X0248930Y0317341D02*
X0252068Y0317341D01*
X0252000Y0318339D02*
X0249343Y0318339D01*
X0249539Y0319338D02*
X0252000Y0319338D01*
X0252349Y0320336D02*
X0249539Y0320336D01*
X0249539Y0321335D02*
X0252764Y0321335D01*
X0253762Y0322333D02*
X0249539Y0322333D01*
X0249539Y0323332D02*
X0255599Y0323332D01*
X0253892Y0324330D02*
X0249539Y0324330D01*
X0249539Y0325329D02*
X0252876Y0325329D01*
X0252271Y0326327D02*
X0249539Y0326327D01*
X0249374Y0327326D02*
X0251921Y0327326D01*
X0260915Y0315344D02*
X0263085Y0315344D01*
X0264084Y0314345D02*
X0259916Y0314345D01*
X0258365Y0313347D02*
X0265635Y0313347D01*
X0263777Y0312348D02*
X0260223Y0312348D01*
X0261221Y0311350D02*
X0262779Y0311350D01*
X0252793Y0301365D02*
X0248801Y0301365D01*
X0249249Y0302363D02*
X0250309Y0302363D01*
X0240402Y0290381D02*
X0228300Y0290381D01*
X0228300Y0289382D02*
X0240402Y0289382D01*
X0240402Y0288384D02*
X0228300Y0288384D01*
X0228300Y0287385D02*
X0240474Y0287385D01*
X0240758Y0286387D02*
X0228300Y0286387D01*
X0228300Y0285388D02*
X0241347Y0285388D01*
X0242380Y0284390D02*
X0228300Y0284390D01*
X0228300Y0273406D02*
X0240402Y0273406D01*
X0240402Y0272408D02*
X0228300Y0272408D01*
X0228300Y0271409D02*
X0240510Y0271409D01*
X0240874Y0270411D02*
X0228300Y0270411D01*
X0228300Y0269412D02*
X0241514Y0269412D01*
X0242724Y0268414D02*
X0228300Y0268414D01*
X0228300Y0267415D02*
X0243941Y0267415D01*
X0244587Y0268414D02*
X0245555Y0268414D01*
X0245555Y0269412D02*
X0244587Y0269412D01*
X0244587Y0270411D02*
X0245555Y0270411D01*
X0245555Y0271409D02*
X0244587Y0271409D01*
X0244587Y0272408D02*
X0245555Y0272408D01*
X0245555Y0273406D02*
X0244587Y0273406D01*
X0244587Y0274405D02*
X0245555Y0274405D01*
X0245555Y0276402D02*
X0244587Y0276402D01*
X0244587Y0277400D02*
X0245555Y0277400D01*
X0245555Y0278399D02*
X0244587Y0278399D01*
X0244587Y0279397D02*
X0245555Y0279397D01*
X0245555Y0280396D02*
X0244587Y0280396D01*
X0244587Y0281394D02*
X0245555Y0281394D01*
X0245555Y0282393D02*
X0244587Y0282393D01*
X0245891Y0283391D02*
X0255743Y0283391D01*
X0258257Y0283391D02*
X0265743Y0283391D01*
X0264039Y0284390D02*
X0259961Y0284390D01*
X0260959Y0285388D02*
X0263041Y0285388D01*
X0263822Y0282393D02*
X0260178Y0282393D01*
X0261177Y0281394D02*
X0262823Y0281394D01*
X0263011Y0265418D02*
X0260989Y0265418D01*
X0259991Y0264420D02*
X0264009Y0264420D01*
X0263852Y0262423D02*
X0260148Y0262423D01*
X0261147Y0261424D02*
X0262853Y0261424D01*
X0265815Y0263421D02*
X0258185Y0263421D01*
X0252037Y0267415D02*
X0246201Y0267415D01*
X0242122Y0266417D02*
X0228300Y0266417D01*
X0228300Y0265418D02*
X0241217Y0265418D01*
X0240803Y0264420D02*
X0228300Y0264420D01*
X0228300Y0263421D02*
X0240602Y0263421D01*
X0240602Y0262423D02*
X0228300Y0262423D01*
X0228300Y0261424D02*
X0240602Y0261424D01*
X0240602Y0260426D02*
X0228300Y0260426D01*
X0228300Y0259427D02*
X0240602Y0259427D01*
X0240602Y0258429D02*
X0228300Y0258429D01*
X0228300Y0257430D02*
X0240602Y0257430D01*
X0240602Y0256432D02*
X0228300Y0256432D01*
X0228300Y0255433D02*
X0240763Y0255433D01*
X0241177Y0254434D02*
X0228300Y0254434D01*
X0228300Y0253436D02*
X0242025Y0253436D01*
X0246751Y0251439D02*
X0252868Y0251439D01*
X0252392Y0250440D02*
X0248248Y0250440D01*
X0249020Y0249442D02*
X0252000Y0249442D01*
X0252000Y0248443D02*
X0249433Y0248443D01*
X0249539Y0247445D02*
X0252025Y0247445D01*
X0252439Y0246446D02*
X0249539Y0246446D01*
X0249539Y0245448D02*
X0252981Y0245448D01*
X0253980Y0244449D02*
X0249539Y0244449D01*
X0249539Y0243451D02*
X0255887Y0243451D01*
X0258113Y0243451D02*
X0265887Y0243451D01*
X0263980Y0244449D02*
X0260020Y0244449D01*
X0261019Y0245448D02*
X0262981Y0245448D01*
X0263881Y0242452D02*
X0260119Y0242452D01*
X0261117Y0241454D02*
X0262883Y0241454D01*
X0262966Y0235463D02*
X0261034Y0235463D01*
X0260035Y0234464D02*
X0263965Y0234464D01*
X0263896Y0232467D02*
X0260104Y0232467D01*
X0261102Y0231469D02*
X0262898Y0231469D01*
X0262951Y0225478D02*
X0261049Y0225478D01*
X0260050Y0224479D02*
X0263950Y0224479D01*
X0267145Y0221484D02*
X0247661Y0221484D01*
X0248659Y0222482D02*
X0275341Y0222482D01*
X0266700Y0214494D02*
X0230016Y0214494D01*
X0230741Y0213496D02*
X0266700Y0213496D01*
X0266700Y0212497D02*
X0232020Y0212497D01*
X0233819Y0211499D02*
X0266700Y0211499D01*
X0282335Y0234464D02*
X0283126Y0234464D01*
X0281161Y0235463D02*
X0332966Y0235463D01*
X0333965Y0234464D02*
X0322874Y0234464D01*
X0323300Y0233466D02*
X0335923Y0233466D01*
X0338077Y0233466D02*
X0345923Y0233466D01*
X0348077Y0233466D02*
X0350700Y0233466D01*
X0350700Y0234464D02*
X0350035Y0234464D01*
X0350104Y0232467D02*
X0350700Y0232467D01*
X0343896Y0232467D02*
X0340104Y0232467D01*
X0341102Y0231469D02*
X0342898Y0231469D01*
X0343965Y0234464D02*
X0340035Y0234464D01*
X0341034Y0235463D02*
X0342966Y0235463D01*
X0348113Y0243451D02*
X0350700Y0243451D01*
X0350700Y0244449D02*
X0350020Y0244449D01*
X0350119Y0242452D02*
X0350700Y0242452D01*
X0333896Y0232467D02*
X0323300Y0232467D01*
X0323300Y0231469D02*
X0332898Y0231469D01*
X0332404Y0230470D02*
X0323300Y0230470D01*
X0323300Y0229472D02*
X0332000Y0229472D01*
X0332000Y0228473D02*
X0323300Y0228473D01*
X0323300Y0227475D02*
X0332013Y0227475D01*
X0332426Y0226476D02*
X0323300Y0226476D01*
X0323300Y0225478D02*
X0332951Y0225478D01*
X0265851Y0253436D02*
X0258149Y0253436D01*
X0260006Y0254434D02*
X0263994Y0254434D01*
X0262996Y0255433D02*
X0261004Y0255433D01*
X0260134Y0252437D02*
X0263866Y0252437D01*
X0262868Y0251439D02*
X0261132Y0251439D01*
X0255851Y0253436D02*
X0248117Y0253436D01*
X0249539Y0242452D02*
X0253881Y0242452D01*
X0252883Y0241454D02*
X0249539Y0241454D01*
X0249539Y0240455D02*
X0252398Y0240455D01*
X0252000Y0239457D02*
X0249284Y0239457D01*
X0248871Y0238458D02*
X0252000Y0238458D01*
X0252019Y0237460D02*
X0247889Y0237460D01*
X0247302Y0235463D02*
X0252966Y0235463D01*
X0252432Y0236461D02*
X0228300Y0236461D01*
D18*
X0257000Y0238500D02*
X0267000Y0238500D01*
X0267000Y0228500D02*
X0257000Y0228500D01*
X0257000Y0248500D02*
X0267000Y0248500D01*
X0267000Y0258500D02*
X0257000Y0258500D01*
X0257000Y0268500D02*
X0267000Y0268500D01*
X0267000Y0278500D02*
X0257000Y0278500D01*
X0257000Y0288500D02*
X0267000Y0288500D01*
X0267000Y0298500D02*
X0257000Y0298500D01*
X0257000Y0308500D02*
X0267000Y0308500D01*
X0267000Y0318500D02*
X0257000Y0318500D01*
X0257000Y0328500D02*
X0267000Y0328500D01*
X0267000Y0338500D02*
X0257000Y0338500D01*
X0284000Y0330500D02*
X0288000Y0326500D01*
X0299201Y0315299D01*
X0305902Y0315299D01*
X0297000Y0324500D02*
X0297000Y0329500D01*
X0297000Y0324500D02*
X0318000Y0324500D01*
X0323000Y0319500D01*
X0323000Y0316201D01*
X0323197Y0316201D02*
X0324098Y0315299D01*
X0337000Y0318500D02*
X0347000Y0318500D01*
X0347000Y0308500D02*
X0337000Y0308500D01*
X0337000Y0298500D02*
X0347000Y0298500D01*
X0347000Y0288500D02*
X0337000Y0288500D01*
X0337000Y0278500D02*
X0347000Y0278500D01*
X0347000Y0268500D02*
X0337000Y0268500D01*
X0337000Y0248500D02*
X0347000Y0248500D01*
X0347000Y0238500D02*
X0337000Y0238500D01*
X0337000Y0228500D02*
X0347000Y0228500D01*
X0318000Y0299760D02*
X0318000Y0305500D01*
X0337000Y0328500D02*
X0347000Y0328500D01*
X0347000Y0338500D02*
X0337000Y0338500D01*
D19*
X0326000Y0339500D03*
X0319000Y0339500D03*
X0311000Y0339500D03*
X0304000Y0339500D03*
X0304000Y0331500D03*
X0311000Y0331500D03*
X0319000Y0331500D03*
X0326000Y0331500D03*
X0330000Y0306500D03*
X0318000Y0305500D03*
X0327000Y0291500D03*
X0314500Y0275000D03*
X0320000Y0263500D03*
X0299000Y0255500D03*
X0292000Y0244500D03*
X0286000Y0259500D03*
X0296750Y0286000D03*
X0295500Y0292500D03*
X0284000Y0315500D03*
X0288000Y0326500D03*
X0284000Y0330500D03*
X0297000Y0329500D03*
X0297000Y0324500D03*
X0346000Y0349500D03*
X0242000Y0349500D03*
X0238000Y0318250D03*
X0238000Y0283250D03*
X0238000Y0252250D03*
X0239500Y0219000D03*
X0257500Y0218000D03*
D20*
X0306000Y0256500D03*
X0288000Y0270500D03*
M02*
