G75*
%MOIN*%
%OFA0B0*%
%FSLAX25Y25*%
%IPPOS*%
%LPD*%
%AMOC8*
5,1,8,0,0,1.08239X$1,22.5*
%
%ADD10C,0.00000*%
%ADD11R,0.05906X0.05118*%
%ADD12C,0.06337*%
%ADD13C,0.07400*%
%ADD14R,0.02362X0.06102*%
%ADD15R,0.04724X0.07874*%
%ADD16R,0.05118X0.05906*%
%ADD17R,0.09449X0.09449*%
%ADD18C,0.01000*%
%ADD19C,0.04362*%
%ADD20C,0.01600*%
%ADD21C,0.04000*%
D10*
X0237000Y0209500D02*
X0342000Y0209500D01*
X0342242Y0209503D01*
X0342483Y0209512D01*
X0342724Y0209526D01*
X0342965Y0209547D01*
X0343205Y0209573D01*
X0343445Y0209605D01*
X0343684Y0209643D01*
X0343921Y0209686D01*
X0344158Y0209736D01*
X0344393Y0209791D01*
X0344627Y0209851D01*
X0344859Y0209918D01*
X0345090Y0209989D01*
X0345319Y0210067D01*
X0345546Y0210150D01*
X0345771Y0210238D01*
X0345994Y0210332D01*
X0346214Y0210431D01*
X0346432Y0210536D01*
X0346647Y0210645D01*
X0346860Y0210760D01*
X0347070Y0210880D01*
X0347276Y0211005D01*
X0347480Y0211135D01*
X0347681Y0211270D01*
X0347878Y0211410D01*
X0348072Y0211554D01*
X0348262Y0211703D01*
X0348448Y0211857D01*
X0348631Y0212015D01*
X0348810Y0212177D01*
X0348985Y0212344D01*
X0349156Y0212515D01*
X0349323Y0212690D01*
X0349485Y0212869D01*
X0349643Y0213052D01*
X0349797Y0213238D01*
X0349946Y0213428D01*
X0350090Y0213622D01*
X0350230Y0213819D01*
X0350365Y0214020D01*
X0350495Y0214224D01*
X0350620Y0214430D01*
X0350740Y0214640D01*
X0350855Y0214853D01*
X0350964Y0215068D01*
X0351069Y0215286D01*
X0351168Y0215506D01*
X0351262Y0215729D01*
X0351350Y0215954D01*
X0351433Y0216181D01*
X0351511Y0216410D01*
X0351582Y0216641D01*
X0351649Y0216873D01*
X0351709Y0217107D01*
X0351764Y0217342D01*
X0351814Y0217579D01*
X0351857Y0217816D01*
X0351895Y0218055D01*
X0351927Y0218295D01*
X0351953Y0218535D01*
X0351974Y0218776D01*
X0351988Y0219017D01*
X0351997Y0219258D01*
X0352000Y0219500D01*
X0352000Y0348500D01*
X0351997Y0348742D01*
X0351988Y0348983D01*
X0351974Y0349224D01*
X0351953Y0349465D01*
X0351927Y0349705D01*
X0351895Y0349945D01*
X0351857Y0350184D01*
X0351814Y0350421D01*
X0351764Y0350658D01*
X0351709Y0350893D01*
X0351649Y0351127D01*
X0351582Y0351359D01*
X0351511Y0351590D01*
X0351433Y0351819D01*
X0351350Y0352046D01*
X0351262Y0352271D01*
X0351168Y0352494D01*
X0351069Y0352714D01*
X0350964Y0352932D01*
X0350855Y0353147D01*
X0350740Y0353360D01*
X0350620Y0353570D01*
X0350495Y0353776D01*
X0350365Y0353980D01*
X0350230Y0354181D01*
X0350090Y0354378D01*
X0349946Y0354572D01*
X0349797Y0354762D01*
X0349643Y0354948D01*
X0349485Y0355131D01*
X0349323Y0355310D01*
X0349156Y0355485D01*
X0348985Y0355656D01*
X0348810Y0355823D01*
X0348631Y0355985D01*
X0348448Y0356143D01*
X0348262Y0356297D01*
X0348072Y0356446D01*
X0347878Y0356590D01*
X0347681Y0356730D01*
X0347480Y0356865D01*
X0347276Y0356995D01*
X0347070Y0357120D01*
X0346860Y0357240D01*
X0346647Y0357355D01*
X0346432Y0357464D01*
X0346214Y0357569D01*
X0345994Y0357668D01*
X0345771Y0357762D01*
X0345546Y0357850D01*
X0345319Y0357933D01*
X0345090Y0358011D01*
X0344859Y0358082D01*
X0344627Y0358149D01*
X0344393Y0358209D01*
X0344158Y0358264D01*
X0343921Y0358314D01*
X0343684Y0358357D01*
X0343445Y0358395D01*
X0343205Y0358427D01*
X0342965Y0358453D01*
X0342724Y0358474D01*
X0342483Y0358488D01*
X0342242Y0358497D01*
X0342000Y0358500D01*
X0237000Y0358500D01*
X0236758Y0358497D01*
X0236517Y0358488D01*
X0236276Y0358474D01*
X0236035Y0358453D01*
X0235795Y0358427D01*
X0235555Y0358395D01*
X0235316Y0358357D01*
X0235079Y0358314D01*
X0234842Y0358264D01*
X0234607Y0358209D01*
X0234373Y0358149D01*
X0234141Y0358082D01*
X0233910Y0358011D01*
X0233681Y0357933D01*
X0233454Y0357850D01*
X0233229Y0357762D01*
X0233006Y0357668D01*
X0232786Y0357569D01*
X0232568Y0357464D01*
X0232353Y0357355D01*
X0232140Y0357240D01*
X0231930Y0357120D01*
X0231724Y0356995D01*
X0231520Y0356865D01*
X0231319Y0356730D01*
X0231122Y0356590D01*
X0230928Y0356446D01*
X0230738Y0356297D01*
X0230552Y0356143D01*
X0230369Y0355985D01*
X0230190Y0355823D01*
X0230015Y0355656D01*
X0229844Y0355485D01*
X0229677Y0355310D01*
X0229515Y0355131D01*
X0229357Y0354948D01*
X0229203Y0354762D01*
X0229054Y0354572D01*
X0228910Y0354378D01*
X0228770Y0354181D01*
X0228635Y0353980D01*
X0228505Y0353776D01*
X0228380Y0353570D01*
X0228260Y0353360D01*
X0228145Y0353147D01*
X0228036Y0352932D01*
X0227931Y0352714D01*
X0227832Y0352494D01*
X0227738Y0352271D01*
X0227650Y0352046D01*
X0227567Y0351819D01*
X0227489Y0351590D01*
X0227418Y0351359D01*
X0227351Y0351127D01*
X0227291Y0350893D01*
X0227236Y0350658D01*
X0227186Y0350421D01*
X0227143Y0350184D01*
X0227105Y0349945D01*
X0227073Y0349705D01*
X0227047Y0349465D01*
X0227026Y0349224D01*
X0227012Y0348983D01*
X0227003Y0348742D01*
X0227000Y0348500D01*
X0227000Y0219500D01*
X0227003Y0219258D01*
X0227012Y0219017D01*
X0227026Y0218776D01*
X0227047Y0218535D01*
X0227073Y0218295D01*
X0227105Y0218055D01*
X0227143Y0217816D01*
X0227186Y0217579D01*
X0227236Y0217342D01*
X0227291Y0217107D01*
X0227351Y0216873D01*
X0227418Y0216641D01*
X0227489Y0216410D01*
X0227567Y0216181D01*
X0227650Y0215954D01*
X0227738Y0215729D01*
X0227832Y0215506D01*
X0227931Y0215286D01*
X0228036Y0215068D01*
X0228145Y0214853D01*
X0228260Y0214640D01*
X0228380Y0214430D01*
X0228505Y0214224D01*
X0228635Y0214020D01*
X0228770Y0213819D01*
X0228910Y0213622D01*
X0229054Y0213428D01*
X0229203Y0213238D01*
X0229357Y0213052D01*
X0229515Y0212869D01*
X0229677Y0212690D01*
X0229844Y0212515D01*
X0230015Y0212344D01*
X0230190Y0212177D01*
X0230369Y0212015D01*
X0230552Y0211857D01*
X0230738Y0211703D01*
X0230928Y0211554D01*
X0231122Y0211410D01*
X0231319Y0211270D01*
X0231520Y0211135D01*
X0231724Y0211005D01*
X0231930Y0210880D01*
X0232140Y0210760D01*
X0232353Y0210645D01*
X0232568Y0210536D01*
X0232786Y0210431D01*
X0233006Y0210332D01*
X0233229Y0210238D01*
X0233454Y0210150D01*
X0233681Y0210067D01*
X0233910Y0209989D01*
X0234141Y0209918D01*
X0234373Y0209851D01*
X0234607Y0209791D01*
X0234842Y0209736D01*
X0235079Y0209686D01*
X0235316Y0209643D01*
X0235555Y0209605D01*
X0235795Y0209573D01*
X0236035Y0209547D01*
X0236276Y0209526D01*
X0236517Y0209512D01*
X0236758Y0209503D01*
X0237000Y0209500D01*
D11*
X0291000Y0309760D03*
X0291000Y0317240D03*
X0296000Y0335760D03*
X0296000Y0343240D03*
X0287500Y0345240D03*
X0287500Y0337760D03*
D12*
X0278929Y0335450D02*
X0278929Y0341787D01*
X0278929Y0326039D02*
X0278929Y0319702D01*
X0278929Y0310291D02*
X0278929Y0303954D01*
X0278929Y0294543D02*
X0278929Y0288206D01*
X0278929Y0278794D02*
X0278929Y0272457D01*
X0278929Y0263046D02*
X0278929Y0256709D01*
X0278929Y0247298D02*
X0278929Y0240961D01*
X0278929Y0231550D02*
X0278929Y0225213D01*
X0245071Y0225213D02*
X0245071Y0231550D01*
X0245071Y0240961D02*
X0245071Y0247298D01*
X0245071Y0256709D02*
X0245071Y0263046D01*
X0245071Y0272457D02*
X0245071Y0278794D01*
X0245071Y0288206D02*
X0245071Y0294543D01*
X0245071Y0303954D02*
X0245071Y0310291D01*
X0245071Y0319702D02*
X0245071Y0326039D01*
X0245071Y0335450D02*
X0245071Y0341787D01*
D13*
X0257000Y0338500D03*
X0257000Y0328500D03*
X0267000Y0328500D03*
X0267000Y0338500D03*
X0267000Y0318500D03*
X0267000Y0308500D03*
X0257000Y0308500D03*
X0257000Y0318500D03*
X0257000Y0298500D03*
X0257000Y0288500D03*
X0257000Y0278500D03*
X0267000Y0278500D03*
X0267000Y0288500D03*
X0267000Y0298500D03*
X0267000Y0268500D03*
X0267000Y0258500D03*
X0257000Y0258500D03*
X0257000Y0268500D03*
X0257000Y0248500D03*
X0257000Y0238500D03*
X0257000Y0228500D03*
X0267000Y0228500D03*
X0267000Y0238500D03*
X0267000Y0248500D03*
X0337000Y0248500D03*
X0337000Y0238500D03*
X0337000Y0228500D03*
X0347000Y0228500D03*
X0347000Y0238500D03*
X0347000Y0248500D03*
X0347000Y0258500D03*
X0347000Y0268500D03*
X0337000Y0268500D03*
X0337000Y0258500D03*
X0337000Y0278500D03*
X0337000Y0288500D03*
X0337000Y0298500D03*
X0347000Y0298500D03*
X0347000Y0288500D03*
X0347000Y0278500D03*
X0347000Y0308500D03*
X0347000Y0318500D03*
X0337000Y0318500D03*
X0337000Y0308500D03*
X0337000Y0328500D03*
X0337000Y0338500D03*
X0347000Y0338500D03*
X0347000Y0328500D03*
D14*
X0315000Y0263500D03*
X0311063Y0263500D03*
X0307126Y0263500D03*
X0303189Y0263500D03*
X0299252Y0263500D03*
X0295315Y0263500D03*
D15*
X0290197Y0278559D03*
X0320118Y0278559D03*
D16*
X0274490Y0350000D03*
X0267010Y0350000D03*
D17*
X0306339Y0321500D03*
X0323661Y0321500D03*
D18*
X0229248Y0215550D02*
X0230848Y0213348D01*
X0233050Y0211748D01*
X0235639Y0210907D01*
X0237000Y0210800D01*
X0266700Y0210800D01*
X0266700Y0221038D01*
X0267462Y0221800D01*
X0276023Y0221800D01*
X0275141Y0222682D01*
X0274461Y0224325D01*
X0274461Y0232439D01*
X0275141Y0234082D01*
X0275309Y0234250D01*
X0273828Y0234250D01*
X0271075Y0231496D01*
X0271239Y0231332D01*
X0272000Y0229495D01*
X0272000Y0227505D01*
X0271239Y0225668D01*
X0269832Y0224261D01*
X0267995Y0223500D01*
X0266005Y0223500D01*
X0264168Y0224261D01*
X0262761Y0225668D01*
X0262000Y0227505D01*
X0261239Y0225668D01*
X0259832Y0224261D01*
X0257995Y0223500D01*
X0256005Y0223500D01*
X0254168Y0224261D01*
X0252761Y0225668D01*
X0252000Y0227505D01*
X0252000Y0229495D01*
X0252761Y0231332D01*
X0254168Y0232739D01*
X0256005Y0233500D01*
X0257995Y0233500D01*
X0259832Y0232739D01*
X0261239Y0231332D01*
X0262000Y0229495D01*
X0262000Y0227505D01*
X0262000Y0229495D01*
X0262761Y0231332D01*
X0264168Y0232739D01*
X0266005Y0233500D01*
X0267422Y0233500D01*
X0267422Y0233500D01*
X0266005Y0233500D01*
X0264168Y0234261D01*
X0262761Y0235668D01*
X0262000Y0237505D01*
X0262000Y0239495D01*
X0261239Y0241332D01*
X0259832Y0242739D01*
X0257995Y0243500D01*
X0259832Y0244261D01*
X0261239Y0245668D01*
X0262000Y0247505D01*
X0262761Y0245668D01*
X0264168Y0244261D01*
X0266005Y0243500D01*
X0267995Y0243500D01*
X0269832Y0244261D01*
X0271239Y0245668D01*
X0272000Y0247505D01*
X0272000Y0249495D01*
X0271239Y0251332D01*
X0269832Y0252739D01*
X0267995Y0253500D01*
X0266005Y0253500D01*
X0264168Y0252739D01*
X0262761Y0251332D01*
X0262000Y0249495D01*
X0262000Y0247505D01*
X0262000Y0249495D01*
X0261239Y0251332D01*
X0259832Y0252739D01*
X0257995Y0253500D01*
X0259832Y0254261D01*
X0261239Y0255668D01*
X0262000Y0257505D01*
X0262761Y0255668D01*
X0264168Y0254261D01*
X0266005Y0253500D01*
X0267995Y0253500D01*
X0269832Y0254261D01*
X0271239Y0255668D01*
X0272000Y0257505D01*
X0272000Y0259495D01*
X0271239Y0261332D01*
X0269832Y0262739D01*
X0267995Y0263500D01*
X0266005Y0263500D01*
X0264168Y0262739D01*
X0262761Y0261332D01*
X0262000Y0259495D01*
X0262000Y0257505D01*
X0262000Y0259495D01*
X0261239Y0261332D01*
X0259832Y0262739D01*
X0257995Y0263500D01*
X0259832Y0264261D01*
X0261239Y0265668D01*
X0262000Y0267505D01*
X0262761Y0265668D01*
X0264168Y0264261D01*
X0266005Y0263500D01*
X0267995Y0263500D01*
X0269832Y0264261D01*
X0271239Y0265668D01*
X0272000Y0267505D01*
X0272000Y0269422D01*
X0275492Y0265929D01*
X0275141Y0265578D01*
X0274461Y0263935D01*
X0274461Y0255821D01*
X0275141Y0254178D01*
X0276398Y0252921D01*
X0278040Y0252241D01*
X0279818Y0252241D01*
X0281460Y0252921D01*
X0282717Y0254178D01*
X0283398Y0255821D01*
X0283398Y0263935D01*
X0282717Y0265578D01*
X0282645Y0265650D01*
X0283022Y0265650D01*
X0283172Y0265500D01*
X0284172Y0264500D01*
X0289828Y0264500D01*
X0291000Y0265672D01*
X0291828Y0266500D01*
X0292634Y0266500D01*
X0292634Y0263591D01*
X0295224Y0263591D01*
X0295224Y0263409D01*
X0295406Y0263409D01*
X0295406Y0258949D01*
X0296694Y0258949D01*
X0297000Y0259031D01*
X0297000Y0258656D01*
X0296915Y0258621D01*
X0295879Y0257585D01*
X0295319Y0256232D01*
X0295319Y0254768D01*
X0295879Y0253415D01*
X0296915Y0252379D01*
X0297559Y0252112D01*
X0298172Y0251500D01*
X0302172Y0247500D01*
X0303172Y0247500D01*
X0293922Y0238250D01*
X0282537Y0238250D01*
X0282717Y0238430D01*
X0283398Y0240073D01*
X0283398Y0248187D01*
X0282717Y0249830D01*
X0281460Y0251087D01*
X0279818Y0251767D01*
X0278040Y0251767D01*
X0276398Y0251087D01*
X0275141Y0249830D01*
X0274461Y0248187D01*
X0274461Y0240073D01*
X0275141Y0238430D01*
X0275321Y0238250D01*
X0272172Y0238250D01*
X0272000Y0238078D01*
X0272000Y0239495D01*
X0271239Y0241332D01*
X0269832Y0242739D01*
X0267995Y0243500D01*
X0266005Y0243500D01*
X0264168Y0242739D01*
X0262761Y0241332D01*
X0262000Y0239495D01*
X0262000Y0237505D01*
X0261239Y0235668D01*
X0259832Y0234261D01*
X0257995Y0233500D01*
X0256005Y0233500D01*
X0254168Y0234261D01*
X0252761Y0235668D01*
X0252000Y0237505D01*
X0252000Y0239495D01*
X0252761Y0241332D01*
X0253000Y0241571D01*
X0251072Y0243500D01*
X0249900Y0244672D01*
X0249900Y0341828D01*
X0252600Y0344528D01*
X0253772Y0345700D01*
X0263784Y0345700D01*
X0263530Y0345847D01*
X0263250Y0346126D01*
X0263053Y0346468D01*
X0262951Y0346850D01*
X0262951Y0349500D01*
X0266510Y0349500D01*
X0266510Y0350500D01*
X0266510Y0354453D01*
X0264253Y0354453D01*
X0263872Y0354351D01*
X0263530Y0354153D01*
X0263250Y0353874D01*
X0263053Y0353532D01*
X0262951Y0353150D01*
X0262951Y0350500D01*
X0266510Y0350500D01*
X0267510Y0350500D01*
X0267510Y0354453D01*
X0269766Y0354453D01*
X0270148Y0354351D01*
X0270490Y0354153D01*
X0270769Y0353874D01*
X0270859Y0353719D01*
X0271393Y0354253D01*
X0277588Y0354253D01*
X0278349Y0353491D01*
X0278349Y0351240D01*
X0284328Y0351240D01*
X0286469Y0349099D01*
X0290991Y0349099D01*
X0291753Y0348338D01*
X0291753Y0346557D01*
X0291847Y0346720D01*
X0292126Y0346999D01*
X0292468Y0347197D01*
X0292850Y0347299D01*
X0295500Y0347299D01*
X0295500Y0343740D01*
X0296500Y0343740D01*
X0300453Y0343740D01*
X0300453Y0345997D01*
X0300351Y0346378D01*
X0300153Y0346720D01*
X0299874Y0346999D01*
X0299532Y0347197D01*
X0299150Y0347299D01*
X0296500Y0347299D01*
X0296500Y0343740D01*
X0296500Y0342740D01*
X0300453Y0342740D01*
X0300453Y0340484D01*
X0300351Y0340102D01*
X0300153Y0339760D01*
X0299874Y0339481D01*
X0299719Y0339391D01*
X0300253Y0338857D01*
X0300253Y0332662D01*
X0299648Y0332058D01*
X0300121Y0331585D01*
X0300681Y0330232D01*
X0300681Y0328768D01*
X0300121Y0327415D01*
X0299706Y0327000D01*
X0299906Y0326800D01*
X0300351Y0326800D01*
X0301076Y0327524D01*
X0311601Y0327524D01*
X0312363Y0326763D01*
X0312363Y0316237D01*
X0311601Y0315476D01*
X0302277Y0315476D01*
X0309953Y0307800D01*
X0315094Y0307800D01*
X0315915Y0308621D01*
X0317268Y0309181D01*
X0318732Y0309181D01*
X0320085Y0308621D01*
X0321121Y0307585D01*
X0321681Y0306232D01*
X0321681Y0304768D01*
X0321121Y0303415D01*
X0320085Y0302379D01*
X0318732Y0301819D01*
X0317268Y0301819D01*
X0315915Y0302379D01*
X0315094Y0303200D01*
X0308047Y0303200D01*
X0295253Y0315995D01*
X0295253Y0314143D01*
X0294719Y0313609D01*
X0294874Y0313519D01*
X0295153Y0313240D01*
X0295351Y0312898D01*
X0295453Y0312516D01*
X0295453Y0310260D01*
X0291500Y0310260D01*
X0291500Y0309260D01*
X0295453Y0309260D01*
X0295453Y0307003D01*
X0295351Y0306622D01*
X0295153Y0306280D01*
X0294874Y0306000D01*
X0294532Y0305803D01*
X0294150Y0305701D01*
X0291500Y0305701D01*
X0291500Y0309260D01*
X0290500Y0309260D01*
X0286547Y0309260D01*
X0286547Y0307003D01*
X0286649Y0306622D01*
X0286847Y0306280D01*
X0287126Y0306000D01*
X0287468Y0305803D01*
X0287850Y0305701D01*
X0290500Y0305701D01*
X0290500Y0309260D01*
X0290500Y0310260D01*
X0286547Y0310260D01*
X0286547Y0312516D01*
X0286649Y0312898D01*
X0286847Y0313240D01*
X0287126Y0313519D01*
X0287281Y0313609D01*
X0286747Y0314143D01*
X0286747Y0320338D01*
X0287509Y0321099D01*
X0288700Y0321099D01*
X0288700Y0322547D01*
X0288428Y0322819D01*
X0287268Y0322819D01*
X0285915Y0323379D01*
X0284879Y0324415D01*
X0284319Y0325768D01*
X0284319Y0326819D01*
X0283398Y0326819D01*
X0283398Y0318813D01*
X0282717Y0317170D01*
X0281460Y0315913D01*
X0279818Y0315233D01*
X0278040Y0315233D01*
X0276398Y0315913D01*
X0275141Y0317170D01*
X0274461Y0318813D01*
X0274461Y0326927D01*
X0275095Y0328460D01*
X0273787Y0328460D01*
X0272440Y0329807D01*
X0271852Y0330396D01*
X0272072Y0329718D01*
X0272186Y0329000D01*
X0267500Y0329000D01*
X0267500Y0328000D01*
X0272186Y0328000D01*
X0272072Y0327282D01*
X0271819Y0326504D01*
X0271447Y0325775D01*
X0270966Y0325112D01*
X0270388Y0324534D01*
X0269725Y0324053D01*
X0268996Y0323681D01*
X0268218Y0323428D01*
X0268182Y0323422D01*
X0269832Y0322739D01*
X0271239Y0321332D01*
X0272000Y0319495D01*
X0272000Y0317505D01*
X0271239Y0315668D01*
X0269832Y0314261D01*
X0267995Y0313500D01*
X0266005Y0313500D01*
X0265173Y0313845D01*
X0264000Y0312672D01*
X0264000Y0312571D01*
X0264168Y0312739D01*
X0266005Y0313500D01*
X0267995Y0313500D01*
X0269832Y0312739D01*
X0271239Y0311332D01*
X0272000Y0309495D01*
X0272000Y0307505D01*
X0271239Y0305668D01*
X0270950Y0305379D01*
X0275078Y0301250D01*
X0275313Y0301250D01*
X0275141Y0301422D01*
X0274461Y0303065D01*
X0274461Y0311179D01*
X0275141Y0312822D01*
X0276398Y0314079D01*
X0278040Y0314759D01*
X0279818Y0314759D01*
X0281460Y0314079D01*
X0282717Y0312822D01*
X0283398Y0311179D01*
X0283398Y0303065D01*
X0282717Y0301422D01*
X0282545Y0301250D01*
X0283078Y0301250D01*
X0284828Y0299500D01*
X0286000Y0298328D01*
X0286000Y0275328D01*
X0286535Y0274794D01*
X0286535Y0283035D01*
X0287296Y0283796D01*
X0293098Y0283796D01*
X0293859Y0283035D01*
X0293859Y0274084D01*
X0293098Y0273322D01*
X0290128Y0273322D01*
X0290967Y0272483D01*
X0291500Y0271196D01*
X0291500Y0270500D01*
X0305828Y0270500D01*
X0307000Y0269328D01*
X0307000Y0269328D01*
X0307828Y0268500D01*
X0307828Y0268500D01*
X0308477Y0267851D01*
X0308846Y0267851D01*
X0309094Y0267602D01*
X0309343Y0267851D01*
X0312783Y0267851D01*
X0313031Y0267602D01*
X0313280Y0267851D01*
X0316720Y0267851D01*
X0317481Y0267090D01*
X0317481Y0259910D01*
X0317000Y0259429D01*
X0317000Y0255672D01*
X0296128Y0234800D01*
X0322538Y0234800D01*
X0323300Y0234038D01*
X0323300Y0224800D01*
X0333629Y0224800D01*
X0332761Y0225668D01*
X0332000Y0227505D01*
X0332000Y0229495D01*
X0332345Y0230327D01*
X0326172Y0236500D01*
X0325000Y0237672D01*
X0325000Y0263672D01*
X0320172Y0268500D01*
X0310172Y0268500D01*
X0304172Y0274500D01*
X0303000Y0275672D01*
X0303000Y0280672D01*
X0300172Y0283500D01*
X0299456Y0283500D01*
X0298835Y0282879D01*
X0297482Y0282319D01*
X0296018Y0282319D01*
X0294665Y0282879D01*
X0293629Y0283915D01*
X0293069Y0285268D01*
X0293069Y0286732D01*
X0293629Y0288085D01*
X0294665Y0289121D01*
X0296018Y0289681D01*
X0297482Y0289681D01*
X0298835Y0289121D01*
X0299871Y0288085D01*
X0300113Y0287500D01*
X0301828Y0287500D01*
X0303000Y0286328D01*
X0307000Y0282328D01*
X0307000Y0277328D01*
X0311355Y0272973D01*
X0310819Y0274268D01*
X0310819Y0275732D01*
X0311379Y0277085D01*
X0312415Y0278121D01*
X0312500Y0278156D01*
X0312500Y0285828D01*
X0313672Y0287000D01*
X0324000Y0297328D01*
X0324000Y0312328D01*
X0325172Y0313500D01*
X0326947Y0315276D01*
X0324161Y0315276D01*
X0324161Y0321000D01*
X0323161Y0321000D01*
X0317437Y0321000D01*
X0317437Y0316578D01*
X0317539Y0316197D01*
X0317737Y0315855D01*
X0318016Y0315575D01*
X0318358Y0315378D01*
X0318740Y0315276D01*
X0323161Y0315276D01*
X0323161Y0321000D01*
X0323161Y0322000D01*
X0317437Y0322000D01*
X0317437Y0326422D01*
X0317539Y0326803D01*
X0317737Y0327145D01*
X0318016Y0327425D01*
X0318358Y0327622D01*
X0318740Y0327724D01*
X0323161Y0327724D01*
X0323161Y0322000D01*
X0324161Y0322000D01*
X0324161Y0327724D01*
X0328000Y0327724D01*
X0328000Y0333328D01*
X0329172Y0334500D01*
X0332052Y0337380D01*
X0332000Y0337505D01*
X0332000Y0339495D01*
X0332761Y0341332D01*
X0334168Y0342739D01*
X0336005Y0343500D01*
X0337995Y0343500D01*
X0339832Y0342739D01*
X0341239Y0341332D01*
X0342000Y0339495D01*
X0342000Y0337505D01*
X0341239Y0335668D01*
X0339832Y0334261D01*
X0337995Y0333500D01*
X0336005Y0333500D01*
X0334168Y0332739D01*
X0332761Y0331332D01*
X0332000Y0329495D01*
X0332000Y0327505D01*
X0332761Y0325668D01*
X0334168Y0324261D01*
X0336005Y0323500D01*
X0337995Y0323500D01*
X0339832Y0324261D01*
X0341239Y0325668D01*
X0342000Y0327505D01*
X0342000Y0329495D01*
X0341239Y0331332D01*
X0339832Y0332739D01*
X0337995Y0333500D01*
X0336005Y0333500D01*
X0334466Y0334138D01*
X0332000Y0331672D01*
X0332000Y0314672D01*
X0328000Y0310672D01*
X0328000Y0295672D01*
X0327509Y0295181D01*
X0327732Y0295181D01*
X0329085Y0294621D01*
X0330121Y0293585D01*
X0330681Y0292232D01*
X0330681Y0290768D01*
X0330646Y0290683D01*
X0331000Y0290328D01*
X0331000Y0242328D01*
X0332537Y0240791D01*
X0332761Y0241332D01*
X0334168Y0242739D01*
X0336005Y0243500D01*
X0337995Y0243500D01*
X0339832Y0244261D01*
X0341239Y0245668D01*
X0342000Y0247505D01*
X0342000Y0249495D01*
X0341239Y0251332D01*
X0339832Y0252739D01*
X0337995Y0253500D01*
X0336005Y0253500D01*
X0334168Y0252739D01*
X0332761Y0251332D01*
X0332000Y0249495D01*
X0332000Y0247505D01*
X0332761Y0245668D01*
X0334168Y0244261D01*
X0336005Y0243500D01*
X0337995Y0243500D01*
X0339832Y0242739D01*
X0341239Y0241332D01*
X0342000Y0239495D01*
X0342000Y0237505D01*
X0341239Y0235668D01*
X0339832Y0234261D01*
X0337995Y0233500D01*
X0336005Y0233500D01*
X0334168Y0234261D01*
X0332761Y0235668D01*
X0332416Y0236500D01*
X0331828Y0236500D01*
X0335173Y0233155D01*
X0336005Y0233500D01*
X0337995Y0233500D01*
X0339832Y0232739D01*
X0341239Y0231332D01*
X0342000Y0229495D01*
X0342000Y0227505D01*
X0341239Y0225668D01*
X0339832Y0224261D01*
X0337995Y0223500D01*
X0336300Y0223500D01*
X0336300Y0210800D01*
X0342000Y0210800D01*
X0343361Y0210907D01*
X0345950Y0211748D01*
X0348152Y0213348D01*
X0349752Y0215550D01*
X0350593Y0218139D01*
X0350700Y0219500D01*
X0350700Y0225129D01*
X0349832Y0224261D01*
X0347995Y0223500D01*
X0346005Y0223500D01*
X0344168Y0224261D01*
X0342761Y0225668D01*
X0342000Y0227505D01*
X0342000Y0229495D01*
X0342761Y0231332D01*
X0344168Y0232739D01*
X0346005Y0233500D01*
X0347995Y0233500D01*
X0349832Y0232739D01*
X0350700Y0231871D01*
X0350700Y0235129D01*
X0349832Y0234261D01*
X0347995Y0233500D01*
X0346005Y0233500D01*
X0344168Y0234261D01*
X0342761Y0235668D01*
X0342000Y0237505D01*
X0342000Y0239495D01*
X0342761Y0241332D01*
X0344168Y0242739D01*
X0346005Y0243500D01*
X0347995Y0243500D01*
X0349832Y0242739D01*
X0350700Y0241871D01*
X0350700Y0245129D01*
X0349832Y0244261D01*
X0347995Y0243500D01*
X0346005Y0243500D01*
X0344168Y0244261D01*
X0342761Y0245668D01*
X0342000Y0247505D01*
X0342000Y0249495D01*
X0342761Y0251332D01*
X0344168Y0252739D01*
X0346005Y0253500D01*
X0347995Y0253500D01*
X0349832Y0252739D01*
X0350700Y0251871D01*
X0350700Y0255129D01*
X0349832Y0254261D01*
X0347995Y0253500D01*
X0346005Y0253500D01*
X0344168Y0254261D01*
X0342761Y0255668D01*
X0342541Y0256200D01*
X0341459Y0256200D01*
X0341239Y0255668D01*
X0339832Y0254261D01*
X0337995Y0253500D01*
X0336005Y0253500D01*
X0334168Y0254261D01*
X0332761Y0255668D01*
X0332000Y0257505D01*
X0332000Y0259495D01*
X0332761Y0261332D01*
X0334168Y0262739D01*
X0336005Y0263500D01*
X0337995Y0263500D01*
X0339832Y0264261D01*
X0341239Y0265668D01*
X0342000Y0267505D01*
X0342000Y0269495D01*
X0341239Y0271332D01*
X0339832Y0272739D01*
X0337995Y0273500D01*
X0336005Y0273500D01*
X0334168Y0272739D01*
X0332761Y0271332D01*
X0332000Y0269495D01*
X0332000Y0267505D01*
X0332761Y0265668D01*
X0334168Y0264261D01*
X0336005Y0263500D01*
X0337995Y0263500D01*
X0339832Y0262739D01*
X0341239Y0261332D01*
X0341459Y0260800D01*
X0342541Y0260800D01*
X0342761Y0261332D01*
X0344168Y0262739D01*
X0346005Y0263500D01*
X0347995Y0263500D01*
X0349832Y0262739D01*
X0350700Y0261871D01*
X0350700Y0265129D01*
X0349832Y0264261D01*
X0347995Y0263500D01*
X0346005Y0263500D01*
X0344168Y0264261D01*
X0342761Y0265668D01*
X0342000Y0267505D01*
X0342000Y0269495D01*
X0342761Y0271332D01*
X0344168Y0272739D01*
X0346005Y0273500D01*
X0347995Y0273500D01*
X0349832Y0272739D01*
X0350700Y0271871D01*
X0350700Y0275129D01*
X0349832Y0274261D01*
X0347995Y0273500D01*
X0346005Y0273500D01*
X0344168Y0274261D01*
X0342761Y0275668D01*
X0342000Y0277505D01*
X0341239Y0275668D01*
X0339832Y0274261D01*
X0337995Y0273500D01*
X0336005Y0273500D01*
X0334168Y0274261D01*
X0332761Y0275668D01*
X0332000Y0277505D01*
X0332000Y0279495D01*
X0332761Y0281332D01*
X0334168Y0282739D01*
X0336005Y0283500D01*
X0337995Y0283500D01*
X0339832Y0282739D01*
X0341239Y0281332D01*
X0342000Y0279495D01*
X0342000Y0277505D01*
X0342000Y0279495D01*
X0342761Y0281332D01*
X0344168Y0282739D01*
X0346005Y0283500D01*
X0347995Y0283500D01*
X0349832Y0282739D01*
X0350700Y0281871D01*
X0350700Y0285129D01*
X0349832Y0284261D01*
X0347995Y0283500D01*
X0346005Y0283500D01*
X0344168Y0284261D01*
X0342761Y0285668D01*
X0342000Y0287505D01*
X0341239Y0285668D01*
X0339832Y0284261D01*
X0337995Y0283500D01*
X0336005Y0283500D01*
X0334168Y0284261D01*
X0332761Y0285668D01*
X0332000Y0287505D01*
X0332000Y0289495D01*
X0332761Y0291332D01*
X0334168Y0292739D01*
X0336005Y0293500D01*
X0337995Y0293500D01*
X0339832Y0292739D01*
X0341239Y0291332D01*
X0342000Y0289495D01*
X0342000Y0287505D01*
X0342000Y0289495D01*
X0342761Y0291332D01*
X0344168Y0292739D01*
X0346005Y0293500D01*
X0347995Y0293500D01*
X0349832Y0292739D01*
X0350700Y0291871D01*
X0350700Y0295129D01*
X0349832Y0294261D01*
X0347995Y0293500D01*
X0346005Y0293500D01*
X0344168Y0294261D01*
X0342761Y0295668D01*
X0342000Y0297505D01*
X0342000Y0299495D01*
X0342761Y0301332D01*
X0344168Y0302739D01*
X0345818Y0303422D01*
X0345782Y0303428D01*
X0345004Y0303681D01*
X0344275Y0304053D01*
X0343612Y0304534D01*
X0343034Y0305112D01*
X0342553Y0305775D01*
X0342181Y0306504D01*
X0342000Y0307061D01*
X0341819Y0306504D01*
X0341447Y0305775D01*
X0340966Y0305112D01*
X0340388Y0304534D01*
X0339725Y0304053D01*
X0338996Y0303681D01*
X0338218Y0303428D01*
X0338182Y0303422D01*
X0339832Y0302739D01*
X0341239Y0301332D01*
X0342000Y0299495D01*
X0342000Y0297505D01*
X0341239Y0295668D01*
X0339832Y0294261D01*
X0337995Y0293500D01*
X0336005Y0293500D01*
X0334168Y0294261D01*
X0332761Y0295668D01*
X0332000Y0297505D01*
X0332000Y0299495D01*
X0332761Y0301332D01*
X0334168Y0302739D01*
X0335818Y0303422D01*
X0335782Y0303428D01*
X0335004Y0303681D01*
X0334275Y0304053D01*
X0333612Y0304534D01*
X0333034Y0305112D01*
X0332553Y0305775D01*
X0332181Y0306504D01*
X0331928Y0307282D01*
X0331814Y0308000D01*
X0336500Y0308000D01*
X0336500Y0309000D01*
X0331814Y0309000D01*
X0331928Y0309718D01*
X0332181Y0310496D01*
X0332553Y0311225D01*
X0333034Y0311888D01*
X0333612Y0312466D01*
X0334275Y0312947D01*
X0335004Y0313319D01*
X0335782Y0313572D01*
X0335818Y0313578D01*
X0334168Y0314261D01*
X0332761Y0315668D01*
X0332000Y0317505D01*
X0332000Y0319495D01*
X0332761Y0321332D01*
X0334168Y0322739D01*
X0336005Y0323500D01*
X0337995Y0323500D01*
X0339832Y0322739D01*
X0341239Y0321332D01*
X0342000Y0319495D01*
X0342000Y0317505D01*
X0341239Y0315668D01*
X0339832Y0314261D01*
X0338182Y0313578D01*
X0338218Y0313572D01*
X0338996Y0313319D01*
X0339725Y0312947D01*
X0340388Y0312466D01*
X0340966Y0311888D01*
X0341447Y0311225D01*
X0341819Y0310496D01*
X0342000Y0309939D01*
X0342181Y0310496D01*
X0342553Y0311225D01*
X0343034Y0311888D01*
X0343612Y0312466D01*
X0344275Y0312947D01*
X0345004Y0313319D01*
X0345782Y0313572D01*
X0345818Y0313578D01*
X0344168Y0314261D01*
X0342761Y0315668D01*
X0342000Y0317505D01*
X0342000Y0319495D01*
X0342761Y0321332D01*
X0344168Y0322739D01*
X0346005Y0323500D01*
X0347995Y0323500D01*
X0349832Y0322739D01*
X0350700Y0321871D01*
X0350700Y0325129D01*
X0349832Y0324261D01*
X0347995Y0323500D01*
X0346005Y0323500D01*
X0344168Y0324261D01*
X0342761Y0325668D01*
X0342000Y0327505D01*
X0342000Y0329495D01*
X0342761Y0331332D01*
X0344168Y0332739D01*
X0346005Y0333500D01*
X0347995Y0333500D01*
X0349832Y0332739D01*
X0350700Y0331871D01*
X0350700Y0335129D01*
X0349832Y0334261D01*
X0347995Y0333500D01*
X0346005Y0333500D01*
X0344168Y0334261D01*
X0342761Y0335668D01*
X0342000Y0337505D01*
X0342000Y0339495D01*
X0342761Y0341332D01*
X0344168Y0342739D01*
X0346005Y0343500D01*
X0347995Y0343500D01*
X0349832Y0342739D01*
X0350700Y0341871D01*
X0350700Y0348500D01*
X0350593Y0349861D01*
X0349752Y0352450D01*
X0348152Y0354652D01*
X0345950Y0356252D01*
X0343361Y0357093D01*
X0342000Y0357200D01*
X0237000Y0357200D01*
X0235639Y0357093D01*
X0233050Y0356252D01*
X0230848Y0354652D01*
X0229248Y0352450D01*
X0228407Y0349861D01*
X0228300Y0348500D01*
X0228300Y0219500D01*
X0228407Y0218139D01*
X0229248Y0215550D01*
X0229290Y0215493D02*
X0266700Y0215493D01*
X0266700Y0216491D02*
X0228943Y0216491D01*
X0228618Y0217490D02*
X0266700Y0217490D01*
X0266700Y0218488D02*
X0228380Y0218488D01*
X0228301Y0219487D02*
X0266700Y0219487D01*
X0266700Y0220485D02*
X0228300Y0220485D01*
X0228300Y0221484D02*
X0242481Y0221484D01*
X0242540Y0221425D02*
X0244182Y0220745D01*
X0245960Y0220745D01*
X0247602Y0221425D01*
X0248859Y0222682D01*
X0249539Y0224325D01*
X0249539Y0232439D01*
X0248859Y0234082D01*
X0247602Y0235339D01*
X0245960Y0236019D01*
X0244182Y0236019D01*
X0242540Y0235339D01*
X0241283Y0234082D01*
X0240602Y0232439D01*
X0240602Y0224325D01*
X0241283Y0222682D01*
X0242540Y0221425D01*
X0241483Y0222482D02*
X0228300Y0222482D01*
X0228300Y0223481D02*
X0240952Y0223481D01*
X0240602Y0224479D02*
X0228300Y0224479D01*
X0228300Y0225478D02*
X0240602Y0225478D01*
X0240602Y0226476D02*
X0228300Y0226476D01*
X0228300Y0227475D02*
X0240602Y0227475D01*
X0240602Y0228473D02*
X0228300Y0228473D01*
X0228300Y0229472D02*
X0240602Y0229472D01*
X0240602Y0230470D02*
X0228300Y0230470D01*
X0228300Y0231469D02*
X0240602Y0231469D01*
X0240614Y0232467D02*
X0228300Y0232467D01*
X0228300Y0233466D02*
X0241028Y0233466D01*
X0241665Y0234464D02*
X0228300Y0234464D01*
X0228300Y0235463D02*
X0242839Y0235463D01*
X0244182Y0236493D02*
X0245960Y0236493D01*
X0247602Y0237173D01*
X0248859Y0238430D01*
X0249539Y0240073D01*
X0249539Y0248187D01*
X0248859Y0249830D01*
X0247602Y0251087D01*
X0245960Y0251767D01*
X0244182Y0251767D01*
X0242540Y0251087D01*
X0241283Y0249830D01*
X0240602Y0248187D01*
X0240602Y0240073D01*
X0241283Y0238430D01*
X0242540Y0237173D01*
X0244182Y0236493D01*
X0242253Y0237460D02*
X0228300Y0237460D01*
X0228300Y0238458D02*
X0241271Y0238458D01*
X0240857Y0239457D02*
X0228300Y0239457D01*
X0228300Y0240455D02*
X0240602Y0240455D01*
X0240602Y0241454D02*
X0228300Y0241454D01*
X0228300Y0242452D02*
X0240602Y0242452D01*
X0240602Y0243451D02*
X0228300Y0243451D01*
X0228300Y0244449D02*
X0240602Y0244449D01*
X0240602Y0245448D02*
X0228300Y0245448D01*
X0228300Y0246446D02*
X0240602Y0246446D01*
X0240602Y0247445D02*
X0228300Y0247445D01*
X0228300Y0248443D02*
X0240708Y0248443D01*
X0241122Y0249442D02*
X0228300Y0249442D01*
X0228300Y0250440D02*
X0241893Y0250440D01*
X0243390Y0251439D02*
X0228300Y0251439D01*
X0228300Y0252437D02*
X0243708Y0252437D01*
X0244182Y0252241D02*
X0245960Y0252241D01*
X0247602Y0252921D01*
X0248859Y0254178D01*
X0249539Y0255821D01*
X0249539Y0263935D01*
X0248859Y0265578D01*
X0247602Y0266835D01*
X0245960Y0267515D01*
X0244182Y0267515D01*
X0242540Y0266835D01*
X0241283Y0265578D01*
X0240602Y0263935D01*
X0240602Y0255821D01*
X0241283Y0254178D01*
X0242540Y0252921D01*
X0244182Y0252241D01*
X0246434Y0252437D02*
X0249900Y0252437D01*
X0249900Y0251439D02*
X0246751Y0251439D01*
X0248248Y0250440D02*
X0249900Y0250440D01*
X0249900Y0249442D02*
X0249020Y0249442D01*
X0249433Y0248443D02*
X0249900Y0248443D01*
X0249900Y0247445D02*
X0249539Y0247445D01*
X0249539Y0246446D02*
X0249900Y0246446D01*
X0249900Y0245448D02*
X0249539Y0245448D01*
X0249539Y0244449D02*
X0250122Y0244449D01*
X0249539Y0243451D02*
X0251121Y0243451D01*
X0252119Y0242452D02*
X0249539Y0242452D01*
X0249539Y0241454D02*
X0252883Y0241454D01*
X0252398Y0240455D02*
X0249539Y0240455D01*
X0249284Y0239457D02*
X0252000Y0239457D01*
X0252000Y0238458D02*
X0248871Y0238458D01*
X0247889Y0237460D02*
X0252019Y0237460D01*
X0252432Y0236461D02*
X0228300Y0236461D01*
X0247302Y0235463D02*
X0252966Y0235463D01*
X0253965Y0234464D02*
X0248476Y0234464D01*
X0249114Y0233466D02*
X0255923Y0233466D01*
X0258077Y0233466D02*
X0265923Y0233466D01*
X0263965Y0234464D02*
X0260035Y0234464D01*
X0261034Y0235463D02*
X0262966Y0235463D01*
X0262432Y0236461D02*
X0261567Y0236461D01*
X0261981Y0237460D02*
X0262019Y0237460D01*
X0262000Y0238458D02*
X0262000Y0238458D01*
X0262000Y0239457D02*
X0262000Y0239457D01*
X0261602Y0240455D02*
X0262398Y0240455D01*
X0262883Y0241454D02*
X0261117Y0241454D01*
X0260119Y0242452D02*
X0263881Y0242452D01*
X0263980Y0244449D02*
X0260020Y0244449D01*
X0261019Y0245448D02*
X0262981Y0245448D01*
X0262439Y0246446D02*
X0261561Y0246446D01*
X0261975Y0247445D02*
X0262025Y0247445D01*
X0262000Y0248443D02*
X0262000Y0248443D01*
X0262000Y0249442D02*
X0262000Y0249442D01*
X0261608Y0250440D02*
X0262392Y0250440D01*
X0262868Y0251439D02*
X0261132Y0251439D01*
X0260134Y0252437D02*
X0263866Y0252437D01*
X0263994Y0254434D02*
X0260006Y0254434D01*
X0261004Y0255433D02*
X0262996Y0255433D01*
X0262445Y0256432D02*
X0261555Y0256432D01*
X0261969Y0257430D02*
X0262031Y0257430D01*
X0262000Y0258429D02*
X0262000Y0258429D01*
X0262000Y0259427D02*
X0262000Y0259427D01*
X0261614Y0260426D02*
X0262386Y0260426D01*
X0262853Y0261424D02*
X0261147Y0261424D01*
X0260148Y0262423D02*
X0263852Y0262423D01*
X0264009Y0264420D02*
X0259991Y0264420D01*
X0260989Y0265418D02*
X0263011Y0265418D01*
X0262451Y0266417D02*
X0261549Y0266417D01*
X0261963Y0267415D02*
X0262037Y0267415D01*
X0262000Y0267505D02*
X0262000Y0269495D01*
X0262761Y0271332D01*
X0263050Y0271621D01*
X0262050Y0272622D01*
X0260121Y0274550D01*
X0259832Y0274261D01*
X0257995Y0273500D01*
X0256005Y0273500D01*
X0254168Y0274261D01*
X0253900Y0274529D01*
X0253900Y0272471D01*
X0254168Y0272739D01*
X0256005Y0273500D01*
X0257995Y0273500D01*
X0259832Y0272739D01*
X0261239Y0271332D01*
X0262000Y0269495D01*
X0262000Y0267505D01*
X0262000Y0268414D02*
X0262000Y0268414D01*
X0262000Y0269412D02*
X0262000Y0269412D01*
X0261621Y0270411D02*
X0262379Y0270411D01*
X0262838Y0271409D02*
X0261162Y0271409D01*
X0260163Y0272408D02*
X0262264Y0272408D01*
X0261265Y0273406D02*
X0258221Y0273406D01*
X0259976Y0274405D02*
X0260267Y0274405D01*
X0262000Y0275500D02*
X0264050Y0273450D01*
X0270800Y0273450D01*
X0276600Y0267650D01*
X0284000Y0267650D01*
X0284000Y0267500D01*
X0285000Y0266500D01*
X0289000Y0266500D01*
X0291000Y0268500D01*
X0305000Y0268500D01*
X0307000Y0266500D01*
X0307000Y0263500D01*
X0307126Y0263500D01*
X0304000Y0263500D02*
X0303189Y0263500D01*
X0304000Y0263500D02*
X0304000Y0258500D01*
X0306000Y0256500D01*
X0311000Y0255500D02*
X0305000Y0249500D01*
X0303000Y0249500D01*
X0299000Y0253500D01*
X0299000Y0255500D01*
X0299000Y0263500D01*
X0299252Y0263500D01*
X0295406Y0262423D02*
X0295224Y0262423D01*
X0295224Y0263409D02*
X0295224Y0258949D01*
X0293936Y0258949D01*
X0293555Y0259051D01*
X0293213Y0259249D01*
X0292934Y0259528D01*
X0292736Y0259870D01*
X0292634Y0260251D01*
X0292634Y0263409D01*
X0295224Y0263409D01*
X0295224Y0263421D02*
X0283398Y0263421D01*
X0283398Y0262423D02*
X0292634Y0262423D01*
X0292634Y0261424D02*
X0283398Y0261424D01*
X0283398Y0260426D02*
X0292634Y0260426D01*
X0293034Y0259427D02*
X0283398Y0259427D01*
X0283398Y0258429D02*
X0296723Y0258429D01*
X0295815Y0257430D02*
X0283398Y0257430D01*
X0283398Y0256432D02*
X0295401Y0256432D01*
X0295319Y0255433D02*
X0283237Y0255433D01*
X0282823Y0254434D02*
X0295457Y0254434D01*
X0295871Y0253436D02*
X0281975Y0253436D01*
X0280292Y0252437D02*
X0296857Y0252437D01*
X0298233Y0251439D02*
X0280610Y0251439D01*
X0282107Y0250440D02*
X0299231Y0250440D01*
X0300230Y0249442D02*
X0282878Y0249442D01*
X0283292Y0248443D02*
X0301228Y0248443D01*
X0303117Y0247445D02*
X0283398Y0247445D01*
X0283398Y0246446D02*
X0302118Y0246446D01*
X0301119Y0245448D02*
X0283398Y0245448D01*
X0283398Y0244449D02*
X0300121Y0244449D01*
X0299122Y0243451D02*
X0283398Y0243451D01*
X0283398Y0242452D02*
X0298124Y0242452D01*
X0297125Y0241454D02*
X0283398Y0241454D01*
X0283398Y0240455D02*
X0296127Y0240455D01*
X0295128Y0239457D02*
X0283143Y0239457D01*
X0282729Y0238458D02*
X0294130Y0238458D01*
X0294750Y0236250D02*
X0315000Y0256500D01*
X0315000Y0263500D01*
X0317481Y0263421D02*
X0325000Y0263421D01*
X0325000Y0262423D02*
X0317481Y0262423D01*
X0317481Y0261424D02*
X0325000Y0261424D01*
X0325000Y0260426D02*
X0317481Y0260426D01*
X0317000Y0259427D02*
X0325000Y0259427D01*
X0325000Y0258429D02*
X0317000Y0258429D01*
X0317000Y0257430D02*
X0325000Y0257430D01*
X0325000Y0256432D02*
X0317000Y0256432D01*
X0316761Y0255433D02*
X0325000Y0255433D01*
X0325000Y0254434D02*
X0315763Y0254434D01*
X0314764Y0253436D02*
X0325000Y0253436D01*
X0325000Y0252437D02*
X0313766Y0252437D01*
X0312767Y0251439D02*
X0325000Y0251439D01*
X0325000Y0250440D02*
X0311769Y0250440D01*
X0310770Y0249442D02*
X0325000Y0249442D01*
X0325000Y0248443D02*
X0309772Y0248443D01*
X0308773Y0247445D02*
X0325000Y0247445D01*
X0325000Y0246446D02*
X0307775Y0246446D01*
X0306776Y0245448D02*
X0325000Y0245448D01*
X0325000Y0244449D02*
X0305778Y0244449D01*
X0304779Y0243451D02*
X0325000Y0243451D01*
X0325000Y0242452D02*
X0303781Y0242452D01*
X0302782Y0241454D02*
X0325000Y0241454D01*
X0325000Y0240455D02*
X0301784Y0240455D01*
X0300785Y0239457D02*
X0325000Y0239457D01*
X0325000Y0238458D02*
X0299787Y0238458D01*
X0298788Y0237460D02*
X0325212Y0237460D01*
X0326210Y0236461D02*
X0297790Y0236461D01*
X0296791Y0235463D02*
X0327209Y0235463D01*
X0328207Y0234464D02*
X0322874Y0234464D01*
X0323300Y0233466D02*
X0329206Y0233466D01*
X0330204Y0232467D02*
X0323300Y0232467D01*
X0323300Y0231469D02*
X0331203Y0231469D01*
X0332201Y0230470D02*
X0323300Y0230470D01*
X0323300Y0229472D02*
X0332000Y0229472D01*
X0332000Y0228473D02*
X0323300Y0228473D01*
X0323300Y0227475D02*
X0332013Y0227475D01*
X0332426Y0226476D02*
X0323300Y0226476D01*
X0323300Y0225478D02*
X0332951Y0225478D01*
X0336300Y0223481D02*
X0350700Y0223481D01*
X0350700Y0224479D02*
X0350050Y0224479D01*
X0350700Y0222482D02*
X0336300Y0222482D01*
X0336300Y0221484D02*
X0350700Y0221484D01*
X0350700Y0220485D02*
X0336300Y0220485D01*
X0336300Y0219487D02*
X0350699Y0219487D01*
X0350620Y0218488D02*
X0336300Y0218488D01*
X0336300Y0217490D02*
X0350382Y0217490D01*
X0350057Y0216491D02*
X0336300Y0216491D01*
X0336300Y0215493D02*
X0349710Y0215493D01*
X0348984Y0214494D02*
X0336300Y0214494D01*
X0336300Y0213496D02*
X0348259Y0213496D01*
X0346980Y0212497D02*
X0336300Y0212497D01*
X0336300Y0211499D02*
X0345181Y0211499D01*
X0343950Y0224479D02*
X0340050Y0224479D01*
X0341049Y0225478D02*
X0342951Y0225478D01*
X0342426Y0226476D02*
X0341574Y0226476D01*
X0341987Y0227475D02*
X0342013Y0227475D01*
X0342000Y0228473D02*
X0342000Y0228473D01*
X0342000Y0229472D02*
X0342000Y0229472D01*
X0341596Y0230470D02*
X0342404Y0230470D01*
X0342898Y0231469D02*
X0341102Y0231469D01*
X0340104Y0232467D02*
X0343896Y0232467D01*
X0343965Y0234464D02*
X0340035Y0234464D01*
X0341034Y0235463D02*
X0342966Y0235463D01*
X0342432Y0236461D02*
X0341567Y0236461D01*
X0341981Y0237460D02*
X0342019Y0237460D01*
X0342000Y0238458D02*
X0342000Y0238458D01*
X0342000Y0239457D02*
X0342000Y0239457D01*
X0341602Y0240455D02*
X0342398Y0240455D01*
X0342883Y0241454D02*
X0341117Y0241454D01*
X0340119Y0242452D02*
X0343881Y0242452D01*
X0343980Y0244449D02*
X0340020Y0244449D01*
X0341019Y0245448D02*
X0342981Y0245448D01*
X0342439Y0246446D02*
X0341561Y0246446D01*
X0341975Y0247445D02*
X0342025Y0247445D01*
X0342000Y0248443D02*
X0342000Y0248443D01*
X0342000Y0249442D02*
X0342000Y0249442D01*
X0341608Y0250440D02*
X0342392Y0250440D01*
X0342868Y0251439D02*
X0341132Y0251439D01*
X0340134Y0252437D02*
X0343866Y0252437D01*
X0343994Y0254434D02*
X0340006Y0254434D01*
X0341004Y0255433D02*
X0342996Y0255433D01*
X0345851Y0253436D02*
X0338149Y0253436D01*
X0335851Y0253436D02*
X0331000Y0253436D01*
X0331000Y0254434D02*
X0333994Y0254434D01*
X0332996Y0255433D02*
X0331000Y0255433D01*
X0331000Y0256432D02*
X0332445Y0256432D01*
X0332031Y0257430D02*
X0331000Y0257430D01*
X0331000Y0258429D02*
X0332000Y0258429D01*
X0332000Y0259427D02*
X0331000Y0259427D01*
X0331000Y0260426D02*
X0332386Y0260426D01*
X0332853Y0261424D02*
X0331000Y0261424D01*
X0331000Y0262423D02*
X0333852Y0262423D01*
X0334009Y0264420D02*
X0331000Y0264420D01*
X0331000Y0265418D02*
X0333011Y0265418D01*
X0332451Y0266417D02*
X0331000Y0266417D01*
X0331000Y0267415D02*
X0332037Y0267415D01*
X0332000Y0268414D02*
X0331000Y0268414D01*
X0331000Y0269412D02*
X0332000Y0269412D01*
X0332379Y0270411D02*
X0331000Y0270411D01*
X0331000Y0271409D02*
X0332838Y0271409D01*
X0333837Y0272408D02*
X0331000Y0272408D01*
X0331000Y0273406D02*
X0335779Y0273406D01*
X0334024Y0274405D02*
X0331000Y0274405D01*
X0331000Y0275403D02*
X0333026Y0275403D01*
X0332457Y0276402D02*
X0331000Y0276402D01*
X0331000Y0277400D02*
X0332044Y0277400D01*
X0332000Y0278399D02*
X0331000Y0278399D01*
X0331000Y0279397D02*
X0332000Y0279397D01*
X0332373Y0280396D02*
X0331000Y0280396D01*
X0331000Y0281394D02*
X0332823Y0281394D01*
X0333822Y0282393D02*
X0331000Y0282393D01*
X0331000Y0283391D02*
X0335743Y0283391D01*
X0334039Y0284390D02*
X0331000Y0284390D01*
X0331000Y0285388D02*
X0333041Y0285388D01*
X0332463Y0286387D02*
X0331000Y0286387D01*
X0331000Y0287385D02*
X0332050Y0287385D01*
X0332000Y0288384D02*
X0331000Y0288384D01*
X0331000Y0289382D02*
X0332000Y0289382D01*
X0332367Y0290381D02*
X0330948Y0290381D01*
X0330681Y0291379D02*
X0332808Y0291379D01*
X0333807Y0292378D02*
X0330621Y0292378D01*
X0330207Y0293376D02*
X0335707Y0293376D01*
X0334054Y0294375D02*
X0329331Y0294375D01*
X0327702Y0295373D02*
X0333055Y0295373D01*
X0332469Y0296372D02*
X0328000Y0296372D01*
X0328000Y0297370D02*
X0332056Y0297370D01*
X0332000Y0298369D02*
X0328000Y0298369D01*
X0328000Y0299368D02*
X0332000Y0299368D01*
X0332361Y0300366D02*
X0328000Y0300366D01*
X0328000Y0301365D02*
X0332793Y0301365D01*
X0333792Y0302363D02*
X0328000Y0302363D01*
X0328000Y0303362D02*
X0335671Y0303362D01*
X0333851Y0304360D02*
X0328000Y0304360D01*
X0328000Y0305359D02*
X0332855Y0305359D01*
X0332256Y0306357D02*
X0328000Y0306357D01*
X0328000Y0307356D02*
X0331916Y0307356D01*
X0331870Y0309353D02*
X0328000Y0309353D01*
X0328000Y0310351D02*
X0332134Y0310351D01*
X0332643Y0311350D02*
X0328678Y0311350D01*
X0329677Y0312348D02*
X0333494Y0312348D01*
X0335089Y0313347D02*
X0330675Y0313347D01*
X0331674Y0314345D02*
X0334084Y0314345D01*
X0333085Y0315344D02*
X0332000Y0315344D01*
X0332000Y0316342D02*
X0332482Y0316342D01*
X0332068Y0317341D02*
X0332000Y0317341D01*
X0332000Y0318339D02*
X0332000Y0318339D01*
X0332000Y0319338D02*
X0332000Y0319338D01*
X0332000Y0320336D02*
X0332349Y0320336D01*
X0332000Y0321335D02*
X0332764Y0321335D01*
X0332000Y0322333D02*
X0333762Y0322333D01*
X0332000Y0323332D02*
X0335599Y0323332D01*
X0334099Y0324330D02*
X0332000Y0324330D01*
X0332000Y0325329D02*
X0333100Y0325329D01*
X0332488Y0326327D02*
X0332000Y0326327D01*
X0332000Y0327326D02*
X0332074Y0327326D01*
X0332000Y0328324D02*
X0332000Y0328324D01*
X0332000Y0329323D02*
X0332000Y0329323D01*
X0332000Y0330321D02*
X0332342Y0330321D01*
X0332000Y0331320D02*
X0332756Y0331320D01*
X0332647Y0332318D02*
X0333747Y0332318D01*
X0333645Y0333317D02*
X0335563Y0333317D01*
X0338437Y0333317D02*
X0345563Y0333317D01*
X0344114Y0334315D02*
X0339886Y0334315D01*
X0340885Y0335314D02*
X0343115Y0335314D01*
X0342494Y0336312D02*
X0341506Y0336312D01*
X0341919Y0337311D02*
X0342081Y0337311D01*
X0342000Y0338309D02*
X0342000Y0338309D01*
X0342000Y0339308D02*
X0342000Y0339308D01*
X0341664Y0340306D02*
X0342336Y0340306D01*
X0342750Y0341305D02*
X0341250Y0341305D01*
X0340268Y0342303D02*
X0343732Y0342303D01*
X0345527Y0343302D02*
X0338473Y0343302D01*
X0335527Y0343302D02*
X0296500Y0343302D01*
X0296500Y0344301D02*
X0295500Y0344301D01*
X0295500Y0345299D02*
X0296500Y0345299D01*
X0296500Y0346298D02*
X0295500Y0346298D01*
X0295500Y0347296D02*
X0296500Y0347296D01*
X0299162Y0347296D02*
X0350700Y0347296D01*
X0350700Y0346298D02*
X0300372Y0346298D01*
X0300453Y0345299D02*
X0350700Y0345299D01*
X0350700Y0344301D02*
X0300453Y0344301D01*
X0300453Y0342303D02*
X0333732Y0342303D01*
X0332750Y0341305D02*
X0300453Y0341305D01*
X0300405Y0340306D02*
X0332336Y0340306D01*
X0332000Y0339308D02*
X0299802Y0339308D01*
X0300253Y0338309D02*
X0332000Y0338309D01*
X0331983Y0337311D02*
X0300253Y0337311D01*
X0300253Y0336312D02*
X0330984Y0336312D01*
X0329986Y0335314D02*
X0300253Y0335314D01*
X0300253Y0334315D02*
X0328987Y0334315D01*
X0328000Y0333317D02*
X0300253Y0333317D01*
X0299909Y0332318D02*
X0328000Y0332318D01*
X0328000Y0331320D02*
X0300231Y0331320D01*
X0300644Y0330321D02*
X0328000Y0330321D01*
X0328000Y0329323D02*
X0300681Y0329323D01*
X0300497Y0328324D02*
X0328000Y0328324D01*
X0324161Y0327326D02*
X0323161Y0327326D01*
X0323161Y0326327D02*
X0324161Y0326327D01*
X0324161Y0325329D02*
X0323161Y0325329D01*
X0323161Y0324330D02*
X0324161Y0324330D01*
X0324161Y0323332D02*
X0323161Y0323332D01*
X0323161Y0322333D02*
X0324161Y0322333D01*
X0323161Y0321335D02*
X0312363Y0321335D01*
X0312363Y0322333D02*
X0317437Y0322333D01*
X0317437Y0323332D02*
X0312363Y0323332D01*
X0312363Y0324330D02*
X0317437Y0324330D01*
X0317437Y0325329D02*
X0312363Y0325329D01*
X0312363Y0326327D02*
X0317437Y0326327D01*
X0317917Y0327326D02*
X0311800Y0327326D01*
X0312363Y0320336D02*
X0317437Y0320336D01*
X0317437Y0319338D02*
X0312363Y0319338D01*
X0312363Y0318339D02*
X0317437Y0318339D01*
X0317437Y0317341D02*
X0312363Y0317341D01*
X0312363Y0316342D02*
X0317500Y0316342D01*
X0318485Y0315344D02*
X0302409Y0315344D01*
X0303407Y0314345D02*
X0326017Y0314345D01*
X0325018Y0313347D02*
X0304406Y0313347D01*
X0305405Y0312348D02*
X0324020Y0312348D01*
X0324000Y0311350D02*
X0306403Y0311350D01*
X0307402Y0310351D02*
X0324000Y0310351D01*
X0324000Y0309353D02*
X0308400Y0309353D01*
X0309399Y0308354D02*
X0315648Y0308354D01*
X0320352Y0308354D02*
X0324000Y0308354D01*
X0324000Y0307356D02*
X0321216Y0307356D01*
X0321629Y0306357D02*
X0324000Y0306357D01*
X0324000Y0305359D02*
X0321681Y0305359D01*
X0321512Y0304360D02*
X0324000Y0304360D01*
X0324000Y0303362D02*
X0321067Y0303362D01*
X0320046Y0302363D02*
X0324000Y0302363D01*
X0324000Y0301365D02*
X0282660Y0301365D01*
X0283107Y0302363D02*
X0315954Y0302363D01*
X0307886Y0303362D02*
X0283398Y0303362D01*
X0283398Y0304360D02*
X0306887Y0304360D01*
X0305889Y0305359D02*
X0283398Y0305359D01*
X0283398Y0306357D02*
X0286802Y0306357D01*
X0286547Y0307356D02*
X0283398Y0307356D01*
X0283398Y0308354D02*
X0286547Y0308354D01*
X0286547Y0310351D02*
X0283398Y0310351D01*
X0283398Y0309353D02*
X0290500Y0309353D01*
X0290500Y0308354D02*
X0291500Y0308354D01*
X0291500Y0307356D02*
X0290500Y0307356D01*
X0290500Y0306357D02*
X0291500Y0306357D01*
X0291500Y0309353D02*
X0301895Y0309353D01*
X0300896Y0310351D02*
X0295453Y0310351D01*
X0295453Y0311350D02*
X0299898Y0311350D01*
X0298899Y0312348D02*
X0295453Y0312348D01*
X0295046Y0313347D02*
X0297901Y0313347D01*
X0296902Y0314345D02*
X0295253Y0314345D01*
X0295253Y0315344D02*
X0295904Y0315344D01*
X0295453Y0308354D02*
X0302893Y0308354D01*
X0303892Y0307356D02*
X0295453Y0307356D01*
X0295198Y0306357D02*
X0304890Y0306357D01*
X0286547Y0311350D02*
X0283327Y0311350D01*
X0282914Y0312348D02*
X0286547Y0312348D01*
X0286954Y0313347D02*
X0282192Y0313347D01*
X0280817Y0314345D02*
X0286747Y0314345D01*
X0286747Y0315344D02*
X0280085Y0315344D01*
X0281889Y0316342D02*
X0286747Y0316342D01*
X0286747Y0317341D02*
X0282788Y0317341D01*
X0283201Y0318339D02*
X0286747Y0318339D01*
X0286747Y0319338D02*
X0283398Y0319338D01*
X0283398Y0320336D02*
X0286747Y0320336D01*
X0288700Y0321335D02*
X0283398Y0321335D01*
X0283398Y0322333D02*
X0288700Y0322333D01*
X0286030Y0323332D02*
X0283398Y0323332D01*
X0283398Y0324330D02*
X0284964Y0324330D01*
X0284501Y0325329D02*
X0283398Y0325329D01*
X0283398Y0326327D02*
X0284319Y0326327D01*
X0275039Y0328324D02*
X0267500Y0328324D01*
X0266500Y0328324D02*
X0257500Y0328324D01*
X0257500Y0328000D02*
X0257500Y0329000D01*
X0261814Y0329000D01*
X0266500Y0329000D01*
X0266500Y0328000D01*
X0257500Y0328000D01*
X0249900Y0328324D02*
X0248961Y0328324D01*
X0248859Y0328570D02*
X0247602Y0329827D01*
X0245960Y0330507D01*
X0244182Y0330507D01*
X0242540Y0329827D01*
X0241283Y0328570D01*
X0240602Y0326927D01*
X0240602Y0318813D01*
X0241283Y0317170D01*
X0242540Y0315913D01*
X0244182Y0315233D01*
X0245960Y0315233D01*
X0247602Y0315913D01*
X0248859Y0317170D01*
X0249539Y0318813D01*
X0249539Y0326927D01*
X0248859Y0328570D01*
X0248106Y0329323D02*
X0249900Y0329323D01*
X0249900Y0330321D02*
X0246408Y0330321D01*
X0245960Y0330981D02*
X0247602Y0331661D01*
X0248859Y0332918D01*
X0249539Y0334561D01*
X0249539Y0342675D01*
X0248859Y0344318D01*
X0247602Y0345575D01*
X0245960Y0346255D01*
X0244182Y0346255D01*
X0242540Y0345575D01*
X0241283Y0344318D01*
X0240602Y0342675D01*
X0240602Y0334561D01*
X0241283Y0332918D01*
X0242540Y0331661D01*
X0244182Y0330981D01*
X0245960Y0330981D01*
X0246778Y0331320D02*
X0249900Y0331320D01*
X0249900Y0332318D02*
X0248259Y0332318D01*
X0249024Y0333317D02*
X0249900Y0333317D01*
X0249900Y0334315D02*
X0249438Y0334315D01*
X0249539Y0335314D02*
X0249900Y0335314D01*
X0249900Y0336312D02*
X0249539Y0336312D01*
X0249539Y0337311D02*
X0249900Y0337311D01*
X0249900Y0338309D02*
X0249539Y0338309D01*
X0249539Y0339308D02*
X0249900Y0339308D01*
X0249900Y0340306D02*
X0249539Y0340306D01*
X0249539Y0341305D02*
X0249900Y0341305D01*
X0249539Y0342303D02*
X0250375Y0342303D01*
X0251374Y0343302D02*
X0249280Y0343302D01*
X0248866Y0344301D02*
X0252372Y0344301D01*
X0253371Y0345299D02*
X0247878Y0345299D01*
X0242264Y0345299D02*
X0228300Y0345299D01*
X0228300Y0344301D02*
X0241275Y0344301D01*
X0240862Y0343302D02*
X0228300Y0343302D01*
X0228300Y0342303D02*
X0240602Y0342303D01*
X0240602Y0341305D02*
X0228300Y0341305D01*
X0228300Y0340306D02*
X0240602Y0340306D01*
X0240602Y0339308D02*
X0228300Y0339308D01*
X0228300Y0338309D02*
X0240602Y0338309D01*
X0240602Y0337311D02*
X0228300Y0337311D01*
X0228300Y0336312D02*
X0240602Y0336312D01*
X0240602Y0335314D02*
X0228300Y0335314D01*
X0228300Y0334315D02*
X0240704Y0334315D01*
X0241118Y0333317D02*
X0228300Y0333317D01*
X0228300Y0332318D02*
X0241883Y0332318D01*
X0243364Y0331320D02*
X0228300Y0331320D01*
X0228300Y0330321D02*
X0243734Y0330321D01*
X0242036Y0329323D02*
X0228300Y0329323D01*
X0228300Y0328324D02*
X0241181Y0328324D01*
X0240767Y0327326D02*
X0228300Y0327326D01*
X0228300Y0326327D02*
X0240602Y0326327D01*
X0240602Y0325329D02*
X0228300Y0325329D01*
X0228300Y0324330D02*
X0240602Y0324330D01*
X0240602Y0323332D02*
X0228300Y0323332D01*
X0228300Y0322333D02*
X0240602Y0322333D01*
X0240602Y0321335D02*
X0228300Y0321335D01*
X0228300Y0320336D02*
X0240602Y0320336D01*
X0240602Y0319338D02*
X0228300Y0319338D01*
X0228300Y0318339D02*
X0240798Y0318339D01*
X0241212Y0317341D02*
X0228300Y0317341D01*
X0228300Y0316342D02*
X0242111Y0316342D01*
X0243915Y0315344D02*
X0228300Y0315344D01*
X0228300Y0314345D02*
X0243183Y0314345D01*
X0242540Y0314079D02*
X0241283Y0312822D01*
X0240602Y0311179D01*
X0240602Y0303065D01*
X0241283Y0301422D01*
X0242540Y0300165D01*
X0244182Y0299485D01*
X0245960Y0299485D01*
X0247602Y0300165D01*
X0248859Y0301422D01*
X0249539Y0303065D01*
X0249539Y0311179D01*
X0248859Y0312822D01*
X0247602Y0314079D01*
X0245960Y0314759D01*
X0244182Y0314759D01*
X0242540Y0314079D01*
X0241808Y0313347D02*
X0228300Y0313347D01*
X0228300Y0312348D02*
X0241086Y0312348D01*
X0240673Y0311350D02*
X0228300Y0311350D01*
X0228300Y0310351D02*
X0240602Y0310351D01*
X0240602Y0309353D02*
X0228300Y0309353D01*
X0228300Y0308354D02*
X0240602Y0308354D01*
X0240602Y0307356D02*
X0228300Y0307356D01*
X0228300Y0306357D02*
X0240602Y0306357D01*
X0240602Y0305359D02*
X0228300Y0305359D01*
X0228300Y0304360D02*
X0240602Y0304360D01*
X0240602Y0303362D02*
X0228300Y0303362D01*
X0228300Y0302363D02*
X0240893Y0302363D01*
X0241340Y0301365D02*
X0228300Y0301365D01*
X0228300Y0300366D02*
X0242339Y0300366D01*
X0243279Y0298869D02*
X0242624Y0298535D01*
X0242030Y0298103D01*
X0241510Y0297584D01*
X0241078Y0296989D01*
X0240744Y0296335D01*
X0240517Y0295636D01*
X0240402Y0294910D01*
X0240402Y0291858D01*
X0244587Y0291858D01*
X0244587Y0290890D01*
X0245555Y0290890D01*
X0245555Y0291858D01*
X0249739Y0291858D01*
X0249739Y0294910D01*
X0249624Y0295636D01*
X0249397Y0296335D01*
X0249064Y0296989D01*
X0248632Y0297584D01*
X0248112Y0298103D01*
X0247518Y0298535D01*
X0246863Y0298869D01*
X0246164Y0299096D01*
X0245555Y0299192D01*
X0245555Y0291858D01*
X0244587Y0291858D01*
X0244587Y0299192D01*
X0243978Y0299096D01*
X0243279Y0298869D01*
X0242395Y0298369D02*
X0228300Y0298369D01*
X0228300Y0297370D02*
X0241355Y0297370D01*
X0240763Y0296372D02*
X0228300Y0296372D01*
X0228300Y0295373D02*
X0240476Y0295373D01*
X0240402Y0294375D02*
X0228300Y0294375D01*
X0228300Y0293376D02*
X0240402Y0293376D01*
X0240402Y0292378D02*
X0228300Y0292378D01*
X0228300Y0291379D02*
X0244587Y0291379D01*
X0244587Y0290890D02*
X0240402Y0290890D01*
X0240402Y0287838D01*
X0240517Y0287112D01*
X0240744Y0286413D01*
X0241078Y0285759D01*
X0241510Y0285164D01*
X0242030Y0284645D01*
X0242624Y0284213D01*
X0243279Y0283879D01*
X0243978Y0283652D01*
X0244587Y0283556D01*
X0244587Y0290890D01*
X0244587Y0290381D02*
X0245555Y0290381D01*
X0245555Y0290890D02*
X0245555Y0283556D01*
X0246164Y0283652D01*
X0246863Y0283879D01*
X0247518Y0284213D01*
X0248112Y0284645D01*
X0248632Y0285164D01*
X0249064Y0285759D01*
X0249397Y0286413D01*
X0249624Y0287112D01*
X0249739Y0287838D01*
X0249739Y0290890D01*
X0245555Y0290890D01*
X0245555Y0291379D02*
X0249900Y0291379D01*
X0249900Y0290381D02*
X0249739Y0290381D01*
X0249739Y0289382D02*
X0249900Y0289382D01*
X0249900Y0288384D02*
X0249739Y0288384D01*
X0249668Y0287385D02*
X0249900Y0287385D01*
X0249900Y0286387D02*
X0249384Y0286387D01*
X0249900Y0285388D02*
X0248795Y0285388D01*
X0247762Y0284390D02*
X0249900Y0284390D01*
X0249900Y0283391D02*
X0245891Y0283391D01*
X0246164Y0283348D02*
X0245555Y0283444D01*
X0245555Y0276110D01*
X0249739Y0276110D01*
X0249739Y0279162D01*
X0249624Y0279888D01*
X0249397Y0280587D01*
X0249064Y0281241D01*
X0248632Y0281836D01*
X0248112Y0282355D01*
X0247518Y0282787D01*
X0246863Y0283121D01*
X0246164Y0283348D01*
X0245555Y0283391D02*
X0244587Y0283391D01*
X0244587Y0283444D02*
X0243978Y0283348D01*
X0243279Y0283121D01*
X0242624Y0282787D01*
X0242030Y0282355D01*
X0241510Y0281836D01*
X0241078Y0281241D01*
X0240744Y0280587D01*
X0240517Y0279888D01*
X0240402Y0279162D01*
X0240402Y0276110D01*
X0244587Y0276110D01*
X0244587Y0283444D01*
X0244251Y0283391D02*
X0228300Y0283391D01*
X0228300Y0282393D02*
X0242081Y0282393D01*
X0241189Y0281394D02*
X0228300Y0281394D01*
X0228300Y0280396D02*
X0240682Y0280396D01*
X0240440Y0279397D02*
X0228300Y0279397D01*
X0228300Y0278399D02*
X0240402Y0278399D01*
X0240402Y0277400D02*
X0228300Y0277400D01*
X0228300Y0276402D02*
X0240402Y0276402D01*
X0240402Y0275142D02*
X0240402Y0272090D01*
X0240517Y0271364D01*
X0240744Y0270665D01*
X0241078Y0270011D01*
X0241510Y0269416D01*
X0242030Y0268897D01*
X0242624Y0268465D01*
X0243279Y0268131D01*
X0243978Y0267904D01*
X0244587Y0267807D01*
X0244587Y0275142D01*
X0245555Y0275142D01*
X0245555Y0276110D01*
X0244587Y0276110D01*
X0244587Y0275142D01*
X0240402Y0275142D01*
X0240402Y0274405D02*
X0228300Y0274405D01*
X0228300Y0275403D02*
X0244587Y0275403D01*
X0245555Y0275403D02*
X0249900Y0275403D01*
X0249739Y0275142D02*
X0245555Y0275142D01*
X0245555Y0267807D01*
X0246164Y0267904D01*
X0246863Y0268131D01*
X0247518Y0268465D01*
X0248112Y0268897D01*
X0248632Y0269416D01*
X0249064Y0270011D01*
X0249397Y0270665D01*
X0249624Y0271364D01*
X0249739Y0272090D01*
X0249739Y0275142D01*
X0249739Y0274405D02*
X0249900Y0274405D01*
X0249900Y0273406D02*
X0249739Y0273406D01*
X0249739Y0272408D02*
X0249900Y0272408D01*
X0249900Y0271409D02*
X0249632Y0271409D01*
X0249900Y0270411D02*
X0249268Y0270411D01*
X0249900Y0269412D02*
X0248628Y0269412D01*
X0247418Y0268414D02*
X0249900Y0268414D01*
X0249900Y0267415D02*
X0246201Y0267415D01*
X0245555Y0268414D02*
X0244587Y0268414D01*
X0244587Y0269412D02*
X0245555Y0269412D01*
X0245555Y0270411D02*
X0244587Y0270411D01*
X0244587Y0271409D02*
X0245555Y0271409D01*
X0245555Y0272408D02*
X0244587Y0272408D01*
X0244587Y0273406D02*
X0245555Y0273406D01*
X0245555Y0274405D02*
X0244587Y0274405D01*
X0244587Y0276402D02*
X0245555Y0276402D01*
X0245555Y0277400D02*
X0244587Y0277400D01*
X0244587Y0278399D02*
X0245555Y0278399D01*
X0245555Y0279397D02*
X0244587Y0279397D01*
X0244587Y0280396D02*
X0245555Y0280396D01*
X0245555Y0281394D02*
X0244587Y0281394D01*
X0244587Y0282393D02*
X0245555Y0282393D01*
X0245555Y0284390D02*
X0244587Y0284390D01*
X0244587Y0285388D02*
X0245555Y0285388D01*
X0245555Y0286387D02*
X0244587Y0286387D01*
X0244587Y0287385D02*
X0245555Y0287385D01*
X0245555Y0288384D02*
X0244587Y0288384D01*
X0244587Y0289382D02*
X0245555Y0289382D01*
X0245555Y0292378D02*
X0244587Y0292378D01*
X0244587Y0293376D02*
X0245555Y0293376D01*
X0245555Y0294375D02*
X0244587Y0294375D01*
X0244587Y0295373D02*
X0245555Y0295373D01*
X0245555Y0296372D02*
X0244587Y0296372D01*
X0244587Y0297370D02*
X0245555Y0297370D01*
X0245555Y0298369D02*
X0244587Y0298369D01*
X0247747Y0298369D02*
X0249900Y0298369D01*
X0249900Y0297370D02*
X0248787Y0297370D01*
X0249378Y0296372D02*
X0249900Y0296372D01*
X0249900Y0295373D02*
X0249666Y0295373D01*
X0249739Y0294375D02*
X0249900Y0294375D01*
X0249900Y0293376D02*
X0249739Y0293376D01*
X0249739Y0292378D02*
X0249900Y0292378D01*
X0249900Y0299368D02*
X0228300Y0299368D01*
X0228300Y0290381D02*
X0240402Y0290381D01*
X0240402Y0289382D02*
X0228300Y0289382D01*
X0228300Y0288384D02*
X0240402Y0288384D01*
X0240474Y0287385D02*
X0228300Y0287385D01*
X0228300Y0286387D02*
X0240758Y0286387D01*
X0241347Y0285388D02*
X0228300Y0285388D01*
X0228300Y0284390D02*
X0242380Y0284390D01*
X0248061Y0282393D02*
X0249900Y0282393D01*
X0249900Y0281394D02*
X0248953Y0281394D01*
X0249459Y0280396D02*
X0249900Y0280396D01*
X0249900Y0279397D02*
X0249702Y0279397D01*
X0249739Y0278399D02*
X0249900Y0278399D01*
X0249900Y0277400D02*
X0249739Y0277400D01*
X0249739Y0276402D02*
X0249900Y0276402D01*
X0253900Y0274405D02*
X0254024Y0274405D01*
X0253900Y0273406D02*
X0255779Y0273406D01*
X0262000Y0275500D02*
X0262000Y0313500D01*
X0267000Y0318500D01*
X0271651Y0320336D02*
X0274461Y0320336D01*
X0274461Y0319338D02*
X0272000Y0319338D01*
X0272000Y0318339D02*
X0274657Y0318339D01*
X0275070Y0317341D02*
X0271932Y0317341D01*
X0271518Y0316342D02*
X0275969Y0316342D01*
X0277773Y0315344D02*
X0270915Y0315344D01*
X0269916Y0314345D02*
X0277041Y0314345D01*
X0275666Y0313347D02*
X0268365Y0313347D01*
X0270223Y0312348D02*
X0274945Y0312348D01*
X0274531Y0311350D02*
X0271221Y0311350D01*
X0271645Y0310351D02*
X0274461Y0310351D01*
X0274461Y0309353D02*
X0272000Y0309353D01*
X0272000Y0308354D02*
X0274461Y0308354D01*
X0274461Y0307356D02*
X0271938Y0307356D01*
X0271524Y0306357D02*
X0274461Y0306357D01*
X0274461Y0305359D02*
X0270970Y0305359D01*
X0271968Y0304360D02*
X0274461Y0304360D01*
X0274461Y0303362D02*
X0272967Y0303362D01*
X0273965Y0302363D02*
X0274751Y0302363D01*
X0274964Y0301365D02*
X0275199Y0301365D01*
X0274250Y0299250D02*
X0282250Y0299250D01*
X0284000Y0297500D01*
X0284000Y0274500D01*
X0288000Y0270500D01*
X0291412Y0271409D02*
X0307262Y0271409D01*
X0306264Y0272408D02*
X0290998Y0272408D01*
X0293182Y0273406D02*
X0305265Y0273406D01*
X0304267Y0274405D02*
X0293859Y0274405D01*
X0293859Y0275403D02*
X0303268Y0275403D01*
X0303000Y0276402D02*
X0293859Y0276402D01*
X0293859Y0277400D02*
X0303000Y0277400D01*
X0303000Y0278399D02*
X0293859Y0278399D01*
X0293859Y0279397D02*
X0303000Y0279397D01*
X0303000Y0280396D02*
X0293859Y0280396D01*
X0293859Y0281394D02*
X0302277Y0281394D01*
X0301279Y0282393D02*
X0297661Y0282393D01*
X0295839Y0282393D02*
X0293859Y0282393D01*
X0294153Y0283391D02*
X0293502Y0283391D01*
X0293433Y0284390D02*
X0286000Y0284390D01*
X0286000Y0285388D02*
X0293069Y0285388D01*
X0293069Y0286387D02*
X0286000Y0286387D01*
X0286000Y0287385D02*
X0293339Y0287385D01*
X0293928Y0288384D02*
X0286000Y0288384D01*
X0286000Y0289382D02*
X0295297Y0289382D01*
X0298203Y0289382D02*
X0316054Y0289382D01*
X0315055Y0288384D02*
X0299572Y0288384D01*
X0301943Y0287385D02*
X0314057Y0287385D01*
X0313058Y0286387D02*
X0302942Y0286387D01*
X0303940Y0285388D02*
X0312500Y0285388D01*
X0312500Y0284390D02*
X0304939Y0284390D01*
X0305937Y0283391D02*
X0312500Y0283391D01*
X0312500Y0282393D02*
X0306936Y0282393D01*
X0307000Y0281394D02*
X0312500Y0281394D01*
X0312500Y0280396D02*
X0307000Y0280396D01*
X0307000Y0279397D02*
X0312500Y0279397D01*
X0312500Y0278399D02*
X0307000Y0278399D01*
X0307000Y0277400D02*
X0311694Y0277400D01*
X0311096Y0276402D02*
X0307927Y0276402D01*
X0308925Y0275403D02*
X0310819Y0275403D01*
X0310819Y0274405D02*
X0309924Y0274405D01*
X0310922Y0273406D02*
X0311176Y0273406D01*
X0311000Y0270500D02*
X0305000Y0276500D01*
X0305000Y0281500D01*
X0301000Y0285500D01*
X0297000Y0285500D01*
X0296750Y0285750D01*
X0296750Y0286000D01*
X0299347Y0283391D02*
X0300280Y0283391D01*
X0314500Y0285000D02*
X0314500Y0275000D01*
X0311000Y0270500D02*
X0321000Y0270500D01*
X0327000Y0264500D01*
X0327000Y0238500D01*
X0337000Y0228500D01*
X0338077Y0233466D02*
X0345923Y0233466D01*
X0348077Y0233466D02*
X0350700Y0233466D01*
X0350700Y0234464D02*
X0350035Y0234464D01*
X0350104Y0232467D02*
X0350700Y0232467D01*
X0335923Y0233466D02*
X0334863Y0233466D01*
X0333965Y0234464D02*
X0333864Y0234464D01*
X0332966Y0235463D02*
X0332866Y0235463D01*
X0332432Y0236461D02*
X0331867Y0236461D01*
X0332000Y0238500D02*
X0329000Y0241500D01*
X0329000Y0289500D01*
X0327000Y0291500D01*
X0326000Y0296500D02*
X0314500Y0285000D01*
X0317052Y0290381D02*
X0286000Y0290381D01*
X0286000Y0291379D02*
X0318051Y0291379D01*
X0319050Y0292378D02*
X0286000Y0292378D01*
X0286000Y0293376D02*
X0320048Y0293376D01*
X0321047Y0294375D02*
X0286000Y0294375D01*
X0286000Y0295373D02*
X0322045Y0295373D01*
X0323044Y0296372D02*
X0286000Y0296372D01*
X0286000Y0297370D02*
X0324000Y0297370D01*
X0324000Y0298369D02*
X0285959Y0298369D01*
X0284961Y0299368D02*
X0324000Y0299368D01*
X0324000Y0300366D02*
X0283962Y0300366D01*
X0274250Y0299250D02*
X0267000Y0306500D01*
X0267000Y0308500D01*
X0265635Y0313347D02*
X0264675Y0313347D01*
X0249900Y0313347D02*
X0248334Y0313347D01*
X0249055Y0312348D02*
X0249900Y0312348D01*
X0249900Y0311350D02*
X0249469Y0311350D01*
X0249539Y0310351D02*
X0249900Y0310351D01*
X0249900Y0309353D02*
X0249539Y0309353D01*
X0249539Y0308354D02*
X0249900Y0308354D01*
X0249900Y0307356D02*
X0249539Y0307356D01*
X0249539Y0306357D02*
X0249900Y0306357D01*
X0249900Y0305359D02*
X0249539Y0305359D01*
X0249539Y0304360D02*
X0249900Y0304360D01*
X0249900Y0303362D02*
X0249539Y0303362D01*
X0249249Y0302363D02*
X0249900Y0302363D01*
X0249900Y0301365D02*
X0248801Y0301365D01*
X0247803Y0300366D02*
X0249900Y0300366D01*
X0249900Y0314345D02*
X0246959Y0314345D01*
X0246227Y0315344D02*
X0249900Y0315344D01*
X0249900Y0316342D02*
X0248031Y0316342D01*
X0248930Y0317341D02*
X0249900Y0317341D01*
X0249900Y0318339D02*
X0249343Y0318339D01*
X0249539Y0319338D02*
X0249900Y0319338D01*
X0249900Y0320336D02*
X0249539Y0320336D01*
X0249539Y0321335D02*
X0249900Y0321335D01*
X0249900Y0322333D02*
X0249539Y0322333D01*
X0249539Y0323332D02*
X0249900Y0323332D01*
X0249900Y0324330D02*
X0249539Y0324330D01*
X0249539Y0325329D02*
X0249900Y0325329D01*
X0249900Y0326327D02*
X0249539Y0326327D01*
X0249374Y0327326D02*
X0249900Y0327326D01*
X0251900Y0341000D02*
X0254600Y0343700D01*
X0263000Y0343700D01*
X0263600Y0343700D01*
X0268200Y0343700D01*
X0272000Y0347500D01*
X0272000Y0348500D01*
X0274000Y0350500D01*
X0275250Y0349240D02*
X0283500Y0349240D01*
X0287500Y0345240D01*
X0286275Y0349293D02*
X0350638Y0349293D01*
X0350700Y0348295D02*
X0291753Y0348295D01*
X0291753Y0347296D02*
X0292838Y0347296D01*
X0285277Y0350292D02*
X0350453Y0350292D01*
X0350129Y0351290D02*
X0278349Y0351290D01*
X0278349Y0352289D02*
X0349804Y0352289D01*
X0349143Y0353287D02*
X0278349Y0353287D01*
X0270260Y0354286D02*
X0348418Y0354286D01*
X0347282Y0355284D02*
X0231718Y0355284D01*
X0230582Y0354286D02*
X0263759Y0354286D01*
X0262987Y0353287D02*
X0229857Y0353287D01*
X0229196Y0352289D02*
X0262951Y0352289D01*
X0262951Y0351290D02*
X0228871Y0351290D01*
X0228547Y0350292D02*
X0266510Y0350292D01*
X0266510Y0351290D02*
X0267510Y0351290D01*
X0267510Y0352289D02*
X0266510Y0352289D01*
X0266510Y0353287D02*
X0267510Y0353287D01*
X0267510Y0354286D02*
X0266510Y0354286D01*
X0262951Y0349293D02*
X0228362Y0349293D01*
X0228300Y0348295D02*
X0262951Y0348295D01*
X0262951Y0347296D02*
X0228300Y0347296D01*
X0228300Y0346298D02*
X0263152Y0346298D01*
X0251900Y0341000D02*
X0251900Y0245500D01*
X0256400Y0241000D01*
X0256400Y0239300D01*
X0257000Y0238700D01*
X0257000Y0238500D01*
X0256728Y0243500D02*
X0256728Y0243500D01*
X0257995Y0243500D01*
X0256728Y0243500D01*
X0258113Y0243451D02*
X0265887Y0243451D01*
X0268113Y0243451D02*
X0274461Y0243451D01*
X0274461Y0244449D02*
X0270020Y0244449D01*
X0271019Y0245448D02*
X0274461Y0245448D01*
X0274461Y0246446D02*
X0271561Y0246446D01*
X0271975Y0247445D02*
X0274461Y0247445D01*
X0274567Y0248443D02*
X0272000Y0248443D01*
X0272000Y0249442D02*
X0274980Y0249442D01*
X0275752Y0250440D02*
X0271608Y0250440D01*
X0271132Y0251439D02*
X0277249Y0251439D01*
X0277566Y0252437D02*
X0270134Y0252437D01*
X0270006Y0254434D02*
X0275035Y0254434D01*
X0274621Y0255433D02*
X0271004Y0255433D01*
X0271555Y0256432D02*
X0274461Y0256432D01*
X0274461Y0257430D02*
X0271969Y0257430D01*
X0272000Y0258429D02*
X0274461Y0258429D01*
X0274461Y0259427D02*
X0272000Y0259427D01*
X0271614Y0260426D02*
X0274461Y0260426D01*
X0274461Y0261424D02*
X0271147Y0261424D01*
X0270148Y0262423D02*
X0274461Y0262423D01*
X0274461Y0263421D02*
X0268185Y0263421D01*
X0269991Y0264420D02*
X0274661Y0264420D01*
X0275075Y0265418D02*
X0270989Y0265418D01*
X0271549Y0266417D02*
X0275005Y0266417D01*
X0274006Y0267415D02*
X0271963Y0267415D01*
X0272000Y0268414D02*
X0273008Y0268414D01*
X0272009Y0269412D02*
X0272000Y0269412D01*
X0265815Y0263421D02*
X0258185Y0263421D01*
X0257995Y0263500D02*
X0256005Y0263500D01*
X0254168Y0264261D01*
X0253900Y0264529D01*
X0253900Y0262471D01*
X0254168Y0262739D01*
X0256005Y0263500D01*
X0257995Y0263500D01*
X0255815Y0263421D02*
X0253900Y0263421D01*
X0253900Y0264420D02*
X0254009Y0264420D01*
X0249900Y0264420D02*
X0249339Y0264420D01*
X0249539Y0263421D02*
X0249900Y0263421D01*
X0249900Y0262423D02*
X0249539Y0262423D01*
X0249539Y0261424D02*
X0249900Y0261424D01*
X0249900Y0260426D02*
X0249539Y0260426D01*
X0249539Y0259427D02*
X0249900Y0259427D01*
X0249900Y0258429D02*
X0249539Y0258429D01*
X0249539Y0257430D02*
X0249900Y0257430D01*
X0249900Y0256432D02*
X0249539Y0256432D01*
X0249379Y0255433D02*
X0249900Y0255433D01*
X0249900Y0254434D02*
X0248965Y0254434D01*
X0248117Y0253436D02*
X0249900Y0253436D01*
X0253900Y0253436D02*
X0255851Y0253436D01*
X0256005Y0253500D02*
X0254168Y0252739D01*
X0253900Y0252471D01*
X0253900Y0254529D01*
X0254168Y0254261D01*
X0256005Y0253500D01*
X0257995Y0253500D01*
X0256005Y0253500D01*
X0258149Y0253436D02*
X0265851Y0253436D01*
X0268149Y0253436D02*
X0275883Y0253436D01*
X0274461Y0242452D02*
X0270119Y0242452D01*
X0271117Y0241454D02*
X0274461Y0241454D01*
X0274461Y0240455D02*
X0271602Y0240455D01*
X0272000Y0239457D02*
X0274716Y0239457D01*
X0275129Y0238458D02*
X0272000Y0238458D01*
X0273000Y0236250D02*
X0294750Y0236250D01*
X0299000Y0255500D02*
X0299252Y0255752D01*
X0295406Y0259427D02*
X0295224Y0259427D01*
X0295224Y0260426D02*
X0295406Y0260426D01*
X0295406Y0261424D02*
X0295224Y0261424D01*
X0292634Y0264420D02*
X0283197Y0264420D01*
X0283253Y0265418D02*
X0282783Y0265418D01*
X0290747Y0265418D02*
X0292634Y0265418D01*
X0292634Y0266417D02*
X0291745Y0266417D01*
X0286535Y0275403D02*
X0286000Y0275403D01*
X0286000Y0276402D02*
X0286535Y0276402D01*
X0286535Y0277400D02*
X0286000Y0277400D01*
X0286000Y0278399D02*
X0286535Y0278399D01*
X0286535Y0279397D02*
X0286000Y0279397D01*
X0286000Y0280396D02*
X0286535Y0280396D01*
X0286535Y0281394D02*
X0286000Y0281394D01*
X0286000Y0282393D02*
X0286535Y0282393D01*
X0286891Y0283391D02*
X0286000Y0283391D01*
X0305918Y0270411D02*
X0308261Y0270411D01*
X0309259Y0269412D02*
X0306916Y0269412D01*
X0307915Y0268414D02*
X0320258Y0268414D01*
X0321256Y0267415D02*
X0317156Y0267415D01*
X0317481Y0266417D02*
X0322255Y0266417D01*
X0323253Y0265418D02*
X0317481Y0265418D01*
X0317481Y0264420D02*
X0324252Y0264420D01*
X0331000Y0263421D02*
X0335815Y0263421D01*
X0338185Y0263421D02*
X0345815Y0263421D01*
X0344009Y0264420D02*
X0339991Y0264420D01*
X0340989Y0265418D02*
X0343011Y0265418D01*
X0342451Y0266417D02*
X0341549Y0266417D01*
X0341963Y0267415D02*
X0342037Y0267415D01*
X0342000Y0268414D02*
X0342000Y0268414D01*
X0342000Y0269412D02*
X0342000Y0269412D01*
X0341621Y0270411D02*
X0342379Y0270411D01*
X0342838Y0271409D02*
X0341162Y0271409D01*
X0340163Y0272408D02*
X0343837Y0272408D01*
X0344024Y0274405D02*
X0339976Y0274405D01*
X0340974Y0275403D02*
X0343026Y0275403D01*
X0342457Y0276402D02*
X0341543Y0276402D01*
X0341956Y0277400D02*
X0342044Y0277400D01*
X0342000Y0278399D02*
X0342000Y0278399D01*
X0342000Y0279397D02*
X0342000Y0279397D01*
X0341627Y0280396D02*
X0342373Y0280396D01*
X0342823Y0281394D02*
X0341177Y0281394D01*
X0340178Y0282393D02*
X0343822Y0282393D01*
X0344039Y0284390D02*
X0339961Y0284390D01*
X0340959Y0285388D02*
X0343041Y0285388D01*
X0342463Y0286387D02*
X0341537Y0286387D01*
X0341950Y0287385D02*
X0342050Y0287385D01*
X0342000Y0288384D02*
X0342000Y0288384D01*
X0342000Y0289382D02*
X0342000Y0289382D01*
X0341633Y0290381D02*
X0342367Y0290381D01*
X0342808Y0291379D02*
X0341192Y0291379D01*
X0340193Y0292378D02*
X0343807Y0292378D01*
X0344054Y0294375D02*
X0339946Y0294375D01*
X0340945Y0295373D02*
X0343055Y0295373D01*
X0342469Y0296372D02*
X0341530Y0296372D01*
X0341944Y0297370D02*
X0342056Y0297370D01*
X0342000Y0298369D02*
X0342000Y0298369D01*
X0342000Y0299368D02*
X0342000Y0299368D01*
X0341639Y0300366D02*
X0342361Y0300366D01*
X0342793Y0301365D02*
X0341207Y0301365D01*
X0340208Y0302363D02*
X0343792Y0302363D01*
X0343851Y0304360D02*
X0340149Y0304360D01*
X0341145Y0305359D02*
X0342855Y0305359D01*
X0342256Y0306357D02*
X0341744Y0306357D01*
X0342186Y0308000D02*
X0346500Y0308000D01*
X0346500Y0309000D01*
X0337500Y0309000D01*
X0337500Y0308000D01*
X0342186Y0308000D01*
X0342134Y0310351D02*
X0341866Y0310351D01*
X0341357Y0311350D02*
X0342643Y0311350D01*
X0343494Y0312348D02*
X0340506Y0312348D01*
X0338911Y0313347D02*
X0345089Y0313347D01*
X0344084Y0314345D02*
X0339916Y0314345D01*
X0340915Y0315344D02*
X0343085Y0315344D01*
X0342482Y0316342D02*
X0341518Y0316342D01*
X0341932Y0317341D02*
X0342068Y0317341D01*
X0342000Y0318339D02*
X0342000Y0318339D01*
X0342000Y0319338D02*
X0342000Y0319338D01*
X0341651Y0320336D02*
X0342349Y0320336D01*
X0342764Y0321335D02*
X0341236Y0321335D01*
X0340238Y0322333D02*
X0343762Y0322333D01*
X0344099Y0324330D02*
X0339901Y0324330D01*
X0340900Y0325329D02*
X0343100Y0325329D01*
X0342488Y0326327D02*
X0341512Y0326327D01*
X0341926Y0327326D02*
X0342074Y0327326D01*
X0342000Y0328324D02*
X0342000Y0328324D01*
X0342000Y0329323D02*
X0342000Y0329323D01*
X0341658Y0330321D02*
X0342342Y0330321D01*
X0342756Y0331320D02*
X0341244Y0331320D01*
X0340253Y0332318D02*
X0343747Y0332318D01*
X0348437Y0333317D02*
X0350700Y0333317D01*
X0350700Y0334315D02*
X0349886Y0334315D01*
X0350253Y0332318D02*
X0350700Y0332318D01*
X0350700Y0324330D02*
X0349901Y0324330D01*
X0350700Y0323332D02*
X0348401Y0323332D01*
X0350238Y0322333D02*
X0350700Y0322333D01*
X0345599Y0323332D02*
X0338401Y0323332D01*
X0330000Y0315500D02*
X0326000Y0311500D01*
X0326000Y0296500D01*
X0338293Y0293376D02*
X0345707Y0293376D01*
X0348293Y0293376D02*
X0350700Y0293376D01*
X0350700Y0292378D02*
X0350193Y0292378D01*
X0349946Y0294375D02*
X0350700Y0294375D01*
X0345671Y0303362D02*
X0338329Y0303362D01*
X0337500Y0308354D02*
X0346500Y0308354D01*
X0336500Y0308354D02*
X0328000Y0308354D01*
X0330000Y0315500D02*
X0330000Y0332500D01*
X0336000Y0338500D01*
X0337000Y0338500D01*
X0348473Y0343302D02*
X0350700Y0343302D01*
X0350700Y0342303D02*
X0350268Y0342303D01*
X0345855Y0356283D02*
X0233145Y0356283D01*
X0271876Y0330321D02*
X0271926Y0330321D01*
X0272134Y0329323D02*
X0272924Y0329323D01*
X0272079Y0327326D02*
X0274626Y0327326D01*
X0274461Y0326327D02*
X0271729Y0326327D01*
X0271124Y0325329D02*
X0274461Y0325329D01*
X0274461Y0324330D02*
X0270108Y0324330D01*
X0268401Y0323332D02*
X0274461Y0323332D01*
X0274461Y0322333D02*
X0270238Y0322333D01*
X0271236Y0321335D02*
X0274461Y0321335D01*
X0300032Y0327326D02*
X0300877Y0327326D01*
X0323161Y0320336D02*
X0324161Y0320336D01*
X0324161Y0319338D02*
X0323161Y0319338D01*
X0323161Y0318339D02*
X0324161Y0318339D01*
X0324161Y0317341D02*
X0323161Y0317341D01*
X0323161Y0316342D02*
X0324161Y0316342D01*
X0324161Y0315344D02*
X0323161Y0315344D01*
X0338257Y0283391D02*
X0345743Y0283391D01*
X0348257Y0283391D02*
X0350700Y0283391D01*
X0350700Y0282393D02*
X0350178Y0282393D01*
X0349961Y0284390D02*
X0350700Y0284390D01*
X0350700Y0274405D02*
X0349976Y0274405D01*
X0350700Y0273406D02*
X0348221Y0273406D01*
X0350163Y0272408D02*
X0350700Y0272408D01*
X0345779Y0273406D02*
X0338221Y0273406D01*
X0349991Y0264420D02*
X0350700Y0264420D01*
X0350700Y0263421D02*
X0348185Y0263421D01*
X0350148Y0262423D02*
X0350700Y0262423D01*
X0343852Y0262423D02*
X0340148Y0262423D01*
X0341147Y0261424D02*
X0342853Y0261424D01*
X0348149Y0253436D02*
X0350700Y0253436D01*
X0350700Y0254434D02*
X0350006Y0254434D01*
X0350134Y0252437D02*
X0350700Y0252437D01*
X0350700Y0244449D02*
X0350020Y0244449D01*
X0350700Y0243451D02*
X0348113Y0243451D01*
X0345887Y0243451D02*
X0338113Y0243451D01*
X0335887Y0243451D02*
X0331000Y0243451D01*
X0331000Y0244449D02*
X0333980Y0244449D01*
X0332981Y0245448D02*
X0331000Y0245448D01*
X0331000Y0246446D02*
X0332439Y0246446D01*
X0332025Y0247445D02*
X0331000Y0247445D01*
X0331000Y0248443D02*
X0332000Y0248443D01*
X0332000Y0249442D02*
X0331000Y0249442D01*
X0331000Y0250440D02*
X0332392Y0250440D01*
X0332868Y0251439D02*
X0331000Y0251439D01*
X0331000Y0252437D02*
X0333866Y0252437D01*
X0333881Y0242452D02*
X0331000Y0242452D01*
X0331875Y0241454D02*
X0332883Y0241454D01*
X0332000Y0238500D02*
X0337000Y0238500D01*
X0350119Y0242452D02*
X0350700Y0242452D01*
X0311000Y0255500D02*
X0311000Y0263500D01*
X0311063Y0263500D01*
X0273000Y0236250D02*
X0267250Y0230500D01*
X0267000Y0230500D01*
X0267000Y0228500D01*
X0272000Y0228473D02*
X0274461Y0228473D01*
X0274461Y0227475D02*
X0271987Y0227475D01*
X0271574Y0226476D02*
X0274461Y0226476D01*
X0274461Y0225478D02*
X0271049Y0225478D01*
X0270050Y0224479D02*
X0274461Y0224479D01*
X0274810Y0223481D02*
X0249190Y0223481D01*
X0249539Y0224479D02*
X0253950Y0224479D01*
X0252951Y0225478D02*
X0249539Y0225478D01*
X0249539Y0226476D02*
X0252426Y0226476D01*
X0252013Y0227475D02*
X0249539Y0227475D01*
X0249539Y0228473D02*
X0252000Y0228473D01*
X0252000Y0229472D02*
X0249539Y0229472D01*
X0249539Y0230470D02*
X0252404Y0230470D01*
X0252898Y0231469D02*
X0249539Y0231469D01*
X0249528Y0232467D02*
X0253896Y0232467D01*
X0260104Y0232467D02*
X0263896Y0232467D01*
X0262898Y0231469D02*
X0261102Y0231469D01*
X0261596Y0230470D02*
X0262404Y0230470D01*
X0262000Y0229472D02*
X0262000Y0229472D01*
X0262000Y0228473D02*
X0262000Y0228473D01*
X0261987Y0227475D02*
X0262013Y0227475D01*
X0262426Y0226476D02*
X0261574Y0226476D01*
X0261049Y0225478D02*
X0262951Y0225478D01*
X0263950Y0224479D02*
X0260050Y0224479D01*
X0267145Y0221484D02*
X0247661Y0221484D01*
X0248659Y0222482D02*
X0275341Y0222482D01*
X0274461Y0229472D02*
X0272000Y0229472D01*
X0271596Y0230470D02*
X0274461Y0230470D01*
X0274461Y0231469D02*
X0271102Y0231469D01*
X0272046Y0232467D02*
X0274472Y0232467D01*
X0274886Y0233466D02*
X0273044Y0233466D01*
X0266700Y0214494D02*
X0230016Y0214494D01*
X0230741Y0213496D02*
X0266700Y0213496D01*
X0266700Y0212497D02*
X0232020Y0212497D01*
X0233819Y0211499D02*
X0266700Y0211499D01*
X0253994Y0254434D02*
X0253900Y0254434D01*
X0242025Y0253436D02*
X0228300Y0253436D01*
X0228300Y0254434D02*
X0241177Y0254434D01*
X0240763Y0255433D02*
X0228300Y0255433D01*
X0228300Y0256432D02*
X0240602Y0256432D01*
X0240602Y0257430D02*
X0228300Y0257430D01*
X0228300Y0258429D02*
X0240602Y0258429D01*
X0240602Y0259427D02*
X0228300Y0259427D01*
X0228300Y0260426D02*
X0240602Y0260426D01*
X0240602Y0261424D02*
X0228300Y0261424D01*
X0228300Y0262423D02*
X0240602Y0262423D01*
X0240602Y0263421D02*
X0228300Y0263421D01*
X0228300Y0264420D02*
X0240803Y0264420D01*
X0241217Y0265418D02*
X0228300Y0265418D01*
X0228300Y0266417D02*
X0242122Y0266417D01*
X0243941Y0267415D02*
X0228300Y0267415D01*
X0228300Y0268414D02*
X0242724Y0268414D01*
X0241514Y0269412D02*
X0228300Y0269412D01*
X0228300Y0270411D02*
X0240874Y0270411D01*
X0240510Y0271409D02*
X0228300Y0271409D01*
X0228300Y0272408D02*
X0240402Y0272408D01*
X0240402Y0273406D02*
X0228300Y0273406D01*
X0248020Y0266417D02*
X0249900Y0266417D01*
X0249900Y0265418D02*
X0248925Y0265418D01*
D19*
X0238000Y0252250D03*
X0238000Y0283250D03*
X0286000Y0259500D03*
X0299000Y0255500D03*
X0292000Y0244500D03*
X0320000Y0263500D03*
X0314500Y0275000D03*
X0327000Y0291500D03*
X0318000Y0305500D03*
X0330000Y0306500D03*
X0326000Y0331500D03*
X0319000Y0331500D03*
X0311000Y0331500D03*
X0304000Y0331500D03*
X0297000Y0329500D03*
X0297000Y0324500D03*
X0288000Y0326500D03*
X0284000Y0330500D03*
X0284000Y0315500D03*
X0295500Y0292500D03*
X0296750Y0286000D03*
X0238000Y0318250D03*
X0242000Y0349500D03*
X0304000Y0339500D03*
X0311000Y0339500D03*
X0319000Y0339500D03*
X0326000Y0339500D03*
X0346000Y0349500D03*
X0257500Y0218000D03*
X0239500Y0219000D03*
D20*
X0337000Y0258500D02*
X0347000Y0258500D01*
X0318000Y0305500D02*
X0309000Y0305500D01*
X0295500Y0319000D01*
X0292760Y0319000D01*
X0291000Y0317240D01*
X0291000Y0323500D01*
X0288000Y0326500D01*
X0283740Y0330760D01*
X0274740Y0330760D01*
X0267000Y0338500D01*
X0278929Y0338618D02*
X0281047Y0336500D01*
X0286000Y0336500D01*
X0287260Y0337760D01*
X0287500Y0337760D01*
X0288760Y0336500D01*
X0294000Y0336500D01*
X0294740Y0335760D01*
X0296000Y0335760D01*
X0296740Y0335760D01*
X0297000Y0335500D01*
X0297000Y0329500D01*
X0297000Y0324500D01*
X0303000Y0324500D01*
X0304000Y0323500D01*
X0304000Y0321500D01*
X0306339Y0321500D01*
X0287500Y0345240D02*
X0287500Y0346000D01*
X0275250Y0349240D02*
X0274490Y0350000D01*
D21*
X0288000Y0270500D03*
X0306000Y0256500D03*
M02*
