G75*
%MOIN*%
%OFA0B0*%
%FSLAX25Y25*%
%IPPOS*%
%LPD*%
%AMOC8*
5,1,8,0,0,1.08239X$1,22.5*
%
%ADD10R,0.06706X0.05918*%
%ADD11C,0.07137*%
%ADD12C,0.08200*%
%ADD13R,0.03162X0.06902*%
%ADD14R,0.05524X0.08674*%
%ADD15R,0.05918X0.06706*%
%ADD16R,0.10249X0.10249*%
%ADD17C,0.05162*%
D10*
X0291000Y0309760D03*
X0291000Y0317240D03*
X0296000Y0335760D03*
X0296000Y0343240D03*
X0287500Y0345240D03*
X0287500Y0337760D03*
D11*
X0245071Y0231550D02*
X0245071Y0225213D01*
X0245071Y0240961D02*
X0245071Y0247298D01*
X0245071Y0256709D02*
X0245071Y0263046D01*
X0245071Y0272457D02*
X0245071Y0278794D01*
X0245071Y0288206D02*
X0245071Y0294543D01*
X0245071Y0303954D02*
X0245071Y0310291D01*
X0245071Y0319702D02*
X0245071Y0326039D01*
X0245071Y0335450D02*
X0245071Y0341787D01*
X0278929Y0341787D02*
X0278929Y0335450D01*
X0278929Y0326039D02*
X0278929Y0319702D01*
X0278929Y0310291D02*
X0278929Y0303954D01*
X0278929Y0294543D02*
X0278929Y0288206D01*
X0278929Y0278794D02*
X0278929Y0272457D01*
X0278929Y0263046D02*
X0278929Y0256709D01*
X0278929Y0247298D02*
X0278929Y0240961D01*
X0278929Y0231550D02*
X0278929Y0225213D01*
D12*
X0267000Y0228500D03*
X0267000Y0238500D03*
X0267000Y0248500D03*
X0257000Y0248500D03*
X0257000Y0238500D03*
X0257000Y0228500D03*
X0257000Y0258500D03*
X0257000Y0268500D03*
X0267000Y0268500D03*
X0267000Y0258500D03*
X0267000Y0278500D03*
X0267000Y0288500D03*
X0267000Y0298500D03*
X0257000Y0298500D03*
X0257000Y0288500D03*
X0257000Y0278500D03*
X0257000Y0308500D03*
X0257000Y0318500D03*
X0267000Y0318500D03*
X0267000Y0308500D03*
X0267000Y0328500D03*
X0267000Y0338500D03*
X0257000Y0338500D03*
X0257000Y0328500D03*
X0337000Y0328500D03*
X0337000Y0338500D03*
X0347000Y0338500D03*
X0347000Y0328500D03*
X0347000Y0318500D03*
X0347000Y0308500D03*
X0337000Y0308500D03*
X0337000Y0318500D03*
X0337000Y0298500D03*
X0337000Y0288500D03*
X0337000Y0278500D03*
X0347000Y0278500D03*
X0347000Y0288500D03*
X0347000Y0298500D03*
X0347000Y0268500D03*
X0347000Y0258500D03*
X0337000Y0258500D03*
X0337000Y0268500D03*
X0337000Y0248500D03*
X0337000Y0238500D03*
X0337000Y0228500D03*
X0347000Y0228500D03*
X0347000Y0238500D03*
X0347000Y0248500D03*
D13*
X0315000Y0263500D03*
X0311063Y0263500D03*
X0307126Y0263500D03*
X0303189Y0263500D03*
X0299252Y0263500D03*
X0295315Y0263500D03*
D14*
X0290197Y0278559D03*
X0320118Y0278559D03*
D15*
X0274490Y0350000D03*
X0267010Y0350000D03*
D16*
X0306339Y0321500D03*
X0323661Y0321500D03*
D17*
X0318000Y0305500D03*
X0297000Y0324500D03*
M02*
